<mxfile host="app.diagrams.net" modified="2022-05-08T15:05:56.182Z" agent="5.0 (Windows NT 10.0; Win64; x64) AppleWebKit/537.36 (KHTML, like Gecko) Chrome/101.0.4951.54 Safari/537.36" etag="1yX7IRfE00WyO0_FFcox" version="18.0.1" type="github">
  <diagram id="1pnFlymHPf_c9FXvxogB" name="第 1 页">
    <mxGraphModel dx="1422" dy="839" grid="1" gridSize="10" guides="1" tooltips="1" connect="1" arrows="1" fold="1" page="1" pageScale="1" pageWidth="827" pageHeight="1169" math="0" shadow="0">
      <root>
        <mxCell id="0" />
        <mxCell id="1" parent="0" />
        <mxCell id="pCphS5BoQxUUH24VesHs-1" value="" style="shape=image;verticalLabelPosition=bottom;labelBackgroundColor=default;verticalAlign=top;aspect=fixed;imageAspect=0;image=data:image/png,iVBORw0KGgoAAAANSUhEUgAAAQoAAAE6CAYAAADusRxkAAAgAElEQVR4nOy995ccyZHn+TH3ECkqsySqChroRmtN9pKznJndndm7+X/vvXvvfrl7szt7nOGQbIqWbKChC0BpkTKEu9v94JFZBTQohw3Ou4HVK5UZER7hwtzsa1+zFK9eAYIG6rrGO08IHq+BQAAUEF7KS3kp//+XxFqMMVhjSUyCtQkIJADee8qypK4rQlB88IiAiv6l7/ulvJSX8gLFO4eIIBjarTYiBmMNifeeophSliUAQV8qh5fyUv4jSwgBVCmmBRqULEtJaldTliXee8QYjEQ3Q3mpMF7KS/mPKNGiEJx3aBEASKqqAsBa+5e8t5fyUl7KvzMREXwIOO8wrq6fffsvclMv5aW8lH9fMvcuVDEizyqGly7HS3kp/9FFjEQXpNEPiWr4LUe+VBgv5aW8lChJ0DA3MV7KS3kpL+V5Yl4qif+I8u9lzIVv34v8ltdfyl9SkhCBihfU3J/K8hR+X8D2+Vedvfr73ajZEX/M3Z2eo+gf+Vx//NG/+xnOvvv7rx3+6Dv4/e2e9sYffuWZ23t2nM6O8+++0p9z1j5v/M+O73ehuM62+ftm6F9abZoX29ysS3S+aWjz9bvPkdOFqHp6jedM02fP+7Y07Qkw54w8fbTo7xqYZ6aSKqcctWfv7bd9P6+d0/dOj3zqroiLUE7hI4nHBQ1PnTX7efrVtKDa9KQ2k//Zlp//tPLUFfnWdSPoZTir0J93PX3mPyUO5/N7h+e8eqZn5PQJfvd4/T5RtElVOG1pdu3mZzNBnnrmP7Hd2XmnVz9tWUzz6nM6T4P+G5/z3ybJi7MmBLCoKmiI1FCaSS7S9N7TA/HU2UExgKrBYJoDNFLNgYDiCc0EkqeWV/xDUAXBICpYGktALapgBJAQ2xdFJS6sZ0Wb3VgQTBDQuJSMyFOL79tyZsES5jemKs0kNM11A2Z+ZDhdmM1LtiHDxBuMBLkQNL6up2fNhjWIEjSghjmCjYKKmStI89SyeGanU0FUMHNFAOhMbUujb09Jel59fJ7ngOGG06UuJE3/KYjM7zfq8GZD0dOVIY3dNus/MUJQ5ld7tq//UJmp4qeVVMCoQdQgWII2i1SUQIhD3vSBnmn+23fyHPtEz1gQAqhg1GAQxM82nubaouhMIYp8q70XKckLa0ktSIKY2OFCszg16ukQXDysOXymeVWiNk0ELGCMJWDiuQRCABGDI+AVfHOOqDbHnA7obIfOkhTBIQpBBSRF1KMaF6ZvtPrToePZ7hJ/G1WsGEQSMAmJxEX+nAefKzUN8W8XPF49noBiEez83oyCwTObukEUrwExcaEGBWuiojAmqjsJjkQsGqKyDBow1iDGNn0t+OAwgLVppOiKmSsJ0zy3ypnFMpvXzcJN0hzvAqp+vuuaRjkZMc1CFlCHC3UcZ2Maa2e2DyhqADEYtViTxT6X0PS1YLSxmggE9dEtnilHlKA+tiOgwROa958dpz9UpGkvXlNAAkJUvEYt1uY4VTR4jCgaHE9ZtRJXbpzFp+pzrsyfmQuzzcSIiWMaIJEkzlcNiFFiJDKOSVCdp2aG08vEds4897ea+jPLC1MUM5N5Ukwo6kncXkLAo1hrWVjoYcKz5xB7wAiCpy4nTMoKNSkqHjRAsCz2VuZaOBonZ/eIOJBx54XgHMPRGBcKgtQoCYGUFEOv1cFmyXzv+rbybiwNFGtgOh5R1AE16ekCn28Vs58BkUbxWIuRhDTNYmaegAsBkwhO4+4/cwxO/WJFjKAYRC1WLDZS8amKgpPJCZWvKIsC9YoLUf0kaUans0Cet+i2u+QmRYIniVsjNQE/t5pkpstmLWIaBYaBuq44Oj5kWk0ZT8fUtZvZEhACvYUFEpvTafXoZC1y28b7iuBrxAq+OdSI4L0HUUQsk8mA2pWo1cbSjNbibPwUP98tJJp8JAbaWU6e5LRMSq1ubk3+KdjLGWemUXQGEYOvPePpmEldU2kc7363QyvNTy0jCafnzzpwtmL17Cw4q7wahR9iTkWKpS6mFMUUH2owARdqbGJpZR0Wu4v40uMIqD1rl/5b7Kg/Xl6gonCoL7n36Dd8euczKnFgDSEo66vn+c8f/BULpgshPL1BYEANTku+uPUrvrx/i9DJqImTa2PxIv/5gx/RNhkJQjKfZDQ9GS9mRTDi2Tl6zK+++gUnbkBpatRappOa1e4G33/7P3Fx/UKzEHWusWc/FUG02UWs59bjL/j8zjdMUYwx8b2ZNPdhCMzAzjRrk5kOa0vrnOutsrl8jm6nQwrNcUIQwSMIFlFtFIQiWKxJQZXxdMTe4RPuP7nDw4OHlLZkXE0JCs4r1iaYJCdNc9rS5frGNa6sbnB5bZ3c5ATvMXbmXglBTONeNO6ZKtYYfPBs7z9ha3eLO9u3GIURhatxIS6sqNcDaZKQSof1xfNcXr7I65deoZvniNhoPptGITW7tFHleLTDL7/4hL2TPcgsLgSQxrpSQASPbyzOOAhpktI2GZuLa6z3NriyeYVWqxV7V5QQTi2TP1RCY9rr7DwPeZaxtXeXX371CbuTYwqjJEH46M33eef622QuiXNsdu7vbEE5VcXRhhMMeWYZTgfsHOxw/8Fddo73GJRjSJXKl3Q7fTZWLvDe1bc531/HSob3VeNaf5cq4fnyAhTFbI/yeCnYK57w2f5nTLOKkAm4lFfanne0oMMCDXIRTbmY6x5dC63YGT3iq6PPGddCaUBDyuvtwNtJSWpSkjq6J9AMnsbJHNdsILGeh3s3+c3OLzhKJgxshbOKr5ReeR67v0pnZZFV20K8YqzQOMLxeiYOsiiU7oSd4X1+c/ArTqwnJBEX1jnWEieRxZGIErAwzchMn/yoQ9/2uNjf5PULr/L29TfomAQJAS+KFwhIY6ILFkPwAZMEnuxs8eWtT7l3cJs9t8sJx9StmspAGQKkM7/aQpXRch3u3HnE5qNlXl+/zPvX3ub80ibGB5BAENOYzNEnNyFGwQajE24+/JrfPPySx6NH7Ll9JmmBs6A2wQvRJAeoIXU5i8UDbu4u8fXjm7z3ytu8cvEKHZMhwUfkRRSDIbUwrg/YGn3J3ZMtXG4p1aNi8GKa3xqN78bq0QAWQ5ec/lGXrvZ4fe9NPnrtfTYWzyEaayn48FsIhL9FlKgoUYM6TydJqCZDvrr7a3756OccZlPKXDClsOrWuJ68inXJfJ6eMR1+zwqIf1k1JMYwGQ/4+s6nfPngC7ZHTzgMY4aU1HWNSsBWLXrDu9w+fMQPrn+fty6/SjfJYr2YvwAZ8oVZFEE9aj2TfMLxwpBhp6BIPEnVYaU9ZZq4COw1MtPyEekNqK2p84JhZ8BRzzGxgroWK+0Jx2nJQmjTkjRafzPAsVEyiuJDzfF4lztHNzlo77GfTRmknlocaS9nVB7wxegu14orrPYvI7Vim+1CBbyA14DVDGuEiSuokyFlZ8A4rygSxYmAadBriUrKqMOEQDCG2hvwRxjXIvc5D8aPuXd3h5FRPrryJoskGA1gorJQI+BNBP1wbO3c418//zF3j+6wZw4ZdKYU6YTKVgSbUnoiEIvixILkZL7NQX3Cnu5x//EWD8eH/Ld3/iuXFtdJg6VxkzECqp6gnuFkzC9u/5Sf3f0J+7rHKJsw7tYUSU3dKDIvcTcOKhgMebCMqkMO6g4PDh9xr9ji4+pjfnD9PVZMG+89moIJUZnWZsK0dchJZ49p21ASCMZSi+BFCIanCidpAHGQa0LbZ6Suw+PdY47MlP/65l9zYekcwXlEBZXfryzmrpYIJjQbgAVkyq17P+fr3U856B5y3CkYGkdic/ayEaPE0TKGLMwA89k9/iEtCoKjKMZ8ee/X/OvNf+F+8YDhQknRhonxlKGI2FpIOaiH7I+HPLl1zMgU/ODi22Riv+XMvAh5cWAmiopnagsO8yGHrSGTpCaXPpvJhMJ6ghcSnWFTQhMQwAh4qZmaIYPkmP28ZGAETbqcS8cM05LSeahTAIJEsDF6gxbnHWkubD95wp3hXfbah+znU06sp8bTTtoxKjK9xzsnr/F27wqpsUjwGJ0BSQ06ryai1FbRtMTlY0atEaMsMMGjJhrlobEKDEpUVQaPRUOKDTnWW05Cl4PJlKPflIgVfnjpbTI1GFXcDBxr4oePDx7yT5/+I785/JLBwpDj1pjDZEiZ1tTGgySYNENEcMFRhxg/EW/J0owDn7MUehwfldRfZ/zdWz/ilcXziFfEBNCAD44QSr6680t+euufeJI/4TAfMGqXDE1FZZVgBAxIkiDWUpRlBJsDpKkh9S3adY9BXTG4H0jSnB9dfI9ukuJ8iSUlqMebgqk95DjZY5gnTCXgBJy1eGNQEzGKmTcXw4OC9YbMpeTa4diXDB7XSKvLP7z7t6xIHnGrP9DzEATjDYrFKAR13Hz8BZ/c/RcehQcctI44zKeMjCehy1E2ZWw9SyKkGE6jXP65V4+zvrl/FayxiFZs793ls3s/Y8vd43DxkP3WkFEWcElCwEU3zYOkGYda8GQ0Irubcm1xk0v99RgdkWfb+m5VxwtTFFYstQeCEHxANWCISuAseivEcNFsK595gWJCPBZtgOaZFpmBWDNEoLEnJC5uY8AijIshj08ec+LHTDpKaeOOGBWJgtQM6j0e7N/naP0DNtIFpA5Ne9EHhplrQTRVvaBOsQHwAa+ObneJtaU1ckmZzXIflLquKOuKcTmh0hqsY4qDBcM3J1P+x4OcleVFrvcv0g4pogEJASOew/Euv7j3M74c3eRktWAvGTGWgsoK0KbXWmB9cZWlTp88zxlPC4aTAYfDQwZuhJMJVVJwEmrcAvz05BckD1Lab/0da2mP1CmpBUzNN4++4BcPfsxR64BBe8ogcwytUiJkSZuN/gpL7UX6C8toCEynA46G+xyOj5iEgloKggFt59wZ3eN/3mvR6yzx3vnrpOUpqG0awBSxBDE4DEFSFrsrLC2sYFGsOowIZV0xKkecTAbUUhOspwwTkjRlz1t+evAFV44v81frbyPOYRoc+HlL5ywxTgAxSvAlx+MT7j25xU/v/BP3/V2O2mMmtqIMNWISUEuYR6d07to2peCeiXmefkcXugmvqlJLwf2j29we3WGwNGWcV0zClFayyLm1S6RimEwHHA0PGfkJVWooOjV3Jnf5+uAuS71FFmwGIUZE5mFrhe8yP+sFgplN2qpR1HqCOIJxeHGo8XjxBPEop3Ux4nA4VAJBa7Q5xhtPMIGAw4nHy8xInQFTp6E+EcGKcDLc4+6T3zCUAeO0ZCIF0xAw1kZOQTpF9Yj7o0c8GB2wtLZEXjksARUf76UhbYhEnMIaAePR5n7QhE6+xg/f/Qeu5+dJtcIj1Hicn3J4vM3N3Zt89eRrhtWUWgyF8dhei9v1XX65f5O15U1aLGAqT2IVH455uPsVX+39isPuIfutEft2TIUnsznXNm7w3pX3uLFylRXtkKjFi6eUMTd3vuJn93/FraP7TIKnTgOFKhPr+HRwkyuHN/ibKx+iU0c7Tdg/OeDXd37G/fCQ/YUBe9mI47RkgmdxYY03LrzJx1c/5JLZIKMVF7uO2a3u8cmDT/lk60uOiwHYgol48oWK29UD/uXxr9lYXeOCWQBnMUmjQCXgjKe0UGJpZX1eufgh//mVv6aDp6MViUIRSnaKXT7d+pxbj7/heHpInQROtCTpKneKB9wZP+J9+wa5QN5YYs8LGUZ7L1ptGpTpdMD23kNuPf6Kr/e+4mG6xX7/mIEdU1BTm8aKkoCXiCGF+XVnoVVzRiudgpZKtG5VlESELLM8Ptrh3sktDrJD9lsFx3JCoTWvX3yN//LOP7CobU4mj/inz/+Rz7a/pDQVdWvCrm/z6cltrtTXeKVzHindKX7DMxHiP4No0Kc28Bfqeggh8g8UrAoJBquKJWBmPIY5uBaxBpHonBppTE812CDYGTrPPLg33+2FaParCKkVgi/Z2r3N/ughIS/x6hAVOiZHjMX5gFKi1rAz3eGzvTtcWr7A+aSF82UzOXS+m8xFTolNognWt2i7dRan17mSXaVf1ogqlTiMqaiWLvHW6jXOtRf56Tefsj8dEpIakyjH5QGf79/k7UvvsNReJMeSeM/BcIdb25+xVz9i0ikotESDJbcdXt28wd+/+/dcl8ssVx16dU4SAib1uLTi2rlznO9t8n/f+jG/eXQb58FLSSHHbJeP+HLvJq+tXuNq0qcuBmw9uc29wRa7rTGHScVQA5UXVhfP8YPX/oaPNj7mYjjHStmhQwfnHfhjrneXuPLaJZbaK3xy91dsD/aobYEzxwyTFl8Pvubm0Q3W1j8kqWeTzjQWYCPBInWLXr3JJq+xUVuWqpJMA87WDDtXufHmNf5n+Ed+8vWPmdopIQ34MMHJkAkThlpjjCF/lnBw5r8ZXyKoULsxn3z9U36z9Wv22GE/P2AvP+HIjqiNb0h00Wi1Guec0fl2RAOINQtqFs6Ou9RsJirgVUnwOF+xO9phu9hlklZMxOM0Zbm1yvubP+QG75GVBW92NpksH3J0tMcTt09pHVMz5m79hMfumEvpRWwlJJzO9+9aXqCioOnbGRVVoXE/bBBSb2n5CFTNB0KjAhEBhyXRBIttFEN0MuZsvWd8NlWLYnHqGZaHPDy6w1HYoWqVTLXEmJxL61eovGN7/wnBVGgqHBT7fHV4i+8Vb7HRuoAGwZs5/eWZhwnofIdJsHTI/Apdt86q22R9WmNcoKLGJJ7KjOi1MrKLP6QYjPnne79gFCaENGXgj7k9uc/Xx/e40rlInlhSU3M83eb+6A6j9pBRXlKK4p3l3PIlfvDm/851+xprwzbnqj5916JtBC0LCsZM8g7pQka4EqgGE24d38elDpeW7FXbfD24xdb4A66ubnBy/ITbu7d44rfZbQ0Z2GhxdVp93rr+ER9v/DXnw3nWx33OVW3ykBKCx9JF/Zi0lfF3Gz8kc8r/9dn/Q2nGuKRkmOTcHaV8dnCbtzbfIzGGTB2igYBELEc0EuW8oa1LrIaLnCuE1aok10CwNaN6xFpvmWLtgCf3v+b2+B4+N3hTUbkRQ0YMKOjaDhqia3NWUcz3eRVUDRjPkBG3jn/DHb7hoHvMbn7M0BbQyTGaQB3nK56nlcOZSMecRTp74SnLYuaNCCJK7adsnTzksdtl0iqYSI0jZaF9gQvtV9nkAsnwmFX1vN65xBftZY6HBzj1VEnJdr3PdnHEJDjaGkmIRqTZFL9bjOKF5XpEprYFMaiRiOg3OQJiDImxpJKQqCER21gOBqMpJqQYkyHYiLYbmaPuczbcWbacCqIWg6XWikcnD7k3eMBhMmWcKVMVktDlrQvv8faFN2n7jMQ19ULTit3Jfe7v36RO6obkYqGxXeYywywawlKYMSbEo1IRtCIEhwmeLEDiM1LfZ6lc4xWu8sHKDTbzFqmvI7KSeCaMuH/0kBMzpExHVBzweHCfnXDMNA/UBpwPtE2bty+8z6v5uyyFNRZdj5yMYA2VgJMEtIspuixPV/l44R0+XH6VfoDMOawoPinZLx/zcLjFICnZCcfcnj5mkE6prSPgSIJyvnOBt9c+5IJeYH26wqLrQAiolBhbozYl+D7d6SrX3BW+v/oe13sXyeu443lTM5EJj4pd9jimSEoQR5zeDVahkYnpqQla4sKESipK4xhLTSEKpdCdtlj2CyzKApnPsJpigsEo+OBwDfnqWZGG+mIUUoVcA8ZUuHTMoH3MVrbPI3PCOBH6nXP88PoPeH3tDVLfxoSkiZz9lnn9rXdm1K2G4YlgApHnYWpO6iEjU1GLi6Ho0KbV2qSdLJF5JVfFOMe5zgJraZekshhaWJPifc3x6IQiOEyegti5u/1dy4u1KJgx7KIogpfAsByxM9xhyefkdYJFIlVYFDCohYk9YOBLgjW4Mzy8UwU+UxSn9ChrlGF9wsODO+y6fY7zmqFJqUyL9f4VXlt8A28LbnVu8niwBZkQ7JSd0V3uDe5xpB+zZNskPkW0bmDSszJLTpKGlx8TjKLFZLFYUo3/ByxCi7y0dIPlMqtcMB0OPQzVU0nJxE45CkOGUlNbpaiH7Nf7HJghA1syNYoTONdb4cbaG6yyztIkZ8kHUi8NSckhJFjJ6WgLMylYXEh4s32Fz9IeRTVhamt8UnJcH7JTPGEYjtnxe2ybQ4ZJQSWOgNBKO1zsX+VK+gqr9QrrZZ+WVzAVoi4GZDRDSFnQFp0i52o+4pXWBbYOHxCCpzQlIR1z4HfZLp9wuX2dqgA/y2HQGe9Em9iQJSOnpTl5yGgJuLqg6yEMx5zc32N6PCG1OWVQfAgIfo5fqYQ51+VZm1ygcVk9RRgzNQN27R47nUNct8XmxlW+f/EDPlh9g1/c/ITHxRbkCUU0Lf7AGQ6njgcxXKsGwVGFCVMKpsZRihLUoKFNJ92gRY+strR8StvDoi6wSp+stpiWwZnAxE0YuBETdSyENC5ejRbZd73jv2BF0eQ7ABJi/N2LZ3uyzf/xyf/JJb9K26UkagjqCRJQMoJYanvAobtHmccPJzKScIpOPMv9DqCOJIXR6JB7O7cZ6hTttikQIOfK6g0u5pfwdsr1xSucHB/gAlQmUMmYuwcPuH2yy7tL12h5izYhz+cnUQegRqVEpSaYgDdKZUBM9GuDiaCrqJJIxlr7HBtmiTtlQtWylAqKp3COwnlC1mJcVRyMBkyp8dbgFHwQ8qzPWmuZpZDQ8tGWwYSYANaY89G182QipJqz2VnnfLLMzmSfOokAXYVjWh5TVDsMq33GYUywGqNOQVBarLQ2WJUVOppgKVETUKoGqDPN4mzGlpSW9riQrrOsSxT1GI+ipqac7jIcPSb0rlGYFG+SyHeY40qxX+vgqFxJUSpVGYsqVW5C7Q54cPA1v37wKUc6oU6FOgScBtpJRidv005yTPXthP+ZWxoUgkTF4gkYk9DN+7yyeIPL197kxsY73OAS50KHu+MvaHvTJNiZPzqXYhadEyKuJihFPcH7GoNBJWkYuCmrvTVSk6ANs1RCQm66tE2PLJK8CcYxCQUTX+AkoNYQnG8o77+f9PVvlWT2WN+W79jnabJHvQRGYcTd6h6HfofMJ6TaLEwCSE7A4usBPjlmnNTzBWs1JlHNdqSZhMZ/c8GxfbjFQbHLJJlSpp7CGXLbZ71zlVW5gIQj3lm6yKNHN9l1YyT1pF3L1nibL/fucrV/gSVpI8E3bKGZu3G2nxrbFtdESJpFK9FFilH2aBQbtYjmLNgefbq0fEoSIi8j4Kl8QRkq1LSowoSxHzGlorYJHkvtLL5u0fItek5oOyUlgHiCiRbYLGQnYjABEgf90OJ80uceOaNQUiaBwjjG4YgyHFDqEZUpCOpBDDbNMdojCz26boG2T7FaA1HhISYuPDxiQINFQkKHLst2mU5YwPoakzq8lASd4sK4UZhJg+vM+lGwRhD1PN6+wy/Kn7A2yVgulZaB0eSI/eN7HPrHPJJdpguBIgm4BLwX2t0FlnrLtEyOna9onf+MKEJ83RND3SKWbtrnv3349xx1CxbSNVZYZ2WcsKyGfpGSB8P0OZbJ75I5pKlN3EOlIRIqLpTUoUJNJO95k5CR0s0WSEkaukDE4DJyMs2wIcGIJ6iiVhslEfk837Zwvzs+RfJbYYrvOC6rIeZqGCME9bjcceQGSBAyk57xvKYNL6IgaMlUXBPeiqFK8xTIFICYRWlTS1UV3N66y5EfUGcVPtRoYbh8YZMLK5exvksnjHl7+TyftxbYHu0j1uKDMA1jHh7eZf/C62y0LpGYqIC+/aEGM5isCdDqjCsQ/dRZiMw0tQZUIBCpyk4ELzEbFpWYVBYq0BJjKqBAaPx5NRhJMaaNMQtYtSQa8Y0gMx5JzBmxQeYhvCABLz7eS1kiPmAwBBGceJx1BFNh1JM29O1AwBuD1YQ8X6CdtglVIIhHiAqweZomOBgwxhNC1bQXn29GDxeNOR4SbFRchJgpCfPsTSsgWrJzcpuf7E9YqlI6LiDBo7amZMI0mXDSmjK2dbSKLBiX8sbVN7m6fhVTxt07pvF/OyKgDVtWMBjN6TjhzdZbjKmQMiMPLfre05ICS7Ron4d5/EEinJLFZu7pfK35BsuKLnZwrsmejvcdmjH1M0XQJKpFG9w0CYjP2rZPPemfds+/Q57jenz3LK/ZR5bRfL6po2AiI1wSTVordh76VCxBweCwxA8p0ibyEakmp0oipucKxihGaw52t3hy9IiBnVCknjI42skiF/sX2GxtsKxL9MqCnqzz9vJV7k932HUTsAJtz8OT+2wPdnmtdREjZu42PU8if+M0pVqae4oMzWaHkYYUJkJQQ1TS8Tuqm4DgAE/QChFHkDq6YAJgQXPQDjYkZBpzXyMTVBpF0ah+neWMxAVtFDI1JEGaZDPFGU8wjiAlXiIG4xsqtVcheEGa70iBmym+RlHMQ4US0epIBseQASmRk3qmTofGts0c+j1VFkYCIiVVcsiBThkZiw3RSvNSU1lHaR2FnTLRMUENEnJuXH6Dd698xJIskteQYtDnMiWjzGp1GE3JfYINLXqiiKZYNXTchCSpyMIs7e3fuhYaUs9sts5rWsyogRFkNQo0yvMU5Yh/S5OHozOCEM9atd+9PEdRfMdKwkhjSZgYfw5Kt7PA+XPrc+sgUl21odUmIBYfxuztb3EyHeHPlPrRMz9jODsCij4UbO/f4qjaY9L1lNYQTEYr7bG6sETia8rpPkyGpHmHfr7CYrbAfjVCEg9JzXC4x8ODLY5X3mZJUjKkqQvxbH9poxbkNAuRWb6gRmRfpFEUTf6KnD2z2W+08VFNTOoK82jLaTtxjQY8xJ2bEOtizHYYPWvQRwkal05Fk3TWXM9oA7bFPR5vDL5ZvgbFhBL1BSFUxKkic7P69J5M84TRHJ5le0ZOTKytMDO9Z2LmvINZr4WmSIzizZQyq6iQRhEFgrhIWrMa3Xs+TUAAACAASURBVB6f0mv1ubZ5g+9f/VuumWv0qzZthWS+2J6VMxWiZn0kp8V0aIBobXAemrE7vZY8ezmQb2+r831e9cwrZyqAafNe8/Z8HmhorNCZW26+deVn7+FFqooXDGaeStCAD57gU84tbPDf3/3v9OlgCCTM9C9AhmIZc8C//Pp/8Is7nxPagtPQLLzZQmv2ThXSLGUwesLdvc8ZJscMs5KpgaA54oUnDx7yqyc/YXvao1M6xI65V+1SVZFnH3DUMkHSlG8O7nBvY4d3z10mKWW2aZ7OtLk6mLkVs2Uf919Bm3oaUYwYQvBUdUWoqnka+hyUNUIwliAWYzOyvAPGNiiMR4ziXE1Z15QmkBsbWa4hxB1c4kI+uyN5FaZ1TaUBb4RZYS4rhlbeotVqI0mCMxB8pAWbhsPiXQUhNCHMU1GYR3wim8VixIJXXFkSvGsIaXF8siyh3c7Rp3bpU2UqQAhKlkN3IY2WDTF6JKTkicGkOZnk9OwCl89d57WNt7isr3CuXmWlzOiGyLgMs6E5I2ejEfP/Z2F0mYXAaapNzd6fzS15+kJnfn8rOCrKjBUqOrMrBRvr3MVxmsVriccG59Aws4jjeT547HxTahSXgLGnG9UssvNHwih/kvzFFEU0vRTrLUu6zCV/lctskGuILkbjARtNsDblRJ/wuP6CW0XKII9RhWjuz64483UtLtQ8PN7i7vQeJ+mI0sZwnwSDV8/93dsM3Da9KqPtDUmqHKfH7NoCl8wqQDmqpODJ9Ak3D7/hyuoKbdNCwmxynyqJM0/FzHtH5JRGDvP6FqpgjaWcFnjnsEZQqVGxIJC3OxibEbwlT7p02ksY0yKoA1Njkprx9Jidw12q9avUKqiPxDWRuHtrMylnZeaKyrF9fMj+aEAhEX/QAImk9NpLtNI+nXyBdtbCTiEJHrVRAe0d7zEoR6zaFPFEt6xZHmHOXYltWxEm4xMODh5TuwnGeJBAUCHPMjqddrNQaErsmTML2GJMhyvnr/PWlVexIQaUExWsJKix2DSnZVr0kj4d6bMc1liseyxWCZ1Zlq08n7r9nBnIHDNqXMJYI+fM0v8DeNFnLYqnYD2dbWI0G0jA2vjJ4KfoSVRJ0+mU4APYpiaIKK6u8c6daUix1pBYO7fEX2QF/b+comi+EhJy16Y3XuBcWKPto8mLieEsGyx5KyHTAatFm57PKEJJfUZBnNofQmoTRtMBt3busKV7DPOSyvhoTkvAmynTrKaUA/ZTIdMUwVCkFSNbxx03WAKexBYc+wNuHn7NB5NXubBwDeo4mDTRFs5YBBG0i/UjIj091uaMQKWNu7JajFeOD44ZDkenpc8k1mvoLy6SpS1CCa20w0JvEWyC1yomFxnHaHzM/UcPmC59j+Wsi1YVxsxUVAN8hRhuEQOT8YSt7ScMqgLfoQHpILMZ/d4aLemz2Ful31kgLwylD9hMmWrJg92HPN7Y5uraElYTJIA3vuGMxP4XjdgAvmRv5xEHh48QWxK0INKlobPQo9XpNhbLTNVGoBMNqDEIOUudS7zW/x4LCh2NtccsabRYSEmwJCHBVhkt36YXMtp17NsYHp7Nr9+/y+rTOv55k5SZGpsf2tRInZluc5SmGXsznwPRlYi6VQnekaYJWSsD0+BJjcs4Gk3ip4anCYYaCUpdVEzHRQTtidZWK03J8xxrLNrAMLNSgd+1vHBFMfMTT/dijfkftqkXaQRrYwWhWMC2CcFJBMBsky9itIkUqIkmLxYRi4hjWhywO95jkEBlpImQBMTEBDRHjUkFD9Qa06QrC5XRCOBhEDxiAs5M2R1v8fDoAa/3LmLExjoVDfSn6hF8kw0ZcWmLIVEhI9b2DKbJlAyCMTCeHrO1/5iDckq1YFFjUbXkSZu1hRUWTEbiHZnNWF5YpJ+1GbkhwdqYp5I4dgfb3N65zdqVt+imGdYrBEVntRhVEKOUfsz9nW94fPyYqfE40xCbgtBrL7LUWceELovpEhudFe7s3cWEKqLxVjgqjvj80Rfc6G7QN6sINCCzn0OXqbVYPEcnu9zbucWxnqAtjSCspljbpbewTm572Nqe5kw0/agIbpZGXvVZ0Ius1bBUOVJNEJM2tUVs3PUDWCxGDTachqIj8a2ZZ79nHp7WItfYV7Nz5grj1NY5xZJmJ585fj5TLYlYJEAiBtPMWQ0BFcFrILEp7bw9r3OCgCcwLic49YhYgq8wiaGsSybltIlexRCrMRmddqcpsHyq6OYJzd+hvnihimLWuebMYBhtgDONvAgbZoVzo8Qs8rgQ0+YYmI1nUylZLWikedfVMTs7X7M7esIw9xRN4dZUDIv9Pu08jxEMQwRFiR0dxBIkoZiUjE4GeK0R8ZR2xJ7f5dbBN3x44V0y0yLTaD56CQ0BqWEDBkW8koolCYY0WFIx1IB3sVhsWQ357Juf8cXO1xy1lEkei7WoJlxcvcb1tWv0Q05aQ2JaXFm+xDub1zi8v0dIQqzzaSbsFA/4yb1/pi2OD1ZvsCRdrI/omhGLxzMpR3yz/Tk/v/2/eFxvM+h6xtbjgYyc186/xmb/KpOhYaWzwTvnX+erR7/hQAtqV2JSYRpG/Hr3V6zSon3lR2y0V8nIYhp8U6wj1BW7x1v86tY/89n+F+ylA05sSUgsdUhZ61/iyuabtLRL2jAKTTgFHUWE4JXUZOS6RC9ssFIKK1VFphaMbcKoEduKeNCZkrNNGDM0LtdvWy9njYazLuvs9+niP7OVyaxw7unhs3PnCMJc4XnKsiK1KahHrOJVsEmCUWjZjJXuEpnJUD+C3FBZx0FxyN7JgDJNyDRF8ewe7HM8GaBWG5fSkKYtFvvLTQSuCYnPQNM5QPzdyF9EUcS/TysrR4KSpxaPNcRQGTNMPQ5HjDLPkoiYE3ZiqM405dWV4WSPhwdfcVzt4drRHw9BObe8wfff+piN7hp5SDDYpoxAdCNUYkTmZLLPz7/4CQ8OHlCagE8CU6bcOX7A7cMHrK2eI5SCGtPEu2NmKQ2wWroJh4NdHpcZ9VhJMNTiKcoxw8kxW3s3+Xr3Mx7KNjtZxdgqU6f08mVunHuD89k5OmND7nNCCWvZKh+tvcGDnQfcdvtoFvAyZpDs8uW4Yvr5PgfrH/K9yx+wli4hPpKvTooTvrj/a77c/YQtf4e9/JCDpGCaGIxkbHTO8/ba66yYZdK6xYJf5PWl13jzwhts7/2KmpIi1LhszH7Y5n89/DHFYMQPLn/A5f55OkmOEY9zBY937vHp/Z9zZ/g1D/MD9jueoVUcGZlZ5pX1d7nSv06naNEOKVbOArjfnh+zj2OI+EEseDTb7lVPwdBTlyDOEaO/fVedY8+/S5ow5kwpnZ55ijU8FalqrGOTCCejA249uMXe0QEmz5nWJTbJePvV97nQPk/qDK3Q4mL/PJu9DZ4MRhSqOFtyWO/wxeObvJZd43ra5ujgAd/s3+NQh9S5x+EwmrHeX2O508f6EK1vkT/nZzn9Tnmh9SjO/h0R53mCeKMsYg1H5CxINGNMzFgTT+t9iMrUihKqgu2Th9wZ3GXSKiisxxmgtqx1L/P+yo84pz36ISVv4vyz1uNVPcP+Y3Rpm8OtLVxLcKlS2YInkx0eDB7x0caHaJlGl0ctMitoYiwmMQzKY3765T+zVS2wVliMempTESgYV8fsV48Y5sccdhyjPFCkBl+3ubz2Gu9ufsCy69L3CR2b4r2h65b4cO1d7l/YZvvBv1L7gtpOGJiKyk6oJiNGWyfcO7jP+WyDDilVPeKo2OX+6A4n2QHHrSMO8gmDzFMj9PIeb1x8i3fWXqNbZCzaDvnUcy7Z4HtXP+LW9BGDwT0kFyozQtvKY+f58UHFznCHy9kmy1kHKzXjySGH0x0eu0ccdk7Yy084ziumAt5bXj33Ch9c/JBNVlksM9rBIiZ+dABhHlhFiNjFrF9NABMshhlvYxaBYI70w+nvp12BP3WGyvxrliquQRE7K6l4qiRUouuaBEiNYVQd8OmDf+bm/l1Cr8NRMaWdL8Fmj9XzF0iqhNy3ubh4gc3uKtnxvRgaNVNKc8SXT76gPWzxZn+R0d5NPj+8xUF7yMhOmaojtX0uLV9krbVENqZRFpGF+yJ0xQtPCoOGayByWuX6KXDr1IqKRazmhdTPXOHsd/xMkCzx1G7A/ZMtHuiAQeoJSQwN9trL3Nh4n2Uus1glLBeGLDTl6ImIdLRcHL2s4v2F1/iqdZuhP4j3Yzy1Kbi9c4edzT2WsytoDammDbnI4TUyBcd+wN3xTY7KnL6zCA7HFEyB2opysWKSVoxMHVVgZbmwfp2PX/kBl9MN2pNYoyOukASrHTphlY+u/Sd2tORftn5JyRgsOEpG7RMeBcfR9IjeaIG2JqA1pR1RLI6ZJhUjEao0w7spnfYS71z/Hh9e+pBV7dGpPS2psV7Rus3V/nV+dO1jxrcr7hTbkQqmFXU6ZtS3fFPeYXv8hM5ISLTG6YQ6KRgvlhynE8ZSE7yCJlxZv85fvfI93mxvslQIXQ9JEyANSAz3zcbeRExFIoDRWGoRdA2/A6z78y6QmSqIjOHEJrHwkbVYa86EK0HFUIcYbQoaqMyAauGQE7fLZDHlqKhZyJWDbMQYpWNahDrQzXu8ffktPju8w8QdYowjS6Yc11t8cljx8CRBigOO0wMGaUmRQOXhldULvLl+nZ7PyL0hI/JyossV18EpS/nPLy/Y9YguhjM1ta2orENsSm1mlYWbSTMDZ+bn0VgcDm88deKobEwY8uIIEjDGcTB6yJ3BbbazIw7yghNRKpdw8dwml1dusK7rrNaWZQ+JN3O0OKBYNSAOV3v8witcXrrIV4fbVLamFAitlDvlI35z9ICL5zdR44CKYBxl4qgTpdSAZIraCtfJGXoDUuMpUAqcVBTUuNRQ1Z5WusC1jdf4/it/zVu9N1mrFlgMOYlqzJ41QkYXUzsuta7wd2/+LZUt+WTnU07ChMJUjIxyxAndrEfbtcmCwajH2SlTO6YysZZH6R39xTXeufZ9fnDlb7iiV+kXLfokJKGOKdsssehLvrf+Hi4Fs/VTHgy2OSlPKOyQiR1ynHbo+BYtL2QawFQUTBnagiIL1CGQ0eLqxut8dP1HvL34BhfdEquuRTsI1kRmqhof+8ZUOGspA6ipqMRTN5Nf53NCn5oPsznxXYlqU0nNOkqpKIzBkFLJaQXsWZX04COw68yYkXnCfvqAozzlQGC5nTFo15RWqCUhaIqt27y6fIO/uvE9xvf+X/bCEJ8ERqKUfsrAB/KsZGpHjJOCqYFub50PbnyP692LdCcpmY9FdJgxdkVAvzslAS+4whUoIfiIBDefauW8J/hwavTp6ccERjkl0qoqISjBR781+Bq8xwaLN57tk2229h8xbRWUvsJhMNpltXeRc9kSbVdhg6EWxZmzJc1iQRMxsQR9p7fB5uYlzMFPUV/hDBTiOKrHfL19j4/W36WXgcfhQ00IDnVEgk4oqYNDmVKoIaYheTCKTVIS06LX7pK3upxbuchHlz/mtex1VlybljPYEEGxIKfumJDQch2uLVzmf3vjv9Dttvj64C7bkyMGxRSvQk2NGihFAB+/NH6EY2+hx4XuKtc2bvD9i3/FJb1Kv27T9kmMKgk4Exma1rdZsef43vkPyHsdfv7gU+4db7E7Om76NDCVAmcNmcZPAgsC3ivdpMtCZ5lzi1f44NrHvNq+wVq9QKe0sYaoCQ0rNPJJvCreB7wH72N4ONbGndVMbWbAzN/4DhfCbK7FORoIPuDruDEFC+p9LDvXkKLO8nPDjKLtFanAlobUGayxmBokBByByhg0tOjZc/zg+seUyYSfP/6C+8N9Kj8E48EqZXBUWqCSstbb5J3rH/PeufdZdB1yH9MXwjyfRc4EB747eXGKwsTiLmv9c7xz6R0O2xNK68ldh1e7V2lrGsNmz+wVOguTSs7GylXeCR9wbmHKJHGgGTdar9ImxwdP3m9z5ZVX0HafYeYo1NDJNnnr3Fss+hadilgmbUYvPuPUnlKvc/DKq+tv8KPiYx76PcYW0CW6bpN+3mdCyWLWYmX5Iq+6t2h1CsrEEkhOfVhmSUCn7Mw8z8lNi9X+GitL66xk57io51nyC/SKFh0fPwVMZrkAok05/JyOXyAMlVd7r9B/tcf1c3e5fbzFk9Ehw3JK6aP744MDiWZzmuTkJuPK5hUurFzhXHKeTd1kpejRr1I6JCShwetFQS02dGhVNWsm4fu9HptvXuDh5DFfPv6anck+hdaxnXmKs6WVdUmsZXVplc3ly1xcfJUNzrMYuiwVLRZcEl0ObUoKqtLKF7l24S2qaoGjljIkJ5VNLvfXyZwnmYF1TWGgp/OD/7xyFrhUBGMSzq9c4l37PmvZkDI1pHWfq70L5N42uTQRUBSi9dfKulw9/xrFSothN2HgDN3kPOe7K1iNCWA1YENOp15kIznP3177G5YX1/nF46/YL4aUIebaqCpZEgsNv37pQ67332ZDz7FYtOiGpCkeHHNGZI7hfbciewe7z+3/WfXgP0MTQKyo7KTkOB+xnw8ZmpKKQJucBddhuVpkse6TELP/Zih1rMgNpRlRZiOO7YCBLSgiZYguyyy4BfrOkVMwaE3ZZ0QpvvlA4xYZHfpFlxXXo6W2KV7y7F3GyehNoDAF49aAI3vACUNKAU+HTJdZY4PFok1LB3jdYZCPObIlpcR6Rs9i+VH9mFmPYjVGXCwpWcjouhZ93ybzWRM6NPOjaVSNaMxxCDZWwZomU4bplKGZMqGk1JphU927rCqsTWhlbbr5Ah3a5JqTkNHSFgtlm75vk/uEtOElAE2BFVDxsbwcJYUp8bljYkvGMmIkY4b1iNLXFL6MDxdSuvkiC2mHFi1Szcl9h5Zr0w4pCyEnc5BogjZkKzGO/4+9N3/O4zjzPD+ZWfVeeHEDBEEQ4CVSvEnJ1n1bVkuWLF9yt3t6umeiPbPRszO/zEbsX7E7MbsRu7HREbPT28d0uw/bsmwdtm6JEkWKFEmJ9wHeF0DcePFeVZm5P1TV+74AQYKUJUqy86MQAbzvW/VmZVV+88knn3xyxh9jOj3GlFdkiioV0khaaQ7aaSm30EmKrA5jZ2ajLfHZy0UUkRk5y1MmQNgi49lphjKTjMsyFSxZ20zO5mkp52kNmkhbH2kEyhqk0hRTo4yLy8ykypSkIcRHkqc57KC53Epep0kbUET1O6MKTHtTFDMlxswkk+EM4+UCobCgFM3pJtq8NnK0k9Y5WqpZWoIMaaPwbH3v3dlu3M+yTqKNqbUx+L5/64RCxKZSRVUpyoCqFxIKi28UWZMmrX28MFp4ZLFx0FDSyCKXYCirBLIa/4xWYKZshpTxSZsAQZWyqlKSOnbwRB50z6bJmBSe9qOEdjYxHRsGOPGvWoCWhqooEsoSgQwIhcGQRtgsKZMlo1P4NgBRpCwrVFQQ7XBFPWXa7PF0fRu4xKvvGZ+UVfhGkTLRNdZTrjUmcE1miZKdyAxahJS9KkVRIVQmSpSjNFWi3l4JH4WHMBLPeHihwjcevvVIh5K0jReayXq5bDwcqM8oxStMCTGeoaxKVFSZUAZoZdFCE1qNJIVHBmUkSkfTuimdxtcKL8kXEu9en8z5C2kIZJWqLFPxAiqEGOEjbIasyZEzqWjJu46mRZNoy8/DLxHVLfGS+GRRWUBZVSinonR8gbUI60XXZVKkbArPREF1GINQhoosU5VlQhnGe5JIsB7KpPFNJq4PGfmfiLKPl1WVQJTRXpmyCqgqEwX9WUEKn1SQImNypHQGLxT4cQcnSDJk1/16n3m93HqhiEgSzBhpCKSJ0uxDHGjloUh2xIriGWqhsrXludGGtVqEGBmtaRDIKC+DlihCBCE6Pr8m6SUUGBU9yHE8/+wcFnHFEPcs8dysFkG8BDvZvdtDWD9K8KujyDtjqxhlYiFpzDcQDz2SuX/qafKIl5d7RuDHv9dnfWDWXibz9J5W1IcKgTDxVgbx9gfCRHlJjUBJL85UVZ+KVvGCJxnP/wtRN1kToagZ+HGIdhIWbUScHCcJMou/V8TDj9peHUaijBeHNCdXJZIvie9vMryyhMpQEVH2dWElnvHxjYoCumoS8fmTbBclrMXaMNpSwouuN7QWiKbCo6nbKDw/svaIn8soaxbS1uItQMQ5OBQKGVmyJEIRtYFoeX1IKC1BLUeFjTLAGYUyPr5Ix7NP8TNxleNSzPn52/OFCoUkCtNNGr+mvnAqWSRWq+LaQ5z0cKL+gNMQgxFXPqJxI6B4NkOI2gMQfQfUM21e7SWu99yydpakAcyO+YiU3NhE0ecyWyiiwLBEMIiHINH1GGExMtpLrPFUws4vFFEej/qSZYGNk91GO2QJZBwqLuOIR10rEfFMQpLoZnaJ54ZAJderIBaYel3bWfWY1EvtXLY+xx3VQ329hCW5l1Fj0/F9EpLIUWjr5/u8M0s3ktS2iRuItMl2UtE1JN1FZPPb2rPY2Ksnz0jjMx57HeKhQn37IBMLsWfBs9EKXKNElPPExn65OEsZVmCVRce+tfmHX5+tZTFXKG6JMzO63/Ey8Fp2pGhPh3qvC/ULre+VHZ+BZLePWt6FONCEmno3HiNqr8y+kVATiNqipjqRmNjZx5AsW06+P2kk0U2d1bhE4sish3BFPXicvkUQJy2Jvrlx1kVAlLeh5sCbHxuLoo3zJEZxHrZ2EhvHYJg4xNnWXOKJVXOjJJ81JAGAxPP1UfXE1xf3/DXpFTQI5Ozrg7qFYZLyxNN7Bhv1xmZ2zMytI57NEEn+j3jfEaHRovF+1kWipmNJOLlIOlgB1gP8+BhTe69mFcTXH2XwlHGCo3hMXOsEkyG7iO/3rbOw5vK5C0VDjpnaoyPisbCsjVvtHIdV/DnqD3mi0dGfSaag2gdJei9RG7I0vEUSLF7nek0xSamXROeBnqPX9RsNslae2n+i4dptko4+7ksEUV7KOdeZDHlqhbazfrkKGS81jg5JlpXXz2YbzNNauWP9u5l+OmoQs4dojScRDdcWF2nW8vprnLFWX9G9TWIzG4611zr+8yK2lGrPT91KqDV027BOua7N89arrf0bbWKV3InGRWsytqxEkgPDNrSR5Ny1OrKf6v59Vtyy6dEoqcrsqrTxyL6x75+vqpJXo7EytQQxCOYMR5L3bMODGkd7NohFfT3AfFXeYNqJyJ1nRRgvh1Z1iyY2SKOeUcZrEhon8QQIOasTqL+XZL6Zr++013mt4ZVYJBJrp17qRtO03gix9ZJfdZ0N39b4TTULquG+XbVhQTJNF4tJVLfJd12rqSeWl4nLbqnvUVG35G5lk0jW/CRPWnIvo/5eg40sjFrzrVVYdK2m4e5GL1usqEZXZKMOpXH2yyYNP77WyKHaYJUxp/bsrCd4VslvhaR+/kIRK3GSYDQx0RJxuFZE2Xw5Aa2ti0X0AnE+zej35EzJkKau+qY2fpzdmBYQCqLgJ0t9SXS9p4v9IcLGYbTznS8Jr01GpnMqpuFabVIV1y1Pw9G1ep3ziTnlSDK51xcXXttKaRSL2T3a1SVKTlMzysXcx/V6IpE8B41Wj43LemvtiEYau6XGAWQ9Kd08Il4bKc7eJChZ3Zr4hupam9R/PWJovgS+V8nBtW/bLeFzF4raQ4Wd9xGws+t83t8bzyNg3ki0ueepi0SjdXDVGedh7tAlch6KpLdLxpq1/lbEZZpf2QXxUCSxamt95tXfOv/f85/XNnwo+USkZXPL33BMzU6+9nnns3HmLVetfuvffrV9ci2STqIhL6RtDBu6tdZExHz1Fr1m4gwc83Gt57s+BE6EcHZLT55L0yiwYvbdueq7xNXlvFV8YRmu5uNGL3+hz12jWX0KIkFoNKPNnIZWH4ZcG5P0Ktcs3/Vfv1E+q8fn5usXZgc1X6++58rJ3OO+wG5zDvXyJY38+s7E69fLNSxnrt1Zfpn4AoXCzvn5ZSa5yQIxq7w3VvYv683/bPltxPjLTBL9+Plc31fl2fj8g8Svy5f9IZnLV628js8Gd9+/YKFwOBxfBZxQOByOBXFC4XA4FsQJhcPhWBAnFA6HY0GcUDgcjgVxQuFwOBbECYXD4VgQJxQOh2NBnFA4HI6rEHJ2cLkTCofDsSBOKBwOx4I4oXA4HAvihMLhcCyIEwqHw7EgTigcDseCOKFwOBwL4oTC4XAsiBMKh8OxIE4oHA7HgjihcDgcC+KEwuFwLIgTCofDsSBOKBwOx4I4oXA4HAvihMLhcCyIEwqHw7EgTigcDseCOKFwOBwL4oTC4XAsiBMKh8OxIE4oHA7HgjihcDgcC+KEwuFwLIgTCofDsSBOKBwOx4I4oXA4HAvihMLhcCyIEwqHw7EgTigcDseCOKFwOBwL4oTC4XAsiBMKh8OxIE4oHA7HgjihcDgcC+KEwuFwLIgTCofDsSBOKBwOx4I4oXA4HAvihMLhcCyIEwqHw7EgTigcDseCOKFwOBwL4oTC4XAsiBMKh8OxIE4oHA7HgjihcDgcC+KEwuFwLIgTCofDsSBOKBwOx4I4oXA4HAvihMLhcCyIEwqHw7EgTigcDsfV2Nl/OqFwOBxXYe1spXBC4XA4FsQJhcPhWBAnFA6HY0GcUDgcjgVxQuFwOK6BqP3m/XYnqXtG53pJHQ7HF4eU8jNtk59KKKwFIRK1sYBo0J7ofYfDcSuxgMUCUkgaW+dve06wn0YoRP0cQiCEBAsWExVQCKcUDsctJ2rQJm57Iu7MhVRoo2/euhB1kfiUQhEVQEpJEIQUiyXKpTI61GBtLCN2jo3hcDg+H+ysnxZbs/Y936e5pRnf90Ferz1eS0Tq574pobDWIqUCC8ViiStXrjA2Nka1GiIRWGsiIXJC4XDcIpJeP/nLIoVEG4OQgqamJjo6O+nq7kIqdY3jF0LcuFAIITDWIqVkplDk1KnTjE+M09SUo6uzjVw2nUR/cQAAIABJREFUi1ASjEU4jXA4bhGzhSJCYIyhUJxhcmKK8ZOTVMOAxYsX43mfbv7ipo7ylIfWmtNnzjB85QoDA0vpH1iC74H0oplWYy1Cit/SieJwOG6cui9BICKXpgGj2ykWKwwOnuH0mVP4vkd3dzdSyjnHLsyNWxTxUGJoeIjLw5dYsqSX21YvwxJibQVtI0eKBawB46TC4biFREIhERgswoLne+TbMqzbsIa9e/Zx9uxpck1ZWltaMcbc1NmvKxSioa0LKTDWcPnyRdIZjyX9i7AqpFIpIJVBWAEiKq5xQw+H4wvAYmq/WUKjwVTJNuVZ2r+YI4cHmZkp0N7Wgda6IcThaqLZy/rf1xSKq09hsdZQrZbJN2fJZBWBKWOlxgobz+AKrLhRY8bhcHxe1DRAQBCWyTfn8HxJuVzGWntdkZiPGx56WGsxVlOtVmjrbEYpRWgDhIjHRFbUSugMCofji0XE/yOikYDn+1igGlQxRiOlwlpzw/EVN7TWQwgRCYK1UfAGJg7iMJF0CTGv79XhcHyxWBG3XxUtuUiE4XOzKCIiwQgbxjcCagrhhMLh+HIh7HyLLG6em149miiUFZE62fg1JxIOx+8uNy0UYgFFcILhcPzu8enCtKxAWIFIDBrbaNbEzk2Hw/E7w6daPVr7zyYjnwahiAZETiocjt8hbn7oQeIYqU3AxKJRf9/hcPxucfPOzHn+stja6MNNkzocv3t8Rjkz63aEnfPT4XB8+bhZy/+3FIqrv05c8x2Hw/Gl4SYDrhYQitm+iKuxc/53OBxfBW42Nd51hEJwfaGYKxJOLByOLzu1EO747xsN5b6B6dH5hGKuMDT8dGMOh+PLz2e/1iMRgUbBcJaDw/FV5jMcesx39kahcGLhcPy+cHORmb93w4rZu6Fd/3MJNyOgN3r+m2W+oeIXxaetG8eXid9iS8HfB67Objz/+2ae9xdS1Uar7LMe0tmGf6PTC5sMHeeWtVGsPo+GHAXjNaYjcHz1cEJxFUlYuiHeToVrC8B8Dt3kMzcyrWyIRn+ftWURpzYWcV5mIeP8zCIePt46v5OtiVatBIi4dm8915q9cyyEE4o5JA+2wCIBKwTGithJ3NjA4tVvNeqpAKO/oiZhbePn4++o/TpXXK4uzae7giSkvqEMtrFcjXxeTTb6HmOjjWgEFqxGoBBWEuVuvdWNNBHo+e6f43o4obiKqJFZC8Ymmf4ECAOYuJU39sQyPkrEbdHGBr6J91ior6+9ereT5IGdOwSBmxeJONUZkbiBbTitrKUyjE5ta4lFxKwG81k3HIGSPlIJIIwsHE2tTm5tbz7PVH4NJxgL4YRiDjbu6YyIto1XSKQUUSJ0G9YSogvhARKsjUUiGawQJS2NXgVAIlAiMvujxppMNsn4XI2WR60kN1vy+Ge0xl9IiTEmypeIjH8myVSjjOoQbdaEtQihsLOGJdTP9yktG6xgcnyc4eFhytUy7Z3tdHUvIpNORXXzhYw/nDXxaXBCMYdofxKB1paRKyOUikWkAEuA70u6OjtIZ9LRCKPWM8emh7XMFApcGRnFYqLGaAzdnV20t7Yy1+wVotE/ETdgfttHWCCRWAOXL16iXK6ilB8nSAZrNVIKPF/R0pKnubkZozVSKayxRPvCNCZgFTc9526tRUmBCavs3bmDl1/8DRfHJth6z7386b/9UxY3pzFBJS5tvdw3K0j1qEKBMXqe1xvK1GDZWUtttywzJ1Lx94WbvV4nFA0IIbAGsqk0Fy+f4/mf/ITjx0+QymQIjSbf3MwTT3yT++69Fz+TQtswGlJYg1AwVZji3bff5r1t71MuB5HJbwWPP/44Tz75FNlMGq0DaoJhY8siHrJYEwuFlI0ejfiHQYjYGrEyOtya+g1PRMdYfN9jaGiYn/zDP3L65FlyTfl4Z6goctbzPTo721ixfICtd2xl2bLl+L5Ei3pjM8l32+h/EWth/E9DrV3duI02eALQFUYvXeDEgYMMDk+R7uhnumzpFj7GVJEmEpRrCUSiT/MFEdp4ZCVEYhFd+9GPtpqIKjqx8oypH1sT+t817Ly/zvv3QjihmIOw0JTKMH7+PPvfe4dT5y4j0i0IL8NMpcrUuGXFwCZWr+2mGkyhwypKGNABJw59zAv//A+cOXkB389TDSWlckhbUy8PPvAkra1tFAqjKKnjOxU1XCkFxoi48RNPZ84Oaov+qmcXs3HjrYlO7EsxViOlZGJsnP379nP82Emam1sItY6GIlIgZeRMzGTS7PhgD3/+4x+zZesmrDGx1WFrPS9E5xXx99m4kmb5PEh67Oh1qRRSaBCalLQ0pX3y+Rb8bCuhSWNMCqggCJJaJ3Gz1jaSYr4GPGfY0DDvOrs8dfFJ7AUhQAqJMbY2NFTxNhS/v9y4FeeEIqbuojQoNL6u0oShLdtE1W9GyCZ0WOHk4EX2Hx6kf+UACEWgDV5aEZSKHNn3MRcHz9KS6UD5TcxYi1EWa5uwJo2xCoSH5ynCaoC1Bm1CbGiR0kNKha9ACIPRsT9BCKT0qIYCKTx8pZDWUqmU0DpyEPppv9awIr+EBCQSRcpLk003sXjJErp7FmG04eKFi5w7d46wKtm75xhd3W8xsOw22ttzhEEZawwp38cag7YWYW00ygKUJzAYEKC1xhJNvaZSKYIgQGuNVILABPjC4ivAhPFMRxZr01jtk1IpFCHahAgZPYaRDyUaGmmrMdbiyWhIZG1UR8YKhJT4UhFWq6ANQkYGlZQSq+t3MtQm2r3bWrQxsUBEwuf5qai+tG4QqEYSy2m2YH9VSFxe18o8J+qfuiGcUFyFBRviofGsQaKwNkVYhXymmelSiX0HDvDgY/fS3KQIrCAlfSbGpjh95AxKpxE2Rxh40YZJFoyNRMLEJnKlUmX0yhUqpTITE+MUSgWacq3km9voWdROcz6NwCCBoKKZmJrgyniRfL6Dvp4OioUJLpw/y+T0NMr3ae/qoHvxItKZDEJGrSYaMVhMaPC8NPfc8wCPfONRMJp9H+3hlZde4fLlK5QCzYEDp7kyOkN7ZxvCVvCEoDw1xcTIGKMTkxRLVfxUitb2VhYt7iLXnEEogbYQaoOQPpUwZGhoiOErI5RLRVoyHku72hHSjx28II3Ex0MZKBYKTI6epxJq8i2ddHa04QmBxBIGFYaGhyiWyuQyObo6u0il00BkrVgL05NTDJ07R6EwhZGQb2uhtaOdluZW0n4asCglCasVRkdGGRsbpzAzg5QeuVye3iW9tLa2xvdXU7Nl6mM5Imdz4qL+6jF3fm7uu2KW1TXnXWtnTaU7oaiROLtiI99qlDXoQKOFQAiPlJ9hZmKMQ0eOcHnoCvmVfUjPR2vLoYNHOHvqPEpkyGc7sMqjOjUdD6Z9QhP5HkZHx9izeyfnTp1iYnySkdFhiqUSTU3t5JvaWHXbAPfecwdrbluJJ2F05AJvvPY2h46do6dvFV/fuo4zxw9w5NhhJiYLyFSGlvYOHn7sIbbcuYmWtlaUpwCLtJHDNJvO0d29mJWrVpPPeCzuaOH8qVMMHj+FVU0YIygWA7SOHqvxK1d47523OT14hstD4xTKAZlMjq6eLgZW9PHgI/fRN9CP73lYG1Cpltnz0R52friL4aExpqem6cjnWLV0CZNDwxijUEh01ZD2FMKG7P9kL2+99iJWZBhYeTvf/vZTdLU3IaziwumL/OpXLzI6PkW+uYVnv/Ndbrt9DcZqdBhy6sQJPtqxkzPHTjBVmKYShjR1tNPV28PDjz7KhvXr0dUyQbnIrg93cmj/Aa6MTDA+VkD5GVpa21jSt4QHHryXDevXglDxMzB3qvp6QXNfbuZOes+dkE6m6+0NXp8TijnYOPbBimj2IAxDZM5j+bLlBJUKpy6eZmxohE/27Wd5fy+ZVJri9ASHDx3lwtAVjMiwYcNmLl6+zMTEFBKLn/IQUqKkxycHDvDXf/03DF24SCadxRqLkArseYKK5b33UgyPTPEf/+I2OlpzTI9Ps+e97ez+5CjtPcc4vHcnF88PMl2YRso0hjTlquHkqUv8KT4PPnwP2XRkc0ohkFZiNBhj0dpQqRQQlPF9jRIa6VmENLFjVDIyMspP/uZv2L7tPSYmigiZxUvlUZ6i8skBjITLwxP88I/+kIFlfWQU7Nr5Nj/5u3/g2LHTSJFFa4mH5YDaT0ZJtPZRyieolPF9A8xw9PAnvPbKaxiZY/X6UR5+5GG6F7XiBYaRC0O8+eIbFIqadL6FTVseYP2mr1Esj3Hs8AH+6W//jv179hOUNaBAKioCKhK8dCtbtnyNwtgYr730C371i+cZG58EkQVyaCMIghAh4eiR4/zP/+k/sGLlssgSs8ECT8dXh4Um2m/WRvqMcmb+7lDf9SxydJnQkPJTbNy0kdtuW4FCEBQqfLj9Q6ami3jC4/TgcQ4dOoy2knSmma/ffS/dHR2IsIonINAhgQ5Jk+by0BCTU1P46Qxr1qzluR/8kGef+Q79PX00pbMUpqts33mAA8fOYlUWE1qUDklhMeUyRw8fQUiP21avZWDZCrKpPBnVzIFPBnn33Y8YHZtB4gMghUBJCRbGRse5ePEihw8d5Pnn/4l9e3aSzfgYE9CzeBFdnR3ooMKuHTt59devMz5exPPz3PfgY/z43/8F99x9LykvxeR4kddf28H2Dz4mDD0mR8d58+UXOfHJIVRV0eS1sKp/DWtu24jnN1GpSDwvD8In8gmUsbaMtBplPdA+1YpCWw8jZGT7ByFUQIVp0FmMzeLJDGNjV3jxhZ/xwbZ3qZYDBBnWrtnME499i+UDq7HWozBVRKE4fuAQr//yJc6fOIMMfW5fvZEf/7u/4PHHHqertY2gYvhgxz5ee2M7U0UN0md2vxsH2H1Fhx2fNc6imIfG/YyMsRhtWNzTzfKBxbz15psElZAzx89w/txl2vP9HDt4kBPHT4BM07NkKWvWrWHfru0oXUEKRWg0BovGsHLlSr73/e/T1d7JhtvXs6SnF08pXu9axC9feJGxmQqlUHBueJJA+GgBng+ZlMCaKl2Lunni6SfZvHkTk+Pj/Ownv+DC2WEqNHH48GnOnhtmVX9/TfGEEIRhyPvvv8fx08cxlXEunDrM1GQRz29icVcvDz38GMsGlnL25Cdse+sddFUBWTZuvZ8/+Tc/ZuWqZWzctJorw+cIrcdMIWTfx0d45jvPcOrEaU4dOUlW5kC1smL57Xz/D/+Qzq5W3n/vDXa8tY3SdBljQqSKnJQCiS99sl4WafL4shnIoJEYETkmPS+DH6ZRXh6lMggM5wePcvTgQYwWpPNtrFl7Jz987gesXrmcg4NHeWfn+6zoX0I4U2Dfjp2MnB8in+lk6dJ1/Mmf/nu2fu0OLp8/RdYL+NVr2whCj90fH+WJZ8q0trZgTAmlqAWlOeo4oZhDbVou/l8JQVAN8H2fjRvX0ruomwtnL1GYnOGTjw/T257l+MHDVEsBoVWs27yZvv6lWBPgYVDWoIQk5fsUTZH1G9ezctlSTCXEw+PK0BD5XIZcWkFYphpU0NKngqQqFKGUGGExNkSHVR68917+4NnvMrC0FxuUuHhqkJ+d/jm+yjMxWWR0dAqBIjIWLUJYgiBgcHCQYyePo0yJlrSHtSlS6TzPPPMDHnnkG/i+x9jIJS5dvICvcpRDn1xTN+VKyP6DH6NMlbb2FuAS1YphYmKaINBMTc5QmKxgdIpUuomv3XM/jz/1JFJV6OhKM37pIvt27sOaECGTCNRovYc0AozCWh8rfHQ8zYuwGGux1kNbiUXiEzJ+/jSiGmBtCplq4b7HnuSuBx8mpQI6BxbRu7yHppTCFKYZuXiBoBxAuhXht+Gn8hw9fBBPz9DenCLtKSarPmNjRUplA8KbZw2OE4sEJxRziJ7TmqciimEyhlCH9PT00N+3mCsXLjJTLLJv98csbvI48skRPJVBpVq4ff06cs1RYJUnJJ6R+Cg8IbE6xARVzp06xZ5de7h89jKF6Wl8CYXxUQrTY2QyPsYaEBINGCGwniDEoDzF2o0b6VrcSyko05yyrFm9GF9OoiuGlN9HtJRNIoSsRR9KCUuX9tG5qJuxi5coTkxSqWjCME1raw+tbR0YU6ZcLlAuF9FAJpPn4P7DDI9eoFwdwZeG8dExKtUKlSoUZyYJKkWmCyUKFUFAinQ2R1ffYkRGMjE5QndPM2vXLmX/7h1IaWJLTQIe2ChEPol5srH1E002WKy0aGFQ0gIa34bMDA1RLVTQNkNz5xKWrVmLbEozNjFMNqPo71tEZy7D0JkzTE9NEQiBSmc5MzzGf/vv/x0ZTODbMuXiVDStGmqKU9OYaoBCEM4ShkZXoBMMJxRXEYtEIhZCIKSiGgS0tjWzZfN6ju3/mJlChbODp3m9OM7E5UmM8Fm+9nZuW7sG6RusrSKtRSGQVkCoSQvBjne38fILz3Py+GkqxYCmXJ7urg6C0jRY8Dwfo0HrZFFZbONYi5QCJRWB1qQ9CyJEiCJSzOB5WYy1SKUQqFrDszaK1HzwgQf45uNPsOeDD3np578kqBSZmTG8/ua7rP36HdyxfhFGV6lUioRaYkVAUA2YmpigGk4ihCaba2LJ0i66Q4+BpT1k0x7FUhlNCqNSkPIRaQ8jDKEp49kSvhegZAUkGKFrcWZWWJCmphK+r1ACJIaUUshE8oTAGIM0lurUDJVCFWweg4eXSmGURaQtVoQIE2J1SFAtExqDVgqrFFprxsYnSZsCylbwlM/A0iUsMjnSTXma02kwes4K4frz4HBCMS+WORNLQqCNJZPJsmHT7bzRmWO4MM3U+BiDU6N4qomgErJu/Sb6+/swuoS1YZQHwsYBScpjYniYXe++y8nDR5Ayw9p1G7n3nvvYuGE9hz7Zw5uvv87lkSopPFLSx0fGwU4WJSXCWCbHxvGEIOV7hOEMI6OjaGPQOooODcMAi5nl9VZK0dvby9e2bGWgZxGXTp/knXc/JASOHjvA7o8+YPOap8nlm8jk0hSmi0gbcMfWjTz59MMYUaBcLSOFRxgqlErT1tFEa3OGlO/h+T5BCCEBpUoRrQN8IdHlCmMjw1SDMkKmMIRYEYLQgEFbDSJabOcJQ0pYwkqJ6clJpAFpIY69xqLI5zsi34XyqJaKTI5dAb20FmkahJZiuYLKZMi05DFKEoYVBlb08ud/+sekRQVlNVZbrPXR1iPX0kLvonasqUaL/25yXcvvC04o5sFaC1I0TECLaAggPfqX9bNiVT+D5y8TGo2XylIulujpHWDVbatpymXRlTFkHL0YCqjG4cND588zcWmIVj9FGY+tX7+bH/zRj2jL55keH0MpD2yAsAIlFB4qDqW2SCHBWHbv2s2KDevYsHY5QxcG2bV7H9p6eH6KbDZDUy6LxUbDl2S23EI1CBmZHqd7STsPPXYXR48d5vKVGaZ1iV27t/Ptp7bS1JQl15RDmwJCa3zPZ8XyZXR0pzDCIJXP1FSZmZkSuZxHKgWtrTnSKY/AGsqlGQ4d2M+dd66nPQu7t+3go137qJQDvFRzzf8jRXQ9OoR0U5piYZLBIwfpyC9n8Mhe3nn33WitiRRoY1DKQ6o0nT09NOVypKswMz7Gnp07Wbmqm5ZWyemLFzi49xP6ejrYtGEtqVwGKwQChS89lixdyrL+djwpMEGICTWjI2M0tbaRziksQcMq3oS50Qe/v3z2QvFVX8Fr6zF5UkSmrxQCpE/ZQHNnJxu3bGbHnkNMlyDEMlUN2bJ2LevXr8cTAqMNfhzXpqWgqiRGKSQCz1hEoDHKMDw5zuCZs5Qnxvnwwx2Uy0VSqfhIKzCJp8RGodkp5XP44EH+x9/+HXfftYXLZ46zd+9xhGrBaJ+VK1fQ399HQCVacxFPjUqp8FIpZMojkFXWbBrg9nW9XL64E+U1MXjsOCeODzLQ08ry5SsZPDGMVB6Hjxzh5z9/nnUbl5LOeYyOj3Pu7BDlUsj9D95F39JOens66V/SzZHBc4QVwe4PdpBLe/R1NvPuqy8ydG4Uz2shCCTSS2MReErRlMmRT+dRyqdaKvDrX73AuVO9HD/8CQf27AfaMJ5C22ixXGg1/atX0NyWQ42NYSopdm3fjp8KWNTTxIkTx9m140MefuAuNm5ax8CyZeQz+6gaydjQCP/0j//IXfesJ5/1qBQLjI2PcXzwJPc98Ch33/8gaU/EK+Ea15M4/0TCZyYUtSpN1uvwFdULW4/MtGEQ9T4aEIpiNSClPNasXUN7eyujUyNYJCqbY+mKlfQsXgLaIAON1BqMQQMVbSlVAvqW9LG8f4DLp09jjWXb++9z9tQ5RLnMyMXTeJ7AWp+qthihkswXUbFMvG7BWPZ89BHHjxzElGbwjEQKRXt7Nw/cex+9PYswOkQpgTEhYRgQBiHGGDSWclihfVE7a9et5KP3P6RYCZkYm2b7e7tZ+2fP8q2nn+HwoUEmxjUXLp7nhRfOsX1nHi9lGR0fYWR0msWLlrJ560YEipUDy/japg1cuDDESLHClctD/PrFV0iLkLA4SYufw2hJNRQYmyLUoJTHquXLWdG3hONnrqDThv1793Hwk23ooIoXOztL1WiYorUlwNC7rJ8779jK+MhORgoBly9e4vl/+RnZnKVQKFEsVShVwIo09953P4cPHGHvx2cpTIzxzutvcfjgHnJZRWl6gsnCNFOlMktXruNOLCkha7G5sx2Z4MTCWRRXIYRAIkil0jTlm8lkLdmWZrLZNNpGgVO9fX2s27iOS2O7CI1kYGAp6zatJ5VJEQbTeMaQTqfJZDNkSZPPpBBW09XdxSOPP8bwlSGOXLiMFnDu3GnSQrBixTIyaY/CqQm0Evi+JLRhZNUky0qFZdVtKxktFhgZHkJ5KbKpLM1NeR58/CnuvfdreBKqlXLkxEz7ZJuy5Jtz+CkPJASBIZVqYv3GzSxbuYPRo8Nk/Tznzl4hCBRfv+suvv+DZ3jrrd1cvDhNNahy4eIoSmmEMqS8HH19K+jpGUBrRUtLG998/DGGJ6bZvu8gpWoAFkqlIps3rGdpVy/Hj5/hwoUxmpqaUMpDCMnq1Sv4gyceYuz5XzNejYQxDBU9Pf1s3XwHpwaHOTZ4ES+XIteUxmLJt7Tx5LeeIqimef+jQ1yaKhCaCtVKBSk91m9Yx5at95DOtLJ6zVq++71nkf7bnBgcplQOmLgyRUFo0BUCq1jSexuLe1egVBpESH1a/Ku9IOzz4DMTilp1ilk/vnoISTnQdPQt45Fnv8eq0RDZtox161eCDbDC0tbVzdPPPsPAqrVUQ0FHVw8bNqxByioYg0qlue+xR1i6+nbGbY7etVtoyXtUgzJfv/8+VDbNx8cGmagYrNZ05POsX7MKKWHjsYtUVAvLlnaCLiFJslQJgqDC175+B10DS7l0/gLVQgFPwMDAMu5+4FFauzuohjNYG9LR2c7Tz36b8dFp8s3trLl9JUJorLWE2tA3sIzvPPd9Vp8cgWwX3d3NKC9FOpvle899j/7laxgcvEylGlIpl0mlJVJqPD/LylW309/fR7UaEFSr3L5pA3/opxlYt46hkXE8pfCVZevGdSzuXMTxYyfZeHGEntW3096cwVpNtiXPo08/jmxt5czQOKGukkpLli3tZ+uWOzh+/Cwnz1xEpXMsX95LuVrCasPS21bx3L/uon/DYQbPX0Aqg+dpPD9HX/9Kvv61O0BK/FSGhx97lO7FA+z9+CiFqRJBaPGVwPcEpFJ0LVnKls0boilYm0RhSr7yvd3ngLgyOrygZIpoMT/VsMr2D7axqKed1bevQpsAqYA4xZqFKKiGr64OCyHAGLJSILVGizTGyxHaaFm1tAHKGjzlobwM4BFaSzWoYIXGsxppNJ6U0bQqPlUU0lTxbYAQUcMPkEwWK3hS0pRO48koZDzEw6oMmhDfMxzd9QF/+//8X+z/+DAq3cr/9L/+LzzyzLfwBJhiEc9TNOdbKIchoREYQrAhSkDK8xHCwxpB1RgCEyAIURg8Y0nJFHg5gngFpTYlsFWEsCiVRmtJEARUK1WUJ/CUJJXJYKygGlQRwqCsxUOivBSBgUKxTBiGtLXk8aQFbfGUh/FTVBGEYQlFgDQGtEXgUQl0FHfiKZqactGsBAqpfAIDVR2ALiIpR0vn/SYMkkoYEAQBUlpSqQwgsVZHS9WtQUkQwkMbQRhqKpUAqQS+7+Gl01gg0BptDZ4CTMDcPBtfdatCWoEUiqBq2fHBRyzq6mX97etRUmJNiEUkE0uziPx0kTPZ9/3P1qKoGW3xL1/F6o0Sx0hmtEUggRBTnUQIDylUFDWIoKpDTFgA4vUJwiCJgoqMkpSNxuoQSxXiBClGRGIamhCLpCmXihyeJiDJ5GapIqniewpPgLAaSWRRKCUJdIAWkRClc2m01sxUi5g414K1BikFoTFRZCLUyphkw7YWQiHQNsRWpxFSYbFxElyFMZowqAACpCWdjVajIiDU1ajflXH+CyBUEOjoOnNNPsZ6GBGipURIqJgAU61EM81YtNFoQCqBtSFeWuIJH2st5aAczYjoMjYEbaM8E0KBJVoPUiEaJghlSaloSX2oK7V6BouJhdfYEKRA+pDxPRACYy2BLhPNwEiEqCflsbbRmvgqPsGfD5/P9OhX2mqLHg6p6rtQSBlPMyZz+iJKSqtqGbiZ1QtZa6JGUI/vjHJTEAUXJfkro8YWLW6wcdZugUDGIdvWRIu6fC+N76dQXhRtmcmkqZZKWGNQQhDGPSFQz1AlBMqr5+SMQhJMrfzWgkquUSQZrXR8jkiUEKKWGSu+sPrvEM/ORN+prY5nWkDEnwlDHa1KFTIqgY1yVMq4E0nyc+g4pV8UjGUIjUaIKDZCANbohtyWFil1LAJRjEkUjJbkwIwstiRQLVoVarEiWj2bJLKJ6isaZlwdO+GGHnNxcRTzMLtnSRpw3Stef1/XjpC1d6il+4/esfG/ohZu+1cFAAAgAElEQVSTQXy8jaZT6isLalYBYMAYSWtLM1u2biWdyePnW+hf2ofVGqPjY0WSSfvq3cpMrQHYhndErYw6vgY567gGr3+Sqfsa6eLixOJx3ElkX2hdT4aSzILZeBWmIJpubjhDLcHOrLYqouuq7bEik3LJWtmJY0UEoiYMye8J9Xq19fLG19QoDk4SFsYJxTzMftTihmPrDajxwarnAbr6wZv7SpKWrN6A55wvyXqNRQGEmq6ubp569hnufXgGP9dMrrMDQoMnktyZJj7v9R73q9+LvikRrXq4d01U4uAjKWQkRPPQmFtTiqszFoj4PMlnr1WixBqYe+7rXwEoqa55/lnHNWTrTiyQ3+9cmTfPl1goxJzf53cqNb4i4xVGNzqynG8J0PU+PZ9B+mlGswt9V9RhRg+zn8mQSqVpXdSLER4Va6gajRTJSpBPw9UlmNvQZg+lPv1Y/UaO/TzPf+tCsmd3H8z5a24XUx8QfjX40gnF7BlsgZQKIaKxpzW6NiZOet7I7JXxBjs2SiybjKOv41CdT3YaQ22oNcP6cCL5pX7Tr34grnddtd/n3Xei/v3JuzpOrqutRuiQ0GpQsmY+C5VYOjf3wF27M52vRn73+Pysibn3ou4rgcTnFfuoAEy8ejb+9JdZNr5EQpGY59F43wiwQmKNIdQapWRt6lLEY/Nk3AvR1KUQMt4nIhaN2C8w72TXXBGxsze6SyZ5GwWl5mKwN/egXWOEz/UejaiMAi0E+H60zMtGD56U1ze3FyLxv4jYqXnN4cFVDepGpdDO89rc4+erlfnOP/e81+q5xZwhxc3Zi9fmWsfeSN3b+ikahq42cSpbi4gX+9X3ir3Rc99avkRCASLprUXUY6aUx8cfH6AwVWDjpg20tjYT6NhDbiwIg68UlVKJwVOnyeVbWLp0ACk9tA7jJVUx8TNmqXfCVw9uLPUGbElcZCbxQ9rGTyenrTsKZXJsPN6Ptp2oz8uL2rmjWQ9j6qeae8aa78M2vl43Vq/vl5/7wM3+2xKtY0nG6/Ugo9nUHuhZZ5nfkmrcV3V22a5n0wHUHZHzf7bxbHPfnz0cjMoruXbK2Bu3vmaX6UbE4uqy1fw9JtnoSVBLrycFCImOt32cbUt/+fjSCEVi0BtpsVbjA+HMFC//4gVUqol16zdEFas1QkXZiMJQk/N9pqamePWlF+lbvoq+vn6s8OLUa0nVR1vOCQFSeYTGQG11pY2n4gSlYolypUI2myGbSUfDDAEYEz82KpoeFNGyb2Pr3nMJIOPglXgTjCgIzUK8L4VSqubgS96zxkbaEs/7CwTa6HjaMEkhL6KGneyaHH+FbSi7tSb5WqSKphZ1vDeIjJ1+WuvoM1LUzmOMRQiNQMRO1qicNvqCmhllrEFKiRQCrU3NqgGBNSae6qQmktGCNDPruU+cosbEUhhPE2sdx4pIWSvnbCvHxol4ovsVhmE0zQkQ10OtE4jrzlrqZYqFWcS5LeqO22SX+rg+bT0K1tTEpkHcoT7VGx8Tla3RSovjN0y0lF7FVrGNnw8EhGGVwkyJVDqL7/uRtVwbmsQX9SXjUybXnT2an8VNXmODQRZNiQlBNQxpyWY49vEeThw5TO+Sfto7F1EJNFJ6CCRS+ljr4SERQZkLp04ydOECqnZD61Nl0oInFZ5QeAhSQuALiScEvow21En7aU6fOsvrr77BxfOXyfhNCDyUUKSlFx2nFJ5S0cNpo4arpIq871IiPVV7CKPtCaPGppSKktzG5UJEr6X8FEJEqylnzTo0mNBSRg+mic1T5amo4ccNOpnyixLsyIbjFFJKlIqCpaLYCAU2KrOUsi5yUtWEysSxIsnqU6U8lFJIIZFRGG7D1HHclOJjlVS1Bz6pE6UUCBFvIVB/ZoSI3lPKiwOsdK3eEhHyvGRWo76CNpohEbX68v3ZfZ0QEt/3I1FTDXUeKS6e8qL34jqAWDRFcm9EnDE9Km/tvsl4G0dsbZ9TEUffRps3eUQbPQMiavhSSDzpoSDalQxIex7T45O88PwLHDs+SCqVizo2Sy1Z0peRT2lRzOcKjFnIWpvvENs47I+SvaSEx8G9e8llcty+YTMylcXqKtVikbGhy5RCi0plaV7aiS80WV/hC4USglK5xPCVYRYt6iKdThMEVSbGJ/CUorOzk0qpzPDwEJVKmWwmS2dHFya07N9/gHfe2UYmlaOjpZOmlhzpjEdhepLhoSsgJPnmFtraO5FKEeiAkZERwFIsFkmlU/T0LCLl+5FloRRTk1NUSmVSKZ/RkRE6u7roWdzD5MQEY2NjlEolmvPNtLW3kU6nsFgq1QqXhy5TrlZpbWmls6uLdDpDtVpldHiIqclJtNa0tLbS3t5OJpWmGgRMTE2R8lO0trRQqVa5MnoF3/Po6uygXC0zPj6G1YZqpYLn+XR0dZFOpRm5MsLE1ARSKpqb8yzq7kYpj/HxMSYmJgmCKinfZ3FvL+lUKopkjHtRKSVjY+OUiiWElExPT+N7HkuW9GGMZmR0jFK5xKKeRXS0tYM1zExPMTY+Tmg0Ukia8810dLaDhGKxwMx0AWMsodFUyhXa2ztoa23FApVKhfHxCQqFaXSoae9sp7W5hWw2R7lcYXp6mkKhAMIilcRTivb2TjKZDKVKmfHRcaYLURk7Ojtobs5jrWVsbIwgCLDWUiqVyDc1097eRqlS5dLQZfyUR1d3N9lsDhEL9NTUNCMjo+jQks/n6e7uwk+lmZwcp1yaIZPyKU4XKJXKtHd209nVRWWmyNnjx3n71dcRIs2irj5aO9vI+hJseD1P803R2ATnO+PNDnJ+y6HHPF/3KQWxFgtgJR4+MzNlzp+7RG/fAD29fRgLlXKFt157jUN790Iqj1Ypnn70bjavWoyIE7ampOLEmZP87IVf8L0fPMfGjRsZHR3l5z/9KV3t7fzRj37Eju3b2fnhh0gVLdH+1pNPoYGPPtrNpUtDbHtvJ5NTMzzxxGNAyG9+/RIXL1wi15SnVK7yB3/wLe666y6mJib46b/8CxOTExhj6eldzLe//Qz9fUuivUOtYd/efXy440NaWloZGhrikUce4t577+bNN97kwMFDZDMZypUSW7du5ZFHHsHzfLZte5+9+/YgpSLXlOOxRx9j6x13cGD/fl588cXI/6I8jDE89NCDPPbYI1y4eIEXX3qZ29es5Rvf+AZBUOI3L7+CsZY//tEfMzk5wT//8z8yPVXAGkt//wB/8NSTTE1N8Ytf/DKKHNUhi7q7+Tf/9s8ol6v86lcvcunCRVK+R7FU5P777+OBBx9EedGuZ1iLpxQ7tr/P7o/2Ij0fgcWEIVs2b0V5KQ4dPsTExDi3rVnFD5/7Ic35Jnbt2sV772+nvaODyYkpOtpaee6PfkjfQB/79uzllZdfIpvNYZGMj42zbGA5P/jB9+jtXcz2j/awbdv7aB3ULKlnnnmaTRu3cP7ceV555RUKhQJNTTkuXrrIop4env32d1i+Yjk7tu9k164PwUIQVOnt6+W5H3yfdDrNq795ldOnz9DS0sz42Cj5fAubN21hdHSU44PHqVYr3H33PXzjscdoaW3hwoVzvPba65w9ewEl00jpc//99/HQw/dx4vgR3n37HdqaWykUZhgdm6Cnt48//tG/YnLoPNtee4OpK2Ps+3APU9Nlnv7Ot1m1vA90416sXy5+i6GHrJmFxKsRZGyO1vfGWJjEuZh4+QGU9JiYmGJ0bJq2ti7a2jux2vDxR7t5+YVfEZQ1K5evoVw0DB47jScyWC0RwkMJwcToFfbs3sX41CRCKaqVgP179nHu2HF0cYZ333iNoUuXWXPbenL5NqbLFZqyGdpzWXLpDM1tXXT2LEV4Wd58Yxtvvf42PV2L2LpxM8cOH+fnP3uBidFRhAnZs3s327d/SCUwNDe3YYxACBWldrMhw+fO8N7b73Bw/yFyTa20t7Sze/sOXvnVS1QrAVs2baFQmOKVl1/hxInTXLkywc9//iJXLk+y8fYtZFI5ijNFZiYnefn5X/DxRx/T27uCJYsHGDx6kp//7BdcGh6lVCyx78NdnD9zlkw6S0b4nDs6yJGPj1Kc1uiSYd8HH7J3115KZUtzSxtjoyP86hcvcPjAIZb1L6Mp18zZs+eYGJ9k+/btvPTSy2QzOTZt2MLE6BQ//ZfnuTw0ilIZTJziTynJmZMneeftd7lwYYgli/sYHb7C3/3N3/PuuzvI51oRgeX1l3/Dof0HMKFhZHiEoBKw9vZ1ZNNZ3n5rG/v3H8JaxcjIGK//5nWOHx0kn29Bh/DqK69y5OBhpIWzp05TLsywavkq+pcsZdvb29j30SeUimV2frCD9997n/6+AVpybXy8+wBHDg3iZZo4d+YC//g3/4OZ8Sk2rFtPZ3sHr/36NQ7tP4gycPLoSd57ewfT49N0t7dz8JMD/MPf/zOHjwzS0zPApXNjvPjTVxi/PIYpV3nr1dd587XXWdzdw9rVt3P+7EV++ctXuHLpEuHMBO+9+QZ7du6huamdlJfn5RffYN9HB2jJNdPV3k7aU7TkW+jqWoSfihbaJf6mz4K5c0Pzu1pv/Ls+hUURiYGI43dFzZObrHu4+TCSxJgQccyA7ytGp6YYmyzQKxSZVBpbLbPz3bcoFIr88D//OavXbWXr6dM0ixKmCtZ4WHyw4Ito/G6ExMQqlFWKtlQKEVSYnhxHqiYGBlaz/o57yDVnWN3bxf13bmFoZIo7732AZ59+lsETh/lo1z5acq3cuelOuhb1sHzgNo4cP8nolRF6e1rACFbdtp4///P/QGdXG5lMCmMEaWvwRYiolmjJZXno4cf45hPP0N7k89/+7/+DmYkCqx9dx6oVazh19iS/fuU1jh05xZatnRQLmpZcjvVrtrJ58x20duQ5uPcAh3Z/wjPf/h7P/ejPEDqkOZXlL//q/+X4sVMs612Ej8QEGoGHr6HZeGjrg86R9w2ZEFZtvJN/9eP/SN+Sdj587zUO7tnH009/lx/+8I8ZGR9lcnwcow0fvL8DiWLtmvXctmINx5ad5Ne/+TWXLozQP7Aq2jVd2GiFYTVg+bKVPPvd53jq4Yf5Wcrjr//up6xevYl//YPvc+TAbv7L//lfOPTJQR598BHuvfs+li4doKunh6AUsGv7Lk4NnqNYDFEyTXOuhSeffJpvPvE0Z8+c5r/+b/87xw8f5ZEH7ueuO+5k9YrVpDNpSsUSuVSe8eEpitMlzp45S3trG8997zmOHTrBu2/sYMWKdSxespy3X3qRoVPneeyBh1izajVtrV289vq77Nm5lzvXbiRNlr7uFXz3ye+yZs0Ao8P/lcMnznHPfY/w5ONP0SRaef3FlyiPFZnOjvHem+9iKpqt6zfS0tLBkcOneG/HTi6cPkmLZ8kryUP3PcT3n/sTzl24xP59xzl/+iLPPv4wjzz2KG9s+4DNW7fyzPe/j/UVxhqU9bBoPrVZPk9LrbWvOa9Fs03Xdp7W/Doxn3Lo0TidE/1d/8r6FNyn0sbY6VSuVKMMzzqeYahUmZkYZ9GSpazYtBWVzrFq9Qp6m+Di0U8ix5TwoylWo6ONe4gcnx6GtARbrdLanOeBhx/kN69+wF/91d9z5/338vA3HySXzpBNSzzfJ93USj6dZ2ToMoXJKVJS8P57O7EoKmXLimWr8aWPrgZkUjluW72R9eu3Ug6mMTrA6BApbPSdOqB7UQ+b7/w6SwZuozh+gUq5TKAtR0+c5uLlYSbHx1i0qB+tJZ0d3TzzzLO888a7/OVf/n/c9/DdPPjw/8/em0XZcZx3nr+IyMy71L6jUIVasBWWwlYAKO6SRcqSScm2JO+yj3vcPac9M/0wLzPzOufM6zzMa5+x59hutyUvMkXbsjaK5gKK4A6CBIidxI7at7tmZkTMQ2TeewsESYCEyJJ8/zzFKlTljcyIjPjii2/5f/dx+d0bhCsx9x28l57uLnRUYd/ePSgEc9en2bxhkMDL4nk5QKGEh9KAkUiRQdoiPoLNI5vZP3kQES+xfO0G8WqRg3sO0NXWRSaXZ8fWCU6dPcHMzBxKBrz5xlucfPMUhWKRzWPbMFoQRdqVQUS7uiflMmNj4+ya3M9A9yADvX2MjY6zc+ceRoc3U16cobezm1KxiLSSuBrx+quvM7+4iCcU1XI1sUk4Q2F/Xy9T+w+woX+QQPlsHNhIpVQhjkI8qTh98hTnzp/H930qxQq+yuBJj5ZcntXlVd58/RgXzl/FCJ+RkS34MiCqROSzeS5evMKV+X8lNB79A+MEmTYqpRCMZLB/iO1btzMy1EdHWzsT23eyZ89+ujq62LRpiJ72dpSVlFdDCksVjBC8/OIrGKNZXSkwMjJG1g8oLa/SkssxNXWY4Y1DeL7Pzu0TCC3xhKKlpQU/yNDa2kZ7ewfL5aILFLRu863F+n8CCOrN3ErDrzv1b+9en9BGsdaPfDdCXFJrdmtbG7l8Dqmc9VlYS+D7lAtlZstlerMZyqV5gmoFqLisReGRZl9KqcD4+NbHRhWisEroXBA89vjjdHaN8PIr7/DDH/yE0Fr2jP02kYmoxhHGOtuzkhHCRnR39nP48L1oPGIjaW1vZ2homMW5S3h+DilbqMSWahghMciasmfxPB8vyBEjWI3LaDRWSTL5FnZO7meod4Aoisjn8/T399PWluMrv/YIY8Ob+Nfv/5jvPfkvaARdbX1IlWN1ZQWjSxgbslJcQElDWzaDjjTIAIQHQlEqV6hEIVbkkmxRg68kwhqisEwmDmlXHlkElUIRJSSVSkg1qhDFEUop2tvaOXDgIC1BHisgm88yunWzM2Im7tp6jqzjLqgSYpLgtzg2hHHoCiB5Pq0tLVy5con/9pd/ybXpGzz2ta8ireTsO2eonWKFxVMQx1VCUyEMq1hjyAQ+cRTy7W9/m/Pn3uPhhz9PT08Px4+dAEDHrnZquVjhpaOvMLtUYGL/Xg7ecwhlXVV3q3y27Zyke+MQxdBy6N48E2MDBPksOgkuieKI2FaIjEYpjyiqEJsK1XABZCHJCs4iVZ7Ojlbuv/8BSqUiu4xH0NLJxMQIL11/B+EFhFZSCotYU6SzLYDY9SWODda4I7ZztyddF6nL9S4hkQPCftB6vP2brcvao8YYOjo66OzqolKpUCpXCfwMA319XL1+ned/dpTT58/z/JEjvPbqKwRKYbUlDl1sRD6XwcPjrddPcOrkaY6+8DKXrt4gaG3nyrUbnDpxgvHRQb72+CN4ns/596apRIJsSxuVSsiFcxe4cPFd2rq66d8wiI4NA30DTB2YYnBoAyoAPyfQtkqsLZH2ESKLlB4uZVwgsShhsbHBxCCkjxGQzWVpb2/FImht62L/5BRbNm9HCkU+n2NxeYG3TxxjcmILX/7CA5iwyvT0NMMjm2jv6uC555/n/NkLnD97niNHjtDZ3sbmsTE8z7kZz5w+w8m3T/Daq69y8b333LPIDJ7w8K3jb1BKoATsmthGd0c7Lx19kdOnT/HWW8d59tlnEUKweXyMKI7o7u7mwP4DbB4fBwv5fD6JYUi3K4PWceIB8fCEh5QCHccYbfGVRyAERDEZKVmen+fKe+8xvHGjW+zdPegoJo40Ujj3ahxXkdIgpUUI46qMWUMchVx8912U9Lj/vvvZMbEDKRQSSaUcUipVac23I6xCKI+R0RGCTIDRMe1t7WAVnp9l98497N23H6kkfhCgAh9tLbEB6fsuXsc6UhtPQatSEBfBFClXirS0ddM/MIQ20N/Xx8H9U2zcOIwUHoHvI7FoJJH0MBh8EUK4gjAVlHBC1QLXrl3l3LlzVMoVrHVu2fWKdRNw5ZDwE8QRna2t9Pb0cGN6mpmZGTZsHeLBhz7PK+9c5IdPPMHJkU3MX7vIY5/by70TO/FkgDUGHcdsGBhk6+g4Lz7zPMXZWeamL+K1dOK1tLO0UuQHT/4zmVyWXEcP+ZaAiZ17wMvT3TdIR1sHT//4xyil+fKXH+bwfQ/ww3/4R/7iL/6cid2TvHPhDD2DvUxOfguZlQhPofwssXZny9QPbqwljiKkUPjSxxcKaQ3SxHzu0BTvnL3Mv/7zv3D98hVuXLlMobDMt771+2RbPL735Hc5OfwquhDR29XO1m1bGB4f5OD9e/nZ0dfQ3w4wpsL5c6d48OHPs3F0BBPF7JjYwjPPv8hf/vmfk7cxkdZk8y2OA8IKAuXjK0loQqwNGdoyxu6pvbz42kssVAoslku0tuWZOjDJw59/iHfeOc23v/3fmdw5ydLiEmEcMTQ+Qm++txbzYbFIT6GsxJgIg64FfElh8QQoa/GlwEQRg3297JqY4NL0DZ588nucOXmGxcVFAj/AUx5aazzfx2LQJgShER4gLUHGZ9fuXRw7dpIn/+mfUEpyY3raFT2SCq2hUKxgpUdLNs/rLx1l+sZlfud3vsne/fvYs3M3z/zkKd69cgnhB5w4+Q5/9HvfoGf/JF7GhzB21dlcoAuxjRAYNEUyypLNKKpRia6Bbh75yqM88Y9/x5//f3/O2NgIZy/O0t49wKGdvQglsUoSCRf8pkyMLzWSKkZXaW9vZ3BwkJdeOsrMygpf/fpv0LFlHB3bmr1uvUH97//H//Z/ftRFaSCKNprLVy7R0pqnp7cbazX17OKGEN6P1dF68E4UhfS1d/LumXO88vpxRrZsZefEZjrasrS2dSHwyAYZxkdGePiew2zo6WG1ohnbvoPRkQ1kM4K2th5MLGnr6GDrxHZ2Tk4yunmM8dERdLVCpVrGSsHE3oPc+9AX6Gj1yHmQy3cQa0Hvhn4mJneyaXADnfkcNonIDFoyjE+Ms237KAhLZFrYsu0AmzYNIGwJrMbD4tkQT2iqoaSje5Adk3vI5gNUVGJjTzed3f1UIseUrZRlbGyUPXsmaWnJUyyuEpcjAj/L5NQhpu69j87OLIMDHQRBCyb2yOdy7J7cyRe+9AgdPV3kMj4d7S34SRDX9q2bmdq/j42btzOyZTvtGZBhgbFdu+jcuBGtS+Syiu6+fqznoRF09/Wxd+8kExPb6O3po62tnTiMkFKRyQZs2bqFsS2b8QIPIS0CjSehUi4zMDTC6OattOZ84mqJTK6diR272dDdQVRcJbYR41s2Mzk5SVtrK6GOiaxhaONGdkzsYFdaszWu0prLMLFzB9l8HmEgDkM2jQyxecsYPT19IBTlcon+gX5Gx8Y5MDWFNpojL7xAT08/jz32NTYNb+Ld8+c4fuItJiZ3cGByksHuLmITUg5LKCXZMNDP1IE99HZ3Uq4aNg6PsmPnZpRnKJQqbBgcZmLbGO35gLC0Sms+z5Ydu+naMEhPfzft7XmqlTLGanItHWzZtp1d2zdh4iJ+Rw/b9xykuzWPiipEYcjwpmFGRzeRa8mB8omQ5Nva2LFrp6smH0fIRuPCJ0BDOBxCSIyGq1eu05pvo6+3z0WYfsg5J01cq0UU3zln5hH6B3rYvmMr2oQJZ6aLGUj3GPMxOppaYKUSROUqg+1dvPnya/xf//f/w4EHHuI//6c/Jis1YWiJjU8lNuRb8nRlPagUWK1GWD9H4MUYXcIan1LJYD0PL5fB6BBpY9qzGYhDVoolYqGw+XYIshAWyYoYrT1KVYh9jyCfI281WR1RLVUoVavYwEPmfALfVeYqVfMguslkDJICRsd4AnxbIiNiKlVJZHJ4uRZiYQhMhSyaiAyLJU2pUiLwJS35NpTyscRoHVFeKeLJDDKXR2YCfFEkY6vEoWJ11aI8yLYorC+o2pgAi2cMUWwJQ01nPo8SgtUQZK6ddkJ0YY6qF1AJsggbkpUxAkk11BTLISoIyGUzCGmxxrm9V1cKWG3wvIBcLkfsfg1SI9D4WOKKK6wsgxY8YkRUpRIKvKCNFilQuky5WgZPkM/liCPDaqVMaDWt+VYEgkgIZBAgdEhcLaICHysknvCoFstIoclmfYTwqVQj5/HI57FW0pJv5cWjL/Nf/98/Y3BwhG9+43cJSyV+9MMfcOH6Jf70f/1fuG/fJF6lQjkqs1wuYYVPPt9OPuuBjVkta1BZMoFGUCWMDMZ6ZHxJ1hPE5SImCvFyrcQqcBwcWEqFIlEUEeQ6UEGWvFfBRkuUjI8NOslYTVaHhFVHBej7CuV5lEPLSiVCC0mQz+J7CmHcccvYRkbwj4eaoLDOXR+FlpdefI2B3kF2TuxCSlWLML2VwJBCICw1zsx1ISjSWAr3gCBiQ85KfA3/9a/+G0Wj+cZvfZ2N/b1E1ZjAyxIj0IAwMZ60GAtaAFY7nkmhkHhoIYmTI4ESBqGNSxaTCo0gwhJZRxIr0zR15dc+5xuDZ511HyGJrCW0BilBWoMhwNgAJS3COhZuZ9DUSGHAKgwuUtMK8GyMsDEGDyODpIydSTLj09OrO+9bK4gB4/wtKBuC9VEy51RzGxFjMBIUrg9CKDzpJ6UIDSiPCIFvND6a0DpiX4tG2DjJT5IIoZxjLtGcXPCbS/OXIg2hdmHkGpOEvFhXrR0wOHe04/i0gIe17rjlCXcs08LlvQik47T0nG1JCIEVAiMB4z5vkjwXaV1ZRSFMkvQlXLyMkhjjaPoymRw3rs/x1NPPcvTF18jn29HVCGENB+49xCO/9igdeR/PhE4DTrhBtQaBAUxSR0UghAFihFCAC+93xlqXzOWupjY+vvSQUqEtaCySGEmERhEjkcaijE5M/UlCmAWLh5U+Ti+rG7/T+6w3QfGZ2yjqQ5Kcz6x1Lrc4Jp/J8/jjX2Z6eRHPE1R1jJVQMVVMUrLPSktYy41IY/ale7k2pJY+UfNQC6dJ6LiWlORja5PQYrCmAlY4a7mwREIQJbkdQnooIZN3KJEyQuDca26huxetkWgrk+eJa0x1sbAun0BYBCHapPkNyXgkiUyaGJJQaZVOLukn/SiSpilJBCJJFjNSIhFEJo3wM1gdYrAYKwmFS0qTNk158hJztkVjSG5Wk9quiqGuTyPB3Q4AACAASURBVCTlnkPaNG5GJPkPiVfeamoMDGl9UeGqkqcnVCsB4e5v4yQxzyZLULuWTM0FQkInkGicwt3T4GxR1mqkFJSqBbr7OvnyV36VLVu2c2N6DmFhZGSE8fExstnA2Ro8342JcdqQkI7bwxWjjhAk3hzr7uJ6kohukSSKJRG3wkkctNXoOK6Ng9MFPIQwCBtirHUbWLIRiiTd3PGG6pomXbdvfXIh8fPAZy4ogNogW+E0AyEsMvCp2pihkWF67SDVOMbYJDPSuirhVljH15AOtq1NWUgEiaz9PrkREpMmjAnAaGgQNDZZnCIp9GulqDFjuj+4iUJqtkwmHbgq4jWxJ1IWTePaEm6SOCZuJ1Ak1LMk0x1HJO2KdMklkxOVrCOLFRrHTSFc3Iio73lu0ieLS7h/q2Qn1Natddc3mXBcNBrQbI3ezg1bI7FKKkzTANp6vIxbQPXCyG5xazd+gsQ9m1IIUOtfY0hQYyBQLaAvHYHUzSfSJK9U45GOMDgZq66uDu753EG0JklGg7ga1rQknbh1hZTOFoB1mlwyrsJqrHVzpJ5iL2tL2FjXT5mMjcvYTbRAa51Adv4upLCJsMHVrU17lmYI11quzaTa3FlvQgLWi6BogEkmUtUaLBIThlgpkSSZeSZd9yIpQpuobO+beKIecNLQvmODNrVXREPasINoaN99+Ob4tTq3ZKpGJsS7op6aLNL06HSK2PT3dSOTSSZbPXQ3KUqc3kw03jmdkAKsqj1rfYEllPPJYkif0yZ7uUQmE9zQIOaS+6UCY41uRyOXxs13S97WmnGuXVeTPGvfQ7q+02db+85ubvsmAlwha5oLtbF1xxBwmbrahkDkUsyNqAt25TQWaVOBbWvvGKQTbGvWp2j4lvCSGEifwD1e3dhXH0mRMHs4bcqmgs029lIkWkXSx5t6/vEcAT9/3JGgeH/gRm2arZl2nwROs3D81hHJxLc2eTH1BZc+T/226ZA33N+Km55LrNnJ7BpN44NRb9U2CAm368lky621lUy6NS3W6OrqPnQpnOMtPa64nSkl0DC1eVsTaGseVdb++r7Rtrbh0lv0q8ZxQSrnGtq4SVCkmkmqZSSWcpF8vhaFK27F35me7ZOHTol8LHUBYWm4VyqsbtIthEw+Vx+N2rustZ1oH9aVB7D1R3Ckv8kRMy1NYE1ydFqjTaXtNI5FHWuFoah91TLY1/zV0SWkc2YNYRFizXsR2JvaXJ9Mmh87wqNRQt7808dtr/GrpuqlL7nxuLDmg41T/eYhvlmVc2r8B0eqfRic3uC+JMJCHMVUymXKpRJhNURrU1OP672q9ykl/DfapUCXSkXmFxeoxgYhvXoPRH36yOSZJSnfg1rTtru8gcVApEJrrYbltJcPiu9fI5Koq8P1LymTlD+79j25j4tEZU+OWYnWlnQlYfuqHz1qY1J7tze9/+RaKQRxHFOthImAqhPNND6bFc7EaDEISRKsRc1QLCVUSkVOvH2cudlZhFAJt0YDjyU26ZxlzQS55Ulg7S/fP5fep4N+SGNrRnLd4gM1ilt1J40Zr5Oy1TM7GnM87hg23eFETW2u3c86W7FI6zyYD2nn5mZvNf41vf4OHi6ZUBKFNRbP91haXOT48TdZXFgg1gbfz7B9Ygdbt21OPpUayVJNyBGZ6Dh2/RNw6p2TvHniHF/68q8zPtJLpbTkCg8phY4ilEiMlcKp1sKKxFhpUEmFrNReIGt+cVszANZXpfNYyEQLEMk1ri5G/WiCNWAMgaeIbAQyESzGZeYKY+rGTWER0inbQkgQbjdPX5xNVUMJNuGdSJm1rEkEqk3aSDTClDTH3dMFbp0+dYrLV65z+PBh+np60LqKkAZttCOhES6S1wrHCKaSdtOd3FiDL31KK8v88Mkn2bl3ii/92tfIZHzQlWR4PnihfuhR4GPGW69PneHD8aEaRU1mi8afUwOTrf/c8N+dCseaPE2OFtK6rzU2BpvuiA33rd3/I5795i9R78OHXPW+L2klGOEYtHTM6ZMn+Nv//je8/NLLnDt9lr/9zj/w06eepbBaRUhH1WeTnSml0cM4VdgPfIQ1nD93lqeeeoGFZYHntwHGLV7lIz2vpuZnfZ+F2Xmee+ZZlhaX8D2f2tFHKpRSeF7C2JRq9cIdCdJ3JxKmrJRBSluNEaYmVATgK5+M8giEdMbiREWXKoMUKrF/qCTU2o2HQKISijyRuNQwFi9ht1JSkvF9wGK0QViL50m81O2qY6x19VKlsChP1TQaieH4sWM8+b1/4sb1GYIgS6ydkJCJgJEN2osRktiCED6+l0UKjzgpSNTd2oYXxbz4/FFmZgtY/PoxqkEbbjy2fPRcusV8vJ15+TE+91njw20UDYt+jRLfKCCSHe2TdLFRhW2841qZc7eG8E7bqZ+hrbZ4HkRRgXfePsaNa1f5xjd+k02jY5w8dY53Tp1laaVAR1c7sQlJ9w5hk4KvUUSpWqYcVchlFZVyiVgLjMgSaUEYRqwWV9EsEfg+2WyA8gOiKObMqdP89V/9NX/8HwMOHD6IVC75bWWlQDWs4nse+XwL2VwGa6Q7ZlhHZ6fjiLBaRaoAa2Iq5SKRNXR0d+P7HpVCBV0NyShFHIcYG9PS2YoxhlKxQFy1WOMCyTo6u0AoPCmJwiorpRXCOEQIQXtbG0HgI5RFxyHLK/MYY8nn8vhBJjm4KaqVKivLCxgLni/p6m4njiLCSkQpMsQGOloCMjmPwYF+tm/dTj6XR2tDoVhC2yr5TEBYrOB5Cj8TkMm14klFtRpTrBTBGqQQFIoForCFke4u9u7eyV9994ecfOcsff09eInwE41nog+ZBXdnPq5XUfDhuDNjJunun/7r/cP7cYfhZjPO+jm1peazJMtPRigvJAgsuXyW9o42wqiCFZa+/gFaWloRSkGcWO6Ss5KvJNMzV/jZ0ZdZWF2htTXHOyfPEGSyWAGFconXXn2NS+9dQFtJOQrZsn2C+w8f4tLVi7z4ws+Yn57myHPPUSiX2HdgL9M3rvH6668BgiiMGRoe5r777qW3t5coirHG4PuSpbklXn31DSoVDdYwv7SAymbYe2CKqQP7mZ27wrGXXyUqVShWy7R3d/ClX/0iq4UVXnnpdRYWVpAYfF8xdegeRse3Ij3Jexcu8vqx16jGIUYrtmyZ4NCh/ViqPPfc00xPX8cYSTbTyv4DB9i5cwflUpmXX36VCxcuYK2lu7eLR7/0CNVSgZ8deYGZpRKl0LJnxyj3HdzD4OBGpmfLZDJ5wjDitVffYHbuBi1eQLVQpKo1O/fuYerAATwEp8+e58233iKOQ5QSrBQKDA8P8btfe5zRbZvxMh6nT53knnv2097qEcchXgNZzAfNu/UzHz8brCv36Lp+GdYiJcRxhXzWY/v2bTz5vZ/wN3/9t2TyLeRzbTz6yCNIKZmemaa9M+eyR02Mkj46XOG5n36f7//gKbbs2IMxghPHztAysJ1cNsf83BwvHz3K6sIcE9t38dIbb/Gz146zoX8jslJh+vp1fAFz0zNcuXKNkbExjh59mePH32L//oOcPHmB555/ldaWbr70pWGi6irWRvgyQ3F5gR99//tcuHCFfQcO4GUDTpw5z9unL7F9+06Wlhf59ne+TWmlwsj4ODsmJ5mfXeGZp37MkReOMjK6la7ODo4ceY6zF67zn/70T8l7ku/+/d9z+uwp9h88xMX3Zrh0cYHNm7dw7vxx/vqv/zu7du2iu3MDLx99iWvXZpnYvp0zZ87yne/8Le1t7WzZvIUTJ07xufvu58LpM3zviSfYPnkPJe3z9ttnOLhrBxcvXOOJJ37A1m27GR0Z44VnfsaxV19h97YJhjYM8vzrr3Hu+jzbtu8gKzQ/+OcnOHfhXfbt28upU6d4652zPPrlx/j61yTtvd0MDm1kfm6OahhiVRYTV5MjmflF3ew/FawrQbGuIWwtQSaONaVSSBTD22+fo7O7j//5v/wXDh7Yz7/+6F8RyvCrjz2C9CTWRAgVce3qRZ7+yY8YGRrjP/7x/0gUaoorMWenC45/I5fnvsOHafUkY5vG0SrLX/7jv3DinfN869cf50uPPMrf/NVf8JVHv8Thz3+RUFfZtWs327buZHR0K22tAzzxj09y5cos2sjEXhCjUOQDDxFr+rr6+ebXv0nvhn7+7K/+lqePvMSl966Rz7cQGsv4xA5+//f+kLHRcS6dOcUz33+ayUOH+cYf/CGdHR1EoeWFV17i0qVL5DzB8bff4qGHHuZbf/jHnD13hfmFFcKwytNPP4XWggfuf4SNg2OsrBhef+0VLl68zPT0DFevXufArx3gq499lZmlJXKtnVy8dIVKscK+PQcY2b4PXZqjvb0bz8uDzWFNgCcz+MajO9vJIw98kXseeJACPm+9e56r12/Q7se8e/40kzt386f/w3/mO3/3N1yfLrBr8jBepg2Vz9PW0cb8/CraaIxSaCzBGs9ZE7fC+k2AX28QEBtNEOQ4ffo8P/rx04yObeULX3gUHQtmbsxx8eIlnnvueU6fOoc1LlfAWpf7MTMzz8JSlX0HH2DrxB5279nN/n0TeMpSKldobW2nu7Oby+++xzNP/ZSL714GkUHHkvb2TjZu2EDGV2wYGKC/v5/WlhybhjcwPz/Ns88+w7kzZ6mWq0gZIERi7EyCjAIpsZFlcsc+7j18LxNbt7FjYic2EizMLmFjaGvv5ND9D/K5+x9ky+ZtrM6tYEuG++97mC27dtM7OMRDn/8CXa05KkuzLMzNk2vr4577f4WNg2McmNrPI198kNZWn4WFGYyxnDp9gWeee56VlWWklMzMzDIyupmdOyd558Qpnn7qKVfywM8yvGmU7s4unnv2OY4ceYFMJsDzFUJIfC/jjKPSGYNHR7awb98U23bsZcfmbYhqTFSqoJSHNRCWQ6avz7GytEJXZxfDw5sAiQp8d00S5GaTECqwH9uD8e8FTY3iNuEifSVaw9vHT3Lh3cv84X/4U6YmD2HMn/HjH/2At956k6uXrnPo4D0EfgvaVJFIlJJUI4X2exAt/RStR0aU8IMq2pQJ/IDLl6/xvSf+heUblzl08CAShalafBlgtCOHcS7EGGFgaWmWJ574DmfPvMv+/fciZYxJDKhJORFIvBxYgdUKX+UdNZ511IA5z0PGAhtJhMjQ2d0DHkS6jBSWfJDF930iDJgIqQyBiMjaiLJVxKoFEbQTWwEiJgg0gRciRUQ2l6WlrYM4DNm6bRMHpnbQ19fPyMhmfvd3fo+fPfsMr738Em+ePs0f/+n/xMGD90ClzHNH3+QnP/w+CzdO0fcffhcpwZjI5WKokBiNyGaRmQDQBCaizWoyCKzxCUPL2dPv8k///AQXL19n7/59DGzoxZgIX7q6Jq4wUpL45NxSict3XR9+P1M0NYrbhLUCkiCdKIoR0qMaabq6Onn8sUfJ+PDsM//GytIy7a1dRBWLNT5S+Cjp0dU7gPBbOHHuIldm5zn33nucOXuGOKw6avkrVzlz5hyj41v4zW98kx3bd5GRAcIkoWxJda3llWVWl1aZmZ7hyHNH6Gjv4GuPP87U/gO05HKukHMqJqyLc8AqlMxw+fINLl54j5mr17ny3rsooxnoGQDtg/XdgvckeIZ8mysjcPz4ca5fu8rqyjJvHHud5ZUV8rkWcvlW5hYWOX7iBAvzy1y9dpU3j7/O8vI82cDxQh44eIjHvvoYDz54H7t372JwcJDFpQW6uzv57d/+OvccnuL06VNcePddFpeW2T25m2/9/u+za/t2Xn/lVWZm5lEqQBjpKOPQxEZTiTXaJnmcUYk8Mb6F+flFiislWjI5wopmeGQLU4fvpa2zndjEVItlioUC2Vw2Kf6TRBU3GOebuDU+tkaxJkDu38EYO/eowfcDdu6coOPZo/zDd/+B1aU5iEr4PuzYsY1yJebffvo0GzcNs3v/LpQIMCZmw4YNTE3t5Y03X+Xv/y6DKc5z8sS7tOQ2gA7p6e6kt7eXlWKJo6+9wSuvvIyPxReuWlg2nyOTyfDUU08xVwoZHx9haHCcYiHk7bfe4dixt1heXkFJECSJbniATxwL/EyWEyff5rvf/S5+Jubtt95mav9utoyP8eabb6Kkh7COCyGWMaPbR9g1tZuXXnqBomfo6uzguSNHGN26k6HNOynFhsH+Dn76o+9DVODKpQsEAfzubz3O1IFD/MP3fsxPfvQjdu+a4MK5kxSLRf7kT/6EY8de4YUjL3DfoSnmF+fo7+8ln8vzo6d+RHl+mq3b96LDKhsHhgiCVnQUQhLDAhKdxNQYawCn5UipwcYEvk9rLkdULhNWQxZXyiw8+zyrccTXHrmfhdlZrl+7zvbJz5HNZmrlB98fSflLgrvYnQ9nuEoD+5I4W5MyXLXk6OnrqTFcrdcyaHcTqQqvhKG9vQ0/08LicpFiYZn52RuMjo7xW7/9O4yPbubG9AwbRzaxcWgQ3wdMTMb36e7sYGV5kbm5GVqDLGOjmxke3c7WiR2Mbuwjrqxw/cZ15hYW8YM8w5tG2LV7G1u2bELamFJhlRszc/jZFg4cOEh//wauXLnB/NwSSmXo6ell34G9jIxsIOWybM20sLK4wgsvvIxUAQMb+5iZu8Hg8CZ+7bHHmdi+jbn5WVZLBbZNbGVgoAdBTHtLlqHBAZYKRa7dmKVYXGXT8BBf+43fZGTLVlpaW+juamNxfpbF+QXiOGZiYieHDh5k0/AmVgsVrt+YZmFhnrnZafr6+piammJldYUL588zO32NsFLm0L0PcM99D1JcWuDc6ZNMz8yjDTz66CPsmdzD6kpIuaw5MDVJd28rly9fpa93gD2TO+hob2F2+irGxEzs2sn1mRneOnaM/Xv3ce/9DxFLydPPHeHGzAxf/dVf4a3XXuLIz17h3ge/wM7du5xANXESFH+LYMFf4A3QhcK7n1w910/GcHWXbBQu1nq9Zr7dDaRZmdUwws/meeihh9iz7x7K5QI2junp7qavb4AdExG79+wh25bH2CrGSmJr8a1mz8Qovd1fZ7USk820ks+1UzU+Xr6VfNbjK1/5Evv270Z4PtlcB7GWtLRmKIclOrs7+fo3vsnDywVUSwe9ff309fazdcsEpWKFzs4eoljT0p5B69iFads0AQ1KxVX27NnDH/zRH7FcmCOTz9PV1cNqZYnh0X5+57d/HT+XxUYhFgVSsnnXdv5wwxCziyWEsnR2ttHR3Y1RLp/ivnv2s210E6VCiJ/N0dXXS5DLkM1k+dbv/wGLSwXCKMTzJJ2dnfi+z+5duxneOExhaZ6M79G7cQw/387DDzzExOgwoRb4uXaGBgfI+gG7d+1geHgLbR0+1UrIV77yZTCS1o42iuUCO/btY/PObbS0tfHc0RdZWl5maGSE8S1jLIUVsr6P0FBYLXDq1Cm6uruZ2LED3/PQOkKmEXHwS6dQ1FDLsv74uE1BcZMESEJ1JckYp2HA9iNi43+BkVLSCyHRxpLP5+ns6nc5DIC1MVE1JJcLGB/fRNVqly+BBesYpYKMpG9DF8P5Nqz1iUIBMkdkJDoq0tnRSnvXBDphV7IGtI2JdUjW8xgc3MiGIZ9IeJTDCCsVW7ZsxWiD5/mOLj8qYxLOJMdQ4QheWvItdHV0s2lklF7TQxiHGGMJdZlsi8dwRz/VMIIkdF4jwVP0DQ6wYWOAFRDpkEocOuMimowvGB8ZRskcRilKcYUwqqBMTE9vDxs2DEJCQoSFMKzS0tJKZ3snZuOAY7KSWUqhobWllfz4ZrxcDisDpDXoSkRra462tg4iU0ILzcBAr+OQMIaq1rT1dBH43URhyNimTQxvHOTYG29wbWaGK7OzDG7cyOcf+TLLKwUWFheYOjjF+Pi4C2OPTI3LQ7B2o7sLtJWfPWobhQtnXJNIeIdN3YaguFWWYpofUE8vtsnfafj7LxusNS7lWQhibahUyzhzoa1RzwkhMNq4XdejltRlhKKKpWIt5WoBZRUiliA1yAwCTTWsogXEwoU6CyQIg/LAWEE5ColthJYeVkjiOCSMnGoYxSWMNVjhqogbY5HSok1EJp/hi4/+Cr2945QrFUq2hDaOWMZTAq0NWkcJXXxKuCMJtSWMSihRSbJiJUpoJE5jMRYqYRVPCiKhqdqqU+WFIIwMYRQjlUJrkySFSZcNWq0grEYJZ3oQMkMUxUghCMOQqi2T9TznoYgt1oZITyNETBSHgMLGhsD30VazWq7gozh8+DBZP8PpU2coxxHDm4Z4ePdB9h68DxnOc/jee9k0NkE24+xGsiFrFW5aPL/wG15DPm6S8JNwkn0s3IagSC3oNnEnWaqVssvmtKLGH2hlPTvj4zzMh52X1gPShLeaiFSOi8Kk/AdJpqsQLoLTkAiWVJAK4Tglg4xj0bICJSRWJLT0KiE6ESCEo7RL+VS0NWAsRglHyCIdcxYyIakRqfPWGfmsTSIElCLShpaODh5+5PN4QRtGhAgsSonkHOt65CjgUronF2MghEQom7A11YOSbModIWTCJOWySSVAQhMo0rRQIVBK1bYOi0ssE9blqlgrXJp4Mn+ssCgpiLVGCnfEEUJjiLFpKQAsxjpKPLAY4ejz8u2t3PPAfew9OEU1ihB+gN/SifB9CPM89NDnEV4WY0OEocZyVeefugV+QQTG+5dPPd1NIImjCsY4or40sSAhIrwtfIiguOnOCTeEtLC6vEK5VCaXz6FtnGQpNtB92fTzdzLK61tQADVBkbIaaRuzhmolJaMxieaBey0pv6cxuB0fkvR54dK2pXYkujXmJUNsdS2nsXa/JPNVEFPL4AV3uknGLyG4SwxZHmEMQioy7QpNSGxMoi8kizmx4a2daIaGLSBJMIup0fNZAYkJUFuDY9x0AibVOi0iSbhygkvIJFU+4YhIaQOsMFhiTI0dzNaOsCbJck3pZ92umBLsuuluk3F3YkSDFARteQLh7h+bCjYso4RFBlmX/G+qDZpxnS63ETXBJt7/u3UJkeq2aT5WQhGQ7GIrK6uUSiVSrpO0euGtbLi3wkdoFA1JWiJ9wYqVlWXmZxfZuDGD8pUjc22o79HIAnW7SDkK1yvSkUgXv3sphvoSbexrGsTjPilIWSASajlb53S2tRYazE23sK3phqZF7SnWonYSbfh8wrOMNXHCByoRJg3EMrXrPrjfDe+xdqGo/dPiCHgbR8L1NVnECdNzbS2aekNpKylHWuMxwGlkjdfVx1faVGAKrHHj6IQ0TmjElQYNmISzIinsI0QyKmvu9AF9r//pVvU71wtq8TIiXXvJpm0tEo9qOWLmxjzVcoSSfiJI7mwbvwOvh012BkmpVOHq1Wt4nqS3vxfp9N8GxmS4U51NrPPYL3GLnz/4oNWgXSX/Tn9eezxLXVC3eWS7aaHeypu3lp8RRxaT3KlOXXcnU/79T3Xzb1JjoKzpQKnSe3tt3upKecvr6v0Ta8ZArblzjdK8sX1R37rW9l7e8jkbY7BSGbdeDfWNjGY18kchMbGhEoZM35hjZmYe8BKWNBwZsr39I/8dCAqZqIoaLarMzF+nEhcplkt0tHcSBAHSU2hjbrnHNvHzR7qQbha5d3oIvBPU1Fh+vjtuzTR3hzthIz7OOBiSWK9fCKQbtUWiKBfLzMzNc+PGDVYLBVcrJikXkRJB3QUbxc2P4FRnLSqYYJWKKFFcXKQYFsh6bWQyOZTyXJEYu1aNbOJTQiIkklIdP98XkLSfCohUYPy88D6uzk+pfzULxrqfzOkh1tHUWyupVkNWSouEpoiWBqUCIlnFSoupFRuxiNsQ8bctKFJV0ogqVbGE8iQoyVIUogszCHwECmHXUpS/X9Vr4ucJiTvDf1r4RdIoPg6MuCOa1s8QzvNkTeKdM8LRH2aK6GAV6wm0zhDaVay0WH1LAsAPxG0LCpkY5ywxoSwhVYyxEUIEoAKwHhKFsKrOeXkHU6ceg9HEx8Eam8inLJk/zbP7px4I1SAE1+MMXSugbc17JYXCWE3kLRCrFaQO8Gw7WpQAg7DyI+xIa3HHGoWrzhVhZJFYlDBSYozLUJTIpFbkbRrnGttvCoq7gs9iFD/NtfvL3r+PDycyTCIppHBV1CJ/BeNV8MI8SD+pMpeYcBtdeR+BO7BR1L0ZAuGMmrKKlrpm7LkTCXUzpLgT/aOJJv59o+YKJ/WxJbVNUpdyGkfixS76VeRcEUsrG4RE3Tn/UfhYSWG1QBkRgYhr8QRQLwl4p4teNAVFE03cNuqxEDYJQkvWYK1uo/NuOFe4746HDTlZjR6S28HHEhSOFUgirDtq1Krpsdbwcydn13Uewd1EE+sLDc4CtyLrZSYb9Q0XXOfVTAK1avMNn70rxsybjTg2qdZsEzWmHvpi13zmTg1cTQtFE03cPhprx9Z+1/D/m8LuqIf8NXo6bn/VfQyNQiTCQmJFUhK+FvVWVy3udOGLBq2kqVw00cSHo3G5f1h4Y2OSAKROgzuPcvpIQbFWLiUL2d5ckK+x9mhdUt3OozTKtZu/N9FEEx8NW9td379y6nlXJFQBt9IsPhofKihqu7xoCKASANqVmCfJYEyK1lpH1lB/yNt6hERYiKadookm7hgNu+sHrp+0aDSCOivFXRIUjbKpFg2XWEvfV6T4LqgCHyAQm2iiidvAB60fS8pwlWj57zt63N6i+8iUTXuL784mkZgwP4Xw3SaaaOJu4uZV/dH4RLndjXaKJppo4pcXn5gEopkl2kQTv/xY32wxTTTRxLpAU1A00UQTH4mmoGiiiSY+Ek1B0UQTTXwkmoKiiSaa+EjcdUHR9IA00cQvH+66oGjGVDTRxC8fmkePJppo4iNxVwWFsHz65KdNNNHEXcfNhYE+saBo5Ods2ieaaOKXE01jZhNNNPGRaBozm2iiiY9E05j5C41b6W8ioTwS77vyo+1HLhf406vGVWeFbtq31jc+Fgt3E+sA9iaWf/x9+wAAIABJREFUojWERQ10RzdfYj+M+FjUOUuT6z9JFbCbF/5acpVGoVS/r7DS8Tx+FiXPmvhANAXFekbKEZj8nJIX28bFJtKaKjVGUwQmqecAjWbm+sduoTJYV97YCotJ2kyqyNYqv9k1K78ugW6lCVgBVogGavj6RcI6bsX6I4g1hMyyRt128/1u7n8TnxaagmKdQli3tKx1RVxuJjm2a3ZdU/uLEAaR/Nuu4Uisl3wRN/O8Jy0LFDpd2kJjrU0+LRMtQ6TsyjQKn1uVbrLJ/VN29vS7SOrSYgVp5e21z5CQwDbco97zeh+a+HTRFBTrFFakQgJsoiFILBZXXDZdQ7V6DdYJDJFUjRIoQIKQtWNKY1Uokd4kLRTj7ooAVM10ZRpqR7gr3G5vGtp5/2IGagWrpGi40tZ0FEfEnMq6lLy5oalbU9A3izl8VmgKinUGt4jcCpJSYIjd8UIkhRE0gKofKKyrEiWlTQrQpjuxrJW2F8Kxo9dtBCKxDaQCwd3PolFIdw8rkkOMwQrjrrXSMbLLtOJU8vvGdmodSQSKTSWNwIpErEmBRKKEqvXaWo2xBiEExpom2/I6Q1NQrDcIgTUGJcGYKuVyASFBegrl+UgpadjQa3tsaDTVuILVEZ6U5LJtiVai8ZTCWE01LCcFYUAiEUK6JS4ERsQoX+GrDNakJwyTcK6nxwyRsK/HRFEVg0YJ1WDycKUbHNGzEx6eDBBCJqTMFqVcu2EYUi1VCMPYCTMP/Iwi39KCEAprRKIVNbWI9YCmoFhnsNYgpQBtuXD6KpffLYAUqKzP6OZWRsdHMMLtvhbrVHsDp05dZ/paGYwTDDsnDX0D3WjjbA3T12c5d3qZOHZSRgp3hJHC/RwJjZf36GzP0Nudo6urHelJpAStNRZNEEiiSHPm9DVmrpWThS8R2qYPDzhBYYwg06qY2DFIZ3cHYVjBU5LVpVXeu7DM0kyV1YVVwkqEteDnPPKdWbr6Wxkbb6ezvYumgFg/aAqKdQeN7/tUV+D40RucfyX5dQvYRyO2ju3EyCKRjtEWJAobCd584TrXjifXxtAWZNgwMAQywsaCc29e56UfVtBRck1iE0jtAkYAAbR1wdB4jqGt3WzZ0UtHdys2LoGIUJ6ivApHn7nK7AmSohH1k5FN25SgY8gPw4buAfr7cxBVWJ2Z56XnpznzeoHCDBABGqc0qAiyEdnOVVYeXuULX+pH20pS3aoZ7vNZ47YFRfO0+GlBI6WHiPPEy1mYq0CsoN0QLnfi6Ta0LNe8E55VmNDDzAmYtggUtqixK514pg0pyxgNxRse+jJgVLI4BcJztgwTx26lK1i9ajj1XplLb19l/nDI3vuG6N2Qw4oqWpeh2sbqFeAqEPsIKbEmQikPY5IgDSUAjc0FUOogIEu5YHjz2Su88cMqdhmogkKhZAarBCYGKzWV2Qrn2wp88VfyxF4FhEmMoM0jyGeJ2xcU4oNFhXOdWYQQzbKAnxBWGAwWaT0CsmAqYCRoi2e7EDqPwHMGTGuRKHSkyFoJRiPx0FYT6A6UzQERWENAK9gCxBJiS3t3JwND/WSzGQpLSxQLRVZWV6gUKhBDaQmO3ZilVKrwK78xSWtngNFVpPbIxFCJgdgHAT09rQwM9KFjjdECz/cp2jLto3naWrqQ0mfmapHjz1exi0AIvvQY6O1nfMt2rPIoLleYnZ1mZvU8QaRQJgcoLDrZpFIXcBOfBe7O0aNWCLUxyKeJO0LirLA1N6ZB2NitD63BWAyKWCi0UJjEtWmFdZ6RxI/pWYEGPOMhrYdBOK9FEhUlhcZiGNncz0NffoDW9gzLC7OsLq5y8ewV3jl+kcXVAhIPMxdz/uVVhrfcYP+9AwipkUYSJKEbAos1FXbs28k99+7H2Ig4ilFBQEGX8ToFrV1loqjK3GzM6jRO4zCKjr5uPvfIYQ7dtw+rNOXFKpfOX+addwUtgxaJD9ZLvD2mYZCa+CxwdwSFEM13eDeR1IcUVpCERQCCWBi0tETCEAuNsDFKgE5iLYQhDY1CWplEVKaRne4dSUBLaOnyGZrowcuFtI+0E9DN9skNtHe28uK/nWB1NQJp0POak69cZdfkANmuLJGxCCPAWKQVaCwdw+1smhwAWSWMykhPEIocoapSZgkBxFXtjjwG0B7Z9haGJwfJD8cUK9N0dgV0buxhcM9+Iq+KFbHzfhBTFxTQ3IQ+G9wVQWGtbb6+uwaLNWkco0xCIlzGlPBipA9SSjzhgXWLVSoNSVyVNs5aaYXBopMm04gm0BishFiVCL1FKt4SNrtKZKGttYMHs1spryzw7DOn3PqswOy5kIVrZbp7u9BG13IxLBoErAQF5v0ZpL9MFBQRQmOEJTYx1q6iRCtKaNeeBTAsFeZ54/yryMEhsm2rVJRBBpJMm0dWBVRtEWF1bUwaQ9Gb+PTR9HqsM1ibVIi3AmNlcqKzYKC4uMilMxfQ3gJWVLHW4CMIFzXFFcCCaVTTa1qeaGjf/SmWmkiW0WIZIxcAgzFFNg5tYupzG3n15VMUC0BFoucNc9eqbJ4MECpGqbRVJ6AKokzBWwJ1Ha0KCGmI4wilFEqHYAOyfhYVgIld6HZhaYUXf/oqC4VLjO3JMTji0d6Rw5MBVvuJIEqDwOuCohZ+3lRiP1U0BcU6hEjzJNLjuQEiuPL6dX56dQ6rQnfUN6A8sEVYuOKukYGCxCdSN0Db95mQLBIhBFIk8ZfSENoKZWbpGowY3Kh476wlxodKRGlVEMU+UgkXS2Xr+SZz1xe5cPYCVi0Q6gilXOxFT7ekv7sNhGV40zCDY7NcO7niNI4KRFfh7Z/M8N5xGN6bY/OBPsbHO8jnFVbHieu2UZNIA7/s+1NBmvi5oiko1iGcVpF6k5JfRlC5Yrl+LQS/4ffK/S0VKNrUBYWp5YPU/1+7B0kyl00+KAxWGioUMC0hbX0+8t3QeUmMIApB4GONRseuOWtcIMaVN66ycu0qwocoBKnAWBjdC59/ZJKozWNguJd7HtzFkfm3WLpRIIrcs9slKCzDqbkyl05f4uqhDvZMDbBxqBtDCJgk+tM2NYjPEE1BsW5hILEBAIhYuRwLC8QaayRIgY0SmaGd+9AYdy6wQtQIUt93uk9S1qV1dhBjleOB0IqqgtiXlD1NJA3IEIRG6xhhJQJZz3y3TogwE7EygxNaOvluYT6fQT/QS2gDYrnK5L0b8LTlzWcvMn+tQGG1TGQNRoFdMJSWLW/OLrN4ucRjv9dLS1cWqNYfOjlWuXDwn8ugN/EBaAqK9YgkfVwmQVBSgxSKnoF+hob60XEJYwDhciGMtbx34SLF1TJSuLVq09DLxiYbNPhaEniiw1sriCxoKSnEVZZLUWLPMCDBUx4CD6x0NgoJaI2wHrlcC61tOaQHNrbgCTSGwa5esn4vkS5h7QpdHTD10GYGeoa4fGKWy2emuXZjgdmlFWJCp4bMw6XXI96auMR9j+xECEEclfB8r65pfUhMTxM/HzQFxTpEyvgkXM43UoLwYceB7Tz6qw9ibIEoriKTLEwdWb777Sc5/fYlhIyBBgdDIxp+YW3iKxUuC9QIgfAkyvMpFSosLaTXC5CW1pYcSilMI3OWdHkkW3ftZNeezQQZCKshFon2NR0bW8hmPbReARFRNPPk8oJNBwYYGuticmozZ965zrFjZ7lw4SJx1Thf76rl3MlpDj64n3yLIAqrqDQhrWmY+EzQFBTrEKm7WTQY/I2naenL0DPWCspSjUFgCPAIi5p8p3VvM3EpWlsLnWDNwSOJhHbJYk5biE2E9QRKSsJKiSsXZykvuWhciyDIZ2nvaEMpi5S1sI6kWcPojg1MPbCTIKspV4ouCExZIj8kzCxiZYiQFqNjVqM5qiqmpbudvo4uOjdtoXesnR88WeG9U9fdkYqYuBAQlTxEi0RIz7FrNY0UnxmagmJdwy0Oa8FIzbKeYza8hFGLVM0qGE1WBIRFw2o4g7bgJRGYIgmdeN/aEmmzBqRFeS6Z26qYqKq5fHKeN4/MQxmksWjPo2fjBvoGu7GU0KaaZpC7xhVUgxWi/AJkyoRqBaQhFpb/v703f5LkOPb8Ph6RmXVX3/d0z30Ac+HkgAAB8pHP9Mhdido1mcn0Z2pl0koy7uNbEnggDnIADIgBiGPu6fuo7rozMyL0Q2RWVzcGIEAQ4IysvW16uqqyIiMiI77h4eH+dSMGdIeQHs1mCxNbStUqabHDTrdJ06wxOjXF8WqFE5+Ncu/2GqanQTsiV0G7Arh44NDnYz7skX3iHyBHQPGYSa7tCyB2n2HKCZiwT1roYMMWiWmCcwQkuCK4IGFfDQGcG2gmbsgQmCNHkia02k2gScc0iJOE1fs9Pvq3bVY+9sVYKwTViLNPn2Rypo5xD7EuOVhhBT26dGliVYuu2gLtvTmsc4TiSLod3nvrNo0tx5lL40wt1ogKGhVCaju0d2JWd1Zx1oBEYKGoS4QqQOiTx3nkbF5H5x8/vBwBxWMig9jIQey3n+gH/Kacw5JgXA9DH+cgxZPf5ddqp0kxBAQDUlyF88R4DmwKKNh4sMsbv/kAXWmx12oQdw1bq7DzOUgvBOtwSpg/McNTV0+iCz2siwm19ryXzqGcxjiDkwCrPaeFUQYk9dBkHVqFNPd6fHGjy+onsHlrmYnFMrX5AtUxje0qVm7u8PnHCTb2IeouEGYXpgkihXWZC7eooyPSf6AcAcXjKOLDv8lcuJ0EgCGQwE92SYEkM+5l1zlQFgIX0sehbAROeTo9l6KtEDpIncZYR+N+n+vbdwlK0G/jj0oM/jTSCEFUYu7UNC/97BnmjtfpJmsUis7HkCQgKUSuSDdtExvBKE9MkbgUnQWeOfFgotOAsAuswdourP2lQ2GiQ3kcenvQXQX2/P0dlpmlWZ565gKqIKQuJ6w4HHh4JD+kHAHF4ybOK9nGWc9MGwAEoIXARSijUFYIRDAuQXxQuvebMt63QRC0Cv0JgXMoJURBSKgUJgsKkZ7D9R2JeDJdTUCxVCKqhUSlkIVz8zz36tNMn65AoUFimhQQAuWpd5XzzFgE4LTyUSUODpDMiAOnGK2M8vSJJXo3m7S6Kd1eTNxI6d81kAImQKeKWq3M6PwEL/7qeWZPjdMPVnyYueh9Qt8j+8Q/RI6A4jETnbk1qhDmlqbobJVRpo4rGsYmR0E5rDMobbEuUwPCgOnFSZJNCE2VVGB0ahSHI44TqlGRueMLnLwQ0u0IFoUWhYjf3milKURFpmdmmJyZoDpeYvpMlbHFkJZbo882onukqSYoVDhxboFiYlBphf7IGNOzo6ASLDE6kOzERRDltZdSscSPrj3PqGlx79Yeyxs7WNvHuhgRDYRUSmXOnDvO8UvzzDw1Tkevkdg9tIpRosF5DnJPo3WkWfzQcgQUj4nklnyFwqaGqKh49pULnD1bIHRjpDqhOg1O97AkGWO1xjiLFITnX7vEM5fL6HQMJwXqSwrRe1hnSZxh6cI8UyNnsEkI5MzcGZO2glBr6rUy1ZEqrmDpBzs05T6JaoLugzOkxlEoWK794jLxM2WUqdEt9YkWHCItrO3gBhGf3oszcQ4lKdX5gBf/5STntxxbW33ivsFYi9YhEihK1YjJ+RGKo0JHtjBuA0UzcwjTuOHtR87+ewQWP5gcAcVjJs56j0pDn/H5KY4dm0DZIoaEZrJJYhu4wILTQOBX7sgysVSlemKcUNUxRtFMt4mlg1KOvulRHC8wNhkiEoH4SeycJ7h0WLQzYNp07RYd1yXVXazuYl0fwXr2b6cw0md8cZTy8VHEVuiqHg27TepaOOLBdsMnMPKE/jEpTdmhMuIYmxhnzIxgU421/v460qSqT99tset2SVUb59qIxAzykxywUexHkB7JDyNHQPHYifJ+E2LopA0S2tmkS7AqxqkEcAgFnFM4DFZSOmaHfrqHVhHWet4JBEQMaEPPbdK3WzglOOfjOzzY+BwhASmQkuqU2PuMg7MoxOf6yHgrjcR07AZ9s4dzkWfWkwRUj32m3CzgLJNUWazqk7hNxO6g0EiQA0BWrutjpI+VGEuCKJ/qyCOCd0pH8vKfXIQYiud9ouQIKB47yTJkiMWqmIQ+ylmcpP498YFcbuBT4E8KnHIgKYYeTvtrJJuEDoOoFFEpnpwqI8WxGkQjOFKXImIxYjEKcOJtAwOQ8Pc0knq+CWuAnme09JFqhyBif7NgBYyLQUnG85m1EYWSDBhJs9Mc40l6Bqc5mQYhw07pjz9QDOdjHXYQe9IAIpcnHyjypzDYsw4xmjwqe+4TIy5jqXIYyYPCFdafl3rPSvIMYpIZBb2nljiXHZ0CWcofcYEHBedPLPyFwycUAWQQhM1OS4QhOr3c41N5oBnQH2bBa2SBKQzT4GZ1G6QPVNm9szqp3FckB4+A4W1GbrwUNQwQjz9I5JL32vDh7vBnT5I84UAxFA7p9gezl8cXJGQQAn64zrA/xbyqbYf25f73YJ1muP1+5c5X32ySDUVZujxQlBxbh7w1BzqAL8unISRjz5MvXeOy05IcnIdBgaHfw6zskkWsukwzGMSgfOkEYxjoefJm1JAMt+xR5zRPUtOeXKBwh0aR5O/BYw0SDkSJD6lW+8ZLODRwsknoDr7xJQfmwXfk4JCUQ98+3FX7pe9rDPs9moGCcCAhsU93mA95OQR4B9dPEQ823tSRayMMODJyd3OVgxwwlJtwv8zBe0OLwl8Tt9+n/yjZD8jLekX8k8u97J8kkIAnGSiGHoPSCq0VaWKy+Ab5m6EizxTu0+LZwbsM/3Voh/ONynX7q7HneHD7xDJ50NOX9rKP3pPvw4p8rfX/UW9/9QB9BFg578YNzqc6FEhMgtLa2xCytISPKl0p8W00GXDlzOJ5Iz1leJbfdOiJHZrgB/v462uf0/95s4bv0MO2Ahnq0u9jORG3DxKDR+P8GA20Jk2SoU+eHLh4YoFioLyKotXsYkzC2NgoxuQBRO7gAsXQwBgya3x5sDiS2PsphKHOnH0Ofu9AMV8x2oYNWMNroQP6seeSCHUASh1Uhg5856B94FA1AbDO4CRLOnzAXvPIywd/P2qYHp6USgmJSUnTmDDQIIooCkGENLX793vE3eI0xtgEhSIMQqyxBKHOl1e6cQ/jDIWoiJbAK1jKk/AM9/fhxFNf1ed+O+R9OEQprN3fNj3SZJV1wiCG7vA98vfEx7Xs3+crmjxc/hDoK/Fu9N1OhyTpUyoVPdA+Ycmynsikjl6t9dwIaeJ49517vP3WLbSUURIOaQI2y77tsFicy2IQrEXcEPms8+qx9aOLh8sP+ejmA/pxkqnF1tv3snXPH9ZlHFGSfY7FZvex2H2DAJKZHS3G+QjPzz57yOefL5MaByis896WxqVYZ3xdwSfvQbAOrLM+ACv/EZe9NjiXYF2KFXtgNRv+l/9hncNkZflEx96EKQg4O7gP4tBas7G+zvvXH9DY2cOm8PDBNs3dDko84xTW4qzBOePr4AxBELL8YIUPP3hAs9lCBxpjEpxNUcqfdGysbXL9jw9o7rUIg9A/Bue3Jvlz8naNTFUfmtAW31/WpVlQmv9EKb/dMSYdJDyyQ8/HkPWtuEE/WfafWf6Zf44G51Jww9/J1UKvFTprsrZndhdx2R0yr1lnEYRIR6wvr/LGv95ie2OLQAWP8+74kfJEAoUfTClhIKyvbnHjrW3aeyFKakDgM1qJQUvGDqX9/tAPJEGUyuKo8ow0fiQqpQh1wIM7a1z/4ybttkV0ASfK78/xWbis8ip5DhQuo6yTjDFKZVsXb3/w2o9TDtFCpIt89KcN/vzeGkmqCMICSgSttf+OuGwy57Rv5K4GaMn4ucV5kpl+wsN7q3T3+mgJEFG4bHA+qs/A18EOfCz8Z2rInqB11lZxKC1srmzwx99vsbvRp9fS/Pb/vMUnH91HXJhXC600SnkqLgcEOmT57jrvv71DcyehEFXRQYi1CeISAnFsPmxw/fUGjfUOWgUDA6oSr1koldXPDdtOwDmDYNDKnwEp5/tCoVlf3mRzbZdACojTmabmfI5VDYj4o1oRf8yc9a3LFh2/RfLPUUl2IKy8LSkHCxGHFk/yo4XsxMf5qNf8u1qhVMYv6ixKHCEhH7/f57OPVhETEKgI+LLG9EPKt8GqJw8ostXfz0nD/VsrxC145vJ5rAlQQKhTNClirR9kWgjCAKU0SWJBAkSHGLFYErQ24AzOOsphEdf1uTdtUgYqoEJEeSRwCg8Saj/1n1IQaN+V4hyhVkRBgFIOpSxaW4xLSY2lJBWSbeg1wJkSgSqhRSMWrFU4F4AEuYYOWLQSAjTaZvlGFWgJ6DdTrr/5gK37XQpS9yp8pnJnFoHBT65qK639IHYKscr3o1i0gDPWe0erkGwzg4oDkm2IknEiN0ORKSImEFsgCDQ6CHEuxFiNDksEQYlAirhuRH8LpF9HyQjGKpQWlDKEClQvwmyB6tUQIgKtEQzWGARNEETe6JtNTn8K49BYCtoSOItKIRJFQQWkbbj+5j1uvHWPkoyDiUA0WitECSY14BRKRzgdYMRvUZQS/+yyrGyCECiFcoIY309K6+y42RFFIaHSkFo0OttaMNBmoiBCjIDV6KDgfV9czNLCSSZH4dYnMZ2mIwrKOGO8Zusk+3doe/R3kByIvBaebcUyrhL3NXufwwD2xNkonHNYayhGBeJml+U7Lco1OHP6DHHaZXtznd3NbUwM3R7MLBaYmJ+mtdfi9hctWq2EQjlifqnA5FSNYhDQ3Gpw+06HbgeWpmq01yE0UAwm6eylPFxZplSCkydP0Ikdt+8+ACOcPTVP3I65f3eLMND0Yku/bRmphRw/M0VQDHAY1lc3uf+gR7vpuDBlkV0oToZoW6W92+XOrYfs7aXERqjUNQuLY0xOjNBuNVh5uIVLNaGF3W1Loe44cW4KkpjPbmxw/waU4wZp9yHjSwHjk1W/QXI5VPjtRhRGbDd2WFtpk8aOuGuoVBRnzi0Q2z4P722ytZEQW0V1JOL0mXFqYxVCWya0ewTJGJVgnoXFceYmjxHpKs32DvfuNtjZtiTGMDZZ5PixUSZmpykzSqnfZeN2lw/MLVY2N1hYEM6emSIsakoyQsntENkxQlWm3d/l1hcrbG1alAqYmAqYPzZKtVoiTWKstSilEeO4f2edjVWDiRXzSyGzc7M8+HSdu+9bdBhzY+YBlUnH/OkR9hpN7t1p0GokFMKQkamImcVZiqUizd1tVu41qBYUO9sphQKcOr3AyuYqqw8MYh0uFOaOF5mdn8ZaQ2Nrj5W7TfYaMVExxCpHZdRx/MQcaZJw98EWW2sxiRHq4wWOnywSjhSpVWc4e3yKd97bYPVBi/GJMUCw1iLogbF3KFHDYyVPHlCI30MXdJ3GdpP1ezA5qajWimx1drnz+Sof/LdNbArlSVBuilDXePMPt7lzp8PC/CTL68tM3oz42a/OMjY3x+9+/xGffNilNgEPgdVPIJiCSlCnsf2AP/zrLWbnhStPPUNnb5sP3rxHpwfnjy+SNuGN//IALVCahLgDyS78+H/scvGF8+xtd3nzN/d5cN9QHwnZ7G3TuAsnpqoUVYUvPvuU1//tDvW6JrXCznbK6Yt7/Pp/eontvTXe+bf7dB/C5DHotBWtXUvzFzEnjx1n+dY28Q5s3E7p9e9zuTjN1NQYIilm6ETFWUOxWGZ74x6//7/uYhogFTh9ocTxY0v85fMVrr+5TLEWIqrA+maLzm6Ln/9sCptqxIDYiF7XcOvPa0xOFjh9foIbny/z+9+uMjJapJ+ktP+QcvXaBIu/PEkhKJO04IM37zK+UmB1s80tC/o/OZ59ZtLT3KUQ6SJYxXvv3OPDt5cpjZQIwoAP323y/MszPP/CUygxpC6mGJa4f3eV//7/PPTbFA2NFhRLI6zc26a9DqoA7739BReem2R0IuKdN+7x+Qe7TM1U6bRb2ASuvpbw/LWLNDZavP6/36MaQaJgfrHESHGCf3/jLr22Y3Skyp37LebnI/7n/20RCSyv/9tH3P+syWi9SLPVo70Mx1+G+ekF7txa5g+/XaM2WsARsfFmk0s/muBnPzuFRJqF+SXSP2yw8nCbp6+cQasQ65Kh1fsrDNePgTxxWw+/hzdEqkJ3R2hvwszYGMrFaOlhuwW2bsGIzPLyc89yYuoCK59u88mbHU5MzvKLH1/j1NQC996NuX9zm85qyI03uoyoGj/70TOcWbwIcQApFFSAji2dNYh3HUVdJ4jrmJ2Q7iZErkTRjrJ3F8yG5tnTV/nxs8/RXIePP1yDpMT9Txt89p5hcWSeX736MnMTZ3FJAC5EWUFbxZmlRV578TwvXzkDTfjk+jaRKROlBVqrEK/D2cVLvHLtKp0deO+tNaqFOa5cvMD4RIFL5y7x6o9eYWF2EcnCsd0gB0Z2tIlG2zLbd0DvVbl6/hJXLl2h1wp457fL7K3BC5fO8/NrV6jZiPd+v05jO0V0EadBtKUfd1lZabDX3ECcI5IyJxaO8ZNrT/PSlTO4Bnz8wRatVkxYjIhTqBTLXLv6Iq888yzbt+D6H1bodyNShL6BYlGzt7XH279Zpr8e8dLFS7z2/BX6G/Dhm2vsbiYEQQUlmkAH3Plsk/t/geMLU7z20ytMzRynVBnj5MlzjE8GTE6V+PFLP+HcyUus3d7ixuu7zBTn+A8//QkvXb5Isqm4/tt7dDeEkh1n9xbQGOO5p65w5elniVyd6eopXnn+Aq+88BTT1Tq3/hjT347obsFH7zapReP8+pe/5NTcaXrLMF07jurWufHmGp0NePn5C7z6/NOEnYDrv9lib0ujpUCt6tfl1l4PnA/Qc1bYTwf3eIIEPIEahWTGIyUhpqeJBBYmFgiSlIJLKLoipbLiRz95mtdeu0qjscr1t/6E24JyUmbz85hCt4Sk0NtUrH3RJdmDZ39+imevvkT3VMrDBxs6FC2IAAAYCElEQVTcergOQEiBsvi9sLMVlEsoSURPEgLKhElAJYRz5yd55dorEIT87vXrtPfA9kqs3+tRcPDytcs8e+Uqx2p73Pn4PnHSxWA4cfw4Nf2Azk5Ic9egMpYplZbQaURJwei5Gq+++hominnr/S9Y3+hSKU5y4hSMjv6FE0uTXLp8ih25R5cdf5rh/N4+P2J0VhFKGRScurjIz//5FfRok7ufrrO7AoUi7K0r3G5C1Sl2tqGxmaCkkBnqrLcZBKClBMZx+sQSodtkb93Rb3r2rc42xP0AYxSlMjx37QQvXHue7fU+H79/j531LeK+QsSfdAhCp9GlswGTdU1rOSIuGcIUumuKbkMxMV8C8SHn5WCEWthj637AwvEac/Oj1McmqDLJ5OT7GAl44cUXiOMd3nnj33Fd+Mlrl7lw/iILi9PcvnOfD97do7FiKZRnQMGPrl3khZ9cxVTaJO0WUQq7O222HyYU08A/j24Fo1NUDOO1gKXpi3wUrkLtC07OXaLfEDbvepvp3jqYXp9yoOjsQG+3gp4tUQgVYeCzqZlUoXWBlC77AGEfMeIfD3kCgUJQSvkQZRcSAqEJiayiYC2htZQLwthEDRWm9OM2vWYHbSHdiXjYW8fECRefXuTs0lk6DdAEjI4dIxVLsaaYni3y2UNITYpyEWLA2QKOAoEqgQlJE3AuwhmhqGFkZAKnHanEqEJm3IrLpN2QYgj1+ih906E2HlAZhTjo4TSsP9zk3d/dglgTBqP09hSqbhET4RIfMFWqjaIqIW3bYHphmp2dNZLUkdg+ie2RmDV6pk5fN0mk7yNCcgcnlzs3KrAOHUFtfBxdFnqugXOWomgCU2bl3g7bWOqFEa4+M0u1NErDrWcnN6n3K0xBU0GZiIe3H/Cnf1+l33VMlCahExCFKYGr0e+CCqA+XcEUO6hImJqYpru+hbMRgRT983QKTYQSCO04W8sdUtlmfnKJqdka1eKYT2GIJjUJF59+Crc9xoc3l/mv/+UtLrywwPhElaIqkLgEqy1Ox6QxtLchCGB0coxmug3lPuWRIqR7xN2QKKoDMDk1jyoJbWmyvb3MH9++RXN7jVpthtZ27Gn/bBEpJhQCeHB7g//2X1/n1scPObY0w+ToJNurW9ABFUYs39smbsVMjkwxd7xEKZoiTRRanCctNoJzGq1zbhCXHbHK0L/HS55IoBARjHFEUYk4hvW1LQIVZkd1DmMthj4908ZpQ6EYoQoxly8+zcnTc7R6D+mxx8zCDF/cbJGmsL69xymm6DW3WFndIlDZ8ZgLcAbinsP0+7R392huJz7/ZxDmEVYYSYmlR+oMTvmVUkuJcqFKvyds7S5zLKjycH2Vrd0OE+NFnIX3//g5X3zS43/9X37K6Ngk63v/B7t9S6B0ZlX3IeN90yOVhCAKMMZiLIjSdHt4clzXIdUJcdpnd3uHcqHMSG3UD0JrwaYo5QgCQCzGdRHVQyTFOZicrvLyq9cYKSk6zXXigjAxNcGD21ksh7NIlgekEBVJuyFv/+4W9+5Yfv2fXmFuZI7G6gq7VhAbEaoiaR/WNu/Tihdo90KWlzdRgSKghDXe+Uo5f5KDham5WX7yz9cg3KTV3CMqRNRGCljTQUQRxzFROeS5H59m/uw8/+9v3ubGm/d46vw8J2eOY1IwytG3PZSCkVINFzdY21lh9twJmp1NthtNohJUS3UgAIE0TXEuRumYTz+/xXt/WuNnPz3BM89c5o3f3mB1uYVWjk7c9R67iWPlwTKlUpGrV08yPVOhvdWgGCpGpwu89k/XMElM0u8TR5qoHoCGpJ+S9KAQFAh0SDxIkHLAj/OxlCcOKPIjHetSqqNlojIsb6zhtCIF+rZHzzlS3aMvMUFFs3Bqmg/ee8Ctu7eZXNQ0equs7Gyh6j2mj52gWo/44K2bUGvSbWxz+8M20bQ/hi2Wq5QrZdZud3jzt2+xdneHjbttamcgFSG2Kd0EUtdDCgkuTUlS7yClAs3cwjTGfsy7b35ETJvPb6yyfc8wvhSibIG0V8L19gilSqe9Q9Jw2AiUWLQokhRS1/f5N4zgbEKa9BEMUVQg7sOfP1qHqYDRsxGlUol337jPwnyFF5+fxpFgrfEUejbGJmBtj0BbrMTURvxJwO7OHmvrK+jZKvfWNthLWsydP0Zi+iQ9UGifWyjBg4YtY7sjaNmhEJVZWX1AczshrTpMDJEq0N2DP//pIcXxD9m4C8t3Nnjmp/OUyxWsUdgEkjhlfCJiZFyxsb7M/fXPmJxTfHb/AVGxx5WFs4RaMKl3iPvTjT/j2qMsHpulNqLYXgMXa0pBnWqlyu27Ld74/ds8dXyREyfmuP7+fd75/UdI2GZldZ2Hd7osnZ5gZn6C+yvLkIBTBiUJAQmYCJNCENZotptsNVqIhYQOse2RpCApxHELh2J7b4OVzS8YnxxlcWmKh8sN7i8vMzZeZHV7k47qcGHhHLqwwO5eD2thbGzMO6GlBlG5h+YPqU18+3t8R6D44REw79TUxdTHIhZPFllf7bLX3oVAUSgXmZ4bJShH9FwCQcrpC4tcec7xxc0vaMcbtONdqGjmTpQ5tlTi2ssXuPnuHW78/hb1SpmZsRn0lCF2monxES5fPcuf/nCHt3/3MWOlKc4cP42aamNSiyjF1Mwk1XoZJRaFZXy8hnWK1FlOnD7OpSvHeXh7hzd/8wm1aIpjU3NUyhGhLnDl4jN0bn/A9bduEoQpRTdCacx4l2cdMjZWp16vI05QTlGr1JiYGMcRUyoHnDu/yJ2bDT58/xbPT50n6Jf4/O2E2jWIXqjTd7tIkDFhBQFT03UqtTLOWeI4plwv8PJrZ3jv9XXeff0G46MldvY6jBwrkyQxhVKZiekyYaFCGBSYmR4hCEMKhYAXXnyat/5wk+tvf4LrxJT0JOPTAVpHFKMKx+amEAI+fmeVjVXDmTOneOGli6jIUCgFLCzMIUqoj1b46c/P8+Hvdnj7d29THy2zttXl3KURQGVcFRYVhHTbits31rh9c5l+GnHlxTNMz8whgeb8U+fYWv2UD976gLEw5NyFs7z4UotP31/n7X/9C+2OY27qGNdevUhlpIxaVczOTlEoVTMvU8PpE6e4e9rx2ScrrC1vksYh8/PjKC302n1MCpMjs5w5eYrt3S1ufPAxe/E6v/6Xf+H5a5dp/N8f8vZ//4RKLaAdd5k8XUQHhtSlPFjZoFCG2YV5765uk4HR+Yfdcnz7I9jvrFH84FCRUdAnaYtqpc6pc1N8/tl9bt78hAvPLnHy7BlGqzAyWaeX9tD0qY0X+cW/XGb5tCHuF7BoyrMxU7Ng1C4vv3aK4wuz9PYK1MaqSDGhHbbRxQgpGK48f46JqRl2GzA3uUQYBLSCZTSW6kiB/+E/vkh1SmGSHs46Xn3tIikBiXSoj1b4p39+kbX7LXptzcLsAv24ha12EG059/QS41GN5kafcqGOfblHXNghtTHl0Qqv/vwKhdIEcdIjMQnnzp1kavwYhZIlKKS89k8vcnaxi6t0mRsd5fq//4WgGXJ67iqhqtCzTT/B4j7jExP8/Fd1JkeWSEyCQaF1zNPPLTI9tsTWA1BWExQNlXnfz8eOL/Lz/1hjbGqCIIr4p1+/yPRMnVjtcPH5OSr1Cq2dAqPFOoGyuKqhUIRjJ2b5D//5xwRBha29Lr1zKdMLk0yfULSTDRZOjvPLX79MfVJI6PGjly5yYrrH5sMUTIXgCkweLxJFMX2ziROLIuDZK1c5WQtp7qYUayVmz9Yo1FNiafLU5VNUa1U6XcvkzDiliTI//dlPOLmwQ6/TIyhYxo5VGVus07d7TE7V+Of//DITs+PEbgfjHMeOTfPLX82wsdqkXKxQrmiSdJfx8RGu33wH14enL5zhpR/9mLsPP+f9T/7CF3/Zov+LhNOXjxEWRmhuhaQmQZdjascSalHI9uYmn32xycRMiam5CYzrY02M1sOaxDDl3/c2gf6m8r8DUPgb/tAHOpJFIBpiEtXm2Kk5KrVlbt68w/krTzE+HTE+GdFxTWLbAukTK0ttqsql0TmsreMkIg53iNUasdmlPF7iqZF5VDqF00Kqe3RUk67bI7YtyuNwbmQea2poKeLEUdfjJGoHXQlZvDSBVR16tgUoTpyaJhVNajqkrs/EfMTU9AmUHfEriZRp6wY91SRQEccvjRGkZZQrkugOPVWkTxspw+L5ORwFenaPVLrUp2qMTNZxrkVse4zNTjA1sYAUYlr9bTZW1rj87GlOnTlLN25gtY9LSdOEcrXEqQuTiFUkrutZsknRhT7zZ6ZZPD6JtiGiLd2gQUd2qY6VGBsbwRqwrsu5i/M41yO2O0QVxbnLc6h0goCQQDl6qklPGozMKqZnZlCuzKKJsMqQ6h49WcPQZmx6hNmpMbrs0KVLseQ4dqHO0qkxzzoeWPp6l6as4cSQBaMyMVlnfnQObIjTjn6wRU92SZxQHilw4eoSxhVIpU9H9iiO17j4/DHEalCWOGzRlV1SB9XRkHNjkxjbpkcT5yw6TFg6N8nS6TkgQuse1pWQSCiVStRqIatrm3z4549YXb8PBk4tnSCslHCVPsefniZMJ71jYNgh1qsQNri9vEy7ZXjupWPURor0kwaibBalrAbG5/259X3Mnb9dvjFQ7Ff9cIN+WKgYRAQqQ+z6jE2P8+KrZ3GkWBNhVUxMAys9lMQ4sSQKOqZBIF1c4DWKxPURUpxO6Lg+omOc2gYEKymOBJE+Tix9B0YauCACIqwojHRBYvrKkTgB8VRu/nRBYQVQihRHxwqid0AVfbyIGFLVxagYJ4rEBCgdIpma7cSAtj4E23V8AiBlcJLQcz2E0LsNO4OVTVTQQFuHkYQrL5xgYvQ40UhC0zTxRzb+1MLQzgLTNC7Peu4gpksiaxDsop1niEhIsZgsIE1Aebfy1KUoUtAWAyiJUWoHJdoH3EmCVSnGQWw1ihAJAh9kJSlW93GSELONoUmiDalKMC6hS4sg3EHrCOM8PZ5RfcCgnKfRS2SbVPcQ5d2qjXRwqkfqBAgxtk2qQqxYRAxGdj1HZxZ858TgVIrCkTjr7xMqnydVLH3VxNLHEuLQKEnAJei0wIVLZ7C9Aut3O3z82Z9xYnjx2lUuvXCJoAgddnBqD6038UFiCUKHApZAGy5dmeOpiycJoj7dtIVIfoytDw5yJ18fmvw3T559l/5vazr9q0Ax7DOWB+3mP36tyry2fkCjreD9AwwWXYTnXrpMmsQ4l2CkSyot/3Dx7stWQIIYp2IcLR/klSXaM6Q4Um/9p0PO1yQYxMZY8ZPeKYA2Fo2VAM8RabDK4kRhxWKcRTuF1hqyIy+DxQWA6+NcdxCM5OgjEntbhsofQ+b3Tx7iDE4UDgXOgGTJcIhxKKx1uKCfhUE6gmLIqUuz4CCWbQhiz7Xpa+F9IYLsGM65obhW5993fXB52HtO5S+IKIzztHyifNCaZ9BSKGUR3cUDbBaH6pyfqMoff3ombeu9aj1koJTDSh+DzwGkxKECiyFBbM736ctBfA5Wi0N0DDoDP7EYSbNnqPyz0ClW+hnPhcWHXQxF1uEGEaGeEyNLyZhxdBplsxwlYMT5REdWSEyfyliJ5358lt7Tmm47plAsMjo1ii45enaNWLVQocLozsCPRYshMcLE7DgvvTZDaaRMbHZxxDBsnzgwf/5+HpoyPHMljxbOjs6FIRvJ18sjgOJQJWX/lQ+i0WjJQ/sA7MAJylfh+zbK5BmjPPGrkZhiPUUBcbqHlRjnUjRZoI34bjHZpM6GG0I4QFcfOuZZqPPwcYVBlM2MpwpP+mrw+SpSf1QoPlLTs2Y7rCIL7Mknku8TC36lFYvzNUNhPGmuIwsP91NIifKrek584Hxgu+Cyco2fPPibWbEYMYgIFoMEiY8dwKEwmCxC1keiei9AcR4m9wOts6hMZ7H5J1n7EPEaRcbfmYdc5oBqSP2JiocRtAvQGXemk4Q8PaLg+8VkEZwui2vIR0xersHilH8iyrnBfZwIKWRPyw7a7vtWkWZ8okKagWB+OpaPXw8UKmt7vtT5NSeDpSzwK8WnbTSSBajpCJGU1DWJRgy18Tpaj2Gcop/u0LMtDB3EeUZ063FxsOSI0wSVgKhaIE7bPp+q5AQ2mV1C9ufd0FLxncVlv3NqRPEhr9/aaPAIoHBDv/ENsH4SOIRatUahUaBLHnDkkVuJp4EXUd+zZpF7nfsJLdrQsw3/SlksabaS5WpAPmHVga6RbOXbn0D7YJdRzCKDCTFcThbqjV+F8r2lHih0KivP32V4SvoezIl1QJwGEZR47gmRfNWTwSAbru/gt0AOmAMilYxqzbkEkSRrn+wT6SIHeYi9uuJbkvMsyGBIDcrMsWG/TWqgdexfv79OIdazdovX5HzBhjyiNVd/EZdT7A60qGzW7tdgUN+8nrBfwwy48BGevn3DCxZ5iTlkZGNmf2zvj4cMrnIcHNIx/CuDUl47jV2LOO1AGnoG8ozhPGcPGQR15ZGaCIbsaNol3tAieZ/spyv48qTRfKdQ0uyrntncYrJ4n2KxzDCL21dFkOZMcbl8DYOGy/hq/cNLrScTmZmao74xRr+/iY50pjomaAl8/ods3/V9Sz54nPQ81wP74x3HEI38cDitkDNF+0mVZmQkw5/7z0w2pf3rbHL7PQQ5+2GuLfpoTT8G8uE/XNOsSoPSvLoPZmil9S3KWKzd/rDOJ81wDXPmLjf4Ww3qKVl7XTY194HEHaSFy0dK/lqGW78PJlbye+WDeWgKDohv9vvBYTD5tmVoHNh88g6oCnNQ3odk/0wY+s4wcOX3Pgi7w306BDEHFOrhvh+OqMhrsN9uIU8P4DWavFbZ1gZ8tnYsjm5WK9kHzqFnkzfEeUvLoKvdUK39lcMkyYfq+x2mkWRNyVtsU2Fiao6R6hiei0BlGu43u8lXA8WgYZ7YxBjvtDNRn2Fx/DTtlXVatgVaMMoikpAz+nwdXdjfT/zAsQPyGRg21uSrx5fZM33l7GB0fwWiHrrP8Cfi8pVvsMgdvOIbtn/AFTlAgXwJ/XKdDkLZ15c6PHUPiBx+sT/xHt1LB0fHYIswrIEdqrKTfJq5Q702VM4B8kpf8mF4HXxJ9q85DBSD9wflffOZ9aV2Df5yB9oD+fPMtZFsvIkdfCiiB2PuEYUOaTTDHw1f/1VP9TtMJHFY61AikIaMVKY5NnWaetEDhUi+XO3rr18n38iY6ZzzAUE4SkGNswtX6MQ73Nvtk5okA4rcuv4dG/itRFBkqfUydS9fxfYfxpfXdwcZw9X+RM3fP/D/YDxna04Onhlp62AyZTrqt9EU98e/HDByD6bYISDKT9i/SbkDDu4vlfvlq/PrD7b3q/qBbF7uD/Dh9/f/P/gchsuBvP+GP/c3cByaoOoR/XKw97KXf23CHWz/AT7TA+0duuoRRe0vQhzqzEf37vCn+1uMXB4NVd9N9rU1TzQM2hUYKczw1OwzHBs/TUQ5Hx0Dar+/C1DkInmSF6cZq81z8cQLFNc1D/Y+Zc9tZxbsPMvTDy2Z3uBR7RvdP+dM/CqlYr+8IUCQoZV9WP2Xr1VO/qZ6/LX6fb1kg+Vb1OtR7X3U+3l7B3f6Km3qK8o53H/D33P8/fr1q2S4/sMg9O3kUd/4pjD+ba7/dpJvOJ3z1IuBDqiF45ycvsjpySvU1SjKZtnfsvGR8S/+1Tp9a4crvxCETI0uUSoWmG0tsRdv0zVdYtMHle/eD+iNR3IkR/KDieeHLRZKjFWmGS/NUVEThDbyfCXigQInQxrz1wPX3+SZqUTjbIFaYYZKaZzE9ujbmNQl5NZfL0dAcSRH8o8QEQjDkIKqQhKgTQEl4dC28dtpan8DUDi8T4HGuQJiIyJKhDrfF7kha/ewAepIjuRIvj/58qLsjINUeYZ2fM5YPxdzI+bwvPy7axRu4ITk6cj375MfGubHffsNOAKKIzmS71cOnboMvZv5OQzynxw+kfom8/M7BoUN3SI3Bjt3SKc5AokjOZLvT/L59XX0t999Dv4diGsOHhfJIO3skRzJkfxw8miNwstjARSHK/HtHF+O5EiO5O8h3++ce+Lo+o/kSI7ksHzfp4uOwA0n6/2GcnToeSRH8rjI1205vpvkaQdFhMA67w/+pVt9hb/UN6vSEZQcyZE8OfKI+TrkiOWcEBQKPpv2INxs6Lqj6X4kR/L/d3m0RuIArRSpMSil+P8AI1ZZRqmVsRAAAAAASUVORK5CYII=;" vertex="1" parent="1">
          <mxGeometry x="50" y="180" width="266" height="314" as="geometry" />
        </mxCell>
        <mxCell id="pCphS5BoQxUUH24VesHs-4" value="" style="shape=image;verticalLabelPosition=bottom;labelBackgroundColor=default;verticalAlign=top;aspect=fixed;imageAspect=0;image=data:image/png,iVBORw0KGgoAAAANSUhEUgAAAasAAAEzCAYAAACPJCxDAAAgAElEQVR4nOy955skx5Hm+TN3j4gUpXW1FkADIECQBMmZ48ztftj7w2/vbgSHQ02oBlpWdXXpyqzUIdxtP3hkVXWjQXHDGTb2ybefEp2VGR7SXjez18zlqHOkIszwV4KIAVVUFYBQ/wRQFOHNJ1uvvG+GGWb47mH6fIsRzLc85zP8hRAubKYLGiDMDOVfCyLhj/5d+ZZzPbu3Z5jhu4NvnVwqqhC+7Tmf4S+CIHESIIIzIrPT+l+EGR/NMMP/JnhDOGr2fP/1cTXiZGbhpxlmmGGGGd5mqCrmb70TM8wwwwwzzPCnMCOrGWaYYYYZ3nrMyGqGGWaYYYa3HjOymmGGGWaY4a3HjKxmmGGGGWZ46+H+1jsww38EU7Hsf0TReVVw+7dShsp/YOy3Yf+/C3iTsPq/6nz9Ne7Tt3m8Gf4rMCOr7yheLS5WQBCRuljxz3tY9Q3v+UtqRaafl4vvf/k2rm7pm3vz538ujjs99j+f/Kbvkj9Beq+/8u3H+Kbt6Bv+9vr7v33MP3U+r75Pv/HKm7d9+fp/5Lpd/eSrY/yx/73+yb8+vrX0/j9xzBn+szEjq+8kYjsnfaVbhiAqxEYvrz+OV8hAp+ZMUbn6t/jZ+NufOT6g8hpZqWDkLzGAyrTqP27vT37gctv1/gvmSkeBKVlNt/3aZ6Yvm9gKS4kfvfopCBcD6MUf4zsE4du7F7xpNH1lW1frGkXeQGyqFwWn8ZXLSP2byvenZjneD38ZWYnI5b2ir1PXN///ZsiVn9N91/jv4lhf3Z84rrn4u/yJ/fxzIFJfT1WQ6Vm5ch9Oj/UNxznDdwMzsvrOQRAxJGIwGC4bksQGLz7UjV7kdQMQH1FjzAWhCSA1O6goQQNBFant46s2ObY8CUFBDFZM7H9WjxO3FscO6q+Q4R8/FtTEfRJBamKYbnG63dcL10UEJRAUgk4JWy+OW69u/8I06RWzKmgAwWBN7OJmJb42Jc/6pMRjkJoMNFySg3yTEi7P85UJgAghxImElbpvnBg0hHi8NU2qKkZAjBBU63MI4aqnKK+a8+n1s8bGfbjSR+0b5/kb+wga4vEEDfV5q4n5G77yt+MbtBAUUSE1rr5OrxNgPI8hXB3zkmK/bczXj/tya0LNTwgWZy4na9P3BQ1o0MtrR3jlPvlrkOUM//mYkdVbDtErD5IoqCBYLCmmktrYBlQqcDAJOX5qJNSAeKYGNKiS2jRuwws2GBwuGmXrCaakwBOmATV5/eHV6HOo0HAZ1gPh0iApFSJKRcBfeH/R4EbD+sqREX0Fh5AhGhBfYkSwmNgQOIRo2PXSgxQRxEQ29RINUUCp8ARR4v/qsChcmNKr5sgYARyCITWGUEwgKPlkEklEBLAYsdjU4ZzDGgH1eAn4+hj1gkOubj3Ec64GMCgJqkLikkjuqmhVUeYlZZ7Xn4teRrPRJM1SDAFrDMYIlQYqVYJeBlyvnkajBhtcnH4oVzzr6OVcmu1XKcMAXiuCBMRBEUr81NOsz5jUF/bbg2p68RVJGVKboh4SScBD8IpO27pKwLr4s9QiEqXU90hN3JdX7ptjXZJZ/G6spaw8KgZrHNYkGC9oEZiefdWAMRbjBK8hHjNxWhXktfM1w1uNGVm95Zj2aZeLB88wmYzZ2d9l0B+SJA7VEiSwvrHG8upaJCN91TipRoPSH/bZP9gnzyeIGpxmGO9Y31hifXM5vls1ksUrRiN6S0YMPiinZ8ecHB4xKUvUxjCcQWm321y7do0kMYj3gEFkOvN9DSJ47zk6fsFp54iqmuDEYsVFQ1nv84VHJDHEaIzFJSnN1hwL80s00ibGJHUIrcLXBH11zq8YjAA+GrnKB4bjAcNBh7OzQ4oqZ1TkVGWFEYticTYlzTKyNGNtYZn1xRUajQwJHiM1H105x5EgqjgICaoOZzJAyfOKXq/D2fkJg+E5k2JMWZVXPm9oNtq4JKXdbLK5tM7KwjJpkuKrAiMSaVimXo9iRKjKnIOjPTqDLoGAYDBqLkK8culDX36pkjUaNBoN5uZaLC7MYcQgqnitCQRqY/5t3o5e7AcAAZwYjAi9UY9up8NgMMCrUIXoMWqoaDczVpaXWJibJ0nS+qOR5FX0tfv29fEur2ekNBsnNy6hKgtOO2ecnpyRj0tEPIJHAzQbLTbWN1heWsEihFDWW9Q3tfib4S3FjKzecuhFrgQkVFij5OU5v3/+C74+fIZtWwpfkJLxI/mEn24sY0uDxdauTDT4BEic42i0zy+/+jmHoyNyU2E1w/kmPzIf8/fbn2C8xWKnTtx0Ly7DLXhEPI8OvuBXX/6K82pM6QRFcMGxurjJPy7+N+6sbtKoSdNc8Q4vA18gEvChx+MXv+D3Tz9j7DyIw4itbdOroahp3sEYS+YazDcXWW1vsrV0nTtbt2hnzRgKs1MT+mp+KHqbUIxzdvef8OLkGUfDQw77RwxCTmmFEAJGXPQ91GCdw0rCZnuTm0s3uLV6jetrmzQSi9VQ+yiCSu1VKYAFTSAkKNDrddg5eMrOyTMO+gd08g655qitczy112RtAt4wl85zd+UOd5Zuc2PjBvPteayVC9dUAKOKs9D35/x+55d8efCIsfOIESTIFa+KS8Ka7huGpNEma7RZn1vm+tI6H916h6W0DepRApVEz9UqOL3c0kWIcEqGaurxDOPJiJenT9g92uHgbI/OsEshSqGgFiQEWq7JxsI6d7fucXvzDsvzy6CmvlJvWrFAXxn58mVDqMCKo5qMebr7FY93H7LXPWJEQSVFjAMERztd5Nb5bR7ceMD1jetYsfUdPfX5r4ZuZ3hbMSOrtxxaP1bT/JQzAZURp7zgkXxG4QJjUzIf1lg1d3jfFcyVKUbNRRhPVTEKRgPejDnTfZ7yhDM3JEiTtJxj2W3xniuY0wbNMDVJrwScEBGyROn2Tnja+Yyv/ed00pyhCYAhCQ3mxue0OtdZWl9lw2aYchpW01e2J4ART5AzzquHPK/+wHnD4U0MvwUCXj3iTC2+qI2WCEYNaUhpDBu0Bkusdrf5YPgeH9/8gPXFFaxK7RlcmY0HwVnLYNTh+d7X/O7pL9ibPOc8HXMiA8bNQGHj5MAYF3N/CqghIaU93md5/IIbZ1t8f/geP7jzgDmT4owwXRAumjyLYBFNICj7R8/5aucPfHH0JYfhiJ4b0E375LYkOC7SUTHfZjHekfkmL04OeXj8jHe67/L9u9/nxso6qYIzhoDHBDDqKc2Aw7DDY/2a88QjiaDeR9I20RuLocqa+DUSqdcUkzdZLOZZ7y7QrXr8/Z0fsJQ1MXX8z08J7xWFKRf3lIjg1GKw9Ec9Pn3yBz7b/4yX5UvO6TJMJoxNQS4x5OZwJGVG86zFV6OXPBic8NN3PmFrbiMezxvyZNPgoNEoNQlAkOjWWpMynpzzeOczfvv4FzwfPKGbjuhlJRMbA9pGGzTDPI8PX/JktM+Pik94b/sBS40WocgRc5kzm+Htxoys3nrUM3YsqItGxyhVWjBpjRjPVQxCiQkLjBqeifE0jRJCwALTOakQQCvEFWgzJ7cj+tmQwnqSQug3PRNjaMmb6sQFqYUQhpzjsz32B7v0G12GTc/AxkBOGiaUpePr7hM+Lj9gNZsnlCVGY9hsujevHJuZENI+o2af87kEbwyJOIpQUIQKNeA1oHIZzLLGkoaEpExw2uPIdzl8ccy57/MPD37CzfkNfFXF0FMtzkisI1QFD3d+z++e/ivPqh1Omz0GDc/QVIwpKfHYxKEKla8w1uCrQMM2GfoRvbLP2eSMw6dnTEzBT+98nwXTxKqABlSieMXaBFXPae+A33z1//Co8wX75pTTxpBRo2QoE0oJBFOTcK0AtNZh1DIJBXmec170OTruchr6/KP5KfeXt6M2UD0Gg6oQbKDKckbNnMGcB6fgy0j2eEKd1xMUUTAYnMlQdWhIGOs5vbLJeCdHbcLP7n/EsmtiK3DBYlFiWPN1EULt5YogeJ68/JLf7vycZ9Uex41zRllB6SpyKSm0pApKYhukIcPmQ3q+oHsywTvD//W9/8acJJg6/6evkEednwJsoBZGxLFDKHny8gt+8fj/5cn4CadzAwbNgp7LmVBRaaDpWmS+5Gw0oDMaMtn1pFmDj248wAAawLhvinhmePswI6u3HHLhkcTwjariUQopGdsxI1cyCiVZmJCbisJWlOJrteBFALFOcFeo5HgzojAjRm7MyHosjoHzFGKpLua3U28hGlMbIolMJmfsnT7jND9kkPYZJIGRE7x6MrVUJmV38JwX3UNub94iNSBBp9KM16ColHgZM7Ej+mmDAiUVR6UVruFqEUWtMFSikqyagA8k1iJqSejSzQcMjktslrD6wX+naZL4XjUXgoynu4/53e4v+Kr6jJP5AaetgnNK8igOo93IaDRTXOIIoWIyHlKMRvTCEJMkmKTBedXnPB9TPC9xacr/ce+HzFUG1AEBgyWRhO7oiE8f/RMPO7/moHHISXPAcTJkaDwFkCUt2tkcaZKiGijLnKKcMJwMMGaAaSWkrQGn4yGd7gh9Blnyj9xZ20BLj6oA0cvyZkxux4ySKFywBMQJJjWINVGcoVF0UGnFMB+BCs6mjHAMXZPxWEmOP2dtY40frNwmkRS8iYuJvmFBUVEXs0YWDk52+OLgV+yErzhon3OQjRknAS8w324wl81R5BXjSc6oGmESx0grJkXAnDju9+7y7uJNHJYLV/O1p4BpzlPjE2FFOR+e8fnLX/Go+JzjxSEH6YiBLQkJJI0UsAzyAQOGuMUW/aIgjIW141W219fZSpehrFD1r92V365KnOFvhxlZfQdwRbzMVGpcEcjxlFIRpKz1d+FC5RRe+aSARO9HNWBUEVVMUNRq/UmtdXRy8UX9fkLA4bDBc9LZZ7fznB59JrYiF6UIMeQYDHhXcZ532Tl5yYcLY1ZtFj28V3JgXMrir0RhgiilCIWH5aV13r33Dg2XACEqC2up9cnZCUfHL+j1z8AoPpRUqaHKE3798g882LzPB5t3sVWU2IsxHJ6+5LdPfslOucdh1qGflQwoGYdA2pjn1sYN7m7dYMnNk1oHVAyKHvsn++zs73Ey6pKbkipRsLDbD/zb7q/YWl7lvfmbJGKRoDgrVMWQx3uf88X+7zl0pxw1Bpy5Pn0Zk6thdfUadzfvc33+Oi3bRvHk1ZD+5IznL55y2DlmpBMmDiZNmGjg153fM7ffpr38dyxJUotNDIpHtASKOInREiuGzeV17t68w1zaxuMBjxCYVDnPX+xwcnpKpRWBCm88ZC0eD3f47Pgxd5Y3WbYpeP+tOjnBoEHwacnO2SOe9r+mk53STcYMxOMl5ca123x47T4rSYPgC57uP+Ph3iOGYUJhDYMAB+Mmnx09ZntpiwbJN/q/XcjPhahyVTAieHIOu8/ZHT6j0+jSa1b0Q0GStrh5/Sb3N24SJOfJ7hN29/cpdUxlAyec8OX5I949f4e1jSUSYxD8xUFO79EZYb19mJHVW45XK0YAQlTXSUxqi3CFXmo6q+XA09m3EKaT08hbgA1CEiwu2Oh91LVL8ZmtlYAaf/fBY4yCjnlx9pSdwTP6dkhuA74e2UmCqKUSz9iOeHr6nN3VAxbWbpBcmZhf4ajaIBiM2vrL4MVRakq7cZ0HG5+wbRfIahlD0Chl7y2cs7vymN98/W8c9Y+ZmMBIe1QNy5N+wq8Ov2BzbYM1aeEC5OWIL178ls86v+Vo8YxjN6Z0SumVtcVtHtz5Ph+uvM/N9jotHKmCoaKSgs5cl0dzT/inr/6NvckR6vqMTIk2PA+LZ/zu6CvWG+uspQuIeqx6jjt7fLr7G3bZ47g95CAZMzIlYlLubNzj+3d/wjtz99hM1klIECAwpvQDXrZu8vmLz/n13ld0QsnYDSmbJTsTw2/Ov2T7dINPVt+pw29TvzkgVCCKWkOoUlYb23yy9VPW3TKGgBDwVExCyfutY37/7Hc83n/EwA+pTMnQ9smxPB8f0JWCtgkkEgNuVzNJOg3CaZR8j6oee+On7MtLjhvn9JKKkoT1hWv89N5/5+O5eywrWCm45zZxw4pPjx9TyYTKBM7dgCf5KadSsEALqzK9+14hyYo4GdIKGmlKd3zCTuch+9VLztpDOurxknFn+S4/u/Mz7rXWaFBwiyX+79N/5kX/BJ8Ko3TA0/w5j86f8d76A5ZsiqkuxwtwpSRhhrcJM7J661F3priiZjO1TNwSC0unhj+I1Lmd2iuSOh9SE1gMA4a6HikG5mIXh0sZ8jS3IRe5gZjW9uLpjU55cvyIo3DCOCuojMe6jKVsgSLPkaAEU1G6CbuD5zw+f8zttWUa4mJep8ZV7ZUiqJg62Kl4MVSkZH6Jjeoat2WVhUrj540SfKByW9zbWGMpOP7nF//CzvAEnKegx7lL+fz8ER8P32dj+T6m8PTOD3l88gcOk1062ZihCRQh0MqW+OG7f89H6z/mlt1irWrRDobMBwwBtSXjZMz17U2q8Zh/2flXTooe3ihDN+Sw6vJpZ4cHmx8x314gUyX3I3ZPHvN8uMtx1uMsmTByFUFTbq3c5h/e/R98b/5jVsM8i2VGomlU02kOZsyN+Xmu3V2imnh+dfSYXALelIzciJ38kIeHT/lw5T6NC6IyKIYgghcliMVIQssvsV3d4Ias0/BgFLwNFOTcXbrJwg2L757x8KxPaFoKVzExQ/qMGEugMuA0oDINzb16T8Y6Jpj4EUOGFE1lnMHQlwR13Fy8y/fmfsR2tcC6FxxjNtpznC4e8WL/BX0ZU1AxMp4zq/StUgQlCzE3JbzmiQOVKqYW+gzzLnvnTzjXHmMHY1WcbbC9cJv7re+zngvr1tBuWvbaj+mdn9EPJSEp6JSn7Az26fgJ80mGK2MlWPV6Wm6GtwozsnrL8Xp9UvSVFKMBo7G8EZFoVNRiQ0LiUxKfYGvlHBKwtXrL1K0XAlPjFhCp63Y0blfkSkJdLcYklIw5Gh/wtPecXjJmklUEqyQ4Prz9PkeHhxwd71NKQWWVMw75avCQ98c3WG7ejONfOY5pB4gpTcbXFC+gkpD5OZbyNbZ1g9UxJNO/h0AlFcM0o7Vq2F845Ww0RmNQj3E6ZMcf8my4z/tLN5gzntP+C/bGzzmfP+c8KSkCBN9ga+ku31//MXe4z/pkgbWyxYJ3ZF4R9XhTkLsRC2mb/7b9E/rdQ35z+AXnlIzchB49nk72+Wp4wLXVddZsoCi7POt+xYk95aw55txMqIKw4Nb53tZP+Xj+J1yfbLNQJSwER+oTxEeRQpAJpWuw0mgz2B5xdtZlrzxjlCiFHXNanfD0fI+RDcxNPRA1QJTaxxCwBc1oVgusTNbY9pu0c4NRwZuA2orcDkncOS/sCi/yHYoMQlpRuCFjGVNIlK6/0j3jlTuQ+Jp6jBO2b9zg/uKHpMk5a/kA5xv8cPVDblc32Bg3WcmVhBFVI2G7WGJp4vDGUFllbISRtYyNUKnCGwU+l0NaBNGKYXnO8eSIoS3IjaCkzGWLrGc3Wecm6yPDdeNom8B7jW2eh0cU5ZBJBrkNnJQdjqs+G0mbBtPS4D+va8cMfxvMyOptx7fkmyOLxbCdiMR2Mh5scKSa4UJSF+NKTJL7EmsSRB1BpzPxWJDpNHoSFo3x+4txDBKioStkwk53h+PynHFbKGrRwoJb5MPND1gObQZHRwzDCKwnNz2e9Z7wvPceD+ZvYColKrXlQoYepgrBKZHp9Fusf7HB4oIjDZBg8AQcglOPFhVbTnh/5S6PTx5SVgOCMZRO6FQj9gedqJLUnNP+Id2iTz5vqGrF3kK6yofXf8S22WY1n2epatEMKTZK9FC1aBCcF9JJxZ3WHX6w/CH7J8f0y31sluNtn35xysvxId3qLksmpVOc8nK0yygZkicVwQjOZ9xavs97Kx+xoWvMlxkt73BqsIF60mEQbWD9MpJb3lt8j/eXH3G6d0qReArjKU2Pk/yEl6MuK+1lvA8wlXWrwSoYHIIFjZ1ALILULZBMEGxIyGjRGEI6CmRqY15SSmKQL68FFYLWoh54VYBA/c4gipMGt9ffw6yt8iCZMPE5TlOu2XdYqzIWQ4YtC5qNBr3xKePTLo3aewo21sy10gaJGqzKNzyqKUxs/ocTRUJFf9KnHwpKE3OuBkfTtVjKlmj4Fg2fkaqjzTzX2+vMS0LiK0rAOEevOOd03KFsrYOYuoZQL7p2UD9if0mvyhn+czEjq7cdbwpJ6JX4eqh78IlyfHrAZ19+SrdYw1VTUUUkK1NNMHbEXvmE8/EA7/Ri5hyLTLmoZbkIGxJwMUHG8bDLo8PHDGzFwBomxuLVcnv1Pvead2gvwk76e3w5YKQlZWI5LY/YOdulu/p9NqQdjeY0aca3FHteHFmo/ymh7t7gdRo2dKQ6hystt5ubbNsmnQlMnCU4w6DK6VRjRkYx1Yhe2WGiOSWOUCsb59Nlbs7fY7laYq1o0VaH0YpKDJWJYcmAwZHgqgarus47jftsuy94MTnGhxIvQwo6nJSHDGWIT1LOijO6dBibEd4oVlKszrHVvM2WvclCOcd8cFglKvmkzjFio8nVFklpWW+Mud3a4vchYRRGOBMwZkS/GLA76PDO4l3aeik4sFo3kKpDuMYIYgVxgK07W9TXejIasfd8l2FvQGIdIiVBPSLUJQaXLaveNE8CokeOYkKTBdnmjl1hWyqC8ySS0CznmfeGhheSJCWQs3eww9HJPmKiRx/EYnxga2mZlnW4ylwpIH8VFgPqsQRUS0bVhNwEvIJRwanQ0JS2tHClw5LGXKxPmTeLNEJKooITKI1nEsb0w5jKgle9ODeGK+Kf6bM2I6y3AjOy+q7gDU9MbMgqiAEfJux3nvKvxxPWwirWB4LkdU5DceoJOqJvTjiTc0rxdaL8imKQWGwZZdgGRGOBaPCcnB2w3zmkyAK5hVwciWlwe/Nd1sw6STvn9vI1zg5OGVYVNhEqn3NwssfJ2hHbG/eRXGLtkvoL5/CPHe5rmbTYbJdYuCtBSHAsJW0WTUbiFU1imKvUMaNqxDgUGD9iUHZQyRHxxD68Kc60ado5GprSDIYExau/SLDHjh1TQnekKiwly6wkC7RJyascXCBozqDoMqyGVK0V+uWEoZ9Q4gGLaoKQ0XILNM08rrIkGpv2BoGYfZyScKi9GUdCyoJr0zIZNoxxcc5AHkoOh+eMQsWqSS7IJNbRxfBt0IrxZMjR8SFtF2iMAgbD2OeM8yGHvT0+P/qC0zDAp2DEEaqAkYzF+TVSm8aJxYXAAl538ae/GXWkvgWaktbFyA5DGpok3iAqeFX2jnf5zaPfsD86ZtTylBJQFeYaDa6trtG0SZ2LvSJTv3qvSyxExggej5f4ZYhdNgiQGUfTZphQTzZMlPhbbWBCAzFpnfsidtYwUEq8n6YTwFdC1fDNHZnhb4YZWb3lmCqTLjtTT5/kSC5WHGhFwYieOaJgxIkcojbHM0bExXCWs6iWFDqgSidMbDRs02qsi/Hi449gCOox4hnlZ7w4eUKnPCVvjSklp/Qp60vX2V64S7taoO02eGfhFl+/fEw3BMQYgpR0hifsd17yweYdbF3IOp2xX5b5fvuxX/hZdcgyoMT+vIFEIFVLwzuMQhCPmoIgYyqdUFFRMmFSnaOmiAFINQRpItLG2QWcJliNGZ9AuBgn7mMgYFCxBA8pDRqkZJWSGCEoeDxlmDApJnigQBkHT2WmAhWHaEJqWmTSxKrF6FWjL1eI6nIfxEOmjjQYbAXWCIqhFKFbTJhQk51c6c+HIuJRKTjq7fPrx79kTxdJ84AoDIohnfEZPXp0zEu62ZBhUsWOEN4w31jj5sYdmraFqRQrwJWu9q9dnZjhUYfDYnxCZiIBWSxGE0xwOCccnb7k37/+OZ91v+Ck2aeXlQxNwIvj5uY2W+055jAk1J33a7yeq51eey+BQIWKRzSGr1WFVCypTaIXRkUwAbwimiCagqYoVWxELFrnbOv7TF8/uleFQDP87TEjq7ce03WKppL0q22LYvNRg8Ebz1AHjJOCfuihFAQpAIviMMbGZRkoERcT6JcP47SCqx5LQMQgviK4kuPBC74++oxh1iV3A3wYk5oG97cesNHcxowt88k87y7e4detLV6MnsdlLkzOuZ7zVecJDwbvcLtxDfFxdqwq6GtE+ceOPyh1g9WrOkKpuzIIopZp+FCkAAqQKiogKVGtULFUKnhxiGlhZQ4JyVTeAUzLAOrwaU0lsYVSNMxGDUZrQy7Uy3koYmz0CozgLVQXeSjB4kgkwanB4ADF1AaXWuQyPf/UZ8QCKVFY4uqQrIpSGaWyMdxZVZeVcdMcU+yd6DkvT/i8+ynPQobzMUzotSSXgsLljNMh4zQwtp68Kmm5ZT66+R53Vm7QCAkuxOOUes++cVVqb2Taf9KpYILDh7hHViyCcnD2jF9//f/x28Nf8zI5o5+NGJmSSRBWV27w4a0P2LJNmmNPonVPyivX4+p9gNQ5pamwiFCrW6MSNohBxF7cE9R5qKttnGLIWxGN51zkMtz5elnFLPz3dmFGVt8J6Kv/rhjtUAUwQjCKbyjWgfclxkEUt1sEh8cQgsFgKYsJPlR177xLaXv8ijN8qQ3yuDjnRecxL8fPGS4OmCRjNAQWkyXeXXrAul2nWTkWMNyfu8OD1ft8OTqgV44JAoOkz5eDp7zb2WXz+jZpgMuerH/aGlwQ9ZVjvzA8qlFUoBKLf2uZvUgJUqJS1V8+nh9RPEKlBq8JISQgDpXYnTtaZq1r16Z5G1OHSi0SXBSsqDJtXxWFBgZjHIQoRfBW8CEKYCwgXrFB67xSrHu7XIIj1GR1aWCNSrxqGh9QQ91BHE8limaOwkChdQ/AC7ISrAaM5Ixdh5fSj2FdJKoxNRr30ngmMqGUApsmJK7J965/yM9u/5hNs0yzcCTBYGJQlDf5F5eXz9fHE9udLzEAACAASURBVOvkgq875UvF4fEev3z0P/ns9Je8SF5yNNdnkEzIUdoL1/nonZ9xb+Eea0WDVhGPV64uInmlce/V/TBCTTL1elxE6vJi6itW649Ua4l9rDObbqMW+18c35SYplGMWfjv7cSMrL5zkCuzPsU6i4S4ftK1zVu8e/0dnBJrkqLWDyEhGizD+eiUrx99Tnd0dtkpvCaCUOeE6mVXsQK94RnPDp9Q2JI8UcYYgmmSyQLlacnx+Jiy6xkwobKnuDIwJzDxOVgo3ZiD/ISvT5/y/fUHrLq5KI9XWxu5P5a4mv4QpsWo0/zO1IAZFFc36p12AlcCWifxfR3uUTNdFDJ2LAihxIeCYH1da3ZVpn0Z+rrQLurVHBoY0UgiWmGtRUzMzUy9rLiJEDOGvsKXPpKpgEhAtP6bXlGdydTIRsupdfshA3VJQQUSMIml1ECpUwqfeoEeQxQhBOvJ7aValJrwqDt6GOto2JSV5Q1urtzlk5W/493GfVYm8zR8VBZe9fbedHGmncvjZEeogmBNQlUVHJzt8Zuvfs7vT37LYeOMTnPCMPMMVZmbX+MH7/wdP1j9IRus0SwapHVX32m+8MLTvUzKTb/VubRXMq2X3lB9+14IZiHSWf3CtKlynHRwOabGS2bqa/CG3r0z/I0xI6vvLGrTWcuXnGZcW7jDj9Z/Sgt3pS+gReo2Ng54MXhM/+kuk9BhKL6Wf9VkpRo7dftYfGsS5eXpCw5HBxSZMjGOUiwqLYoCHj16yEQPWZh4slBS2T57ZhdLSaKeCshtTpX0eXT2hP3REcurbXQSG7GaN5DVK0u9y9Uc3dSjrPc3tmInlBW+yC+2FRQCFpNkYC3iHM25efxhVBUaCRAKfNFjPOrgm4uopnCRN6oNtOhFHkM00kYxGTEajwkSyQkqrINmMyVJHAElSZOovqyNq9Tnd5xPGOcFJE00VJFQ8Vc6tmskEjGYoPhK6Q8nTApPyCwqBaoVWeJYaLdRXyF1m9mI6D2oejQorfYCmxs3SMWBr8AGgnisSUhtgyzLaDbaLGdbXGvd4Ta32J6ssVBmNIPBap0f/FaDXQswRAg+1AtmWnyVc3j8jF8/+ice9j5lv3XMYWtAN8kZm0C7vckHd37MDzd+zD1uslbM06qyehkSz2VYMzKG1ufxMmOrFwx1uVhkJJzKB8qywmQ21uQR72dC7f1NvVBVxFqMdXVHf77pQ86I6q3DjKy+gxCdzjgDIXhUlFQbzIVVVtliycc8hQs1WUlce8kYj58cs1ikNLwwtnpR4yRMZ6RCqBRjDeOix/PT55zRYZRUTKbLlATIQ5/dyWN6pWGuik1SvVT00y79pMTXa1J5qSAZczg85MnZC+6t3qRpXFwsiW+WYapemSMLFzPhV4hLIkmrwOl5l/5kRLAxhBlUsLZJK1sgMQ2a6Rzt5kL05IIipsJKQZl3OT3cQW7fQGjVIdBpl8Tp+LFxMKLk1YjT7j7n416dM8qoKo8xlmaW0khTDMLSXJvMEPsuBoM3gPEcdI7oDLvcWllAjRBC9GQRvew6Uq+KbK1hMBpycHbMWCsqaylEqLwynyastubJguCmocQrqILBB8uNuRv85O7PWKWNVDniiGtAiyM1DTKTkdkGTeZplHOs+gWWy4ymt9iaJPzFxOGb3tWF7geDNRaHRUJg9/QZv33yL3za/R2H7SOOswEdlzMxwlx7nR/c+ykfb3zCXbnJRjHPXJGRKNOS5ppUwsWYl6rQ2nWuD9g6h7GW4C/VokVVMc5zWLB4CZRGsASKMkdDhVitU1+GxGW4pHExWbgq9Znlqt5OzMjqO4bLhyqa1CCxG7nTjGa5yFJYYyNvkxVxtQjqruPOVxhXMBg1mZ8YGkHqBPprIZUQl33IUsvB2Qk73V1OpMfAVpT1arImFEykQ56d0088qXoUR8BQmJLSBBAHEhWBYoaMTZ+HJ0/50c2PWHbraKlx315bqvWizZMKJpi6MBisToUZceG8VCyEgoOzI7rlmDLTeC4CzGVLrMyv05AmmbRYbK3SSucx9GOeQnI0DHix95DB2oeQLCGhzg2J1F246xqmoKSJ4/j8kMf7X9Kr+pQtx8Q4CpMwbxuszC3QTjKSQlnOmmzNL7A7eYn6QOU8kiovzw94cvSMd+Y3WE7akMeyAsK0H2MM+bkA2JK94z2en76kSA1jVXIMYlOWGnNsZ3MsaOxh6K6GzDCoTQjaZE62uJe+z227TDrOMdZQiqJeSEKK8QaTW1xIyUJGWzOyYJlWmIU6nqbfmE5cuVYqGBK0gsTC0ekuv338z/y+8xtetA45avU5Y0KhltW5a/zw3t/z082/42a4wfZ4lZV8LpZUmBylXt1ZqBWF5kr3Fq2vi8EoIIYsa5A2MnSgKIagwqSsmBQl3kd1oDUJVV6Rj4fEGq06xCqWJG2QZA2kniBcNimb4W3FjKy+g4ih9ml8v84dqOA0IdUGjdAkDQFbG12jJjbkUUOmQqp1nofL2P7FtjWQOEdRDXl5/IxO3mXYqChMHNMAaWLjjNRGaXalps6xgEqCikO9x1cFgseheDtmb/CS3e4+N9aWMRILY7nIZl/9ioY3iqIdDoPTgKtzSyogWvLixTOeHb/gjJKxqdf5KGF5fomtxU2ykNIITbaXb7O5uM3uuEfSsBTB4yXnqPeCz57+npVrba7PrZKpQ30AE/Mn1gqqFfmkzxc7n/Go84R+NqawytgrwTRYnt/k+vI1WiTYQlkwTR5s3uNhZ4eT0Ec1huCG0ueL/S+4kS6xtP292FEhWJiScNA4nuTsHT7l891POfJdcheiGQ+ORtrmztp11k2DdiEkYVrEWgfDFHwQLBlZaLNQLrKsy2R5ibOWSkLscmISNNRekbrY0BgBDbWce5qp+mPth+rrFKK4pT884XePfsGnx5+y3zyjk+X0gkdNk+2lm/zknb/jh2s/5LbeZDNfYbGcoxkSAhNK6nxp0LgmmElADU4MRj0EHydmxoAvcDhaWZNmmsVS55hEZFyM6Y37FFrQVkfilcKXnA+7lKHAGKlzUY5mo0UrTZmtvfjdwYysvqOYPl9BeMWwxMRxlHEHCXEmioJ4VDxIHb9XvUjmR4qQS1mwKL3RCU+PH9Kjx8gFChe1V0tzS9zevknmEoxEugtMH3il1IB3Quf8hP2DHYpyElcotjnH1REPTx7z/vJdUjNPyrQoeXo0MexmROIaT76k8BV5ZdAwrUJSeqM+nd4Ov/n6n3g63ue8pQydUqgnJeH2yg1uzG3SKhKysslm8wbvbNzny+dPyH1BgVLYEV1/xC9f/Ds69Pz9zY+5v3KdVDKscah6fJVz1jng4e7v+OXLX/LSntJ1AyamZOKVJFnkztb73GjfolFmpBU0k3k+WH+fX7/8kp3zHrmWBFMwTgY8Hz3mnx4FZDjmh1vvsdVciTVBIjhbMRp1ebb/MC5TP3xIpzWib8dRPlk5FrI1Pth+hxVvaVWQIPX1vcy4BI0LLCaa0K4atLVNowwkwVDhgbgMvdcYfjQ6rW1SvISL2qPo1bzJil8qD8HgjKXIh3z67Ff87uiX7KXH7DcGDBNPUSW07AofXf8x31v4iM3BMgu5pVVUaBgxRCjNBJ9WJGmCdRZV6A8GnHd7ODGkBqgK0ixjaWU1Zl/VspDNsd5apNFxDLRCbGBSDDjs7nEyOmIzvU4aYH/Y5Xl3n74WlMZQEMAmrC6usJi0cFW832aE9fZjRlb/GyB6NApS1W1sotGJi8MLsXVR1FJo3T5pmv5RicKKKFiIL1Za8rK3y87gMX3XZ+wqJoBKg2vr9/n7Wz9jziRYPLYOX8UlIwyeEjGel0vP+Xl/yLPjHqWD0pb0fZfHnae8GJ6wONeiJVKv63eZpxJVrIHu6Iwv974klyOWcyGpYniqDIGT3gkvu1/zcvyYk+aQcUOoEkeRF2w0l/lg+12WpUWzstjc4RqLvLf9Hl+cf8Go+4wyEbyZMEg67BWO8rDgfHTMj7a/x3JjGScJGioGo1N2Dr5mp/OIXXvASWvEMMnjWfWW65t3eX/reyzrEmmZYhUS32Iju8GH1z/i4fiAcTHEZxWlHdKzhzwvPNWTHuejU95dvkvDpBgjUI05OH7Ko8NP2St3OMhO6SQjJklF6QMtt8z9rQ+4sXiD1tiSBJCLMrUYrguiqPFo8LUyMNRNnOrwF/VClHo5ubgQkzBtsaW8ylGvW/E65CiWEEBtyd7JI379/N94IS85bwwZuJLSCGINloRJv2DnfIfJ8JTjMqXlBcHixVKK0Fpc5N0795i3KaGcsPvyKz599BWVi4s7allwY+sWP177McuuiQ8VC8kctxa3aO+ldNVTUoKdsNd9xm+e/5KlrYr+KOd3Lz/jyfiQ8yQwMoaJKo2szbXlbZakhaskKi3hoi/gjLfeTszI6juM6VLciqLqY1W/8VQmYGp59HTdq2lmpE5hR4KqVRVhKl4g9pmbFGMenzxmr9pjMDdiYkpKHKltcmf1PW5m77JQWloaSMO0q5oDLEZzCEOuNR39uWd0jg44CwUhqajciIPxEY86L7jRXGc5bb2SNFedSsULjvov+Pfhv/A4T1kohbTWF3tVJpLT5ZDB3Cn91oR+WjDwniRZ4L3r3+O9hfu0igRXKqlm4JVbC7f46Z0fcfRFj1F5SplVjJKC4ISJKRn2++wNXrBkF8lIEC3Jqz6d/Ihh0uOs1eesMSJ3Fd4rS611Pr71CXeb91iazNEoM6wEjG8yZzd4f/NDPhrs0t39A30tUadMpOA0qRj1z+kf9Pls/0vmXYtElHLSZ+I79MwRndYZp80xfZdTScCQcHvjPh/f+IRls0QWTGzZdHkn1GQV6m4fJUoFxDqzYBRvotZOLoQqeuWz8ecU3+x7rt/4fSr9HpVdnp58ztPJY44XOnSSksJagoA1hrIoePb8Cb3JEQd5g0YocRR4ESqTUukcm8U7LN+8SVNaGCnpjfZ4PvyCszTey1oExqXhnrxPK2nhckNDWtxcuMZGe5n9SR+0xKYJx8Nd/v35P8P5EfODnCejz9nRM84aJUOXkHvh1uo1tuY3mfMZDW+iQvSiAHqGtxUzsvqOQXVamxO7BDibYHyJEanDGdMq/1cVTt7HotJpiE1FEOMQU+ef6kfVWRhMeux39+nZCWUS64ZsSFlvb3Jv6T7zZZuF0tEKShqkrvKZCgQSEEParLg/d5tHjR0G+QFeBWOFopjw/GyPzup9bjablJMKIxZr61owIS7PISPOqpcU3tKvxfemXo04JMrQ9elKj75OGFeKS+Z4cPP7fHLzJyzpAmnlohk2BlVLFuZ4f/N7nPgR/Sc/Z688wZvo8RWNnJ4ZUE0KOv6MLFisBIKpGDUHTLKcQVowkZIyKHPNZX5w7yd8uPoBS6FJqzQxn6YQSNDQZDXb4v989x8Y4PnVwUMmWsRonuTkLcNJdUY/7zNXpSTqUS3wSc4kGTJseAY6ofIVxmbc2X7AJ/d+zO3mdRpViqmFKRf98uoJiQGsGJzYeDUvCmzDBSVBvNSC1JOdS13fn2OqpzVuJihWhNNRl/3hS4pGRZEpwRmsiaUTRgSxgXHZ41xKvLOkWmDIY7d0m1FVq7i0YOyi1Fw1x6Q5k0aPs8aIiQUSS78xYSQxhCs4JGSsz13jwc13efz0gDzkhFBSujEnxT5/OB2xUFSc2zPGWSAXT1EFlue2+ODGh6xly6Q5V+rJLpWHM7ydmJHVdwxRPBco/IRxOSZXz6CckIYJFeGyuJRLqcI0tmEAxVOEnFE1ZhAqBpoQvDDxBWqFshqwd/yQ571nnCQjukwYVWBCwvXVW2yn6yyP2ixUjiwE3AVZxYc9CSlCRloI9+fvcmP+K77uPo0dBozS0Q5fdB7y0fkd3l9bJYiPy9Jrydh7JnUPvJAkiB0wtsK5XhapIlrLkgsKEw3gxvImt7c+4AebP+Ve4z5zwyZZcLHWxgRQIfVtVs0WP7n+Y0Lm+MXub3k+OCCXwJAek2RI3yWcqyXxgpXYOHdQjslNhYriXJutxQ3ev/UxH65+zA2zznKZ0g7gtKpre4QQMlp+hbvpff7Hu5A2Gjw6fMLZqE8eBhRSMHRDnHOkIZCqBxFK9Ux0jEqgQlhsrnB7+30+vPlD3p17wJZfpFUmGGJZgFGlCiV5yBmHMaOgjLF4LchDVbfUekNZ78W6UXp5f1wUQv95sCiWitPxIU/6TzmWLmc6ZOiV4ONEIfrcE0Z2xFAMp1ZxlBgqSqkINsNbj02GjDKDGkvQkoI+Z3LIC9dhlBqQjNvpOSNbUIjixGJCizm3wUc3f8CRnvOrl19ymI+YcE7VLKmqU9o2UNiSPhMmWrLQWuVH7/6YB0vvsRTmaHiwYVoI///veZzhvw4zsvoOYTpbFgGXOlzTYTPIkgxXJGClLqt8FapxFlynN0gbGTY4XEtwLiHYBBIDThiNuxwPHzN051TzltwJhQ+sZQtcX7tGUxNa3tHwsXv4dOGJOC8OxG52CUlosd3c5M7yNqunbTTNyRNLmVZ0yg77k0NGPidJLS4xJJklaSjOxWJZo+AVimCorogAjDMYa2lmy9xY2mBlbpXri7e43rrLhttiedJirkrIEIQKxWJUSEMDygW2UuVnWwmrrSUedh/xtPeSZ50DRlXOSAvyIDhrogcq4FPFuAbrK1tcX7nFneV73Jm/zWZYZbVsM185MhSJU4WYJVJH4tu0teJe9g7JnYzbi1s86zzjafeQg2GPUcgpjCVXj6vJI6ggaUKzkXF/7Ra3lu5yd+ldthrXWCtX45pbPqnl29FfMs7gMkfSSLDNgDOOJCT8L/be+8mu48rz/GTmNe+98lUoA1TBexCOBEkQNHKUKNdq+dZM905P7EbMRuzG/LD7w/4xExsxOxPdMz093ZJaUqtbEiWKEj0BEAQI7215++q5azJzf7j3mSqAFACREAq8X0RVoV69a969N883z8lzvsfL+Ukd0pJsy/p603LLfC/+RH0KFGMJWIyLVLyQUAh0UmDWaOaZUKVG25CQRC9REpMk/6TkHsfUcpaaNFghUUoiHYn1LXFeE+cFIgCbF1hXoIlBeCjyOLqLIXctn9n8Arn2bo6MnuHawhSRV6NkDIE2WCkItGSodwO7N+xn96onGZADdAd58jopiTAtl6Mu1ZStXT18yMhqhaAe7jEWfK/Anm37EbKDci7RWivoQTblRpIW3WapEjcAQqAtdBR6eGLX07QzzHRBUxIKa9rYlt+a1Bq5luENQzy9/iD9fpk5UUNbxSpniK2d62iLFTlDWsjZsvQhLKDRwgUUSvu00cWuwV2EHTGTXkBJOtRsHt90M+ysoWY0nvLZvGEnn13bw7q8piSjhG6tTNW7k/BiPZQlRVI/0+Z00ecP0uf10Kf66NKd5Gs5OuIceeuhrGnoxwkk0nrkdAcqdPFsno62Amvbh7gWjnGpOkbR1FgMa8SRTkRYBQgp8dwcebeT/twIA7kRhtx+usMCPXGO7jhPzggca9IUFiBVrXdMgTajUNYn7xQY7O9hY88atocz3KjNMB8HVHScEDMWUEjhkM+30eG0s6awniF/mD7bS2fURkeQp9P4yKSJGQCx1fh+G7u27MXQy1gupozCo4vtzhbyKoeNSGuJkrhwfZ2T5c/HXaNe+aSxRPT09fDEk8+wWs0xqyrJ2qhI3pH8U9hUWqveezj5a5QmaYzQ7W/HUxDpEOUo1oxs5Ln+zzFUmKeiQJkc2/wtFJSPiE3aSsTDNZ10G3A9D2ekne7uIS6VbjIVLqDTZpLSerS53Wzs2pToEJoBuoJOuiOXXMLkxHf4hJnc0sMHMTE7nk0gVgSSkaOIiEWFSW+GKW+eqpO0psjZLrrCAbrjHjqiPI4xCOJ0hlhPcY6oOUUWnRlm/BLzKqaKgyXPKtNDf9hJwVQxFJl3K8y4ISUMBkWBAj26k96gg+6ggGslCJO2VU/XRYTB4oJVSCKsKFP0Zph2Zyh5IRUEITkU7ayKuukPC+RZQIspZryQKcdQS9JEGkWazRYmjaIsBAqXPDnbRt545I1PPvbwtYdvHKRWjfcLkvTshFgTlYtYhlRViYpXYl6VKDoVqmgqOiI2SW0awiCFwpU5fFHAsx3kdQftJkc+UnRoh7xWSeE1qXoGpGt3Ki241hgRE8mQmrNI2S1SUlUWZUDVxpRNLU18SchKCQ9X+eTJkzPttOkO8jrpKpyLXXxTn1smNXOgCZxZiu4U016JOaUJkChy9MY9DIZ9iXySTmSZ6oK5d8ZHmYHWvyXPoWM1iICiV2TaX2DBqVEmmWiIFkqyS+6fockA9W7EXTj00Be30Rc6uLaGlovMuItMO1UCDAqHbtPDQNBLpy6Qi11U0oYRLWoETpl5b5FZZ5EFW2Y+KhKIEAM4+HSoHjpFJ526nXycoy3K0a4Vvk2mCVq0BEQbWbKZZ/WwISOrFQaRrtsEMiBSMZGIAHCth6dzONpF2bqx1i2DLjEYVkRYERG6cbLoLFwsLp5R5HQiy4QwaJFkYkUikUB1kbha4GqVFLM2zidBc54uGjVbAkssa0QqIFaaWBg0PgIfxzi4RuAQIKgRSwgkxEIQU6/kqX+1JgEkySXSuknBsJGpwoVIu8nKpGdVi6mp159BUiCdnFdEpEJCERIrTYTGyLqRasrDShwULtK4qNhN2q8bk6hHpNn+9Z5IrZ+/Xmxa74wci5BYhsQyIpYxkUha1TfDTRJpVVoK7SG1g0pDrcpaVEMWvOVLWIwI0CoglDGRSHQgBArPeHjaxzMKx8hGScPH+hxi0CoiVBGh0sTpPWo29PyoBI7685iUPEjTVF2HRHg4CSwn5+wbDz/2cHHTe5jAWIORhpqsETghsdREIiaSERqLa3P4Jo+jHVwtcY3EMbYhVWVFU0651ZHKyOrhQ0ZWKxQ2TaYwjTBXoqoukKltSEVZxXITkSplK0tsDVooDA7KysRbapjqJIxmRRpQtDZpGviR8ZHW/MNkJStRvDaJCrxNZJisVTR9Jo20iaCrRqSfKfmEzS5DzUSAxuzXqhavaen5WATGNjPgRON8ZCoRJBLFBKEx6EShHZPWG93pYgskCmFUw0OTJErv9fNtatjRIGuZGm6Remqmbn6lQQuTKEpAmjUj06QJ2fgSti7CVE8ubxJVvXNy2hwDGs9CndAlwqY9ttI7UX9mPg40Er1Fcn/rXZzrZFW/Hs1w9Ifp66ev2mZfLmGTdbX6E2QtKJuSuU3uY+u2FosWMVpqtNQNYrZYlHVQxmm5riQTicY9E7Q+YY2zysjqoUNGVisVtu7ByJbBmyzxA4nhbamfqg/G+kAVaWDeiCT7LjEEMiksFWaJwK2kvmKU/KzL8bR6Vcu7/i4Jq4imAV9OdEu3Fcv+Ylt6bqVkZVv2WzeHjdlxM1Ro66oOjV2K5jVrujMNz0dgU50+myifp0kIxmpsok3UQizNtbpWslqKJlGlSzhLPmFi3E2jJUtdNihJKU/ah9A4rm18xiZZJds1CK11/y09oRoq9Y3C34/HCNfPJekNZRtKKMlUqE6k93KkugJL61PQzDRN35K+IpdsV7+4iZCxTn+3yBZ1lKbH37x+re1IMrJ6+JElWKxUNMZhMruuD75UOK+l9UR9Hp6g/h5bJyPb3L7ZIKMZLqorHYjGL7cP4TtN1ls5AttqsFtVE+rBJNliqBrz6cTg2VZv5/Zjt55xkzBuP8+EhOrBvYbpgtSDoXEVlgashKh7my37ajVkLf9fLtmzNARbT0hJTXrqPdRXdCQiOVaaGZgQpGghw6WeiW2Qf+PukM4/0nv/yZpaQTKpSVps1GOgMunae597vBNaaUS0eEL1kGj9PABsGhkQ1GsN63+vT3DkkpYjzWnch8cKMjw8yMhqxSI15iKNzKUeRsNucHtoA9JlbVGfc9um7I5oXYA3jQHePBpNQrzDfj/8LAGRaNY11BPq3xv9qept5Js+lml4A819tHon9Y9ql339oXNpdIwVAmtFmmYtGuQoBOhUfb1xzZaT0B0uwFKPoHkuDeMq6tfeUF+LI+043MzdbJKirat6CBprKq2nUTfCyfnVlSlYSp7LzudefZ2PRtqfV4gk5V7Ixmds7UB9t1jqhS9H4rkt0ZhoPIctT1Sac96YNMjmG4UVqaJ/fY9LdpNhBSAjq5WOhuxOi7VqzBbrA7gJ0fj5UeKdTa/MiqTeqXVU32k7K+487JseSJ1sWlMnbHNfwrZ4Rq1mzjZCW/XzXjozbg0a1Xdlb7dCtvWTt/YaTo9dJ4o62aeeDfZ2T2H5rpcTVeM9LV5pMyRrG/RUv2TC2nSiYBthRuztoajmMVqprXmPWw1wMzWl5V7y8aH5+Vr3nXyXtvVo90hYLLuW6U1puVssn4Y1KKienNEyYYM02NAyJWgc65N1PjN8zMjIaoWjEfprvgKQ1u7YjzRSH9GpqPG/O1X3364d13rk21FPWJZJ+hXpKge3z/ftkuTm5qH/kFVpJkvX19ruvEl9by0z7BaiSsJoLQbR1s/udkJc/vuHnaGsm3HbXDeqE3cdrUTWMNfLPbfmu9Pv9f3UCXC5J1Un9Sa5f7xeRLJ2tGx+dBsptJ7z3e21+bN1MtLic97VDlojARYahcqtE4vm2Mn8q5WAjKxWPJZ6JK2vN79/yF/vY4ze6yZL/Zk6rzYNj/0Qz+/DX7nNZVr6W3MhZ9k7m9dj6fW6k3/WNO3LW/Ld8egfcf2b59H0e5YYzNu2u7srXE8SudNZLvMf7mGv9wJB4642Dnin6c+9Hdku//+HeOx3c3b1nbReo9uu+33uP8ODR0ZWjwRuN3mfWITjPnZ8u19yr0GpP2RQ7O2/idteZnmI6MP3+tEEdTdI9p8er+VgHyd1LM/A/NNgqfr7h73nXvFxPL+3X50/9bXK8McgI6sMd42VFuP/qJqiT9psLfF0MhuZIcMfjYysMtwV4/8l4wAAIABJREFU7pREkCFDhgwPCh+2Vp4hw1JkTJUhQ4Y/ITLPKsNdY4VFATNkyPAIISOrDHeF+80ezJAhQ4aPA1kYMEOGDBkyPPTIyCpDhgwZMjz0yMgqQ4YMGTI89MjIKkOGDBkyPPTIyCpDhgwZMjz0yMgqQ4YMGTI89MjIKkOGDBkyPPTIyCpDhgwZMjz0yMgqQ4YMGTI89MjIKkOGDBkyPPTIyCpDhgwZMjz0+EhtQCFES5vvDBkePMR9dHJ90M+sEGl3+Tv+LRlD2VjKkOEPoz7elw6V5JeUrJY1ALeG5uuZemmGB41ma937s++fLDEIIRrd0I1p7TlsG8RUPw+ov1cs+bu190fEfwrc77VcKZ/vfpBdk08G9ctqjEVKRbPXg8VZTkjWGpRykFKitSaONXcmrHttTZ4hw92ilQDudcKUPJefPFkJEOAoFyEUxsRYq5FSpscWy76aRFU3WFrbxt8eZtzPtUw+48P9uf4Y3D9Zfcwn8ghACjDp9XQcFykloMEKhKQxsWt4Vkkow6KUolwuMTM9S7lcSQfUnR47C5jbXs2Q4Y9DfRKUGHlr6z/v1jjY1CB8koZSAAYpBa6bo7enn/aOAp4n0+PL9LybRq0+AIvFIrNzc1TKVay9/yXjBxlSvF+yetRDn/dP4hmasAhhG4QkpaKjvZP+gX4K+QLaxCQTPRATsxNWCJXO+mBhYZ5Lly4QBBFthQKu6wPidj9KZGSV4ZNCi2dl73VwW+wDmNELBBhDtRZgtKG7p4uRkWHy+RxCOA1DVh9XUkpGR0cZGxsliiJyuTyO42Jbnch7Of4DNHr37UVI8cg6V1kY8OODMaYRkYijmKAWUCgUWL9+I13dnRgTNz2r+oAqlYtcvHieKAoYWTtMZ0cnSjnJTPG25+4+w4DpzcrSEDP8QbSEB+4Jn+R6UBrdkiSDLAgCZqZnmJ6ZwJiIbVt3IB2Rxt6TMSKlZGZmmmvXrqCUYsOGtRQKBaiPqXs61eTNQj44oyfuc936QUwa/lTIrsnHgTRE3oiGG6y1LMzNMzo6yYWL59m+fTuFtjxSSBxrLVKCMZobN65TLhfZvn0LQ2uGiLVuhtSFuJ2sRGvI5i5OrSUsIIXIblyGP4D7eT6aa0SfJGQ6yNo7PDo68whpuXVzjMHB1fT1DWBtjBAghCQIAq5du4YQsGnzegb6+9A6Agkag70Hw1cP1z9IJCHMe8cjHAG877UnY7JoVBOCZNqXhNXraGvvx/Fdzp+5xI2bN9i2bStSShwEuK5idnaB6akpevu6Wb2mH6TG2qjBeEgBQrYMlNa1gbu7czaNPYJBr4CF5Qx/StzbRKiJB0NWxoCSEmMh35ZjeGSIyckpxsfH6OjoTv5mDPl8nunpKRYXi6xdt4a+vm60DdBECAHGGuw9Wj7xgMMS5n7LBx7hiNf9eu5WZjYvQXodrMIiQWhApwl+Lv2D3UxPdTI9O8Xa2lp8z8eRJIOuVq2htaWzswvXc6gG1cTjshor6kkWZsnB7tkzqp9fRlIZ7gr3E2p+MBZSpCFKay3axOQLOTo6O1gsFYnjECeXA22RUlAulxAS2jsKSEUSsVBgMFhhG+PrbnEvntjHgfs52qM+xu/3Djzq1+XukYxtIUBYm7rhFoQg1hE516ejq8DMzCyVSpnuzi6cZBuLNclFVI5KQn5prZUlGUxJCN62VsA82n5+hhWKT/aZbITXBRgsGNAmRkgH5Qp0KQJMYx3YGE0cJyHBZGzRsHRGNE3XvfmQD3bc3d8wf7Rtw/2bvkf7utwtLBbRcHjqRJVk01pjEMKgHJDCYOIYAUkYELusIkRYjLAIBHbZWtUj7NlnyPAHsbz6S6eDTmKxGEwj+nC7UarXHqWVYC2lxA/7uMoM7O3IrskfA9EykmyjaL7+kkxC44KUf5IRs0RuSaRpwibNymiuUd0pSN7CiA/5UMuQ4eOHTdPqTYN8rDAsD13eNgOvD8IHd6IZMjykaOWVRrwOa0mngHUkyXzO0jfXN0j+SduovV+201aigmzoZfhUIl1ravW2bsfSsdJYo8pC6Bk+9Vju6Ng7pEY1x84dXKY7yduIZa9nnlSGDHc3R7s9SSQhrE/ihDJkWIlYyitLMy2bDlGDrKxd7i0t31GGDBk+DojbK+wzZMgANKXVbCNyUX89UbAgSUsXolk7JYRIZoBZuCJDhtvwUcoT9THTKlqbIUOGD8NSjmmKRyz9cpqp6WloQiaDzfJhnlaGDBngo0dHc8BlZJUhw0dj2Shq6M62Jiw1EixScmrMAptvak2xzZAhQ4YMGT4+3Gm61xoCbJKVXLrN7ckVGVFlyJAhQ4Y/HW4TP79TFmCGDBkyZMjwp0fWqeNTi+XlCBkyPKrInvFHAc4ffkuGRxPNUu+kEO/24rwMGR4N2JbvS5E95ysHGVl9SmEbi5gtreOXqJNkAznDo4BWopJLJXxSZM/5ykAWBvwUw9aFipMugYh6o6Rs9GZY8WhqzSXR7kSTUQiSSVoWAV9xeCQ8q3rh5d0WMNdrYFoLNpttyB8Mkg7Ncsl5LP9/eratW32MZ1A/Tl0BXCOsAWuzcZzhT4bm89/6u72DlOKHVril2zfHkmlVRLANUR+aT3lWS/rQ4Q63ZEWSVZNkmrKHf4iwhBAYYxotulsHRepYPDBt0daBJITEWINgqdpBnVDrfZE+fkgEEqkECIu0FqxGxwaROdwZHhBah5xcpvghZNJKojkuzV2M0bo9sEghMYB0FNboRqM/ow1ZUOkhxx1s3ookq7oygBCglIMxOnnIhcDqpd2MWyGlbLxPNPZjsdY0Q2APAHWCcpRK+roYEFI0RIiFEBht0gaYrSoIHyNr2aRK3MaWKA6RCBwpH5BL9Ye8xdu1lzM8mrijNFUq+9ZQAUlV6u8cbbjjXhvbCWuIagFxHAMWz3MBgZISY+rjPvOwVgJWGFk149BCCKJIY0xTbUMph+aD2iSk5KFPvCdt0g7IJu3kak3SPE/eCyHc20PdOiCTcwOjNVo08/B0nHRrlkolg7bhfS0n0zsZ8rtnmKRfjMFzFOVSiTfffINTH5zCWMGBA0/x9DNP47hLvdW72WcztPLROVfJR/uw8//0tJxJJTg/9fHW5Hm0jec9CGroOEp66hmL47p4notMn/8kfO42trbWoutt0a1FKoFSCqsNjqMoLhT5yU9+wtjoOBbJEwcOcOjZZ3ELDmFcw1HiDrfgbsjrjw3PLz/qR4c17/84KxQtH7V+BVYQWTVjzELA/PwCv/n1y8zOzDRCe0NDQzzz7DP09vW1eF/Jw6iUolarcfz4CU6fPo2ONTqO8As5njr0DLu27ySOIqRoejiNgUSr4a5bmNsNbj2U2HhnnXCEaGwnlUBKyemTJzly+DDGaKRUWCEwBhwl8TyPNatXs2nrFgYH+nFdr3EOtrFi3JxlLo3vfzSsBWMEUkAclDlx5F1+8fNfEOGjvC6eeOogStXJW7QMW3tHHy+ZJtQrzO9EOs0tmlfMtAxBCTYJRTavdX2fdzugM6wULPGNrAWTvDI2Osbx48e5fOkSQVhLxqEQaK3p7u5m79497N27j7a2Doy2SJVsb4VAifRZSdedpVRobVDKIa5FvPP71zl96iLIPI7o5MknP0OhPY+xwbL4/51rD+80qpo5s0vLPETL98YoSO1Aywp58hoSg/2Qcdv6rH/6Ig2teTB1rBCyakmttgZHCsZvXeVnP/4HFubLOCqPVArlSUJteOlrX8H3PKzWSGsRFvKux5nz5/mH//Y/uHTpKq7nUFws4rW3g9vO1s27EFY2SA6bGGdj7TLCMkgpWgxq+jBi0caCASUV1tjE6xMJOUlVb88MUsD5c+f4yY/+CQE4rstiJQDpoLB0tBXo7Oqip7+fL33pJZ577gVyOQ8hDNbGCCGIdYw1liT2npJFPZQiloZV6mtfxli0gUjH5BwNcQU3riKDgEj4VGOfyHjk0Fir0SZGpOtpSqlkEYG0k7ROCMdgsVLgCNWy1mUxNkbrOE3gkEiZbO84kjqJCSsT2rIQRRFKQoP+lATkAw3PPkjU+1l9ukwQaZtyEMaA1ugg4vDbh/nNK7/l8rXrLCwsUCqVibVGSonreBQKed566wRPPXOZr33tqwyvHsDBoqRgYXqaEydOUKoEOG6OHTt2sX79OrTWaGNRCDzjIAIFTg4b59GxTxgJgjAJDUprcN0kPLiUrEQagUyiMToNzTuOk2YV1sVWE861VoIxSJHcX22SNTalJIpmMlUyYUwiO7HWqY0QKNVKZzTOoTlpfPSfliXr+fXX0p8rgKyaRGURCAxKWHR1nmB+El1xwCkgHcHc/AK//s3r7Nh7gB3btxDpMmEc05HPEwdVTh49wqWTp9HWQRoIaxGBiZifj4m1gycsoLHW4jgKIWSSKZcSQBzrNM5Nsj6W8prruAgBtVoNgUQJB+HUDbwgiiKiOEA5aVjPWKKwhg4jotji51y6OwdwfY/S/CzzM3PMzS5y+eo4xQVDR8cIzzzzONZWieMAz1c4QmGNwHXqgywhq2SQ6tTI2+brxuI6Dp7ro6II341ROiYvBG3KpWw8YllACw/X1RgbIYVNjIqBpEYlOY6SCiFUsoAtDNoahJVJnyaRDMTEQ/TTybPAmOT+GavTTGIJuFitcV2F4yikTNbRtI6JTb1ljW1OIBpfD8egvZPvdy94OD7Fg0HD8AhBZC2uFDhW8u7bb/Pj//4/uXr9FtXYoq2kq72fru4egiBkZnqa8kLMXHGGidk3qEYOf/HdP2PDyACeiFmcnuFff/hP3JqaJ9fVxw/+opMN63dhjAYkJopxjcATLhoPKTyU8mnz2zBxCdcFo2OsrU/uRPIcJzM+pEhIRAgJnkQKMEYTxTUEBiGTSakUDkK6CJUkKlmRJHYoKZEkyw4m1uk1ANd1EULipD+N1Wgdp+5EKh++rEPnpyFivDwyblu+VgBZQUJW9Rm2QRLj2BBfxERW4Ugfg8L3Ojl77jpnLtxkx87HcJwQHUV05Nq5fO4DTh87hg0iOjq6CeIIhUtkPQwFLD5CJJlCnp8DLMXiAqXFRZQjEVJSaGujq6udMKwRaZOuL0mCKCKOIhypKOTasFqwsLBArVZDOQ6F9gJ+zsfYACHS9TXAahDGpbdrmJe++hVWDfYxfuMq773zJucuXcXic/z4eY6+d5YDB57E932sraCkwHF9yqUqc3Nz1Ko1EILuri4KhbZG5mM9k0pIge85lCsV5qbmCOKY3EAHedcl7/gILUG4aFyscJGANgFhHCAsONJFOk4aZdE4jiSuhcTaIDwHkSaKSBRGR/ieB8SUSkVKpRJCORTaumhr7yKKAqzVWCuRSHK+S7VaYrFUJIojMJb29nZ6eruJ45hIRzyMcft6mOJ+8XB8igcPawGlENZw/dIlXvnFL7l18Qqumye0gp07dnPo2c+wevUaytUK7x0+wtGjR1moWcqLhld/d5idO3ewZmgVbTkHXakxffUW4zNF3B7D7GwNR3RgdRWlFNJIlBE4OBgrcZRLzm+jXKowOTZOe0eefFsBz3OgnuwkEqIw2uIXclhtWCyWKFeqgCWf93E8gXIsUlhk4lCh4zgJ62PJtRcIw5Dp6WlsFNPT3YPrOgip8ByXoBYwOzeDiQ1+Lk++UMD1PaxIIhrJujyAbYQ3P62oc/YKIavEr6rHiCGZoWljsUZjdUgYCRzPo1Iuc+bMFZ59epbhgTYCvUikQ65cvsKVK9dBKLRJQoMyKSsixhAbg/RcatUK586dZ3JykvGJCeZmZ0GAVIL+gQE2bNzA7t2P4fk+xsSUFxd55513mRidYPvWHQwODDE5McX58+eZm5tFKMnGTZvZtXsHwyMDuAoEOvWuNFiPjvZeHn/iAJu3radW2stgbwc3/vN/ZXKujI4Vk1OTlMplPN/HdRxqlRpXr57lwoXLTE1NU6lUEULSv2oVGzdtYtvWrfSv6icIagAIoThz5gzHjx9nbHKWWhizbV0/Q+0ekzOLRNZJQhU2QloNVnDr2g0+OHmcai1iaPVadu17nLbuTqSJWJib5viRY8xMz6IK7ezYs5eNa9eiUiM0NTXN6ZMnuXL1EuVyGS/n09bRy9p1m9ixazudHQWEsUhpuHj+PKdPnWJ8cpKgFqGUQ0/PKjZv3sSuXTvxCj52SW+bhwifhqnux4R6UhTWUnBddLXC4bfe4oMTJ7BKERnLnsef5Jvf/i779uwnX8gRRyG7d26iq9Pl16+8iRtrpsdu8u6Ro+zaupbRoMgbr71BHGlyfp5QW86fv8ivX36VxdoEz7+wl7zjYW0SNpeOoFgs8s67bzM+fpnrV8/Q2d1F/8AAu/fsZu3aERyp0HGchgUtN2/c5OyZc9y6eYu5+XmEEHR3dzE0PMjaDSOsXz+cTN7CgLOnz3PpwmUcz2fD+g3Mzs1x6vRJwjDgmWee4eDTTxPXIi5eOMWFCxeZmpwhDGP8fIFVA4Ns3bmT9RtGUK5MohrQWNP7ND9qKyzBQtC6jNlY1BeSSIe05xXtfidzpRqO9PngxDkuXrrOyNA+HM9jbmGWDz44TXGhihIuvT095HM+J8+cRvgQowmtAeVw+fIV/u5v/zs3bt6kXKtSWiwhhMDzXHKFPF09vfy7v/5rDj1zAN9zGb9xi5d/9q+cPX2RPbsfp62jndHxMUbHxojiGCUV+bZ3eOLAAb79nW+xZetqsHEaPnSoVAyeX8DN+0hfMNw1xK6d2+jIOczoGp7TRhwHIJNYv44Nh99+hx//+MfcujlOFBvmi4v4fo729nZW9a3iSy+9xNe/9jXyuRzaWg6/e4S//7v/xpUrVwljSxBaTnTl6Ml7VBcqSL8LtMAVAcpECOty7cJl/vXHP+Pa6DRbdx+gMLiebb0D5BRMT0zw8r/8nAsXrkC+m7/4951sWLsFKSw3bt7iH3/4Qw6/e5goiqlWy0glQebpHVjD//Lv/5LnXzhIrTLPsXff5p//+eeMj08zP7dIpRySz3XQ3t5NvlDgK1//Ml/9+pdp7yoQxZV0za41UPCQkVeGPwhhDT4wu7DApTNnKC2W8Lx2VHsHn//q13jy0CEkGsexKBGza+da4uB5Lp09wbnz19GVgKuXrnH98nVunj3GL3/xS6yVGCuIY8t77x3nwpkrFCvjDA//3+waGcb1PISUCCU4ffoUV8euMzs3Rrk0g59vwxjFk09e4Hvf+wa7dm2nGgcUvALXL1/mn370E44efo9atcrM7Ayu49HW1kG+q5Ptu3fxvb/4Dls2ricoFzn21pu8/MprCNXO8OBqqqUyNybGqZgIv6OfbXse5+Thw/z0H/4n42OjVKoBQRjhugX8zl4OHHqBv/yr7zM42AEmQAqbPeEtWCFktRTNTBFBpDW5jk6e2P80J06eYfbKTcZu3ODS5WscOLCLfD7P+ZNnOXnyNIvFGmtHBti35zHCoMrJU8eR2GQ9RUCoI05+8AHH3j3C7EKRwZFhNmzYTBQEjI2NMT8/yejYDD/8x58yMryGnds2oIOI2bFJFibnuHjmCsXqIoEOMEiEcDCmymKpxmu/P4KfW8X//h/+DYWCh8QiRYRyBJEJ0GgiE3H12i3eP3KEsLRIp+8wV4sptLXh+j6+63H81Gn+4e/+npMfnEIbwdCaEfbv2c/4xAQ3b97i1o0xyqUqvV29fOHFF5kYv8VPfvwTDh8+ho41rl/AcfNMTSwwUS3R5ncgnDxGhwgMiCSVv1oqMzcxxdjNKdr75ylWLTUUealAR1QWFpganSTOG4pli7WKuZlxfvTDH/OLX/yaWi2iVgvp7e6iu7OHi1dHuTVR4vqtCaxyOX/xPH/zX/8zV67cQsc+/asG2bFvE1NTs1y5co3YCMrVf2Zw9TCf+fwhhHCwNqjffTKiWmlI1zsFoCNKc9Mszs3gui4xgk1btrJt914KXZ2Ui9PJkpGKEWi2b13Lzm1rOXfmDJ50iKohcSWgMldkbHScnv4hYhRKelQrAXPTNwnNAlobpHIw6aK96zpMTIxTHb+BcjQQUqpawkjy1ttHGR4eYOOmdRQ6CtwaG+WnP/kZv/jFLynOF+nt6WPHjl1g4OqV69wYv8L4XBmZa+c//h//AUc4lKanmB2fwjox1ZkaUblKSRimggrlWHJrao5f/+ZVjh85Rt536RsYYvOeLczNLXLyyijnzl8jigUSB2NDpDBpFq7Efqp9qwQrhKyaYcC6qZJpKqhGECLYtmMHQS3g/MUrhEGN0yfPMPbZQ2xe28npk+8zOTlBGMPq4REOHnqGN1/7LcJGiDSFVEiFlJqOtjb27HyMvsFBduzfy4Z1G6hVqvzLz/+Fdw4foVSJuHTxFmOjMzy2fQsOEh+JLzyCcoTWkl2797Nn717KpQq/e/UVarUa87NV3n7zFN/6ZonNmzrT2imN6wnm5qd55ZWX6T5eYPbGdY6//hZhNSSoBKwZ2cpTBw/S1tbG/PwERw8f5ezJs7jSZcO69Xzjz7/Nkwef4fz58/zwhz/kzOmzXL5whWPvHeeFFz7D+0ff5+ypswgr8fwcW7bt5MknD6IrJd5/+y2uXbmJ40uETJJXIClIkyRhUld5KCefEJr0MLaGpySOELjCxcgcqAJWOJw5fYq33nyLcinE89vYtHkLX/3yF1k9sIq3jxzn+KnztBU6KS6WeeuNN7l04QLYTlav3sq/+cEPeHz/Hq5dvcT/91/+C1eujTE+Ps1rr7/D/if20dXtUaunNGee1YpDfexKa5FGY8MQlRa9K89n1ephvI4OImFAWaywSAFRWKOQk7S1KRwVo4SESNORa+fFz3yB2elZjp46DSE40mf37n1s2rQJI0qMjKwDkoy7MAxxLBhj2LBxA08+tZdatchrvz9CqawplwI++OAsN2+NsmvXVk6dOMHrv3+N4nyRnp4+nn/+Bb7z3e9QLVX51a9+za9//yaTM0XeeecY3/nOLOs7JHnHQRlw3DxBJaa3s5+9u3cSFBRbt+9gamaOmzdHMbGl0N3JMwef5/vf/z4zs0XeOn6OmpOjrb0TkEibXCtTL4pmeZL8pw8rgKyaNTutt0qS3EMrFDUN7d09bNiwjoKrsHHE9YuXGL81wUi35Nzx91gsziN8n/7hEVavW0strOE4gsgaFBInSQ/gif372DQ0TN/QIF0D/URBRCFf4NKFCxx7732EtVjtEAQGIZykEDFNozUWtmzbxV/84K/Ys2srJlykMjfBG2++DRrCoMb83DyCHqRwk1RvYynNz/PTf/whrm9x4ghbCTHWY/W6TXz5Oz9g3/79WBMzMT7K9atXMUZQKLSxZctOHn/iKQYHh/A8j3Nnz3LlwmWiWkipuEAQ1rh86SKVxUWkUOTz7Xzpy1/hCy++iAiqrBvo4R///oeMT84hlUzTzMEKW1/dRdYzoqRECQVGJAWa6aqnAYSjCOOQsdGblBcXkcKhq3sV3/jmd/jyS58h58LmHTvYefwMjz22k+LEJJfOXACtMNZlZO02nnn2M7TlJe0dDo/t3cLoxASVAMZGx6lUavT0FZpqBhlWJNJkUTAWYS0yTQSy1uLlfISURFGUlo2INA3JSXIMjEBbsMYkyUNKceDZZylVypw9e5FFGyKlYteuXXzjz/+cWjjN6qEOgpkJBEl2bxiGbNy4iW98/1u88NyTRNUFKjNF3n7rfWIlKZU1YdWgywFjV64TV2pICwP9Azz51NOsXjOMDiMOPv0kJ8+cZWGxSBxUmZmeZKRtACsEwmriWolcew+Hvvg5PvvlL6DaHQZX93Pq5PvEtQChPKxTYHymxM3JebZs3cq3tj1GRRva2nysjZKqxFSnE3tbYuCnEiuArKDuWQFLf1qLtg6h9QmNZdv2TawZ6OXqtTHKs/NcuXCZAXeRyauXKBXn6V29m407d6LyeYKohjVRQjTpTMYBNqxfy02tOX/xLDdef5XyYpn2fDvnTp2DyOAID6yHwEPgIqxAWoMUFqRl1959HHz2BfKiQkEoDu7bxpkT71Gp1BBodByDFVgrsVYiDMTVGkpabBxRDWrkVJ5yINm1fi8Hn/0CXd29YMssLkwzOzWFwMFal9GxaX78Tz/Fz7lgDRfPncdEGmUEC/PzTE2NUykVIdbo0NDd08+u3fvo7OnBiTyefmY/H7x/hPHJW0jy1FXYjUhmtqT1YzI1G8qK5FqRZP8l8rcGqyCMa8xMTxKHEUHFsHp4HXufeJLuVX3EtXmG1w3R2ddLT2eB0yeOECxWcEUbwu9kanaWf/zhj7C6iHJDrl+/RBRHBIFlfq6UTAxwWpQvmiWZGVYG6sa2NYRft79xHBOnJRdKCWKhIamkSrOA0xq/tEYLYdFCUOjoorurG8+CSpVs8oU8PT09VGsBnisJjE5qM5UiNIYdO3Zw6NAherpytK0qsGGoh/dNhYpoQ9scea8LajEL45OoMMKXDrVyjTffeptz588jrWF+eprKwgxOXCMszTM7PUGwpgvpuzgOVKpFduzdz8EvfpbNuzahwwW62h1Wd+YZWtXFrUuGYqnG0RNnmSv9D3bt2cm2x3axa/8eHCexA/VC5yzg3cQKIasEaQlC+sBbBAZjHYx1qYYhOw48xsjIAFevXMOEAUffOczUBU25WKYWavoGhtizfz+OK5HKIoRJi4YtwiQ6YufOnuXnP/kp7xw9yo2xcVzHwVceNhIIPFzlYzVIVJp+rXCExFqNn/fp6evGz3vY6hyOilnVU6DNA0WENRGtNfzGJEVw3V09fOlLn0cpy29//RvGR6dwnDYuXrrB2XOXGNk8gqOgOD9LsTiPozy0gUtXrnP24kUcB1wlEMbgOQ5auQigVisThTWkMXiOR0d7F23tnRgB2kQU2jza29wkAzCppccg0PVC6HrlfaJLlayzWZCJkmCyJmfBCIsxmunJcdAWawRdXb20d/VghMQKQRxHeK4k50JYLRL2xcFbAAAgAElEQVRUawgcXN/l+q3L3Lx1HldGKBkThSFSdmCMJQxNQupCLik6zobwCkO91l7Ua/F0WhibeFfFhQWwJok9EyOkwsYaoQRhHBIEIVJKjLXEWhO3JNpIq5HWYJK8c4SEROayWbQrhMBRCsdx8H0fpSSONOQciYemYgxhZJDSIQ4jZienCCoVfOUxO7PAb1/5PVKBp0DqCNdxybuKKAqIo7CuI5DakpjBwX76BgdAgucpolqZdWsG+MILz1Cdn+fyjRkqi4uc/OADLlw4S/87b/Hc51/g6199idWruhFGpvVX9kPUXD5FSFV7nGWvPNRolIXaZplwEltw0RZ6V3WzY+dmTh4/SQXNpXPnuKlncMOYfL6XkXVbGB4epla8iRSmof1gtUFhmZ+d4n/+/d/x5u/fItCGjrZOtm3bws6tW7h8/jLnTl+mWolx8olnJKxApqYbEgIQEoyIwdZwnYhKaYqwNg8mwlECazTUC/5sQlh9fX188cWXGB5eQ1ehi7/9m79jsSaZGB/n9797lb0HdrBhuICrRKqOIbBWsWX7Tnbs3AI2RJgIYTS+zGEiwcad6+nr6wWjIY6RwkUKB8f1CLWmzZUoaQiqi8nanairCyTelXKSAkgdx1gNruOl4UABOsbEMdLKhicmpEUYjascfNcljCy1KMYISag1nuuBAVdZfAccKTCxIAxj1m/ZxLOHniIsLyCswRgLtBFbn4GhQXp7uoiisKXQ+eF/VjMsRXOV0YKQ5PJ5HM/FxBrpwuVLl5iammL9mj60tMRxFUdK/JzD5bM3uHrtGliBkg5t7V3k8u2pMgooYbAmUXbRViei0EnubGIn0gmXNhoEaK1xlIeQERKNKy1CG7SBODYIC55S5ByHihb0rhpkz4EnKLTlkKaGQ4znukTaEPse+/btxlWSOAgQxuCS1GVGNlF3ERiEjulqz/Hii88zsmY1b7xzgmPHLyaahbHm+qVLzM5Ps3FkNSNf+Bw6kT/AYhqqH5/a5z6tTV1RnhUsDQg2tKOsJTYGqxS79+/mzdfe4NzVcSwCz3GZK1r612zk4NPP09XRTm0ugDhCmHpemUZIy8TEKMePn6BWi2jr7OWZ55/nu9/+BhvXrubnP/kp169cZ76isS32sinrJQjDiGvXrzE2PsbGVT6Li7NcOH+OarWCVD5BEKTbiKYGoU3klgzQ1dPB57/wWY69d4S33jlOe66DC2dPcuL4cbasfYHB/gE6Ozq5ZeeRQrF23Xq+873vUWhzsHHiQbU7nSwullB5QUdvjrzvYa0GYZmbneHmrZusXvskulLk9OkzXLp0mfQStlzbpOLeYlFSUS6XGR0bZff+x1iYnefYsaNMT02mRkBiLDjKYdWqPhzl4Ho+N2/d4srVq2zbsga/o4uF4hxXLl5h89p+8jkfz3ETUeFYMzy8nu999wcoW0OKRMYp1oJyNdFubGuXhGGZR1R56VODJLJsEY6iZ1Ufff39ALjKYWZyitde+R39XXnWrunEEyCNZnR0jF/+8tdcvHgFgZNKKj3GyNq1aCKsjdE6SkWpLVEU4/oKbXygkkglWYvWGiNNKmCdjHpBfQymypep0HRHewf9A4Mo5RDVIjo7O3jxCy/y2K6dxFGRnAMgKFarVKxhaO0aahM3cSy4JAodkEqeSUkcGjxXUalVEI7D04cOsmP3E1y9PsHvXn6V3/7mVaq1MtViicnxSaJYI6RDTJSq6MCnlqig8dFbyGqluJktD4IQSVKnNbieTy2ybN62hdUjfZy7chVpfDy3g1ldYmDNVrZufSxZsjUhjrUIVCqtokHEGBOlxYseShXo6R5gaHANi4sLTE6OYgkTXUDZlP5JFCIk1lhc1+fokffp6P0JX3p2F9OXj/H+8Q8QQiKlQy7ns6q/H7BJ0WFDgRaMMESE9Pa3c+jQPk6eOkY1KjI5sch7R47wpc8+Tl/fKjo6upL9CcWF8xc4c+4s23ZsxHMMulZjYnaa61dvMrxhiP2rd9HT0017WxuLgWB6eoqXX/4VbsFh9voZfvezHzI6Ooqfy7MY1yWQBEpJpJIopfB8j1J5kVdeeYXeoV7Gz7zNqz/7KaXFRVyvAEiElbiOy7q16xp3aXpqildf/S19PQ49HZL3jx3j9d+9wXe/8RJb162hs6sLxA1AcuvmBKdOnmHbptUoZalVyywsFrl64zqbtmymq29rM1Mxw4pEfVIpRFJu4vg+u/bs4fU3jjJfSbyh1377GlFQ4bPPH2Cwr4Py/AyH33id13/7OtWKJghh9eq1PPXUIQb6+wnjKo4ryeV9nIqgWA24du0Gx46doLR4g3271uAIiVCK28SxRFPGzSAaE0ijDYX2Nvr6+lCOg7Uh09NTHDt2lJG1q5GEyJzD3MICl67fIFKCvsF+lBW4VuAKmezRJtmMMv280ve5emuCo0eOMDS4hh3bdrJ54wijm9bzzu8dnCSejokMxqayTla0nPWn9dlv2lrnj1c4+1NBgFBpjyoDVqKNw6pVq9iydQPvHz9NqWIJgggv18GmrTsYGBzAmhAlQEqBFCpRQRcaISxdPT14fg5jy9RqNd49fBSja8zP3OTUB8cpVao4bidS1lPnRZrpnRh5KR1mZub45S9+w/ljb2AWbjAztYghRy7Xxr59exgaGkji9aRirUYkyQyOJTI1lGfZ98RO1q7r44Mzl/HcXs6dO8/xEyd5av8mdu/ZzftHzxBGNa5du8Lf/s3fMLxuiLacS7m4wOzEPMW5Rb71va+z/4nH2LN3H+++dpiZS7ewMuTtN15ndPw6wfwY4xdOJokl0kHJZO1NWIurFKtW9eHlfKSqEccBJ44dZW5hitr4ReYvX6Mj14lyPRypEDYJE27duoNVA/1MXZhCxR5H3nmLsesn6ev2uHF9lFs3J3hiz2McPHCAp55+mlOnL1MMYq5fvcL/+5/+E5s2DNDRnmN6ZoqpmRkWKxX+8t/9FZu3b0/6lsU61U3LsNLQWHkRkjjW5P0cBw8e4ujRU7z8yltYFTM9OcGrv/kd506eoD3voGuLzIyPszhXJIosbZ3dvPilF3l8/16EtGgd0t7ZRndfD1dnxrDGcvLEccZGb1CrjvP//F//K9vXjiAdF6GcxNxJ2QjB27qmkRRIK3FlsvAkVY7tO3fQP9TPbPkGpdICv/rlL7h6/QrteReFZmp2homZWQZGhnl8/+PkU5ECoRysjBJdSxLpJWssQrrcvDXJz3/+MmEQsX3bDgb7B7ly7jLVIJFx8l2f/r7+5FmnLjP26Qp7iyX/a/1qeFYPP2GJ9Hv9TLWBai2kVjO0xTFAktoqLfv3PcYbv3+H48evY2RA3+oRHn9yH4UOlVSGG4uONMXSIlblMbqKsTHdPX0899xzvDz/W6Zni5w9e4Yb1y+hw3IiEaQ85hcW6VDdWKORSKyRYB2ETNLYu9rbqZTLHDl8jm4/RqTrSzv27eZrX/sahUKOWM9TqpQp1WoEoaQShFgBMRHKNfSv7mHnY9s4dvwkEe1cunyV994/wQvP7uHzL36OWzfG+P0b7zBTXOTs6bOcv3AeR4DVEUE5oL9vACU94siyZ+/jHDj4DLcmf8nU/CK1OGBuZhwRV1k3METOdblxfZSKNhDFOCaGOGLTpg3s3reH0dl3mJmfRbtVTk9P0+UYNo7sJKhFjM4sUMJAFCKtYN3GTXz1a1+l9KNfcWNymkptkZNjV/AdQxTD4Oq1tHf147V38dznP8eNW+P85tV3mF6Y5+zpMa5dFviuolIrUwk03f2DIHwQKll8T0q4W1JUPj2DeKWjsWaV5O2gjaBn1SDf+OY3KQWGk2cvM1OsMjNRYnZiEmVjFBFCW3w/T3dfP1/8ypf5s2/9GT29eTCLhFGF7t5O9j25lw+ujlErLjI1Mcb1q1dQqkwYaiySahiyWK5gXY84tjiOR2wtkTUEOmK+uEBVgg4DrIBqHLLz8X289Gdfofijn3FzYpbx8VFGR0dxHYFEE1tAOvSuWoOyHlY4VK1hIagxOb9IEFZx0ChrEFZgtKCt0E0Ywrlzl5gYn0nWhGsaDOQ7enj64CEee2x3SugxTtKe7xHH0lFsW0b38q8VsWZVrzWAJPxnrKWru5unDh5icNqhf+MBVq9ZjRUxlaDC1m1b+dzznyXvnCFSHiPbt7J1x1qErGDjgJyXZ+fOx5gr1ogKnWzcOIwQFs/P851vf5fuXA9Hj5+kFEQIwHUkTz91gFK5zPEPLtHWOUB3d0fSJkNIrEnCCNZEPLH3CYZGhjlx7F0KriAOLBs2buOLX/k6m7dvw5gYYwyrh4d5+rlD1ALFjp37yLW1Y5CExuC05Tn03GcYHV1ktuYTqA5W9Q9SCQKGhof46//trxhZv55jJ85RqtaStF6bLMf6ns/O7ds5dOhZTAy5fDvf/u73aOvs5Z0j7xEbS4yho63A559/Ad9zeflXv2YxiNm6fi1tnkNQKdPZ3cl3f/B9cp39nDk/ShQnKcQb1qzh888d4vqtW7x++DBlJdkwPIA1EY6b50tffomuvjW8+vqbTE3PEkchOdfDyeXZ+/gTPPH0MxjHY9XQEH/5V/+WwdUjvHf8FEEQoKMgUV4XYJwCW3fvY9fuvQBEUYyUSSK9FmlN/yM/kB8tNMV/JdpYHKXYvmsn/+d/HOKNN9/m2AenmJ+vAjmENThpXdbAwCAHDx1k74F9dPb2gKwiRYgxMbn2HF/86peYjyXvnbmFMXkkLj29PquHRnBzeXbu2Q1OJ47Xx7Zt25COIrYxtThg/ab1HHr2GWqinaHNu+ns6aJsNTbv8dkvf5HOVf28+fZ73Lo5RWySDlRg8fPt9PT28+zzL9Dmd1CLS6zbuY3HJqdZvxiyZetm2nwHdISSDljB1s1b+Naff5Oja0YIglricVmB7+XZuGUHn3/pK6xeswZrDUpKsPqRn5A1pPMav4vGz7p4eSOpbmJ23Pq+z7Wr17lw8QJbd6xjeP0qqkEVoSS3d3V9sGh9wJPvyYyLoEpxtkjZ9KK9AQpdDr5fwzdVClgWp6tUipbQdaDdp6O3DcexFOIQPwwpLSxQrNQIPJ84l6e7rxdPCHJWsTg9z0KpzEK1ShwbOjq66Oxsx/z/7L33lx3HfeD7qaruvnnmTgIwGACDDCIDJAAmUWIQSUkklS1pZVmSZVlrrd++v2N/8Tlvn/ccefcc71tFy5Zkk5TEIFIkxUwCIEhkgMjAIE6eubG7qt4P1X3vncGABEGZAmB8eS4up2+H6qpvrm8wlolSHalS5HNp5nS3s3/bVv77f/tv7DrwLm2ze/nCV77Kl/7sK5w5e5oorOPJDJ2ds+no6iSyNZBlrKhQLpcoT1apRT6pVBtt7Wm8VISkijR1TFlQGTOMhQFVlaazwyeXruFTJ5CSiYk6o6M1ypW6K+0EKCkpFtpIpT3y+Sw2bsfhSY+x8XFGRsYoV8pI6ZPLt9PVOQttNGOjw0RGk89naG9PA2WkdIEk4yM1Bs+VENZHWI+uzm46OzuYrFUYnhyjZOsUOgt0ZgNUrRwHXAiGhkaZmChTr2gyqSx+Lku6kCdVUKiUwQtDMhYqlSpDI2OUSlUXym80mWwG42fJdvSQyXooUQMbISVoYdFxBo76E+Jmw8LXttEyZf/eA4wNl7h5/WYymRzWWlKpFHv37ubsudOsXruSzp52Qu3Ka/0HUJsbkLCjJMfKKRvNLKJyucTY2DjVisHaNCBRUiGlIkinaO8q4mV8Il1Dyghl6ng2IlAGE4UMjVY5P1LFRFmkTNPWlqZY9AmUYXx4hErJ4qki6Y4ORMZDqgqKEnp8gvpohRo5ZK6DfGcBoyoIWyXwDGE5ZHy0zOR4SBi67QNtDJlMnly+SC6Xx1Ng1AST5bOUJ6uY0KOQL9DWXsSi3T63EUgEkxOTTE5OUqtW4nB8RSqVpa2jh3SugPQlVhhXWkzUWmbv+tyzbRVKkHRuh1SQYuDEaY4ePM6KJatYMK//2rCsHDRjYgwCL8jQM7dAUbZRtWnquuoif6RPqC1t3QWK3SnqQlATEVqEWOvyM5TyyHV0ke9S1H2fCe16WLl7G9o722jvKlIzEdpYAj8gjEKMsbR1tGEQhLUyQlSQqo4VNaytAxY/SJEvtLMg7aN1Dd9LI2RAZCpYobEmxBBRyOdoLxSJrA/4aOpYa1xFCBTpTIq2fJ6C9glVgJA1bFTHGoh0RFtblmy+jUjHbb1x+2iZVBqjNZEOQVikUBhpyBay5NvzcVM7DyVTGCvAeqRzc+LWJRqtyyjlYbFEuk57ZxvZfCeeSCFRbr9P1cgFgmxnFxUTUtV1LBF4LnFXCsHsud3MMhCFFoUC3yfEENk6OqzjCxcykS1k43YKxrn7AOUpIiSRVAhC0JEr6pkkKYtWXewGXAvQYLMCsK6OvkjKCFlLOpclncvHbnWF6zsdR8Iplx6hTRVwFSxkTK+RhQhBe2eRXJsHpBEyhecZonACKQ0d3W10dqWRKkeIoG7raFtHCEuu0EZHrgst0mgvTdVUMTpESrdVoJSku7uDrg4fY/3GmBES30/HDRkjPF/RXmino70baz2stigJkXF4q43BVz6ZfIb2YsElQUfalXlTHlIF1LUTSDbOe2zuWV3vkOTMTafrqXGQV72wivPBaF00g0TjomUiXcaKetxlFqxVaCFxzTHqcVIdrmK3cZnvtbgVtsBt9nrClUoS1qIxYKzLlcIglUWb0GXgKxHvmAgQVRAKa6sIq+MyMGDwMNIjtBrlG4x0gkxI4v2WCJU0ScSFzSOcYHFxSRKLJEJgoipGRFhdBeu6mrpMfohM6ELuPVC26emt6TpY6aq0W1c6ySCx0jptXgk0kQsbpxkkYq0rYmtFE0WskoQiwvqSkDoSgbYGhcZiMZHz0yjpnmGkjNcgQtjIJWgGYGwEwrlUFRop3LNDgUs5AKwvARdmHKFdhFYsnJIeYAgTs69EK78hsq4VmMJy42Uzjb8FTjgJV6zCakA3UylEbFcklS/ib4sgMgIjA7ACqSwWpzhFWiOkSxR2oeoh2kyicZ26hdAxPjs8tIRoHaGkds+37ncRB10IZfBiirVxAn2kQ3czq9E6BFw3YdcUi/jZ1tUBVYIIjZAQmhChRBwc5vhCZKuNzgoixvEmVf9HEFjTwbZ8HFz1wgqmy9fYdIyj8dxRTVK8xQhwtpfbkHfgmKCwTtAJGYeFtrRPjrdKHComObs4ZmwbpOGElfIUOnIjyaSyzOqeQ0fHJF2z5tHZPRvp+4hQoDxHBCKmOBt3v21ALKCctIgPxS49gxM04EqvWJNk4ycFkKzLO7KOMBob2EI0Iq+MddqrpfUcG4so0yCHZBYM1kXb2TjnRMZzJ0Mc6UkkBmMNMn6npEeRxaBji8c2LB/HKATJ+N2bSZHUy2hd3Xj/L14HEeehJdOVCNEbNdKuJphpMWZmrGLaGZdiv1NsCTFtu90mweYJzgjAa/ABi4zzHmMxaBXGqmYHYNGkM2kFAuWqq2CRIkLYhG9EMY3ECpEQcYBP6BhFTK/OfWWwQpO0DU9yuGycU5a8qzuaCDEnmp1C6ZD8Yiefbaa23ADgGhFWMF1gtba5ByeckryJWNgAAt1E8oTpIYnAIaCwKJto8E1IND4LDe6YnCGEcNUUpNsk7uqZzZ999c+57Z5xVFs3i1etpB5VgVg7TCwi4hB1GqZLTBhuLNI67bI1OsYI7QgoJlITZ7KbhIgaFlXL6G1TJ0sElxUNHbZZriqxVhqiTTS+3VgTqzYuxSQMFolq2WdIbiFJLLjGyBv3bqySEInuHBcgbgrkKQ5ekTCmZCyyMUrTeM0bEuvqgPdippdeo5mTDxLFScaWlm05RoNGE7Hkrohr0FjRwLbG7zbZC5GJHHHcoaEsysYbGGEwscVvrY5xMKHFWPkTiVJpY1yUOOsvsaSk82jY5F1sQ7GyMU2KmB4RFlfHpqllXjwj/1FcgJcP14ywaqCpiP9prOX0toxNb2/jyiQBsKGlOwHVyFyPz5kpmOQiLdDGlolU1CNNUMixfMMaFmhBpFLIVAqtJ0FE8WZh8w5CTB2XnTrIxhObDVGaUnaqU6D1wqRo1NQ5aBDLJULmZn7TpohJhFZz0mzztESAx2uQWEHuPRJBlXzHFlJ8rRTQKpDdKa1KSFMTdae2aNexNdf89wZ8FDAz27QNz8TFFkB8XIgWX1986iX3G23Ld9PF26hSAxB7A95rnDTQNBlD875Tro0VR9MiFJPrmr6J1qua1pyNBaR7pogFVaxYCXvxGEX8hCmC6VLzcGWYnazFnzog7t8TriFhBY16OwlWTqGiVkRM/kyE1AzkJlwB2xb+16J1NaGFNzctopjhurwuAWnhEmqFxgq3WyZF06Kajv5T8bFJFNOeSuw4aIiuxKPdvK71k0CLQ2H6+8yIxxcLupnuL+PEZ2FbHTFN0dq8+iLx3riHFeKiY013R+u7NcfTOi9iyv9dv0R5NUFD3xEzYEdc8FhMx+cW2rsY3kvcWKbjT/MudoricvE1rQMUjfMv/SQT4zKN8wyNjW+SrYam6gcN700r04jPvzQdxUOzFwsn0bAghdszboz9g8P1LKQSuLaE1WUwqKZ2lSBWbAnFgi7J0yImsqZfucVyaJEHF2n608Zj46KZTmOMCaThdmDKVWIKfk+16MRUim+pxHTRXVr+ujwts+VIk/CnHW9af80nWjywTvfU2uV8KKmcW0M2cyDiom9TBt4oSZW484RTGhJB3ySui98wefql4fonzKsFmvU3m0pbQ1cULkjA4poEXrRmFy2Tow2HG8mhxD1Gi9IS+0bENLqLq//PBDPF27R6TaYcj3EvUU4bOJncKC7o3CRY923slD9jzJWxMtnkIq3Pi7d/nQtcTD1orcVojRQKId8b46e/Q+u7WGuRUmGtiXlJa3eC6weuMWF1edDECYuvPMbHxymXKhSLnWSyKTBRjF7OVVYpVzBWU8gVkEqiTdM50CCi2Idnjdsfa3QqNhopXTXwWDw2m8y1aGCtLjkRE3qi1QloCM4mtP6/nHZ8Jivs0vNw8f3e67htMCKBQHoKLATpwLVmiCKkr9DatGiGtvH+jWe3cg8hGwQ1Pj5OpVqlvb2NVJCCS2qU1xehXbOQGL+x4iaFQBiHIyPDIyCg0F5EeY4eTPxbpCOq1SrpdBpPebR6ihus1HH2poJjY0u9ucE8jfGKWGBObUqY7P207uA2BNK0V3HHYnydQQAkMbLu3+mVk11YUOLKTvDeYqc9r9mry1mDU1XN5J2V8ghSGeph2OA57pwp6nPcHftisDGdamMYHhrE833aCwV3rTUtc3d9wPX1Ni3glDCNUPDc87/npz/7ORcuDCOE00CMiRACqpUKW7dt5cUXX6Ie1jFxE7dEW7RxeFqSP5TJZPF8v/EcpVRDu5nymWaLCVyNMGvcfc2Uc923sRf/5mD6/Vv2gxJheNE1XHQ8ua4hVqeN2Z1PPAaDMS7Kslqtsv/AAQ6++26D8LTWGGvQxn2snWk8pnHfhDHs2r2bX/zyF+zbt5d0OkBr3XjHJmu5/gXVlTl7PnqwNAWVEIIoDEkHKUaGhnn8scd4+aVXAIGSvkvdMKA8j6HhQZ5/4QWOHD2CVK5lRoJnxrhPgvdCKlKpFEKKmP7iZ1uLiTsDG9OK21N9kpapOO7ylKYKrtZPqzLb+jHTXHXJcW10w03n7gfWuuApYyO0jVyQRhymbmxEZEK0jXBhRxpjHb1Y63iAlIpyuczbb7/NsWPH0EmupzUNGpyRrzTGZNBGo42hVq3yu9/9jqeeeopqvdaoQC+V+vdAiT8ZXIfCKmGWBt+TjI4N8YcXn+P8hUFyuQ6wXvy7JQgCwnqdd95+h5dfeplatQ5CIKWKrScZs1+JpzzCMGL79u0cOnSoYcY39DAR7+skodzWkIQhNtwNLaNUQrooulgTbRk5idY3ddPUuS2be9pNi6YxjqSbakPwuG8pRKzZJsQ69ZqpzzII6YRw0vpjfGKCH/74R/zwxz/B8zy0Ni5HBFc1Q0k5xcpqCsZkXgTVSpUg8CkU8uw/sJ+XX3mZMApRSrbsAVwrLPzDw7UijpOECRPjjxSSwPPYu2sPO9/Zg7WKVCpHFOlYoBiCwGdsbJyXXnmZd9895CwIP0AgUEo1LRoLUirOnjvHq6+9xtjYWEP5S/x6UsrYc4FzGcafxB1hcTmSxtKgWXfq1BluupobBOTKHTW2CBK6TXDYNHBYSdW4p/u4/Wh3mcW2RL9a4eheNgq9Ox4ghGkUwLbG4Ps+p8+c4Qc/+AHP/f73QJyyFSvLktiimqZMug4OylVNwb1zW1sb1lpefeUVjh454ipmAEZrrieaug6FFSRWQyYVcPLoEUaHBtm0aRPFjh5A4QkfGydTpYMMSijK5SoWgR+kUcpHIl1EqlUIFEp61Cs1fvvrJ3jrrR2k0lmUH2C026jFgNFxPpeQDcFj4zwoKQS+FATKI+X5eFLhS4+UnyYVZPC9gMDzCZTnWlpb22DiiXsRo103E+uay7vkxthdEf/soq+a+0RJeLmxYIXnhLGIEyOtwBqwRuK68QoCJQgkKCHwvACpAjKZLMuXLmf5kqXoyKCkh+/5pFIpfOU5hhILPLevJfA8FXdj9fCVTzabRwjJksWL6OudzfFjxzl3fhDppaAl5+3aYeP/MSBRQYi1/SDwmZgc560db5PJFFi1ej1CKrSBIAjQUYSSCiUklVI5Vmw8PM/HV65Cv0QSeCk8lSIdpDh6+BC//JdfMDQ0RjqdIQpNQ/mTOGHlKYlSomWfWTj3skNsfOXjK9/t/wgP6fkO/+MCAEp6SOkhhHS4LVxh1KRUVjLGxKWvJHhKuI7DQsTn+A3aUXFSr1Ienhe4zgWAJyUq7ujgKR/PS+F7KXzfdyWm4nsZA4VCgTVr1zJv3jx8qfCJW4zYWMZpUHhu7MJ9+77v5ggWgd4AACAASURBVEUqd18vIJPKsnb1aqqlEjve2oGUAX6QjpuYXj9wbe1ZJZ6mlr2g5PCU03RE4CuEMex/523ySrJq+QqkH6DDCqePneLlV17ET/mk/BTnT58nncqB8jlz9jxvvv4G48MjgKC7Zza33n4bJqzx2isvsX3rNs6dGwQVsGLFMhbPX8Dp4yfYs3s35VoVL0ixYtUq1q5dgxAQ6TpSWKKozpGDBzg1cJaOjh6OHT1KvV5j9ZqNrF63Ht9TvLXtdc6dO0OkIyardZYsu4lNt9zM+bMDvP3WdkZHRqmUI+bNW8TGW9bT0dWGxXLq9Cm2b9vB2Og4mXyWm1bdxLrVqzl3eoBdu3Zy4cIgIZL+JUtYv3Y1Xe15zpw5w1vb3+HcuSFSqSwrVy5j/YZVXDh7hh3bt3P2wjCFYhebN21iVncXi+YvoFypIC0MDY6wa9c7tLVlGRoa5Pz583R0dbLl1tvo7GwDDHt27+Hg/kNYLQiCDJGF+YsXcsem9ay/aQWPP/ksO/cc4r5758duGwEuA+4/BDTQ+KoH0VC8jLEEGY+TAwMcO3GavnlLmTN3AZE2TE5O8Obutzn87iFmz5rNyPAYtm7IpPIYITl8+DBvvfEa1UoVbWDh4iXccssWDu7dw4u/+x2H9h/g8cd/zZEjR9i06RYmxifYvm0bQ8MjWAEdxQJbNt9CX+8cSuUKCB/lB4yOjLNz+w4ymSyTpRJnBi+QymXZfOsWFszvY+jsaXa8uRVtJcNj43T3dLJl0810F4vs3P0Oe/cfphpZ0pk0q1avYPHiflIpRbVUZt/efRw4eJhIC+b0zufWzbeRLwTs3b2LfQf2ub3Xjg7WrdvA/Lm9+J5i77597Ny1h0otZPbsOWzedAtdxXa2bX2dY4cPE2rB/AVL2LL5FtpzWeb39tGeL6Ks4MC+vRw5dowgk2Hw/DDCChYvW8aGmzfgeZLz586xc+dOTp8+QzaTxQLZbI4tW7awrH8xXYU8x46cYKJiyOfSXG/0dM0Iq4ZoshcfnbqJasEafOlTK5U5uv8gKSPp6ewED86ePMM///RnvL3zbW5atYqBUwMcPXKMzXd9jGpoeObp3/Py88+zcN58rLY8/ugTeF6Gm5b1c/zIYUoTJYZHxtm+Yyc9c2aR9s7wq1/8krGRMRYsWczbu99k6zv7+E66jdWrVqDr2pVWEYKDe/fy85//innzl5DLZRkYOMUfXtzK33z//+bO2zfz9rYdPPXUkwSpFB2ze+ns7mNwcJhf/PwXbN/6JsuWrmBstMSLz7/OhaEhHvn8ZwnrZX76k5+yd/d+Fi5awulz5zhw6DD9c+fxwu9+z8uvvcq8hYsoVSNeeW074s+/xp13bOL1N97g2aeeYW5vPyMjJdARS5fM54XnXuT1V1+jr7+fdw8dpS2TobBuA/vf2cng0CAPf+phRkZG+M2vf8PghbMsXryQ8fExjg+cZbIc8aUvPMzxY0f44T/+H6K6pXfOPPbvP8S5sTG+8Zff5p4tm1neNx9lPd49coa77wmw1Ji6Z3X9uC7eC64FgZWUNjJJYIOACxfOUQ8N8xYsJZdvQ1Blx463+OH//kfy2Sy9s3s5sGc/UQS5TIHBkXF+85sneOeNV1m/bj37DxzmpZfewFNZqI0zfOoUth5yYP9BhFTcfPNG3tmxg18/+jhzFyygXK9x5MhhjIUvfPYhPEmjxmd1fIJnHv8Ng0OjtM+ahZ/Lc+DYUU6cOc9ff/fbjI6M8y//9M8MjUyQa+tg4y3rWLliOSODQ/zPf/hf1OuCRUtvYs+B/bzy+ht877vfZO2qZbyxYwe//JdfEmpJttDJSy9uJ5vqoKOY5Yf/56cYG7Fo8UJeeuUN3j10gu9++1uYMOSffvJLqjVNV88c3j04wNzZ86hNlPjlP/2K9kI7IZLjA0MsW9RPVyFg22uvs2DhMm69eTP7d+/jRz/9Gb3z+snnC5wdOEvP7LeZM2sO8/v7ePGFP/DMM88we1Yv1WqNd3buYu2GDSy76SbWLlvEgrlzOXJmlNMXJliSLTiPRUugxrUO14ywgplYWEu+j0iC7UwjpLZWqTE5VqMjN4fOQhFfhOzetZ03Xn+Vj999Dw9/7gtse+1NHht6FBNZrPTondvHn33xy6xetoLRkTF27XqXPbsPsmn9Gu6/9162vbWLJSvX8dCXPkdvXw/1kVFu2bCRvr55LFi8FPNPv+L5l17nwMFTbNxwO2OTNYKMjwhrENYpjY2z9O7l3Hfv3ezevYsf/uRXvPbqdm7fdBtRDUrjdW699y4233UXK9evY8e2N3jpDy+xdvVavvH1bxPWQ/7fv/97nvztU6xcsx4TVdj6xps88MBD3PXxezlxeoBSrcyenXv5/ZPPcNO6tTzyZ1+lNBnyd3/333nhhTdYtmIlBw4eZWxkhL/5q/9KkGoHWaM0PsGeXfvApvn6V/+CCyPnKWZzBFIwOTLCxMgIUhhMVGdyfILAy/Dg/Z9CCMvf/T8/4K1te/jsZx5m7+59nD55jr/53v/F2jUb+R8/+AeGdu+lf+FNBDJNwU+RCQpMVgVWpIESIq43eKmVvt6gJQ/6qmYmovGfhbjW3fDwEEifYlcv6Uya0aHTvPTC81gr+fznv0j/vHn8Sv+KPTv3EkWayEgWL1nK8r5etmzewsuvbuVnv3iUAwcO87WH7+PMli2cH36GT37yU9yyeSNthTa6u7r53COfZeW6dZwfGeYH/+sfeW37bu68626KuRRhGJLBkrKa6uB5fOtx/32fZvaCfn7085/z3O//wGcf+gxK+NQqIflMO1/5yp/Tv6gPKRVPP/UMw4Pj/MU3vs3GWzbz+O9+x+NP/JZXXn6dOZ1tPPH4r6lMVvj6N79DR08vu3YeBCt57vcvcnrgPN/8i69xx+238X9+9nNe276DI0dPomzE1tff4stf/gYPf/6LHB84yexZXRzc+xanjp/jE1//DGu3bGbg3GmKbTmoDDMxNMRkdz++CjC1OuWJCqtXbuC2229lx/atPPX0Mxw6dIx8Pssbr79KT2c33/nLv+b8uQscOnyCBQsX09bZg/IUvbNnsevoBQYnaiwUfkudz+sDrilhdTE0/YJJu4EkNNRaqEUa67fT1jGPtkIHIqowdO442WKWTzxwH8tWraY9187Rdw9xtjROOpViw4YN7N3+Fs8//zy1So0wjAjrEb4fsGjRQtqLHbR3dLJs6XKkZ1B+gFyzmnd27mbfu0cYOHkaRUAYKgxptE2B9BEodD2kr7eXhx95mGVLljBrVg9vbtvN8OAgtXqIEQHdXfP49IOfZ80t65BpwdNnz9LW3sEDDz7E0mUrSfnwsY/dwm+fep6B4ycZHb2A5wfc/+CnmDd/CUtXriKMajz1q19xeuAscxYu4oWXXiGsQqVU5+SJ89TqPrN6+qhVXubf/u0x7vr4g2y5dS2RHqej2MPRd3fz2KNPsmHTOjauWUJlYiwu4gvYCGtrCCm587ZPcNfH7qFaH2Pjug1MTGjCSog0AozC2IByOWR8rEwh38HsWX1EGqRMY41PuRRitGhpFTE1ovD6IrWpkERtXxvQsjbxnpGQEul7BFIycuEMp08NsPmWO7jt9ruY3dPB5NgEZ8+cZaI0TntHO+s3bGD3a6/w1BNPceLUGSqlMmGo6ezoYP78uaRSaZYsXc7SJcvQ9TIrb7oJUwt55Q9/YLRUYrJcR4zVGa0oCm0FdHUU3xpSRKSos3z1Gu659z6CXIFDhw6z5+2tjJ47R3d7B/l8F7fd+XE+/dAjpFOC/fvfYfu2d1i1cgP33nsPnd1FHrzvHrZu287h/e9yduM6Bs8Ns2btem697Va09Fm0cAnl8TLPPfsb6tUq+/fuY2JsmHPnLjA6Wubo0eNsXLOcZUsWs2PbVnKFdlavX093dzen8gUy+Q5+/8KbREGB5WuW0NVRZHTyLMqXaCRSeQhj6Cp28YlP3MfNG9aQ8g3PPvcs42NjKCVQ0rXQiLRholRBW8GsuX3kiu1oKfAzaYwELS0mrvw0vb7NtQzXtLBqBpo2vxsZ9UqhUUxEAX6YITIeGT2J0VVSxTxts2ZR0ZZUNkc+n0eWxqlWq7z43HNsf+kVcn6KWZ3dLoBCKISQGGOJdITwXJ8dX0nOnDnLY7/6Nw4dOcLKtRsJy3VszWAij7qRRCLAxlXxpDGkgoD2YhErIVfI0t6eI9QR2oIhRSrdSSbdDVojTA1jQjL5Dto7ZyOEIO0JujvSpJXBhHXGR0YRVtBW7MKqgHRKkk1LojBCyDRBkCeqQ7Va586PfYy5/YtpK3Rz/yc/jRdV2PrmO/z0Zz9msvwQ99xzJw8/9AVy6W6279jOvoP7MDpi1YplCJXCWouyBt9GYC1Brg2RCpBG0dPdTVgaxtYicqk0pVKF117fxqHDp6hUI2699U4KhXa0ASsk2gg8lXOtSi4STpfOHbsBfwoQDVoTca096zJdSWHxwhJKa/KFLlLZNozvU+wq4gUC31dMTEzw1JNPs/v11+ibM5tapR6HrrvIQGFCPKUQcdBAbXyMra+9yZO/+S1KCbr7+gCPOllCkSciC5QcPREREJLJBPiZNApBdzZLToCoVKDQAV6KWXP7UIEH1KhXJqlNVuguzqItnwPKFItZCukMXmSwpYi0zFLsmI2fSmNtSHsujy6XUDYil8rgC8XI8ChdXbP59KdXMX/BYvr7+/nuX32LJ3/9NC+98Cx79u3mK1/7PKvXruXLX/kar7z0No8+/gTLjyym58v30u27KEOhFFhXnjrwA1KZHF7KQ3mi2RrHatB1Tg2c5Q8vvsi5cyMsXb6KhYuXIaQk1CF1ExJZjY3D5K83uGaF1aXYmRACHUZYY1BBAFJx5sIgo+MTZGZ5WC/gzIURTpw5x4KFKzk/OMi58+fJ53JMTkzyzDPP0pXL841vfINcOsvOA0fias1O5GCt621lNQLF4XcPs2vnbu64606++tVv8otfPs7whdcJPB+TeIxFhCDEV4LS5ASnBgbo7Cpy8tRJTpw8Tv/C5UhPYJVABSksAiUjUqqG58P5oXGOnTjButXLqNQqHD3yLuXSOD0dHVhdp16vM3D6DKu6+xgbH6I8dg5PeSiVYe3KDdz3mQephDVGJyccIShNLpfmgQcf5Lbb7+Qf/uf/5rnnnmP50hX09c3jS1/+AqvXL+d//ODvefbZF1jYv5wgyJNSKZSBwEp8z8MoQSQsVrhorbQnkKZOuTROsZjDiJCRsRHWrF3P3Q/cTzrlI5XFEIGEQqEdKSWm1Sd23eiB1wc0aSwOlLaCwAuIdJ2J0hhQo5gOSCvJhQsXKNVCZE1y4PBhxsdGKba3cfrUSZ5++nesmN/Hd77zHfbt3c/hgSGsVBitEVoTeAolJVJIxkbHeOq3T1Ien+Q/f/+vKXR1c+TcTxiJRKPrrkiideNI2KGREYbGRunKF7kwMIAKI9oyWRfKriRaRESmipI1OotZ+ub0MHzhPKOjQ8zt6+Tc+dOMj47Sv2gJPblOapMRpwcuMDFZxs8ITp06Rnm4hLIwu6ubT37yfhYtWMr5ap1yKOjpymNsSP/CefzN97/Ni69u5ee/fIydOxexcGEfW269mVs23MxP//UxXtn2Jreu7OPeW5a5sH5Pus7IUuH5HlaauBmJIvACAimYGB6mPD5OLp1idGQELwi4+55PsmTRUgLhYeplapMVUsojG6RQiIvyxq51uGaFlYNLad8uq7uQz9HTVeTwofOMTYwxZ24P8xcuIgw1//qrRxkdLLH/re3s2ruHNZtuBuN6Xo2MjDJw9iwjg0McPHSQhUuXI4XE91Jkcjlef+N12jvauXXTRhcaKz0mJ0rs3reLXbveZnxsCKNrcSlD13bAIaNgeGiQf/7nf2b/wQ3s3bObkwOnue+TnyGdDihVJ6jUJol0HSEjIlNiYf88jDY8+ui/YcMx6qURXn75DZYtW0X/wn6KXW0Evs8Pf/QjbvvYAGdOHqKnPcVNi1czb/5CXn/1TdLZHJnOPNt2v82GjRtZOG8Bzz39W5SpsWrVarSNSAdtnDx5lldefo1Mxqenp4tKqUYQ5JEqS60aUStXUUiMtlQqVepRiEEQGYjqNaLqBJg6nrSMjY8wMjpEIQ/lUpW3tm9jc7CFhR3zGBkfQtuIjo42jHF9wxzIxvq9/xrfgI8EhEuhcJUlJFobOjs6qNeqXLhwlonyBN3ds1m0aDGvvLWVH/8oR/ecbp799b9x/sxprI5Q1oVsj46OcfzEcbZu38qx48fZHFmEUqTSAUODF3j6iacYHx5m/uwuAk8yaUJGB4fYs+8A+/bso3vJWkJjMULFaRge2gq8VJqdu3fxk3/6KXOLs3n1xVdZtngpc3t7OTc+wXhpjFpYwdo6xlTp6W5n44aVPPGbF/jRj/8/lq9azB9e3s7kRImb129kft8ClixdxrZ3dvLjn/yMfCHg5JHj3P/xe1iyeBH79+7hueeeZ8sdEQeOnWJ4rMTnPvsZTl44yXNPPcaWm9dTLg0T+OB5ipdffo3D+/dz++Zb0bqKtRIjfCIUpUqVsF5FWEsURpSqFUJrMEKgjaVariLqdVJSIrRmYmySyfFxatpn1669tHcU2bx5DWG1xoWBsxRSWbrbi/hCUL/OSOeaFVYXxwE2QSoPrTW5dJZVS+dxbO8Bzp0+wcIlXaxbvZYvP/wQL7z0Bi8+9yxt6RRr1q9j1pxZ5HI5PvvIQzz9myf4zRO/JZPKMrdvLnP75iCURKYz3HLrbRx/4mlefe1Vli1awE03rWTT5k3s2LWTwYlJQhuxcNkC0hmBDSt4wsS5Wi6DP51OUavVePWVNxkaGuXuuz/N7XfejRWWzs4c8/t7QNVBKipVyaabN/FnnxvmhRde4Omnn8EYTf/yDXzxy19jVm8v+c48n3r40/zhle28/IcXkFYz//YtrFmznq98rcKTTz7Fs79/BpXLcWFijBU3rSadTVOv1zmwezf79x1BijT3338/C+b38ta2Nzh54iTtxU5WLF3HA/d/inw+RbG9DdHbSwSITJpZc+bQU+zA1COM1nT3dEHNZeGPDI+Qy+RZuHAxPd2zOXb4GI899q94aY/1y+Zw8PBhSpUJ5s3rRuuqc3U09qvgYuvqOqO6awhclkjsxxCuqsmcObNJp3zOnT7NhZFJ5nV188lPf4az44/y9ptb6Z07j9mds5hTLKA8ycL+BXz+kYd5/sknefzxx5kolehfMJ+uYju1KGLBTctZetMKDuzfDzpk6de/zKc/8yCP/+svePp3TxCJFJ1d3SxcvBgVBIRYl+Pk+2gApfB8nxPHj3F033GyxR6++IUH6ezpYqhSZn7fXDqK7Sgh0RrSmRz3PHAPA+cG2blnN0cGTlKtSO6770HWb9lEqjPPI19+iPKvI956azupIEUxX2B271wW9i/gzPnT7Nm/hzNDg5wfGWPuvH6wdazRnD59jqcu/J5KPWLN2jXccvNGjp84yZEjRzg/cI6xuuSuu+5i/cYNWK/EnHl9dPXMwlhoa+9g0aIlpDN5tLVkMgEL+nop5gqUxiZRymP+ggWsvGkloQl48pnnOHHqKLPn/C1zcj4njw8we8kaCpkcURQ2WxJdJ3DNCqvWHaupR0EkRVatYd1NC3nql0Ps2P46q25ZTVdnD1965CHu2HIblTp0dXYihQWl6GgvcNfH7+Km5cuYHJugvdCOEB65fAEvHRAKy52f+ARLVq9F64j+eb30thf5T1//OrefvAujPNK5HBZJrlBE6hK+sEgjkShMGNLV0cG3vvlNQu2jjcfs3j5mzeqhVJrk0w/eS+0TNbo6OggjgzUZ0p7g4U/dzS3rVzE4Og4qTe/8fnq6u5C+IhPk+OwXP8+mW++iXpcEXpr5c3rJ5vPc+fHNLFvez/DoBHUZYIIMc+fPor0twxe+9AWGbrudegi5fJH582dRyPl84xtfZWSwhMWno7ObWX0dGMo8/MgDiHpIOQzp7pvLd//z9+gszoFIkwpSfPzuT+BbD6Iy27fvYE5vH/fd9wDdnZ1sy73GC6+8yOjoEOcHh3hnz0HS2RRLl8xFqQii1vqA012BNwTVnxbiSnrCVXsIwzpdXZ0sW7yE/UcGOHj8DF2z1rN8zTr+a3cPQ+cnyGSL5HMe9XCMQlcXmZTHZz71ABtWrKBaK5Mr5NAmQ7GjlwhD29y5fPe//BfGJ13zxK7ubnq688yZ3U6lEiJUgXquB9s2i47ONoytoqSrxCKlYLI8ycabt/Cpr/0VExOaXJBnUX8noawyp6+X733vu3R0duIKXygiLL0L5vKt732DgYELaO2Rz8+iu7uXtmKWsqixZM0SvtX1Nc6dH8NXeXo6O+md043vWb75l3/B6bPnqNQi/HSKzq4uujsLdLUv4W++/7dUKmVA0NHdTc/sOcyeM4eFfQuoTlTQQY7uvnl0dUlELeIb3/omKuhGI7jtzrtYfvPtFDq7KE1OMmvWLP72+99nYe98nnv+aYYGh7l/88d44P77qdbh1Vff4MTJk0xMliifG6M0UWHtqrXkMhl0WIojTa8fV+A1LKxmhtat+noYsnT5YvoXzeXkqZOMjpXI93aTK+RZ0zObUCdtACxIZ3ZnMymWLF2MjjTSSnw/IIwibByJ09lRpLO7Gytw+R6RobOri0KxSCQFxri2iwiJJERhUEn/LCzGRMyf10e20EM9EigvhbbOFTZ7dg9aG5T0ieK6fNpYsvkci5Yuph+FVSmM9DDaoONaY8W2Ngq5DqzxEdbDk4rI1EBpFiyaS2/dEKoUWqbQog6EdPd00F1sx1NptBEIWwURMW/BHOb2ehjrI5WHlVU0hrl9sxGRoY7GCwIWLuxHigBtnEbZ1d1DIAPKE4OsWrWKV7bt4tFHH6PYVuDU8WN0drSzdu0KDh05zNhEhc2bb6enp51abZK02wqctno3giyuBpi6ZwVRFJLL5Lh1y628e/y37Nm9n82bNuL5KebP66NvrgQCpNJEuhMtwOiQTDbNilU3uY1/KTDaQ6kUljJWpJi3oB9kLq6dFyK0ZsmyZVh8QpOi6uWoiBSSGpIanggxGqyNkFLQ3tZO/8JFgE9YqaECQ2RAeQGLFi129f3i+nuRtUgl6Ozpoqu7F0hjdAD4aOqxGx56e2fTO6cfT+bwpMTaOpY6nd2ddPT0EMXdQKUSjm4Dn6UrlmG1q5epPJ8wiigWCrQvK2AiSyR9rFJgJ1B+mr75RcIoTagj2ru6aPPTTIYWtCabylFcupSsH9A9axadnbPY+c4u6sZnYrLG5MQod9xxG50dRV7b+hp98/vZcPPNSGHRtBaavj6gRVhdfwyiHoW0teV45Auf5ejpEcAjjJwVZaVBSUmoNZakDqBGKjA2QioJ1qJtHaGcoLIClLRAhBYi3q+JCJHOTQignM1njcZGFTwBUVjFV4KFixezabLmKplLg5Bx91trcF2FXYCIM9/jfjvCusgrIfCUh5FgdIQQrshn0m3YVxKhhCuWayM0IVYZjAhRHgilqRNibB2sy2nyfOm6owpnhWrj2tfj2XiDNsJSRcqoURhTCIlCxBFH9bhOmsFIS91qgnSaRz73WXKdczh49CxjI6MsmNfPA595kHWrl3Ng337u+MTdrLn5FqQIMTZpFQ5ThdW1Z101YxntDEevXXD5OnEVfqGwBtauXs39w1Vy+Ty1SkhKxWWKfDBEaGuQgSv4rOPitAYBwnMb/xKECDFWYG0apOu8i5RYJNYoUB4WBUqBDQmERaKRtoYSdayBdCbN7XfcwYK16xx9WI30akTWuFYkFoRwRahdJTIP22JvSOUhhUJbHfe3ihpJcL6nEFaghBOgrr+vcZ0XlEJ50tXys3Edv6ReoRSIONJRSUnSZkf4El8YIlNDCIORAaBQymFMXQqkjQiUKwgshQ8CymGVlWvX8ZWv/gU79+xhcPAC2kgefuhT3HLbFjqL7XT39ND/4IP0zJ5FPXKuddEaHX3NQdPLkmz5TLOsphPWtSuZjbUoIaiGEetuvpklayQEOUIdIj2P0GiMjUiKuRpj4tYEooHcwrqmaG4WXC6X61klsUa7dgISdNwROMKCiAtxSlfeUiqn/Rkh2HDrbfSt2oj1fUJTd5FxNsTNsys55GqTxdUAhWka8QKsCV0ldNtcQHCRim4jPIpdNriq0FJhEEhpAY20BtUQTs6cMUSNdts2fndB3EJFgBOiFiNcV1WTIL90xQhl0rjOGqzQCGXpmzeXhx/6FCMTdYT1yaYzFDqzaBmybPkSli9bjlESo2uoKdUprwf8m670XZOcYgZICqkKoiik2F7g3rvvREgPq0O8QIGRaKuJ0LFWLxvBGRpckVdcmw8pjKvsD7EAkY1iywaL53kYARqJxhWBtVajTIiyIUJCzRjSbR187iv/CZHvxqDRuo5SJqZGA0JhTBi/g4nbe6hGPUqjDYY6Ush4lFGzRUm8Twd19x13LZBSuRXWOl5e2zg9qRrfWkHeGO2EGAYhQMkw7qkn4+LULi8qwiDia5LGj0Y62elns9x+1ydYuX4DlXoNlE+u0E42n8PYkNs/dgdp30P6IIjAGkSD4V9rNAQNRtYCU4WVaCUyuCZfsgUMEMaMNp3NYITEErkayaKZmCmmaB+25epmw7QpAR2xleXI0fnzDRYtQKAbuoC7zt3bSAl+imxHnrpSaKL4XGim7iUVyJvr0Gxp5+pfiwYStoJwBBFf4dyaAComCrDxsxRgW4Rd0k7BxuNwtS91LLCSEYC2tjkqC80+VDZ+f43AYIVzgWSzKVLZAlKkkMInshU8ZclmA4xVaNsk/ksz9Ksc/xJLOF6RpMcZttkyxZqL6alREfwa2v9uxWhtnPLTVkhjjMNxHYUIDFpop3ZZCUj3xlI2KrI3btbAJw/HhkQs2LRT9IxEI9DWYmJBITFIGyKJMMKjZiW+nyZdTKFVh8hykAAAIABJREFUmkpYA6JY6GgajVBjcIWfJTZmgs1UpCjWD+Oq7snh2NIyaBpeagvWumCpJFLS/ZQUjZ6ahtHAB8AIjTAai3YWI34cCOsqtesGtSeUF/eBExZrFVpI2jo7yQuNEdJF4UZu/y6TSzsBKTTSukapwhI3urzK6WhKYJWdcoQG/5surOz1k++cII+1Ju5m6vpXOcYqGozm0m/73jk/051UU1PwpjMop03WLU6gKdd6w9ajZnuCGQSQbV0423q/mcbXursgWo5ObUM/8zslV0gSFtIUVFNsuIue1yzp4mbBEaVw7pzYtWiEs7qwrjeRYyYSbGxJ2pmI6dpxSTsj1TEHKYTLl4m1b08m+UOQvJMQra3RY/zgcinvo5+T1u7wNnY8G6ExtgYQd6lNeki5d7WtWNi4PrYukhYfgBAGrMapUa1461xhxMqk0xrdxzm/JcYKhPTARBgTxe7zhuoQ45UFoWPeNlOTCTvtMz0i1WJafxOJnyVR4y45US33cZ4TgcFgXLCKk3XTnmbjnMPk7omwlUjXJgEhBWEUNdylyZBMokUK2xCOQnz0uPJBodXx33os9i3h5trxMG+mUy5esEvB1TsZjhfEyYMKwGCFq0IcK3YtVsxMYBoa2CXvT7PVdbOjzVScBeGaFAJGekjprIooMqjYpz5zqUk79VvM8Nt7TH/zauGExxTySgpcTkeR5NtOw6L47BnGYKf8bWORJbHxuyHjDqix28cRkI7ZhoiZyHsJq6sYx+I9CiGFU+QRSCtR1kdp31mwQqGMa+/gGvMlriTRtDQuZntXDUx3JDllxLFwKRNmmjDJhoHilralYWFydSzqptKWTdQ96b6t8wLYGG8d0xYNN71FuaPCqT2OcbtWPJhkNlvxOBnfxc1JEa14Fp/f2uU6oZOYabSShZ1CIzNMXIvwS6gt2f+DpopiW2bX0ZmbD/e68ViESbyXbq+MuNVPfBUqVhWtjl35iQp69dJPAokqncxWMmPN+ZFYcSlhZRMH13uR0NU/CZaW7p9C0uyR28paL3Ut06XOzOeJplXVQMGLdjQFGomVCoRAYZpjmGo2vcdoZjjnssbX4BwtNlJSWWP6M2Ivd4vLz7k7379yc6PrluPb7to4KdqRkdO6k/cQiZZ90Z2nsIP3fb8/FUxlLwZPuIZ4tUqd0ydOkwraMNb19Ro8P4LWsZmQMM5Yvbl8m2omrf+jg+k2fKt4bWCLaDnXWsdgG9e3Ms5W2980BEkibZztlPCgJh4k/7pfDDLGae0IvIXRT31Wc2DvhU9NXV5MocnW65sT4IROU5Fsrs5UDtO6ZhYZD8EikC54CjPlnMbcuXo5sXIQN4MU7kwZP3uqV2Mm/8nVSz9ToVUJaKGTGJJ59ZqnJ4enWlaXJqVrYyKsbGo2CVweqV/e+7Wi5HSCbv3bbSTLBqHNbAC/1xM+zPiSMNbW0YiLznMhFGLKT61Pv5x5MxBvlLcwsYYgnMqAmtjV+i6trpqrH8cSBpLMb7Va4eTASXwvgzbg+x6DI+fJF9POlUMTF1s16st8Gh+9oIpZRTzE1krewrYoW3Y6r0h8DQlMfUc73V4TOn5ajDl2Gl6I5v9YBNI6oZZE5QItVtPUZzUF5furXNP9DdMeTrIH3VxDLnH3RCFJQMbjUI13nPL+Lfxg+gqbZH5ETEUNN+p0HtLk4tcOTOXLFxsRTZl0iTyrSyPZxczl6ofpb/PHHP10AXUphBEXLcB73XEmJv5hxjddz7r4+TOfd2WIP1W4TbcGZrr7TGL+2sAxF5npXHqGCKPqpIqgvDrChvh+GhXW0QpMrCTY2N11Zc6/PwUrmrqSU4SSxUWuiamrlrzj5dy3FRr2/TTvxHRsMELGokU0RnfpEO3LVwYuRzF/bwyeSQBNPz79buI9fm+lSneebZ38S4zxeoSGsGog4jSf7lQ0nX72Dbh8eL85m2rRNr8/LBJeDWt1rTDlDw4NTReBJkL7Nbz2EJmqYqgi/QgqVaLI7Vc5Jj7TRv8HgY+OMSX5VYmhcxFLFc2/L1Zrr+w9ZxJx07EhsVv+FF6fhkB9T7jU71d63fvBtUEvM8PFavRFe4uAJ5jqypVSImRrhP6VTvoNuHrgxlr9e0FjD8FYEAItIkJZQcg6kawipCUSFZSQJDumNvGVfii79aOBKbbBtOG2/n0pW/3DPvODn3cpv8AfY96mc8QbdPXhYfp6NaNqE9pK9r0blpUULts5iqJGSKXLObh+2iJfHXDpvar39pbfgKsBWvf+rLWNvkEChdYGKw1G1bGyTCirLkVB1bFRmoZRFV8zY8T++z3/j/AOHwzslP+byWH77/fEy4ePxsK6tDvwBlwZND13zlZ2AaAu380aEydWO7vdc6c4rTAM60xOTiYFEZwAu7Ekf0Ro2qvQGrr83ntpl61pisTt8mF3nW7ApcDaZrBKI2FcSkxkqVQqeJ4LUU82w6Ww+J6gNlklDKsIaeK2KALEzG6ymWyuhmCwl+OC+veBj2IzwEIjQOdy7j91XpqjaqWtmbcyPvjIREuul41v+acIebkeoLluMp4/J5SsNSilsBgqlTJhWI/zEuNySyaOLqnV6oyNjBPVDUoGaB1hhYmT4uDGsnwYaLWo4iCM6aG0M03vB9AVkvIuN4TVvx9MrbUmUMo1orwwNML4RJl0NoOQrvqCxRKakHQmoDISMjQ4SEdXBzKlqNfD2MVxMby/sPqo4aPcI+MDCYGZ58U2ws+nzOV75E2+73NsXKVFxDleuHwzLnOcN2AqNNft4tJxypfUaxGDF4ap1Wqu1FbiBkzy4jzPY3holAMHjtA3fzb5QhYAKWMmaKdrgjeW6fIhyVuLgzOtcfX7rvh+U4WfEBKpRFxOZlqQzA3j+I8HLYIqCYk+d/Ysh949TqRDiu3tGFVyde2soa5D/GyWdE5y5vwAyvdZtGQRKZWKffIzR71diq9O32O+mmGmTfL3vYYrlymuvBAYHeewCVyh2WRWm06N9x5A44Y0tHopJUKo+BSXSylv8L8PDc06pxDPLJMTJU6eOMOFC8P4fsYVFhexZWUBIQVBEKCt4cLgeUZGB+nq6SBI+TRXWLQgoGhUCb8B7w/WurI0xmi0jsjn0/TM6gIJYRQ1enB9gDsCbs9ECihXKgwPjVKva5R01dEbMYXXCHO7FqDVqjLaUq/XGBw8T7Veo6uniJ+21GRcx1EILBorIvIdGUqRYWBggMmxMp3FTlKB5yy1lvsnGvv7uYQ/aJzoleyPfSiwV7aBcKXCKplHYw1+oOjq6iSbTaOtRn2Q+8XnGuOKWVvjKrMPDQ4yPDRCKpVGCIWxzajAG1slVw5OqjhZYowFaxgZHqRSrpHJ5ONSXs5Y8pLTjXXZ1LlCQDonGR0d5ezZCkJ4YGW8cLbFDRIX8LwhrC4LEr+5UDBZmqC7u0h3dycSiRSunYB+37yUVkjciQYpFZVKhZMnB6hVQgI/DYhGRE3rTtkN+HBgjXNVOE3btZhBKjp72gnyllBMYG0FZQ3SypjxRqhAU+hMo8selclxTpfKKJHUw2sJYriEoLK0FMq96KrLGPeVve6Vg7VXJCATQfVB3IDgGJ7BUgvrpNMpcrk8uXwWOX1f8AOwK2PiOo7GMjw0xtEjJ2kvFLEmtrhIcuc+yIhvwHRwwsrNsyEENMX2Nsp+hfJkDYkCpBNWUrhS9YYQFUjyHRI8HyECoroC67uMCWuaLSJait62bmbegOnQdP0JCUpJKnWoVCtUq1XS6QxSKSy24XK4/PsCVuB5rm9QpVohlysQeEHspLp6a85ds9CSwymVJOtnsJ5BpCrUvVE0ZYSI4rlXrnSp0BhVRWYEmZQkl0thahIdzaxGvGfNuSvYs/qw+uQVK6RXKKyuSLBagRUSVZOUymXK5QqdpgNw7X+UintPvS9MnXwpBZVyhVK5RDqdIpUJwDTrXLgeXcn5N6jtyqBlZ1GAn06RyUomw3LczUEhrMRrhKljEUJjVYTxNKRrSGVJZYOY11qEaClG0lqh/SP3MVzdIKTTElq/Qbt2JFKSV5JyqcJ4uYSfybgupEY39g4vzw0Sr5qxoD3q1QjPExQ6UihPkNRYc6feWJ8/JgghYjeQRqiIuq0QyUm0KIHUceqHS4k1QrhK2iLCihLChnheCplOoWzAB7WRxBUIqw8LH6Xz5AO7AV3jYXRkUconFSnK9TqVasm1JTHiCtiTU/Vc7ylJuTJJuTpKW3eGXN4S6ajprrXTy0rdgA8KQiR9vcAI1zi2pkrooITwfTCuVqQLsCAJxjREhNQlhP4kWjo3hTVJKfrE9SRIaoHdgPeBhsJlsNbgez4ia6iO1hgZG6a7uwcT5xM0ogNbtPf3ui3/P3tv/hzHdeV7fu6SmbViBwiS4AbuqyiS2mVba9tty3a3/dw9b2ImJmLeRLx/amJeTPfErN3tVVLbkmzJskSLWinuK8AFAAliL9SSy713fsisAsBFi+2WCaq+ESVClVWZWTcz77nnnO/5HgeeypGElrnZeZQvsKpOIhukPXrSjsDNJUZ73fcXgiANWwiHEwYnDVbGWGKEEEgkIgsBWpp6cwYnY6wLSaghlI+zaR+n5Rf684zR3ZiCDxI+q4TjbpDSIZ3AeRaFh/Dz6HxMLVwkigyBp7O2NF/QCDYPLkWLlbi4WGGxMUdxQFJ1FfAtzYaStMOAfxGIzPBbYbDCoIQklIsYStmlEGkY0CFpSe4LSyIgkQYl08kuLbi/k2bdDjLdC8vGJbuHBWmrEGyC0AqlLVG9hnRpaDA2JvXEmgl3d8eebkOqKB9oRaNRZ2Z2Gq+ssSomUXWcSFvUt5O//9FIrUtal6gRdkmr7o5aEtfkDzaJF3cJS4nPn/K+6jqr+/Eeao5t2lhEgE2JLNIJ/KJibmGGWnWRfE8PCIV15nP2mKH18KVHiOOEOLagJMKH0IRIabArMsz33/jc71iepEiFtlM+hBM2q2X00pIp6bK8oF0pZNtsKW0EGGERWdM8u3z2vO2QbdwNd46LtWlYIcYRaB/tO6KoThI1CLwyCdzBDPt8pBT4KAppNGrke8ugIxJRA/kFH842/izIrLuzcALhVOv95Y0z02u6cluzZ9FyKdZ0W/up+iJY4idnGoEqweLQQqNyPpWbszTCKo4uWlXGX3jPKaSU1GsN6rU6fs7HqjRElcgoo3NwezPiNj4PWSChZawEmTvkQCwti6wzy1qopHPZMmOVkQCyhyd1pNIHULRzUl8C4q7xhrS7dLZ6UAIv51GbX2R2fpZCvoiUksQlXziZLUjZYdYaKtUFhATtSWzWzlvc4zza+MvCuSVPakU4785PrtzmWvzQFZ9qX7EvBnH730JmPZ8sUqWvRljF2mZZyJfLDToHEkW1ssj8/ByFngBnkzQPnO1GOvkl99rG8ojRkpjf8j53rlUSJR2t9i9wR4uQpdXg8oqOdn7+y+DuWQXhmjlBR+wsMvBoJA3mKrOsG9yQSiV9iXG2ziGFJE5iZmam8fMeSNMK/zUXGm18VfhyD0l6h/y56uttpMjaqgqJsQYhDH5eUa1XCOOQwA++9B5F1qW4Ua8TNxr0FLpo2FmQ6XP84GcPvxqsLMZoYjnLbOm5ums/K2uXP3htS/WXQda1OKO9aN9D6IR6o4GxtzdH/CJIH5YoipmenSHX4YFMaLIOm8f88hU5bXx1aF+XvyzSsJGU4AeaqZkphtY3yOdyJIlByjvVXT4LcRzTCEO09tBaY4Uh7X6c7uNPptm3cc9xuzM/ujQvtpd2XyEELmO2pHFY5QvCKKRRD/+EfaUxdZPEJCbEDwRSGtxtD1T7cWrj6wCHwCLTZLwyeIGiFlUJo3pLuTulmX/2S2Qt5LXUhPWQMAzx8z6Ji29LfYn26y/2WsKyVprcHtW7R6fgJTjbTvl+Odx7zSBIpe+FNUhpyBcUi9MLLFTmyRVymTrIZ4/1UuGwAOeoLMzie+AHgoiMAWiX8o9ttPFgYjnFAkBmJQIJThj8fID0DNVGBWP7Mg3GexcFL5/lrIkJcmWma7PMzs9R6NRpiYJzCCROpL1eRIvd2cafh2VzXsZYEaIpa7CElrFqusetiZCmoWrjy+POcRMZgUXiEM4ghSHI+SzYOpVqhV7bmwYxPidMoYTAWIunfOIwYnZmGqUsyBhLlFJ0haT9GLXx4KN5fy+t0oWQWJugZIIOYG5+msHe9eSDfJbPuvdiMNU+SBd7NoGwboiSiM6CxtAA2fTAJF91+cCDijtGsZWrEgi30vO6q2f1p6glt/HZcJAqomNxFpRy+IFCe4JqYxHjlmLqn/1AOZSUKKWoRglzlQp+ToMEJxNS/kw7utvG1wUZKcxlfQ0ELdUY7Slm52ZJ4gSZ1ykN47MCRWllKsr3iOKEaqOGl1NIbQldA0QErvl8uXbO6s9CMzoEt5duLP21cnQ/NwzYxl8aEiHBWAsyISj6TEyOM9A/SE93D9a4LOd0DwiBkpKoYZienqcRWko9RaxsYIXFCRBuiQraxkosX4t/1nttrCak9YmSVFop9ZAc+ULA1HSNGzduEegSy3WXMru0AmlOyhLkckxOzXJj8iYqL7AqwhDR1KwQLbJa+xn78+D4MjVwbWP1FWE5RdOR6sVZEnTOJ3EhJ058SmexJ1W/d4a7lodKATbtQmuNpFaP0LkA5Qckto6Vgkxl+Kv9cX81pGN0b/7QPXC3IRIZAfoutWluaXb64se4D7D8vFfD+f55WCIUCZkqhPhBQC6fY3R0hFs3pxGIVKczy4msYJ5l71lrUVqxuFgD5dIQoK0hlMSicVnkQjTbqbfx5+FLDGHbWH2FaDJcUmNlQRikDx3deWxVYk2CzQob72ashE2LgKUUOKEICppcWYFvMSR8pYqjf1WIFf9+GSKJAMQKXcs0j5hqXcrWe8u/sdKAfVUT1O3X8ssed/l5P/iTavPJghaxHEdMR3eBWGuSKMLzPO7VZ6tl6oTFSotfkvg5iZ+3WJmAFLiWeHe62mnbqq8WbWP1lSNrtZ2tzJS2FDt8dDGHtLpFkLj31xUIkEJhhcXIBlZGWNfg69EG7nbK6+2sx4wc1NraXCQsqbOksdJmqjw1Vs5JEDIbwSXh3+bnBZmn0oqlL2/A8qeO+t0M0nJDfPv+b1/A3Ou4zS7Gy1sDfh3uDWjmQayzSGnw8i5tcmloqeXLe6zpUs9Kpr3lnEWoBHSMEzHOGcRnsAnb+I9H21h9RXB3+z9rsSJCeKRtWVyjNVneG+kkZMgUv0WIEXErz3W3MNaDi9vJrawwRst4ra2pu0k3TiBt3YFDZpqMzf+mO0qTH60+Y60jZDU7SFK9vy9ez3Z7jc5KRtnyiVC2zrh5vPRrTcO5PI55253V6jMjU5p1ayyaTLYHE8uCgOkfIqWxW1XDyhC8pTzuZ49Cc9wNqdiwwYpk2Z6/Ts/X/YW2sfoKcfu0mr5nMLKBIf6ShiZVKE4FNe2yVf6DjpVehsumnmbJRVPTEpf2yEnfMCzpXaZSVVY4TGqNsE5mk1uWKxSZtyZYat3SYmFkwprCW9LPvOPcyEoQVoYr715QSkva5/Y7xDoLzWvsst+U0bPTzzan3VT+x7mmFHXT7xMgNClPLtO1u1su9AHB7QtCh8EIm4XHv2gud7k32/TaV4aN73a0Nv7j0TZWXyHuDFZlMXIsiPhP2Jtr1SII5B0kgAcXSxNGyzYJALvUD8ra1AtZWmiTfiLtl2MyhWcrJEbI1kS+NIIibd4nssblsnnMdJUtkQjUHf7R8nNcUo1eTnNeulYyu3ZuWWhKCIl1WYGrMCDi1IgKCc5L+2Q1u3Xj0nII1zR4NrOBzT5mJh0Yp1NSwJ836Pc9VprhrN0EfxoRorUvpzJCxe1b2/iq0TZWXyHuOlk4kU40X/r+Xzat3lY89/XA8t+ctUmp1zKHw9LT3YvSGmscxliccyglkBKMSWhUGzTCCCU9CvkivqdRilaNoRAKpSQmSajVqtTjOkpLtFaUSiU85RM1YiQSKZfUtwUC5yxSSGqNGsbFoFJPq2mstNRoqQhyeTztkyQJcZSgpAYUsnk7OGg06hgXI1F4OkchXyZJTCohJJYEjZ1LNT3rtTpOJHiBQnkaQQJCLuuc8ODeJ7fzNUXmMf8ptmX5oqVNpLg/0DZWf2Wkq7c/pYj3r8FQu79grSUIPOIo4cTHn3L2zFm055PEEeuH1vPII4+ktWsWrDV4vk8jrHHs2PtcPDeKFnmi2LF+aD2PP/ko3T0FGmEVmV2ORiPm2LEPGbl8Bd+TJCbC4di4aQvf/OaTaK1x1iEzCazUICpq9RrvHTvG2Pg4QkiU0FlJQhqa08pDSCiVCqxdN8j2HdvJ5/KYKEJKhVYetVqVc+fPcOr0KbTnIaxECs2awQEefeIRtOdlHXAt1oFSio/e/5gzZ86DE3R0F3j8yUMMrttAHCYPso36DGQG68/C1/PZuh/RNlarFl/3hyhtDooF5SyzEzOceO8isRPEztHVNU5HaZBnnt2Cc1WcbeBrn5FLo7z9xgeMnp+llCtRDyOSw3m+8VQnWuex9TpSppI7Nydu8fZb73Pp/CS9pTwijqgnCWObF9iz8yCD6/uIk1rLuDlnUcoRhg2OHv0jIxeq5KVAWz/1fJwB51BSgedwGrr7yxx46AaPPHKQofVrSKIQT0tqc7N89If3+fCDq+TzAc6k/ZrKfXnKXX3s3b8XYyKETHDE+DLPmZOnOPr2RQSC3v4y+3YfJNhQILGLCPW1tFa0n5MHB21j1caqQzNPhRAkSYgnBHuGd3G68ypXr8+Qy5WYvlHjxPEx9u2rUiw5nLLUoyonPjrN5KU58nEXynTSVy6wb+fjdJYGCRszaRsX6XCJ5dzpc9y8OktJ9JBrFFBRjHCW2QnHiY+vs3ZoOO1oSowQJlXsxpJEEcmiQ9YM+WANIiwgBAiZelbGWKIwwuiEyWrIG1ePMT9V5yf/+fuUCwFKGMJqjcXpOjr0ULYbZxVOWOYn6/z+jY/YuHEH+YIEDNbWUTKHtBIVa2TSgWgUkLaMsP7yUWujjVWLtohcG6sKLiNTpO0gJEYIEmfZvHUr+/buJydL+I0COdPN2OgCp09fRiiJ9AXXx69x7uQ55KJHh+pGmBxbt+5k9749oA1hXEWqNLQWhyHjl68RzTTo0mX8OEDbIj5lKrcSLp4dp7oIUubSTrQSkAIpJRpNwZQoxWWKrhsba4aHd/H8i9/hm888z+49+yjkupCmSM72IuudnPponE+Pj5GQw0iFkD6CHMp5KJtDGA/pAlRS5MqZW5z86AK+V0RKjbOkjTadR0HkyZkC0gY4EWCEwogmpb2NNlYv2saqjVWJlFSscFJigGJnkf0H9jLYM4BsKEqih/nJhJOfXqQWJSAlp0+fZmZ8lqLoRscFSrluDh85QndfmTBZRGiDkJbA8xi7cp3p8SnyLiBvcvgU0BTxXIm87GJyfJ7rVycJgiLOiYxAYRHOoawkZ/KUki5UGOAJn207d/DMd57j+e8/z3d//B2+8cyTlPNldFSgLAapzQaMjlQIEx8jFRaFcDmky6FsgCaHcj6+LWMqeY5/cJGbkwtI7aM9D2cdHh6+DQhM+h2LxiAxYkW1VhttrEq0jVUbqxKZaFXG+FIktsHQ5h72PLQJ/Aa4EBHGXLl4nZHLN6kvOC6duEK94lC6SIRleOcmtu/eiPJjEBFSpcxKaRSXz44ydWMOrXMoL2DT1s109nYSxyH5wGfu1hQjFy6ghGgJoqZqETar2SKt1xIWpxL8ssTvAr8vZnBHgSNPb6ev38OaOoGfw8SQRAKcSsWMgSY1XUiNa2rZOUEg81y5OM6nx89jrEbpIM2XiTSPJ6VAymbpcFZmLpZebbSxGtE2Vm2sSjT7wgoESEU9qZLvgX1HNtM3GOCiCnmjWJwOOXH8CiNnJrl1aZ7AdmBtDp0LOPj4PryyIzRzxK6BtRaJojq7yI3RW8gwQCQ+SvscfvRhtu/ZhKOBihNcZLh+dYzFShUplxf1pp1m00abaWGvkZaGrDHnblFR40T5CYKOKlJWsKaOQqFFgTjUSHJ4OmiVozokTngUih3kCoW0vYzzqS84Pv1whImxCtIvIqRAYBAtEeQVg9X2qtpY9WgbqzZWF7KiX+kcMmtT7oDIJdRdxNDmQXbv2kjggbQOW5dcOjXB0Tc+IZoTBLIDYxWbd2xh0+4NWB1nxbeWKI4oBAVGL4wyNTaDZwtocuRyBbbt3sLwrkGKJYF0CRqPsavTXL50LVO5WKrRgqaYUppXiwwYqfCLAUpbFhducfbkp1TmKvhKE0cRgZ+jv2cNEo0xzeJgQGqiyNHZ3cPBw4cJcj7OJhR1mZuX5zj1yShRpDFOE5lk6Ylu1d6J1pi10cZqRttYtbGq0FRQSqdhu6QEohSLcYNSd4GHD+2iqzNAWotnfCoTIZeOj6GTDlziExQKHHzsIXLdCquiVOVepBqAnvK5enGMhakGIs4R+GU2bdvCwIYuetfn6Ozx0NIQqDyT4wtcHb2BEDrLWy07USdwViBlgMXjytUxjr3/ER/+8X3eevU13njlDSqzNTzPZ7E6x8CaHg4c2IPv+ySJyUKLAiEUceLw8wX2H9zPps0biaOIHHnMrOPk+xe4dmUa6RUxQiyTebpd8LeNNlY32tT1NlYpBMvXWlIolPZomJihrRvZtmeY998+jxYSU4vQLocxIQbL3j2b2bp7I1LGWBKkgNgYcr7P5PgU16/colFzKCfxch7rtw1hA0vQEbB+81pmbowgrEMmkuujk8zNxvQOlIjjGCmbXWRtlh8SeMLj7PHznL3wIT5zeFGDpKoRrgshFZu2rufwM4dZu6GD2M4gsjoviUPYVAswiut09hR4/KnDXDhzFkVMR5Dj5pUJTnx4jh2bNiBlQGJTEaiVhqptsNpY/ZDQvpXbWJ1Ilc8zMViXavU1kphCX4nK7QXTAAAgAElEQVSDT+ynf10JZUPyVpETeRLrk+/pYs9jeyj1Bhi7iJIxUlisifC15Mrla9y8Po+kiA466Fm/lvU7N1KTNToGi+w6sBXpG1wSkyPH+MgMV6/M4nudWEPaUj3T7XM4jDEoobCLEE9CY8JDLHRTcGuJqpqOzl5e+M6zfOP5Q4hgjkYyjRWpAZVOIJE462jEdbyiZP/D29i5cy3S1gkAEUo+/eA8V0dvIXV+2ZiITBml+Wo/5W2sbsjlYZU22lgtaHWxylpmZJKwOAk1F7Jl5wYOHt6FEBFagrNghGL7vj1s2T0MXgI0EC4EFyMx2Dhk5MJlZqcrOOeRIPFLRWarc5w6f5arE9epxVWUtkhn8NDcGp/h6sgk9WqCFAqzMhYIzoBNGOwZYN/2Awx0bQLTibAltMphTaoALz2LFVVQEZBkJA2BcwIpFUiIXUhXb8DjT+1G+yFCJCg01y7d4Mynl6gvJkihca6pxt5sY9JmWLSx+rEUBmzfzG2sMrimkWoxvR1OQegiOsslNm4ZoFTyqFUaOFnAzxXYvGOY8kARa28hZQQuwVlH4CkmxycYuzqGSxRKBiA8xscn+PWvX0PmKuS9BvGtOkmSoKXAWHAJjI3e4ub4DAPrcljbyBTWHVKAkg7pDPv27uXxJx7j+uhVXn/l11QXFukq9TAzM887R/9IeaNmaE8XURSClAiZ0eiFJHGpYG09rOJ0ja07+9i8fYDLZ+bRKMpeJyc/PEejNpOed6slyVK7C/dFO2S00cZ9inbOqo1Vi7tFA9IogUMIR5Dz8PMei1VLYi1aa8rlIr7naDQicBYpU0MQoBm/epOxqzdQIkfgB9TCmPmb89ycvYbwQyQhQSzwGxpPOrRy+Cimx28yeeMWQ1u2YJI4o300+YAOhKWjt8Tg1jUMDfdTD6d4/eU3iCKDkh5XRsc5dfISA8NHUF4ekbWLST3HVChXCYVWmtDGFPtLHH7iIKOXfoerG3ytGB8ZQ6mEQJSxmdeZth0xIJp09nb8pI3VizYbsI0HCmlLQgvSYlWCUTFGJhjpsEqhtEMRIUWCxZLYlBQR1QwTo1NU5yOUzJHECcIYOv08PX6JbtlLp1xL2V9DvtCNEBKpLFpAZWaeK6NXWazXcZ4iFhabNXCUwuFcjNURsV8n8ec58tQ2BofKxEkN7WkWqyGnTo9wa6qK75UQTqXeokjzX8KlVHakwghLrBO27N3Ezr2bEM4gI4lnckjjI51OPSpBFg40pM0nH9wuwW18PdD2rNp4oJA2PHRYaUGlLcmNkCTOorIwmBQWIS0Wg+9p8kGOkdErjFy4jrA5nPORSJ5++gm27tpMNZpD+wprHQoHxvLxB59y4dwoEkFtMeT82Ys8NDnMpq192IxCbrPckRAOQ4jTdYxboLNfsP/hYa6PjBMndUBw/do4586NsmbtbvJ+gMy6AaddjZt6iA6jJKGFvjVdHHlsHxfPjTE7a1HKI4kTEArnTEr0ACQC4cQS3b8dCmxjlaJtrNp4oOCcxUmHkAYhE6QwSMDTOiUqkBoPKyxWOoSS4GDmxjwTl6cJ6MaTnXT393HoqUPsfWiYucoEWkusTQkTOc8nTiqc+PRjyuVBoppg4uocN8YrbNk+lLUDASE0UvoQx1jAiAbICokM2X9oC++/c4KrVyp0dw0yNnOTsx+PcvjhHZQHc1n3YIGSGieDtHuwlFipMEIQy5DtB4bY99BW3n79FErn8XUHwnh4Km3kKFoFwa5tqNpY9WiHAdt4oCAEOGszwraAxBJIhXYu1ZNQqUq7cQ6b6e1VK4vcuHaDuGopeB2YRLJm0xCFoRL13CKuo0FSrGJKVVxxEVWus2ZjiZ41JYxJCHQBF+a5cm6apCrJST/tWSU0xmhwAVgPYwVWCkIb0TPYzcYt68lpDxUKyhSZGp3h6qVxGqEFobDWpp2AlYcl9daEkwghadgGugN2H9pI72CAMyG+CAhUDofEWIu1LlWEp82taGP1o22s2nigkHoQNu2i6wQSTVRNWFyoU6s2MMaAdBhhMTi0p5m5dYtzpy9QnY9ZnI+p1xPWbx0i6FfM2Zs09Ax1PUPDmyfy56mJadYOd7Nl5zpmZm5C7AjnHGc/GaM2ZdFJgAkd9UZIrRERGzDWEScGKyB0Mbok2HVgI8WSYmFqlqIqc/3CTUbOj4P1UuULK1lYrLNQrRFGhsTKllpGZEJCVWfL3vUcemIniISF2RqLlZDFagOHRKmsfYiQGW+yjTZWL9phwDYeLFiHFJLYGIqdnex66ACTfRAlZUp9/ZQ6ChjTQIq0fNYkCUEQsGXbVnwzSE6toaN7Ddt3rsdTDWJTQRIiVGoknFDE1lLs6mT/4X005jUFvYaKsfi9ASSKYr6bAw8dZLKwiAw6kOUcW7atw9MOayw4QeLqbNrex+Gn9jA+ahB+iTVmgDUD/Vjj6OruY+e+feSCBtb1M7C1h86uTuIoRmSSSomFXDHH4998FEyZm9dCBDlCG9O/tZOevi7iJEIITUq0aKON1Qtxa/qWC7yAq2MjHD93DK83ojgIoVlEimYXnPaqrI3VAZfds4HwEKGiOucR1ctAB/g+XnkBUbiJFQ2csPjW4VnJ4jSElRwF3Yvn5ZCdEbZQwbGAEjEOhRU6q+0SeC4groBd0HimSCg0JpAUywYtq5gFAzWPRGoSTyA7HLLYwIkq2BoeBhFCNF8mqfdiCLDa4ZdDcuUIaaA+nxA3yuA6EXmH32kRcg5r50BGKCnQzkOEPlElwIQFMDmsBBPU8LpihF/HigYCk8o3teOBbdxXWKlfuVSuIVmcrmNmijy89ZtsHNre9qzaeMDg0si2AYS25HskeetAxKAFkauTEKe0ciezmixFoVNS7PTxpUAYQ+JFhC5CIpB4rZxP2shQkGDxiwG5Uh7lFIkQJNLhREgS18n3FMh1F0iEJBQJDbuIsSFCWoRQqQKHdnhdmmK3QiiJE5bYJTgR4pQj6FKUpEC4hMQlGOpYGijlsAgM6e+yOsbrFhREDuESLJAoSyhrJDb1IqHZY6tNtGhjdWLJWLWdpzYeAIhMB89gcdJiRQXkIg4PawRCJiBjpAPpJNKlXbHwDQkVrG2kxkk4nIgzzrhESNdi1TUbk0QuJHYN0squVHzWCYtUYIyhQQNrHVYahHJppMJZQKb0dulANIjcTUSmKShJz8sIg5EGQwNQKCRSCIRIsCKVYrI4EmmwOsa4iMgtIPDACawzWBdnfa7UX/GKtNHGXwa61UX0r30mbXzFcF9uie1Wuuv3LyzNnr0OEEKAkC3tQGQWyBNpOM+JtAap+fMsFjKDkCqnL3UChnTIZLNLsWweJ/2sFWldlRES5xzCWYRwaUPErMDXZvVOzqXnkB7PLh1DaJqhESFI1SesxQmV/YJmaD5VtrDpjwTSGrO0+aJMTXb2ndSAZ80hH9gHvTmwcGdrlAf2R3+toKF9Kb+WaD3Ln5eTzLavKm2520809YWEbLIFlyYzR1p0a0Vm5qTFumzip6mIsYS00DZ9x2XfSwuRbTPQBllRcoJBtbr3pkZPtPaStamXFutMalSRqfFz6b5cJpckBNn+ZeucM2F3hBBIobLwXirt1Nwm3VIblVVz6f5UCACb1S407+dlRrqNVY92zurripaN+jxvSSx9fjXBtRyOpTdauEtSF5kp6qXeVtM6u0yoaOWn02Bg0xSk3lKmAt8yRy7NKrl7LQaahbqydWoyq/uyIjVWwjUN6pJor7vtQggEwqnMsRArjOHXCss8zCVXuY0HCW1j9YBDSIGzn21pRDOM5FabRbo3mt7FSizvorvy3RTqtndkaijEkgKEWLG9aZ6aJkIu25aFI7OJ895TZ+YZZX83vbT0O0tlkKmntRTGa7VVdEuiuU3jthTebcb33QPdJURIsezebXtSDyraRcEPMKy1aKUJgqClZHA3NI2ZlPJzDdvnQYhlzf/uK9zePXfllhS3T3Ruxbfu/s175UaaBuzLlOOm1HLRMm6OJb9qyVjeub8sWCmy/FfrTNK85GpzMr7IHSiERMpUzcNZh5QK3wvSAui0v0o6Hm0B3wcGbc/qAYUTIJVkdn6WJI4plUp42se5JvFgic7sgDgMUVLh+x7Wrgx8LdvrPd5vHtPhbIKQzWX87Z/9rO/fOdGvnGSXtrfCY808zW3fu/uel0J79/7kZ53T0ntuBf1bfM6oNPcjWj2l/pK2Ix3mpsflEKnI1NI27p5udGLZONzTmjVN3kqDm3rrNhuHL/prlo/S0hk5kYU/rW1tu7sxXvmutSYjm4BSmlqtTr3eoFQqoLVcFgJeZZa6jXui7Vk9YHDO4ZzLVp2C1197nXfffZdGvYGUSxkNWPK8ZmdmefN3b3Lm9CmUVCkFu+lhNUlkbiXNID2Ozd5P/5ZSoj0vzXG75VPl7WHG2/0D0dpn63eIlX6FI9XGa20n9Qhtdh7LISStc3KQepVZfq75t83OW4iWzGu6WhcyTULZjKDuLMI5RHYcIcWdhqo5M1q7wp8STqa8PLc06Tdn0ds9tiblAufuGJ3lpqY53s3Ql1g26dvstywNR3NBkhmmzOtdCvvaJQ9s2fbbr8Ny70wI0dIsXHn9lp1tdg+mx8nOwbmsv1bz1zWnHpdKYzX3v3Q1Wvtt7m/5faO0olAooJQiCAImb07x6iu/4fgnJ9E6AKdIa+7aU9yDgvaVfNAgBMYactrj6qXLnPz4FEoUKRa7U9KzsAhpUFpgM1WDqFrlxIefcn30JsLpdK7OPDBkSq8W2b82o2krLVE6rT9ysqmxN83pU+eYn6/jB/nUwxJpK470uGBc0vr/tO2Fxbgkq09aOpazbtmkmVLAlZatCdZYg9AS5WuElOkEatNjWJekdU2eBJm26kg7OzkSa3EShCJj4sUZhSI1TNaa1CBkISQpU4qFcwapwNoY62Ksy2jtpJO3lOB7Mttu05dNa6+U1Nl7TW8gC7sKkb3IjpGgtUQKsM6ATLAyxiiLlQbjIpSXXrcoCtOFgQRnE6xNG0xaCUKnFHcpXKvQuEnFRzqMNSAE0tPpeGFaLVMQFilFdn1sykLMGIvpGCdoTyCUI7EJiTOte8K6CItBaYXSksSGWBKQFqkhcTEWgxWuNUYIkF56vsbGONKFVnrNbHbfOKR0GBvhiBHScP36NU5+eppqtY7WmlKhRG0h5IP3TlCrghA5jF1q09LG6sdtxqrtMq9WtCb27BLmpOLyp+fwkjxbNhygUOjFWIvvS6SwJEmM9gJKQUDBgBd7iLiAcPlUS05Kmk38EKl3IqVESoFWCnDEcYxTEul7+Nrn+uXrvPn6u9y8UScIOrEm9dCCwAcEYZTgBwGe72NMShHXfoAf5BBSkVgLoqkYbtFSZWGqVH4ldSrSVh1a+yiliSKDEwo/V8ACcRKjtMJJQWRNet4qrVmSWuMFAcamRktpjZQi0wl0pE6XaBkZT6ssqCZb/amCwMfXPgKJtaknFgQBwjmsTSgUC/iBh7MOLRWBl8NZiRQKLVXmZYkV2TEHSCnwPJ15EQKlBJ4nsdIRC4NVAqEFsYmRSpAvFLDGYSJLoPx0caC81GAJi+dptMzkoTwPK9PQGYAfBDgnSGIHQiK1agYqUUohlcRakNJDqpT8YZ1DakUQ+CRJAkiCfBGhJMYZkBbtSYLARwqFsQY/8PACDyEliTMIrUAJjLVIJckHOaSQhFGMVBrt+TiRLjwcaVsXJRXGpF67pxVKOjwPLpy5yGuvvkW9EqOlT393Hzs2bWPy+iwj5yfxvTLGLnmhbax+3JazujNGvzI+38b9DOfSahwlFY1Kg8mrkwytGaa/bxOJESTWMHrmIhNXrlOPBaXOXh7fvYsCATlXIJCdOONz8sQZnLDs3rMLz5PMzc1x/uwFhjdvZWhoPWPj1zl75iyVxUWCYoEDDx+ERcPZ4xcYG53j2HsXWKjU2bK5i3I5x5lPjjN65RrGSPr6utm1eyfd3T0sLFQY+fQUSWyYX6iQy+fZvWc3PT1dCBHhrGFiYoKx6xMEQZGxsQk2bdrEvn17uXlzgpOnTlCrN/C0z5bhLWzevBGpJGNj45y7cIG5hQW6O7vYunmYjZs2sVitcvHiCNevXkdKKJcKbNu2mXVr11Cv1Tlz9gKlUgdbh4dRynHpwgXGJ25x8OARgkDz6SefENcNNoJanLD/0EEKxRwXTpzkxtgYWkp6BwbYvns35XyBybEbnD97iWq1hvRg+65h1q5fi1JpkCuOInw/YOrWFCOXR7DOEYaGej1i8+Z19PR3cu7yKFOz83R1d7Fvz07KpQK1SpUL508wNTmLi2M6ykX2HHyYcm8vlcUZLp07jW0YpNNMLyxQ7u9h86Yh1g/2U6/XOHfmPNeujRNGCbm8z9Ztm9m0cQNKCsauj3PxwkXCOMEP8lhnWLN2DZs2bySKG7x3/DjTU9NI6bFuaANbt26ms7vElZFLTFwbw9MFaosx84tzbN81TEdHBxcvXGJmbo5169eyedtWiqUiQghGLl7i7IUL1KOQXKHAzh07GVq/ligOuXjhEklicLFhemoGqSV79+2mf6CT0ydPcf7kBW5dXeSPv/+YqVuzHNi9hw1r16Otz/XRWxw6ciBdcAn3Z5OG2rg/sMxY3ZGCbRNAVxGklCQmDTMp7TM/U2OhErN51xDl7jzOxdy4Ns7LP/01jUpMZ/d6bt46j5oxPLp3G8Y6lK9xxnHsnWNENmLHzl10dpQ5f+Y8//6r3/LDl/IMdA/w7ptHOXf+At09vUzNzdHbtZbAaG5cnSKuC0YujpOYOgMDhxi7fplf/Oxl8rki/X2DvPf2+0xOzPLDv/sBUT3htZd/x/SNCsITbNu1k/Xrt9LVrdJwkLBcvjDCyy+/RbnURRQaAt1Jf+80r77yBldGR9m+bRvXrp/n4vlRfvzjHzOwpo83XnuHq1eu0Nffx7WLY5g67Ny2i/c+Osovf/4GxUKJnt5eLl2+xP6HdvDS3/0tSmh+/9t36O/vZ8fwDnJacer4Kd565yTDw/vo7CjzzpvvM3p+iqJfYMPwEOvXb2JkcY5/+7df0FEoUC52MDH1Af/lv64lLht+/fJrXL50he3bdzIyepkL5y7y3e9/l81bNmJNhJYSX3tcvTLOz3/2GtWqZWhoLbV6jWN//Ji1a9ZQrcfMz1eomwjiHE8//Qijl8/x0395hY0bNiItjFweZbHmeP5vXySsNPjdK79j7GrI9u3rqNUjpubneP7Fb7LppQ1MTVzjlZ/+CiUDenoGuTR6iQtnLvFf/pf/mVoY8urLrzNy6Qrr1w0xceMmk9MRP/zRCwyu2ciHHxzjtd/8np3DO6gt1vnk2Fm+9dyT/M13nmHiyiQ/+5ff4mlNd/cgs3PTnPrkImsG+pmdmWOxWuXdxse88L3nee7FZ7l68SKv/vxV5ucqDG3ayMejJ7k2OsGPf/QDivmAT459zLnTVxjo6UEKj9GxMa5dm+bvf/htJkZvMXltGup5Lp66ggX27dxL30APAwPdzN66QRg2QKo01N3Kn7WxmrHMWK0k6GZiNO2ShVWCNIEtsEKglKK6EFKdT8gXCnh5SRJV+f1rbzN9o8o//Ph/YuOmXXz8yUn6On2cUdnVtkgrUImHszFKBWgVIKwHoaNAgcZ0g5FTV9iwfhv/6R//OyZujZMv+Kwp9zH70BzRR5d5/Olvc+jRbTSicV5759fIuMA//OR/ZN3aDfyv/9t/45M/XuTxI6m3EFccPUEf33zheQaHN9Db00kUWwINyllIBKauWLd5K08++TRr1vbwzh9e5/ynl/j283/L37zwPH945w+8/NqrnPn0EsHDXXzy3gg7t2/lv//RT1hsLGKkZeL6Ld5/+z36Sl384If/yPp1G3j5V7/k2Kfvs3nrFY4cOIjvSviugCJAOtAuQAlBHPsEsgNX0/QW1vDUE8/y0JFdzFbHeO/NY3Tn+/mHn/wjvvb55PRxtMxz7tRlLp4e5anHn+bb3/ke7733Af/6r//G2Y1XGd6yi8RGiEy5QgqPqKEZ3rCDH/3oh1wZvcjPf/ZLbtZr/ONP/hEpFP/3z/+VT94f4fDBR+jtWcPfvPBtHnn4MWoLDf71X37GmZMjPPFkSMnrgLqkq1TguWdfoqvUwz//8z9x6dQVJg/PUQrKfOOxJ9m59QDFQh8/e+VXfPDJh8xNhsxM32L0wiQvvvj3fPu5F/m//vn/5IPjp9g69BCNecu7bx5j8+BW/od/+K/M3Jjm//inf+KjP5zg2W88S9kfwNU064a3893v/5Bro1f41U//DS8q8b2XfozQHv/0T/87o6fG0d8KOH70FOOXp3nppe/z+FNP8tpv3+R3v3+LEx+d56mnHsGjgIoVjx54kl279vGzV3/D8Q9P8c0nIp775veojGkunb7J9/72e6zbsQbteeQLHl1dBRrVBaJGHVnU2MS0DdWqxJ3X7J7GqsnHaduq1QUlFc7B4sIitflFXGKRztFoGG5cv8XGDdvYtfcghXInT5RyrC1pJkfO0WRtSSeRiUbLAOck1iqk9ZBGoY1HV76H7nI/10Ym+eXP3+DA4V2sH+qms1igp7dEPifp6Sqzce0g7733CXM3Zsm5Eqc+OseF4AqNeYcIS1TnE0olAVYzvGkXz37rBaqqRkwNqSKUBGKDixyd+R6+9eSz7N+/l0Y0j40MIlaMXZ7ity//nsnJMVzdcWtiGn2wyN4dR7gyconfvPI2uw7uYtfB3Zx47yhT47O8+J2X2L57FwUvz9NPfIP3Pz7OxLV52JnDj/MQaaQLkE7gjIewHsLlyKsSKpJsHFrHM889T/9AwNvvnGHm+iRPPPU37N+5n0pjnoGNfSQ24o+/fYu4YZm+Ocfrv/4dUxMVcq6X+rwibEiUF2BtHaQjNgmFUpnHHn+Sh/cfRIQNNg1uYHDNBp589DEW5qcZGhjk2q1bNBYjNg5tZn6qwjtvHSWqQ3XBEFpDWLMECHxVZPihHWlo0C9wYO9eRm9cYWa2ysG927G1iLMnzlKpGCauTuHJMtoW0EkBRQlrclRmIuozIR1BB535bm5cvYSdjZF5wVu/eZuolmBDjc1JKgsGGwXkVCd7dh3g0OFDeMaxYWA9O/bs5eHDj1KZrzC8YRsqNqiqwixqbFTk0oUbzFfeYmJ8Cruomb1RxyU5GouO4Q07OHLkUdasW8P2i7sYuTpFEvl0dg5QLHWivGl6+rro7i4hRAMhQClwJIBpaZK08WDgtjDgnRe3bbBWB4QUmMSkxkZKcAphPbRISQRYSCIodPQhSx0Y3+KVElTgEDLBiYypZiXa+gjpsEIjVUDg5VEEmIaiq6OXH/7gB7x99GOOnzzPuZGLfP/vXuTJh/fjpMGJGOU5PC1IajVsHfJeB8LmqVdjtmzaTrHYSXdnD416Fd8vkcv3Iv0czs4jZYKSBolFWIkkwFcluss9aKHQCKQTeKqDwO+jVnUUcyWeevxp1mzeSLncwQ++/0Pe/u3vuHjmDBdGR6mGMVQE8bygUOxE5hVSCrpKRUQiSWoKmZTQpgxJgCeL+Bo8mUe4HNIW8GyewAQEMkD5Gk8BtRquZih73eT9AnU7R5BTVCox1coimgDPyxOGMaViJ994/BmGdgyhVR7jFrHOIoTFGYOnNYViEWtiAg15TxF4mlzgmGeBnCcInI+oC858coZXf/EbirluBvs2oUQegUU4D4xByzydnX047SGVo5BLSRLSKzEyMskv/+XXkEh6u9fiIpDGJ6BEyTfY0OPEx+epTzaYvVnhwJ6DDPQNMHrqBH5DkZd54sRineDggUN0DhbwtI+JBIEs42kf5TlM0kDjKJcLWJVq9vnKRzmDH/uIsIAWvQRBD2EIXcVuXnj6RTZu3QBJgEgCil4O3/cxMqG3r5di0Elcd3i6iEVipUXlQAUGE0cZg9PgiHDOtCauJundtQlk9yXuXqZxZ2mEXl6L0RTjTGtcWtUZ3J3h3pY1uT+QqRS4lAJtrMEYQ0dnF+XOblAKi0NIiVCS6xPjzFTm6PJ9JmdGsFqBjLDEGGcJcj5+4HN16iaLiw0KQY3r18dxTiGDPItxjd51nXz7u99iePt2/tv/8//y8clRDu1/GCE19bhBaOtENqRYLhEU8vR29/Hs888hcxCGEcbEdK/NMTk9R+QMkRTEIkaoCClChDO45jlL3bpDrYtx0hEmEfiaPYcOs3f3RhYXx4hdgl8sIoOYUrfhuz/4BhdPr+MX//4qp459ynOPfYPOQj83bt5ivrGAzpcZG7+KFIa+7i4kEoei3ohphCFxFHFr8iYusuRUAAakkFjhcMKgpKSrXKSjo8TM3BxzlTkSGTFxfYJcENDf28UNf4Ijjx1m/fBmbN2ShAavrEGEGJukNUuJIZCgddZyRDQwqoFTdayoEDFDyDROLKKFQUYJH/3hQ+oLDX789y+xdnCIX/70l5y5NIVAIJWXEg4VuKxMIIwqWOFQfoEL5y4xcukm//k//YT9+w7w6m/f4L2PPiYxMfMLCxSCgO5yGWct+w4eYM/hvQRFSamcw9Oabbu2cfjZZ7CRhTAmlhXKPRrhGaQHVkQYalhVRwQxsaqR6DpGNbAiRrqUIh9bS65Y4sijjzG0uYdGZRFpQOd9tFKZWofDuhAjNFJFaBkjRVomYGyEESGJrZOYHAJLHIeEYR0pNZ6niV0MIivGblVwtXE/YYm855becA5oKuEsbddLH8y0x1pyLZnSQfsC399oXZ5mwWpaK9TZ1Umho8zs/Dz1ekgu8Nm1axdvvXucl3/+Cms3dHDm1B84MryRp/YdxCYGEyV4StHf28PRTz/mt79+l65CkU+OvkdYB63zXLh4iaMfvs62zbvRohtPFTCUsOQplrqpVeu8/dbbaBoM9nayeeMWjn94gaPvHmXb7mEuXD5HI17km88/itSSSiOiZgRWCiBEuLBVIGusIE4sYWxACix+flQAACAASURBVJx0CAnrN6zjo49GePePR8kVYGb2ChdHznPoyCH6B8v8/Bf/Hw9tfwgZ+chYUdAdbNu4k80bt/Hu748RBo4ta9bz1q9eo7Ojkz17d5HLB3R3d/HJ6Y/491dew8YNTh+/hO91EcgiWgTE1tKIGxhpqUd1hjasZ/PmzRx7/33IW4o9gpNnPual732HHdt28unR0/zud2/ymH2aerXK+PVr7D6wi939O0lCgVQ5lJPYRkgSx0QYRE4Ry4i6qRDbBZyqIfyQxNQQBnJoyjJAW021EvHx2AmOHz9FkPeRzieJI5LEYo1FZMXNQjiSOMFZCFSJcB4q0yFXR8c4f/Y8iwsLaQhNe0SNiKnxCeJyjSnhqOsqXvejrN+4np6+ft45ehTZ00k5X2Ls0ghBt2VgyzOEcY0wChHCAhGWkNDWSQiJRUgiEhIbEzZCCuUig+sH+fDked45epTH3H6mbk4wenmExx5/lB27dhJHMUIGJDZGaAskuDhliILED3wWF+d584032bF/C4ce3svCQoWZmXk2DG3D0z6Ri7J8lV228G7j/sXtBR0rvay7UNdXitO0cZ+jpUSTXi0pBM4Zyl1FSp05Ll6+yMNzj7BlaJDnn3uWsCYZOXORiQvg5wI2DOxG2hwD3WvIKx8lLEcOH+DS2A3Ofniegd4BtqzbTa20QKA8yoUcldk6b116F192sm3jME8/+ghaKgbXrWXvrn189NFFPin4vPT9Z3nmuW9Rmwt5/913uHzxHNOVWYZ3bUHKHMJZ1qxdR0dXB3EcgmrWxKQFow5BUPDp7u0A5bBYYhPyyCMP06g4jr17hld+dot6VMXLg3w0VSCvLSS88Zt3yFGit3+QR558nGJfkadfeILpV2Y4+YczXMtfhSTghW8/w5oNA/ie4chju5iYucx7R99jbd9adu84TGg0UZwQ2phibwfFvi6ctFSjOrnODh576gmmFv7I8Q+P45clXf1ddHUN0tFf4pln5nj73T/y+qtvEEYRhWKO3Q/tQ2kNkUqLj53C9/J09/Sj/RzGSbSfo7Orm1KpTJI4nPPo6OghrhjKpTzPPPMU12/e4vV/fx3fL1HMdTOwth9f5zHG0tPbQylfRDoJiaOj2EVPZx0tLPv37uTSoYc4duwYZy920WjErB8awuGYX5hDAMNbhtm8aQNXr1zmD++8AwXFC09/gxf/7iX+9ae/4M1//y2FoIg1hv2PbSNO0nq53v5+8oUiSZzg+zl6uvroKHehnAILXZ2dNLwqkQl5/MlDzCzOc+7sWW7dvE5iYoJcDuEHCCXo7e+hoAKU1sSJQamArp41SOmR2ITh4S2MnrvMJ8dOoFTAo4ceY+rWPFNT8zxyZGMqDmwcQt056bVxf2BJGBr+f/be9FuO47zTfN6IzKz1rtg3riK4iLtEWiJFLbYky4tst9xtu8en+8x8nD9pzuk5M3NOzxz3eHp6rLathRK1S6RIkQR3EgBJ7MC9wN1ry4yIdz5EZlVdEBBFipYBMB/pEvdWVWZGLhW/eCPe5Yr3Rsqcl1Uem6VLS5plGSfPvM2RN58l3TGis1fI3RZ2W3qUy6mnAa8NdFsgXCxqIcyaeb7/zR/xze89xZ//7f/A5x77FGHYY3ApZ7jmKdSStFL2LWYkusXy2gamNcv8fActhqyuei6uOtqtGTqtFm7UY3Y2wzYDF1cvMNryJDKDnenQ3DFLI3VQbNFbU9Yu5jRmhMXdHZo2ZXBpi831Pj4YQmJIZzK6Cxne5CwtFTSzXSwsBIKcw1iHqscakGDYXDPkgxZzC3Mk1qEMSW3A9WDzYs5gZHGSYVueuV0N0kRYX1mjfymnIV3S2S6txRat1MNwk95aQW8zLm+0uy2SxQRte1oaMMOC9Y0hm71AM+3SSFoUGFpzM2Sp4+LFd7HNJjMLiyRsYX0fcS3WVjxb/RHBBBrzLeYWu6Qu4Hsj1ld6DAulUGjOtJjb1SZtBwb5JolRGirkWyMu9gU7s4v52YQwuER/bYMUy+KuNrkb0l+z+GGLPTu6GO1zfqnH1igjy2axNkWTwMxCkyTkDHvrhMTSmunSFKW/usKGc7QWFpm1DUZLa6yu9pCshSaQdmKQ89/9n3/H6qU1/v3f/C0333SA1994lf/tv/xf3P3QA3zjG19ntttk+cwSg80RBEuj3aK1INgZj9uyFOtCZ8HQngvkm32GGyOklZLOtJHCMlwb4Jxjx65FQOj1Bqyv9MmHimk0SVsNZheaNNLAYHUT64X2YoLPcka9Blurhs5cQmsmYEaBwaU+ly5tsrB7F80Zyzf/6e956YWj/E//4//MwTt20wvLmCQwKfJSD7+vFcosXu8hxsWBFcPWygB/qc1Dt3+Bmw7e8eu8Ad8vbWnNtYiIIfiAyogHHvwEP3v+OU6+c5K1ew8zP5vSXWywY75JoQZvQWWAA2ba8wRJGckIY5SZ3U1mdjVihVqR6GiAR8WzuHcxesnRwBlwdoDTETb1dHZkdBY6hLJ8vNOC1g5La3ERSPAIwQSCGWCMY8+eFsE7VIaAokHKXEgxdqw724RuCzEFUKBa4PFkrYRdB9p4bVFIE29ysCMEz8LOLjvmm1ht4mygsEM8I5KWYy5rMr+zBSSoCLkd4ExO0LhYP5d1mdmRxRyBQMCgZgAU7NwzRxBABoBDrSDGM787Y442AUNuA05ybOJpdJW97QU0NHEiOBMIdkjhB5jSUvRA1s3Y0WngjKK+T5IqCztmEBWKkGMSobvQwGqLYHIU2HloJzu0CWSogKMgmCF4RzfLKFC86ZGr0pxvYKVFMEqgT2ePobNrAa8ZhSikCT4PHLp1H+cvnONb3/0n9u7Zw8lTJzCk3H7zXSRpA2cdC3vn2LUngWBRawh2gDM9spkUWhnYAYUfYBvKzGKTYKBghLWWucWUQAMvOYLS7iqd9jyqGUEMTgRsQSCns9DEqhDsCK+epKnM701RMyJnRMNa5ne26cy3abS6HH/nLc6eWeK2T9zF/kM340M/OhrF/CAT17G6U7s2+DV2zraVqqkclJd5A04SRo7jrGqubS774mmZCNWFATv2zfL5LzzGQNv44Cg0gHEgOR6hQMmNAwo8oET335iRfYhVS5BYF1dEMVJ6jAYQUyA6ivnb1KNUThEjoD92zwniya0iIUFIUJW4gKoFBIcxHpERiI/PXClUvgxwVhmB9dXZRbdkUTAeJDqGOAYE8YiEWEregCYBrzlqPMHkFDgcnlQc1hcEUoIxBBmhDPFSTkGKRzXHS8xfGGtcJcSpSY+RuIpb5bhDHGpGZeLUJKY1EqWgQKzHUGDEoRjURgeE6FodUI1XDQkYAYvHqMNQEMb5b0OsqmVHBPXkUrkKBAgjRGwUK3WoOIyNC9SegJPqmsUQBKHAG8fQjBA1qKY4LF4sWZbxmccfptFIOXHiPBfXL7Jjzy5+74kvcOcnP4nNAn23jjWBEJLouIBBQ45qgaoDOwSJgwprQllFOfYmahWvgqolSIJU5yUOJY+lLI1QZnDE22oCqMwjaQcoI7xxKB6xFjEeT9wsaQh3330n+w4cRjKLE43lQ6ienakExHW3ds0iKmNviSq5tJQDxyRmniaW/B4Hz00yQ0/f33pAcu1STf8JMVq/IFacffizn2ZUZCRZgfooLkP8OIlsLLER88kFUYxG1/AggpM4fRLrKylV1pr4mLhJGQbV0nVaEWzMUF6muQmlw46IImXi0tiHhihcRkFiAlNry0S1ZbmIUMpCtKgm5+o1dnViDAGHlm0JGiYdklGEEV5DmYYKBBPbaApUAl41JtUt2+5VEHUxea84PC6KUDmmE6OEUPmUxa+UN4LHkxgw4+zgoFrgiMlvRUN0tUYpLzdS+h8a9VRVhW35b+UsE7tZIajE6ysF42+hjEpL0jIdchLPqxLSeK0QMCY+IUogiGCMlolnLUhCCLC4Y4YvfPFxhiOP84EkS2l323g83vQQ7WGMEMa1pIjtlQAaIFSFI8FLlactPj+hFOUqu3rQeLZqFWVUnmn5HFHd/8nTLaXoooqWVqpogaZCoM/8ri6f/8KjYDsUuomaypW9WveopwGvdab1xogpU/5PvALjt1BD+SZoCPGRDh5rTfmQ1D6B1ywKE5/NyiKO41NvAklTSJsW54cQHBjFVV9gjQlJYykFRSj/LivkepHyUZl0hlIds6xoG/vESUGHuMyp5YMXhSpIJaZh8hyVD6LgCWV5EQ3ThRurT8YM6LHaRPXwGgJSjtod4BAEKwatylzEibCYrR0hkAAWNYovR+9qtvuIxUq8pZBLtFTQmOR2/EkTxmerGIKAN3G7ZNwOoRof+tLSgGhmGBKUpBwAxO/d2MqIZ0UpAdFCxMTRpvjSSqiO7UprNN4/ETu+j2rieQsCUgoFQmVnRPGOGdUDHlU/zoTf6DRpzrRRI3gNOL+F1yFBhxhGcYAh8U7GlgQklIOKcqSwfYA7uZehsggBpJRn8YCLd3SqPIpO9TtVy0tbrjx/xVWCjCdtQMMm5G4YrTwpkHKbmmubylHdVP1KZWSXGLGIWJJx16CG4AW8x5oEayudi9M2V09ZUttcv1smJnLkvdd+OnTB+SEaivHIWlSwVYdX1vsR4vTMRLQEqzJVmXZyjLJi0pRwQDVcLn12ptoU3zeVRTbd1vF042QUNXnGpuP6hG1mVbkPQxWPIUxms6dl01DlYCnDjqDqYssO1+j2aMJ4KpU1YDFqt+01Yqe2EKyCCfFamfF1ZWzxVIOJaaI1ImN52n4vzfhaTntLidpt+1Eo79e0IIzHpWV7mHp/Yp9M7r0l3vEoAU4czvcJxWCq6aGcWhRE0qhHOpl5qQY2UK0PVbW8JsOnqWJY5TRPFHNbTh2P71U8qcnAaHxTyisrcZrIXDZAgyiE/SIHsZgqwH1b/bS6l7q2qAYdl/Ut5XfaUhbYnLqHSZx2iTV31Ft8oRixKB6ngfEcIWwXLKm9Af91meoEroiW1o8vP3r55xVM2LZGWb0eJJQj/2kRqo46Kfh31XZNja23PyWXd9qX/yVXemPS3imh1qu2o3qfK7S+fH+qKODkZWXbMXTqOHKlmkjbr6cK49WRK7e9opqaqqxIHVskV93k8jektDtU0MqC4kptfB+0krM49egMcZrNbpfFMDGHSwErqyVv29lkbQidlk+Jz141lJEw1UFN5mxCuellT2i5y8mVveL7MK6RJVJMPcvbxb0Wq2uPqrCqanyuRWPKtxBguDXE5m2sTQiqJOOxsySEIPS2clrrkLQTxBTjKRzgsi9VLVb/+kyPyt+P6c4epuMX3rsPvezfy46o73ffJ52LyrSkvJ/IvR+Xt/VqYnWl7a70/tWe59/kONW+PmwXOC0uH+R7dHk7P+j2l+8LJucxPQm3fdDxwb7vlXVV7fvy411+3X97VKosPFc7Ts21yWTZQgGjhiJXyAuG/YJ2kDLZs1TzJ/GBstbS7znOnh4wtyOlO5PGUbZcaQxbi9W/Pu/XWU53ONOvXf7elcTqvfsdTwz/OrG6bLp44o7wflxLYvXrPnf5sT6sWP0m+78SH+X37vLpx6tdu+mBzW+2318vVh89lVjVXD+UZlIsOCrgNE539zaGFJtDRpvKXLcZPymmsqwgjoYdGgKDXsFoOGSrlWHwY4Nq+6xTLVbXBh+0w/zw903KzT/Y0SbTctf2PMyHvS6/jWB9GD7q792URaXTa1/TU5Qf1LIq5erXTlN/tNRidf0R+xNFROMaqsQ19NEox6jBucr5SlANkzgrMYEYtzJAbI4PMNg0WI2LyMr7LJHU3NCMu+QP2R/Uz891wG9qqP4GxOni36YxHwyVeuh8PbGtPxlP8ihqXAwmSR0+9aiNydWNGJJJJ6JAgTdr+GQdggFmCD4lkAGUnlIV9aNx7fBBLasPeYQPfcvLqcBrWqx+m+f5d21ZfdS81yHhvcf7YMeNz8vv8LpIbVddT0yEKhCnmU10srCeQkeQeIbJEJ/sR8uQjmQ8RYOCOLzZoLBLYA1BByBNLK3yEB/C46impqampmYb09PMUVeiWBU4hmADQ5tTmH4ZizeuZ1VuXLnrihCkQHULGBDol5+pxy41NTU1NR8R5Zro+L8mELSIeR3LeLlqtTSZNv3jImWMePeMCCYniCKSXOVINTU1NTU1H4YqEq+KtwIxChpQSQkS04NVzj1jFZpEKUySnKhW9YPdv8qp1NTU1NTcSEyFn+j23DgiBg3l+1Jlt5Dy3amy9uOfaj9lfIVKmIpgr6mpqamp+W2poqym5GgcJmGockNOZztJqrnCmBLFXObBE4P7TOlWeI0HytTU1NTUXDdUmlKm6JLqlYlNNa04CehUjMJ0UOAEmfpvTU1NTU3NR4WWXoHV6lXMJzk2o8pPlemWqrQoOiVLQpVkpXztA2YuqKmpqamp+XVE6blS/O72ZSkoayuoTFwrqqm/KlhYqWYWa2pqampqPkomq1LTib5krEhTltV0tmItS1UHqkIQetlua2pqampqPipkbFjFYqGTVF2TGmeRaFmNf6raM+/Nsn5tp8qpqampqbneGIsSlTiV83syWY6qSMbp/KdcBKFen6qpqamp+ZfnPYbRZX9LWfx3Wz2rbR+4yoY1NTU1NTX/IozjfKeK0ghVpeArU1erqqmpqan5FyXO/I1/r1ABTJn6T0OVG7CmpqampuZ3z9WKsk47sFfTgOZ31KaampqamprfiCv5TNRiVVNTU1NzzVOLVU1NTU3NNU8tVjU1NTU11zy1WNXU1NTUXPPUYlVTU1NTc81Ti1VNTU1NzTVPLVY1NTU1Ndc8tVjV1NTU1Fzz1Bksaj62SFU8B8Yh81erLiCX5R67ehWC6Z3+7pGyCXWVhJobjdqyqrkBef+sllVpAlGQqiwB7xWlbduM963veXX7ca+SR1oF1JT/Xr7d1DZ6eXEEveznsm2m96fvfx41NdcjtWVVc2NRdfSliSFalbyZqtEmlThVVpCBcQnSScVSxn9NC4cQJG4b9z3JwqmYydYy/V4UqEkZHkEJU22uxozldhLGFX7Qar/TLdjeLh3/d9IWGV+LcWW7OjF1zXVNLVY1Nxil+GgYi5IZz4sJKlpmeQ7EcqMJqgYkAGFbJx8LkcZ9Vh19kEriPKbcR6yqbREsY7FSh0oo22K2VYwbt3OcxXNaHgPg4yfUlPuVcfHv6d/imVWlvxWReAwtrSwjBtWyjf+6s5M1Nb81tVjV3IBcNl02nheLHbuqlp2+lBaPia9JrFCq488CGDRUe4qWj4oiGrClNeanSxtMiQcaSgEzpVQFRGW8f4wSxanaQRRMpDSwys/FfU7aMd6/eBDwGrczKGJMPJoKQWtbqubGoRarmhsL8eNfjRgChsI5KvGyEksOiNiqaA6UwqXBxNo5U54XRhRTipgPDufi+16j5RMQvEBQR6y+UwqhKGmSIGpBDBpCOas3ERDvXBQ/DZV0lu2ZWGKKR/GICRgMRgxoPF7wBdgUMSlGbBRiH/DqIYCx0dKLJRZ0+9RjTc11Ri1WNTckGkBtXLtqdloEHCE4TABLEt/3k3WfoEqWZYgVnC8IIWCtgaBoCPgQSNOELBUCBUYlipWA2FLNiNaZNZYidxSFxxc5SVKtIkm0jgREhKyZouKxNi0bLePPQSWvcTozOMGNHC4ARkkzpdNuMBx5hoMBwSuJMRgrtNsNkiRl0B/hXWXdxWMCaG1x1VyH1GJVc2OhNk6ZletU3udcWr7I8tISIQTSNGX/vn3MdDvlVFsCGFQUp57zp5ZZXrpECJ40tRw4uJfubBsRg/fC8oUlli4ulR1/tKCMUUSi1SMitNsdZufmmZmdJWmkDAcjNAiiNlo55XFXLlxk+dLFssBcVTLVgzjGk5YKWaPBvl176HY65EWOiDAcOc6cOc+5MxfZWAOXg7XQ6cL8jjY7du5kcWERa5LyeHHlq54arLleqcWq5gahmroTfIh/C4bRpuMXT73Lied91IEuPPYnhkcfvQ9fDFANY4tjY6PPj7/3DudeLB0cUuGzX3c88Ohh2p02Z09e4Lv/fIJLb/iJ09/Y553xMplpbrL/9iXuuKfLTZ/YR2uugRhLgsF7Fy2pwvKL7x/j+Ese3NRpiG53hAjATuGP/rjBAw/uwhpY39zk6Z+9xevPBdySJwyrbcGkYFoF6e4t/vTfZNz6iQMM861yv7VQ1Vy/1GJVc4NQTnFJXFMSUYxYwsDSv+AYngWGwAKsLVvUdwl+hLEeCBgFUyT0zjuGp4nCY5XeckbwKY1Gm431nPPHHf4UEx+OyXJYbIIFjOftY55Tz67R/cQWX/6LvRzYtwdrhSLkGGtIiwYrRwsGR4nfwtHUfqb9LjxwSBmtN5HQxPcH/PzJt3j5qYJiHeiXbagEzwCZMjjnePvwOrv3HoBUEPGY2h2w5jqmFquaG4wyTkmio0NTmsyEJoyGkGdQeBK3G/FtMKuoFAiCUSENKc0ihbyA0IHEkbGPQBuVDPEpjRz6IyFlluChkXaYnVsgkNAfjthavQCMoDFiOPCMLhX8962zfP0vLYfvvAkVhzFNkqLJnGtwPh8hRYovMpKkSbvVJEFJtIERy2ZYo9k2dJN9oC1OvHmcl/+poNgA8iYUTfYu7GV2ZgbEs762xfLqMiFfpVhrY1wbaY1Q9WXGDh37OdbUXE/UYlVzQyEIEgRsdN02IZD4EVKAugKckoUsxiBJiAaUsUhQrHokuGjZ+AEYxavFkYGmJCokDigUr1tIlvHwZx/ic0/8HmubG6ysrHH0jaOcfuckKxdyzEgIQem95Pl59xQ7FnbS2d0BkyAYjEJwIImD4Dl0+0088fnPkCaKCVFsh2aAbw3Zf2uTrd4Wb728TLFJtBKLEfsP7uJrf/RZ7rz3dnzIWT5zieefO8Krp19gfq5NliRIkpIXozIGizrequa6pBarmhsLZeyqLWIwOJKgpAohCMGb0ovPkcsApAAUSwE4EtEy3CmAWiAlkAEJxkOqkPkYPtyZmeGWO/dw2wMLrGwOuCnM88gTX+DEq0v84B9+ydtvXSAMlVGxwZkXPEfvW+aBXZ9AUihcgQkx3ZPF4oJjzy07+dSXPklgHfU9BIeXGYZhiM70uNQb0V8x0MswPkNszqHDO3nwS4egscLW4CK37V3k0B2P8NDKfvxMgTGeYjjCWhPd77V2X6+5PqnFqubGYuz4YMo4q5geyQsEEyCxOBtw6sDGBEvBBKwWGJujCsbGHQX1ZaYKRfDjGC4VcD4w0kA/GbDZWmbAGazNyZjlnsd3gX2AC//pW1y62CORFLeZ884bK9z2oGP+QEJBTjAOFfBqwIJreLaSi7jkLKJ9BEcInsJ5UitIyElNACkIAmjB+Y1TnNk6ys4Fw0gu4P0SnT0L7NwpjEyKsz0MMc4rjOPHakeLmuuPWqxqbiwmqfCovLS3pYANAXFCYlpYbREkx2KxkpJrFKNQAEEhi2mVhFBmvAgxZFcBYxipY1M22EgvsOHOYNhi6BuY9hZ77mpw+0MLbP5kCylauEHO2jmlt+bYsT/FJAY1lWgkoDkj49i0Fygab6FmE+8KrBdEUmwySzMRWklKUqZ38ppz+tgK//vf/QOPfmmRO+7dRasLfX+GnARMGyM2ZtrQWqRqrm9qsaq5gYmdsyljjBIR3JZy5Kcvc+b86wyMAwGrYFXRkXL+bTAmriXFzR1K9BgUFYzGLBgELdMNxtdEG6gGgkDPbWBnZrnp7kVeeOYkbjgEAxuXevRWejRlAW8os6WDxeACDDZG5FtDTOoY5gOCQiIJFk9QR6PV5tZbD3HEXMAXDm8E3wssPdfnyTNDnrv9Avc/OsPdDx6i023SH4wQEjymdKzQbRk0amquJ2qxqrmxqPLIMuUJLpPM6+KgdyKnfzZHE8Z5+KrtQg8SHesI43x9TJURmTpWGMd3WbwkOOMYmZysPaK915B0wfcASXCjAHmDjA5bRT/m2hWiMpqEd185xn/+X47i2o48BKTMx7vvoPDlL9/BwR1z3HHXzdz70CpHfvk21lu8CqrK8ITjwnLgh++s8fSzmzz2xTZ3f/J2Ag4NSdnu6fWq2sui5vqiFquaG46p0k5UhT9iWY84fcaoQD1j5RknP1egiDOAZaIJysApptLHbuvyjVqspmXX73BArpbUNEkbXTBgkxTvFMTipRF/dMg4WW4okERwF/ssr8bpx3GbCnj7Lth8xOB2WVq7E/7wrx/DNDJeeeEE/a0RFD4KbR9GJwOjC4GnTm3gvnGSh37vXgopCKHAlhamjmW8FqyaawctS+5Yc+Uyi7VY1dxQjC2qUoS2CZdET4u03abdbKJFgbVJWbvQ4X3O1iC6eFffjKtPmpXWWpkjEDWoRFEsjGHoRqz3VhmMiHFbqviQMiqEkTNlqgmDiMeKxzsgLfc6AqsJBqFwBYmCCTsIJqFnVujesoM/+Q+Pcdf9d/GL773AmbfP0x8NY2CwCBTK6G3lp99eYc/edW66Yxf9/joaFDF62TnUglVzfVCLVc0Ni5SqpVUGo+BJW5ZHP/cgn/vco2goQD0iglfHoN/n2//fdzl5fJmiEo9Y4GqyT6ry2lXGDI+v0lioxRKwOPLhJoPeOurAGIuKodVpMDfXjUHLpeU2tuIC7Ny7gwc/fT9YJQmxjtWGrtM8CLNzczHje+LZypeY3b2Hh794kEM3L3LyrWV+9cxrvPX6OzgXoIiNHBwNHH/5HAcP7SaRhKDuMvGtLaya64darGpuKMbrSmPzatIRB2K28t2H5rjjwf0E7RHUYY0hOMeoP+LpnzU48Q5T+qRT3oBavjJ+iyBKkAI1SgiB4Ho0Ww1cgHeOnQFXJstNPIuLs3Rmm9jUMFJPWSGrnAxUDt9zJ1/7i69COsR4wSD0zRb9xjrOrjDMV8j9CtYW5LpGy55j/vB+Fg8e4M4Hb+Lpp17kx9/9Jf11jxsJ4OidM7gNYElclwAAIABJREFUJZtrMQw9JrZnoLasaq4narGqubHQ9+aCnXoLJ46BbnFpdJqBXyqn4SziHX6k9MIqbmI+TYlfDDIOpfMG1oKL9a1GwyKWFVFHs2GZa3V44Zk3ePOIhyFkWcKAEXv2zDA7m5G7XozfKhPoBhKgwLRSbLdgIMsY8RgNBDPEJEPUb5AlnixrIzbWrRoMt+j1j9NJdtDaMccX/vSTvP3W67x15BL4FAqDLdrY0MSE0tzCT12RWqhqrh9qsaq5sZj2BpSYJzDoVMyVCRR2yChbYygXUAoSEqx3BA+F7Vf1GMt1r9JNo1wDm1Ty8JCkZM2E2YU21jVj4cZ8yC9+8Et++s857lI85nAwormQcNutB5mfbzMozpEZg6HK15cCBb28x4ZfYpC8izJERGMdLhdotzM21zf51a9eIUmEBx75JJ3FlGE+oOdOk8qAvLiEM6sxhRQWT4eZbBcNM0fhVsGYWMjxd31Pamo+AmqxqrmhUIQg0R/dlNVxdcqPPWj8cQS8OFTKdOVa4NXjKqWLO5tM00npQFF5sosB7zl57Di/+MlJ1genGA6UwZry5s8L8tNADpChxnPXvXdz6Jb90StPlURAQiir/sbDWQvGekzi8aasRiwGlxdogEtLazz9rRxGcP7Uy+y/LWNx7yxZlnJi6QLvPLfGiZOhtJ1ykk6T7kIHk2YEjQ2X8cnV1Fxf1GJVc0NQxboGqapraJl5HSQQZ79CgsGWOf8CwRR4yVFR1Ofj9EtxIwvq0ZDgg+AcGNMgOEiBhp1hazPn+HdP8+6vQBOPDkBzcANADRRdcCNuvvsmPvv7n2ZhX5s8nCIRh/VCEhJscBjN8AzxXvDBE4yjsCMcYMWAhxAceW9IvgxswJsXCo7NOsyBATOLwuY7ijsZcANIDRQhsGvfPLfdeQsmVfJ8hEkq1b6sAFdNzXVALVY1Nwxl4fj4hwYEIcGQGLAJeJ9hrY3xRh4SY1ERVMCIxRU+xl8ZQNOy2ojFlK7pSEqSgpcU4wJNhEKE0aXSOsuJnngABJpd5aHHHuHTX3iAPbd3yLOLaDJEQo6RBl7NOBYMQElI0jbGpARyPLEwZOEc7QRmuy06DehtQmgm+IGDZWWUgo7AhHh8rwk7Du3k81/7DPtumWPgTmBswfYIsckVq6m5HqjFquaGIvpGBIxqLMERlG63TZL28d4QREkaGSKW4CSaIeU6VLvRIk2IVpgAjYRWI6GdpXjnaHXazO3ucv7EkIYINhgK6WKKQJI2aHbbdBot9u7Zxc79s+y+ucutDx8g3RNYdycJyRaYDcBhtEXSSTHtHBEHjYzZxRkKV+BMKN3mlaCBJE1R9ezfs4ev/+lO3nnG8O6xJVbWV8A4/GhEKg00CDNzXe66/w4eeOIwNz2wgEsuEMwmiVW2O67XIlVzfVGLVc0Ng0IUKUCIFlFnpsHDj93HTYcy+r0u6UKD3Z+YweFQsXE9SgNGAmkKX/nDz3LxrhbBN2nMJOy422LtkOFog8XdTb72l4+zdHdOKjNjywhrsIklSRI6rRYH9u+lNSMknZxVPc8WW7i0jzeV6aWYVuBTf/AQd96f4lwbTVMO3LkXJz0CAROUVKKlaJMEDUBqufexQ9z+iQUuvLvGytImfhQ9EZNGC7WWhV0LHLptN7P7LAO5QMEKanOUUFqH04moamquH943Tr+m5nqgCqcS1bJ8e8yRblrCTXfu4vA9+xDZwUbRZzOs4e0ouvaJRXAYgSRV7n34FuxD+ylywTaFi/40q24ZIaeRNNh96yJ79u5mcWE/RTBYYqYJ1YCK4rVgMFpnyBY5mxTpOnnao8DjEYwECGDTgpse2EtLFjDaRpOMfhgykGgtGRSjMp4mVAwOJTTX6Nyacu/Nu2m42+itDdAgZN0ueQLS8IzCKpthGZ+sE+wQpyMwMkl4WBtVNdchyWUFFGpqrmuCSBnuqoh4jHiCHzIIirJBgcOkBV6GiHFlsK/gVfAG1vKLuGKAtU3CyLNleoTUkgWLBkcRNrCZY3nQxxOzTKjzhDJNRpBAIKA2oDJCxaEexMTP2iCkxNIjfb/G0PXJTJsQMrwFL1tE6ysAdurbGYUr2Jyev0g/3yTVFslMAigjewkngnc5TgdoOkBNTiAgYuMVkbrwYs31Sz0NWPMR8tEN2z9sJQstvQFDzK+EsR4agVG4hEkGCIr3I9SUcVhKzO0nkOPRdIBLckJQ1AjOlFHGRlB1uLSPY0ihoGJjAHL5fnQOL13HjYCE+E9VXkRiVgoJ4CmgESAZMfCbBImJmgIjjDiEmI9JZDKU9AIqI4IMMElKXggiZUkTTDmt6VEcanwsC6KKEfuR3JPfBZdlt/pAaG0x3tAkUzH6294wItti3Wtqrshk/o2PNteclHv5TV2sJ9HARiZRwIohiEGtwWlcLxKjBI2Ta1KVVRQhVwUcQRS18eiGMnsFihcZt4oylisulJUefWXFRzt1CeK2UpYiiZaNr97Do1HNqHzsBR3nMhSik0iZ6KIU4CpZkkeSGEnmJRBX6ioXilAGG8dronodfZOvkn3k6s9UeY7VxjU3LKVlVQ9JavgtDKNKUKbE6iNwPKuEQa/afQl62YEq1/UqCYUKOKG0OPxUXafp+iAxXDYIqITojFAeXZBxx+8hBm2NM1tI9f/x2Ytc1h6N+6iSnU8ywYexwGmZyml6u+rTlaUxqa9VBjrjr5hkd7KtROvshqK6I1wmTnXM2MeBehrwY07Vt8ZaMmVH8KHHLhMLfWyBUBo5H2Je7zfbYntHdUX7rhqtS9UMM9Wnl1to9adMa8X4d9UwEYOx1TKZtpLxwa588YwYgpZByjoRLZnsavv5lu70ISjGmMnlEyUEMNZEQVa9LDXU5B6ofvBrPn2brsVpNdXS8jTXYONq/kWpxepjjladXDnaFzHRPpnu6D6ExeXxhOBJrEXK6bNwtb7zN5w9HFswGuOPQvBYazFiS+tkqteftnim9jv9e1Uh2HtPmqbRZgmV1cX4mky2le3bXmGfl+M1xIS16nDOReERonAZSqWaFtxqAhCcK+J5iH3PxQnBIwK+/DctCzxObMsPx7iqskSfyuDDv7ww/EbPVzk4kLgqqCrlWtyUMNf6dUNTi9XHHBHBeU+WJXGd0vltufTGFpLGZK7jGlHT5kq1r+oXFawx2KRcEVIlhHJxp/rsZT3qZKpvYuVM92HTk1uIIATSLNalDy5gjC33Mum8xkbSr+m9jbGEAEXhSmcFKS3B6bOavHAlA/G9r5X1eFVJEktR5KRpQmoSgoZYCTX4sZUAUgp6eTyNYpRlKc4XIIr3HmtTNIS4X2swBoxVgnqKoiAx6aR2l06d9mXG4nvbXl6zUr0L77AmZviw1o7PpdqBbLv/V7sG269H3PS9gjIp5VK9cvX5YxHBWINowLsQM30EHb+nv5VM11zr3GiT2jW/EeW6jgg+FLRaCW+/fZRnn32OwaBPNW8mBjCKih+PuClfExONguk6T1QdhlEGwz7nzp1lfX1929TcuAVC9LATHWdHF9HS0NDotBBd7WJpDgQViQGzVilcwYkTJxn0B2RpBpTbmgAmFjes2oSR8liMfw9SVvV1OUkKjWaCTeKxtXR+F6X8MRMBFaXKvlT9xLZW+wYVH6+PEZzzWJtw7tw5Tp0+RZEXpGlGljZJbAoYrBGskXhcifsy1hJUWb54kRMnT5IXOcaW14aAMQbnPefOnePM6bOEEMo7EW+clvfP2EoorjRZWl57U7m1x/vQaCQkqRDUETSKqpTPS3wmqus72Q+GbT8qOvW7Hz8z04hU99+DCfHfcSsVxZfHiueMBo4ePcZLL71CURSkqZ2afq250anF6mPHVEcVlFQMw40NfvbUCq+9UJCaJgRBfSB4jcGuhLhmo1JaA7FTEYSYgy927EHjVF+WpiydXebJ/36WN195h8R2CN5E1+0pCyKUaz9aOn2jHsbTZgEpLY+4XyndxZUsTblweoknv3mBs+8ukSUZ3rmYBFbDWGxMnGcbd+JaHjPWpDIoBjFx/SqEgKqJWdVh3M7obD4Rq6CKDwGngUJDObUZ9+tD6SpuDMF7CGCCJaXB80+f4YVnltA85firp/g//tOznDu9SjPt4F28zpUFF1RwLpDYlKNvnuSHT15gY6VPKikGIQQlSVJEU448e55nfnSRkKeIJBQuEFQwxo7dESQq59gpYTweEBPbWh47MQZfFPjcYYLE96VcL9PKWaSchvXxeRjXDlMl+PIIpRUWnx/FGhOfIw1oiN4iRiwaGA8wQlmxWcQQl+EUKV9XAiE4mo2M86cv8ePvDzj1zjJp0kKrwOlatG54arH6mGITQ+EdM80ZTr5+hksnlDsPzbGju4/glCQ1iClIMsGmCS44VHyczkos1iqYAqwD48AWYAoS45hpNZGhsnIq0F8FwxzGNMdr/1EqAxiP2IDTArEBmwpaWUY2gHWocRRaUJBD6hHxNKzBrY1Yezfgeh5F8ChpmmLTBJMkJKkFCeWI3SE2kKSQpkKSAqbApJ5GI+PNV4/xj//wPOurI9rNOTTIODYpegMaRE0MARaNMUzWI0mARMEavMa2JqkltSlpmmCNkpmEhjZZXwpsXAykxTxhq8H55ws2VkY00g4ESGxKo9FCrMEFj7GQJEIx8Fw8FWCY0E27pMaSpBC0wCD0Lga2zgQk74AVgjhsGqfLkASsxeHj/Rv/L+ApEOtJGwlplmEEWlnGcD3nZ997iRNHT9NKW6BCEQoCOTb1pGmc4hXjUVsQjAMLaWpI0xCvrwFrDEliSZMUaxPSJCljxhyIQ3HYBExCvGZpQmot1gpBC6xV0tSQJEQrjyFpptx68E60B2+9cgGXJxiTAqAhXPVZr7kxSKQeknzMmDgPBBwZM5x8bYNGAXff+hDGtXGFoOQEydnc7KGSMjvTxQoMNvtsbWxhM6E92yZJU7xXrAFxOasXN2BLSPMmXaCp81g/gyu2CMUmaZZgbYpzOcVghE0NaZqQ5wXe5RgxbGxskaUJ3ZkOxgppavGq+KJgbWUD0xCyIqOj0LYtTJJibcbW1ojNrR7WWubnO6RJdJ4oCocGR5qk9LZ6mMTSamUkNsENlHffWOHN55TDtw7YudggOEtBKKfmINbGEgxKalNGo360ErwyHBUktsnMbAvBs7U2YLiV02wndDtNbDBkkmFd9O6zRZs7Dt3N175RcGjfIdQZ0qRFf3PAVq+H84FWt02zm2GCpy0NWjIizbusXxiwMdqkMZtgUyFNU1IPaQFp6CJskDVS+lubbKwPaKZdWjNNGu0M5wqMRqvHKyRJQp7nXFzegJAwP9fBNhJWz/d48/mCJmvcejDGcCWNFGM8va1NNjdGWNOkM9uk0TIEFXwRrVrRwLC/iZGUuYUFiiKwtrHBKC9otBp0Oi0Sa7AmOsP0+n02N3ukSUojbSMIjaal1cgYDkesLm/iQmB2dpakYRkVOTcfvJ19s+9w8tiQpQs99h+aZ239PDapK3Xd6NQOFh83NJo3PjjSxDLaMqyfTdg732DP4u34fMiZ42f52c/P0WzC0lll/oDwH//j47z+2ss8+c8b6EiRDG6/V3j8iXuZX5hhc3Wdnz71BkdfDWScxQ6U4SrMZ/tJ6fLD7/6MzaHjD//4PnbvWeTY68f4zj+/y6ceaXHvg/fy858c4a3XIBHor8f1p/seFj77+QfpzKYsn9/i+996k/MnlI55F3cxEDahZRbQIuWZnz/Pi887/EChEPbeJnzla3ewMDfHcz99kVdfhlYKG2vR8+D+R4Uv/f7DPP/jl3j154pfh2/9P8c4cuQdnvjiPRw4uIPC9cq4KSHgSYxFSDn+8pv86HsbNBow3FQOf0r48lee4PVXX+YH315Dh4q0hLvuEr7+lSdIkwY4SEyKDU1G/XXefO0UC3tm2LN3F7/8+Us8/1yP0UBhBLtuFf7wKzezcOggmWtSrIz47n97EWeEXhHYfRD+8t99hmYzwTiLDQ1wTVIbeO4Xz/KLnzh0TZFMOPyA8Lk/eJBOt4HLh6gKqW2wdG6Jn/7kHc4cVfDxc/fcsYfv/sM51k/Az1d6vHLk5/zel+b41GMP8uKvfsUPv79B0QME5ncLn/vSPj71qQd57pmneeYnq/Q3YTBQ7rxTeOQz9/DMM69z9FVFS3G682Hhq199lDSFV199gx/+YJ3+pXItS4W5BfiLv/wks/MZ3/xvL3P6bUULSGeFJ77c4f4H72WuMcfte2/hwpE3uHC2x4FDe7HGIiZ8KFf9muuHehrwY0kMF01tQn/LsbkF3fkFGjMNUAcjZeklx6mXHZ84NMMDh/dy5tgS3/6/V5lpO/7yr+/k0w/t5vUfO9564Typn+H5nx7n1e87Di5aHn3wVgY9z2gLrMnIcFw8N+T8CYfPUzLboNi0XHrdMbyU0DILbF5wbDzvGC47HnvwJsKW5/lvOZbe3iQt2jz75Ju8+xPHXQcXuPPW3YzywGAL2o0d5BsFJ44OmWs5/vavfo+7Dzc4+XTBC88cwxYzbF1wbDznoO/49L03YwrPr/7RsXFWOHzgfvbMA2249fAOPvnJe5iZmcf7iSt8LC5fUOAxvsloOWHwC0fvjOP2m1sc2nkLp15d5Xt/f4mDC45/+2/u4b47DC8/XfDSi0dR26Dw4HGoydnsX+TdtzzDYY/BZs7p4xvMpI6//rMH+PRDM5w54nj+J+/SDF0y7VBcgvXVgsO3H+Km3Qu885TjxV+cBN+ELLAVBqTNjGOvnOUn/3XIrq7jb/76AR44bHj1lwVvvnAUKeL6U2JTbGjw7I/f5p3nHY88vJMvfvkQSfDsnD/I3Yd3MjcHt9/c5aEHD3DLvjs4duRdvvNf18gver76uft46M69XDji+PE/nSFfMszpLGdfcqy+7tg94zl8612sXyi48G7Bg/c1+caf3cXcrOOVnxb01gJrywU/+t4KG0uOLzx2gNv3BgbHHbvmM7rpHn7yvRd5+0XHpx/ZxZ/9xUPYwvGjJzc4e2pAp91kx06DEVi5uEHwNuaDvKI3Yc2NRG1ZfQyJC+SORtpkbaNgY1XZdTBjFEYk1mMDpBl86bN/wJf++CHy5DQ/++kPyZeVOx6eo2t3sKe9iN84xzsvX+L+Txa88UKfdge+/tW/4a47byHzT/LU957GFQ6r0E5gkEBiMnwINEKXOQvzdh9pmCH1bbKFPn/1p3/IQ/d/kn2zL/B3/+UHrJ8bMdhT8M4rjptumuVPvvoNFnd1aNmneOpbR9jYHHGws5tv/PnvUww9s2aRO3bczSvpc4xWG7TNHjLfYfZgj3//F/+B/fsPcmDHr/i7//xdVs4oj3/q07xzeJl+/hYPP3Q/dz9wK6sbJ/G+jykrBytxLS2Iw4aMbDSH7FriG3/0p3z6c4dZH57iH//+B+TnlLs+8zCLzV3s63rc+mu8+sI5Hv10hySD3EXPOwyYFqAw0+7y51/7Kikp5JDPK137Am7V05JFJG/QmoM/+MoTfOHLj3Pu+DLHnvtfOXtsBfv5BtIQijQgJuHIM0cpluHgwwfZ0zpEvjjkudXXOPXaOvffZ2nOtchzR2oaaE8Ja9BhJw/fdz963/3Mz7XQ+2dYOfE0995zF596/F5MMuKnT/6SfEX5d3/1RzzxuUfY2Fpi7dL/y4l3l1g50WNvax8tOc6Djx3mq3/+RaQ9Is+3uOXQbRSDIcXIc9OORc4fX2HtgqM7lzFYU+65fZ6/+uO/5tUXXuKNF77DXbc9iOs3ee3Zgk4TdnVvYtbuY9/MGV5/6Rzn3+3RvbeNTXukKYhPMWTRUaMedt/w1GL1cWOcNy96oI1GA0YjB1KgpsAkgVHRwzRg781zZF0YDIfRA1Dh9Rc3OP7q00guzDUSds7sZHOtx6CvHL7tAIs7WgRZY8/+jEYXfBiiQfAFlPmKSNKEzCSlb4YhuECe58wuwIGbF/F2g/k9TRozgAqjXs7WEO59eCfpYsA3Ntl9oEl3HnK/iZeCc+dP89Jz7+KWBb+mFJegky5gtEmRBxozsLC3jSY9du1tQwtGzlBoQDKHU8gajhA2UQZYG2LgrtjoFadg8BgTKNyI5gLsunUX0swx+YBiOIIRHPnVuxx56TWKoWOuCXsWbkVDE2NSjBSIJkhoEhwEB1liuLh8hjdeOMrKWWV9LbB5AcztswRtk4dAcw52H+ri7DozC8K+PYbN9R55keNDdCNXVYpBDiN49cVzLB39DowcnRT2LNyM9S3E5/hiQEhzPvPoI4yWjvDUt9/kV68c54kvHebhh29j5FeRZIugG4gZEYqcwabnwEHYd9NuttwarVnYf9Msp88sUYxGqBVsAjv2tGnNWTb8FiHp88axIxx55iL5prK64SGHom+Y2b3AXAeOH13nn//x2xx79U080JmdoRg68k0Y5fCLp15A3MsMeyNmd0AnaUZXzsRgEspnMsTkwFp7BN7oXFWsYsmDSczD9Uv9BG8nxsqYMrB2rtthpptgE8VksawGWlAEKBjiGBB0GF2xLTz2mXuYnd2BdQ1m23PM7U/ocZFEwA0LXLFFI1O8XyUmYAhYyeLUXz6iyB2ZTcg0JfTA5AkZDaymFIVjFPqMUseWu0ThwaihaTukKaz318nNFt12wrBYwecw251h+dIq3/necXqXPH/1xcdhNeH80o/wQ4sNTQgJwUDfb5DYLqNiCwoQ08appZ8PUAMmzXFsYbIC0uhUoYEy6W3poh/AakLwMU7LMSRoHwpDJh0ee+TL2NlNnBvRaXXYdWAXhJR86LAWEhJMsPgcZjpzrF7c4IdPvs7SKc/XvnQXabKT73z7Z6hrYGgTMBQecl2DbJ1EIPQCWQuMU8RDKMBiKEYKTXjskcc5tGeewdYyzbkuc3vnaWQe74dkaYb3OXffczt7uzfzy2eP8rNfvsCT//gqt928j1bWosiVYb5KmjlsYbEjGG6BU4WkwMkahVtDHaQYpIjrCUEKRqGHNzmvvfoW3/7meW7eq3z285/h1JkVfvbTN0npkG8pvVUoesqxN0/gFX7/a5/g4O37uPjuOZIC9u7PeOyLXyTkYBDaOy2dXYb13hrBOgoPiTFYkxBTBweoU2/foMTBtdGrhp5X8Thh6vfr9admjEoZySoUeU6rndHpRA+3fDhCPVgsSQYhKwhmQJZBo5FBDrajPPD4Ye57/BYGjXP09AILi00WFuD4sYucPnWC5aULPPfM6/RWIEsy0iRhYXEHW+fhwumLnD+xzM9/8gyDIbTbTXzhSJMGNgWfBYZJH9NypP9/e+f6I8l1Hfbfubequntmet7v2dkn98VdPmSKT1EMRcqMLYiO8yWAEwTIH2EgX/PVARIgXxIggG19YgIbsRMnsSI4kKBHYpswLUqySZGUV1ySu8t9zrNfVffekw+3qrtnZme5S5E0R9kzaDSmq27VqVPnntc995waqBRMTE4wNgJvv3mLW1dv8d6Fi/zory7QXoNGNsrWRs7WDc/yoTov/vqLTMxnaAqOnMLlZFlC1gCf5RTaA/GQQlAPVkjrddpduHr1Fq1Oj17heO+9S3zvu6/x/geXSNIELasmWJNgxJIZaCSW4HskDcvU/BROC0YmhMe+fIoHn1omm2+z7a5gTJt6lsYEDQ1kaWzrUavV2LjZ4/K7nsVF+NWXX2Lp8BROFKSFSMFIvUZrHX78wx9y6+qHXLxwkWuXYXVxgUY6Qt0IDQOpgYXFRcghqxsefeYsDz57mNpCF1dbw5ktXOiSpgmI5UdvvMp2uMLX/9E/4IkvPMT2+57edkJqJum04crlG2ysb1LkjoXZUW5dg9defZVQFFy9dJkf/+gmGJiamkQ1xHdHlySLGZPXLnbIPww8/+yv89SzX0CTbchimnprO6e9AZlCrzDISJOJhUlM3TE6WaMxCdsuZ/H4DE+++BBLZ8bI6xsUWQdnPGvrW2iAWpYiImV7FEGD9j/34YCASl8midhYAKDcu1ie0P98RBjwl0HY3/esdkBZRVVF6eQ9GqllYrLJjZvXWbu5ztTqBEXuyNvQ1RZqeqh2OfXACd5+6BbffOUtvvv9C4iFzmXHs78xxVeef4YXn3+CP/zGq/yn3/9LpqYNm2uORCFvd0EDJ4+d5s+/f5n/9R8v8IPVd8kvF9QyKHoFDVvDdQo6LXAhxxsPqdLZgO3tNrWsxnPP/Ap/9J//mt/7d98hqYPZ8qRAe73NwtkVDh9q8v4b2/yb3/kPbHywTr4GVjJSm7G1scXaBuTaQSVBCLANvY6SJBmrR1YJ3/45f/a77/Czr17gha89ztWLLV77gwJevsqZU+fptG9iEwMO8nZObwtqAr28S6gpTzzzKGsXLK/87n9l4nuGtg8UrcBLXz/BscOrdNs5AmS2huvkhBZsb25z/ORZzhyb5m//5hb/9l//Hjev5rTehca5EVweaG910Da8+VqXi299n86HyuxCnae/9CIE6GwqoQvddpsXf/V5rl3873zzv/wffvCDV9G6p90JfOXlZR55/BQhhLhmxQivv3aBv3v9IocX/5qr7+c8cHqBqYllpFswPpLxk2/nXL3+bX7j177Ic8+/wPX17/Lat97hw3ff5eZNTx6UF796jvmlZX764SU6XVDj6RYdSJUzJ87x7uQ2f/LK/+bPvmX54M1e3C6RG6YX5pioweYt6HUSbmxv8dYrr/OzC+/w8j/8Gi/82lP8wSt/wb//nT9iYsGwcdMzshz4x7/1JOoM1y9vkijMz8zgiiJWJ+H+TP/Y8GmK+Lt6KcM1PcvFR5WhIzHKZ3/7X/72v7LW0ups8/6HP2ejuEyob+Elj5sqq52cB/5zH6CkhCiBAoxhZuQol362wdvvXOPosSmOHF6k3d1iYj7jxMmTNEYg+C3GGzMcXT5LvT5CxhhzU0scP3OIM+dPMjJqmZucZ2FqlkaWsDy/zDNPPcaJE1MsH51lbDJlYnyG+alkOX0TAAAS1ElEQVRZJC04vrrKM48/xpnTR1hanWJ0MsUYy/LyPKtHpzC2h/YymmMNThxbZWZqjMnmHLPTc9TTGsdWDvPsU49y5MQIMytN5pdnmRmfp25GaTDG+Qcf4fi5VQ6fPMrc3CTWeuZXM5aPLFAzhoyEbCThgRMP0hy31BqOybEmjZFRlg/Ns3Jogde/+ybrVwLPPP0wSyuzFK5FlibQqZPoKCsrcywdmUXqjkK6zIxPszQ7x1hzjJFsmrnJSY4dn+fBB8+Q1g1plrCyssrS/BwjjZR0fJ2Vo4eYm5piaXqeibFxCJOcO/0wZ84f5tjpI8wuTuF94MiRBc6fPseIHefQ6irPvPAsCydn6dkWSZKysrzA/KFpxmcbLM8uMz0ySxoaLE4uc/TEAsfPnqAxXiNIAQEyrTORzNKUBjWZ4ciR0zzx3MOMzxvqmTDTnCQdg4X5ZVaPH2FmaYrFhUXGRjMyqbOyuMDTX/oVzn/hHI2GxbkOo1PK8rGjjM40KEKHpekZFsbHUWdZnHuAM4+c4sjZJc6dO8XPfvpT3nnrA77y/HO89NJLnDlzmtd/+BpX3sg598gxTp07wUi9wUR9lsn6PCvzC5w9c4hzZ0/QW8/58+/8LTaFJ599HKk7gmmjmg/KfiGDosb34Y5QtbD5tP7iTe6IQf+EQcFkQYwh5MJkssyJhYcYG5lCrty8ommWcu3mVf7vD7/De62/wk1eopCtWBOO/boJff4hsm4Med2HCGWJVZzkgGVWT3DlJy1+/xt/yqmHJvmn//xrtIqrBKmDHQHZxLBNGsZJihmMn8EXTYJNyG2XkFyF5Aa1kJLmTaybRHQMY3s4XcelG7g0J9Emko8TfIoxCVbBkKPJJs5u4oMhkBHSTZzZAt/E+ims9LCmB8UIJswgbhwJKZJtknOVkHTACsZPYotpbKhhMHRNj8J2saYLuk0n2aZICuqakLkM70YxtkkwayBb2Hwe6c2RjbX48Tvf44+/8WO+eOphvv7Pvsx2dpEiWQMcNTdFms8gagnW0Uvb5KZNIwj1vEFSrKJugWACIdmmsLfwdgMhQX1Cpp408bRDB58INZ/ScKOIm0HDZAyDSJfc3EKybdQriW+QhGnUNcltTi9r4dJbBLOOcYZM63jbxtuCWm+Sej6HdZMoNXq1NdrZNXJ7A7UtLJ7MZ9R7c2T5DGiTYIReeoM8uUGmSs3VCL6JMobLtnBmjYavkfZGIYyhpkEvaVNkGyRsY7SDU4OThCLtUEibcV9jtNckKVawLNEzXbTeJU2Eb/2PP+Wb/+11nn7qCzz+5GNcX7/K//zjbzE+Mslv/osvs3hyBG2P0nBLmJCBCXTNJUZmCl77wU/4kz/8Cx558iTPvfw0RbJGT9ZQ7WFUqEpW3W8hcrcQ5cEnBXup/hHOQiyqGc8qa0WKCtYkFC3hSP2LfPWh32J55lgVBqzCfQPNFuviSFX46xN7mM8SKta9D0Oglc1jQQzd4iYrx6Z49LFpeg5ubaxTa0IIHcBjJEcBZ9qE1IPZgKyOF0uBI9guarqo6VFoD5tsYzSN9dykh7d5XBAPXWy6TkgtgQTRNG7yM23UtsqafRZMLOEjdAh4nHiM8WB6qG+TpnWMpjjaFLaN2NgdV6SHyCaWBBScKN56jHjQHGcKnPHkeFBHkA4qa2C7oD1MaoAuaRoYTXOeeHqehx48Sah36eWtmLquHtUOuVmLtRJNwAdHUEdPPc60MdYhdgNFcORgOqhp4z2IsXgDHe8i7dTiJSGXHsZuQpLhVQiikHRBurH0FBZrriFJHSdKLjlKl0AbKwbVJNYs9IoXR5G2MEkGWApp4+lAyEELPI4eHQrbI6mtIVoHErx0CHQJEsitIGYD1RSVAkeOJyFJtxHWUSy5tAnawUgBFHHdiKQM4xZsaw8nPZKkQMINQhZQ60nDCA+cO8r5S9f4u4tvcuGDN/EaWDw0ydNPfonp+VF6/gZJtkk32Yr1HEUpZJtuz3F9+zqrp+Y4/chJQtIjD23U5MRQ0bDMug93Awpl/c8I90q63eN01xGzo73N3mCtMIh+VaqmX9OyXFuvqhX316xiIU0PEjuqKkrob4o8eDAc8YQqsfFOT7L3NQ1aYtzbuM8nxSKelZ+pwSDWotImG0v48guP0GoJNoVgA5gcI1EIBAkE6YJpgS2ry4lFxZZCypBLzCa0CkalPAbexEw6awqCDTggSCzCKqVyUsmpWsz38TRtRDoEhEIEpI1axQXBqsUbxRnXfzK120hiQRWDwYuU/afKlvTEqutehcKC2h4qRQx1qy1rCG5ic8exIzOcOHKanAab+YdI2gMCRhK8LfB2E1WHiEeIae3eFLjEIbaL6CaKLQvIFqgUqOmX60WslLmFhgLBGxA8noJgEgIWI4qp5iS+LCIc36AaS5CirO5uKNSiJCiGYLsUYY2y/nppsYIhKQV/iF617dELGxgsojE9XwBXzv9+Io6JpdOdFXwoiwET16cwBYUGUDD9kusBQ8BZaJseNnQQLMEGgkDmmywcneU3/8kLXHr3GteuXma0WefI4QeYW5inba6Qmy0KctSAl9jF2YigXjhydoUHTp6nMZnEDEnpYnCA7Ehevq+vhmFYHg0kY8xjCJhk57HBmN0OzO2ut/OYDv0mIpQ1r2NTUwatZfpNX8WjOFQgSDVTQU2gEIPXItogqiRgEIl9dkQ84EA8QaK2jQL74Oy4q8g7EH0DDv7o6mG3I/q9jft8J6UM+kslZfaUMYaO7zC5OM5MMko736QQHx3roUzQfki17JsRaeJJUGKvKxm0Wa94B4OoYiR22e0n/uAQfOyeO6ymtApJCKJSKj2DqhDQaEiZsnEhgUSroCZlIEDLgELZ1r6qZC4xudko2KpSeDVby4XcQMwM7IWcxFq838BpB1NzeIookDXO6thSvnrPLra5QEBTKDP+pE+7gNH4lP3ziLXcqToHixJEo7IpaRif3/ZRDMb3f7eqpVrQEh8T7yax+n2suD7AIZTqWkuFraRRVUpUMmW7TSjVaZ8spZMiWtasLwVKENDynVpMrJauQqyeKKiavvDxViJ1NcTeabToekdjYoKHHluiXj+J845Wr8VW8R7etijweJQgJaXUxNYwRphfbmJ9Qu47OHpEaVip5d2z/z7cXh4NPBkNhiIvSjpLn08HWeCRO6pJplJRuZQB1eY2qUaU0lJjJCKrpRgpuxGUxaGVsjqMKkFdueFe+9ep1KnYDGsNVoVELImIRVWwVmKtsW4oJ6MjsmNSfg5OUG2nK1rZgvcK9/q8B4M+fVtJIxM6PGo8bX8T9WvERkyRZtKvtTZg0tj3aNAWBBKqZnwKePEEIg+FKMqgVElB4pGqO3HlXURVovRb95bZigE/UJLlHbwEgvj+wnDF2nGSRZ41Q/gMBypMdX41Gfs7SQUxHh88JoOeOoL1KB2COKK3kPavS0mDSjlrRaPyOVTLsBQ6mHiV0i87A4uasu5gWQldKBVVmdSkNn4q2kvs72S1Uh4hKg8GRoKUVmvEx5VWqjDwp/sBliF6h36/qj5I9VQRl2otKIZ2IUh5frRT+u+gUhKC4KlwLga90FQgcRShQ/BtWp3raCshGAPWEdK85JGSjyRgtFKn0aBoFzeQYDAmvkcjAbDlQw8Z1Z//qfgZwO1dzOiYWAiGzIxw/NBhxmrjqDdlZfyKd4fnZyjfJwyM3lKVlaFrX77noHGOqvFcuf5zNlvXy3Y95eghh03UkkjanymVUjSkqNRpZk0yMQTnSTQozgVqtQYz07O81x6jF1KMJGWIRGK45sDBQFGpDncRHQi4nXCb37TyqSrqftS4YQvv8wYD4en7IRsAiyeGpvqCP0Qreff4GN82/f8rH2FAp9KbGqJ2NBNKYalmB7Xisdt5s+BLgVd5J1FiJ/2zh82PvkNHRf1KAewMY6hWYro8c5ivozNJAHKI3iIaJ40qHjPwZKpYug78zmFLfvi5ZPfzVXJ7N99o9UYGfOr7xxIE2ze6fEXTyv3ZcZeK/0pFN4QLQ79U4wbqcuioVoKqwiN6yIgdwjPiqqXC2nP/8jztC6nB/bwmqDGYLD5NbKkZ0GD6odvK64ue3dDVRRCr+DL8uCNMpQMO+P8XKkOk/Fd3v++BQYg3TKQznF15gunRBdSVykpdnNdi8WoImNjUtOS/fvxCFauRMx0eLwEby6kQTE5utmhtrLO9dR2bCd6FPXhkOsYDS+dYnFvC5Q4x0XkykiJ5jeXaSWamZjEkcTW6yHs0amNMTyxQvzJJy4+RJgU522Bi87ODBqoxbOHLpm8D8baf0tn3StxZWR0UGIhVdnxATOW8a1QotvR09oDchhp+17nD6mRv+GGYgpUhIEP/V6KmCkUNUmthWJzvxmNYVVSW4Y4N7yogu4NDwyK2CpkxCGeiiJZrT/sKQGGnKN6dXfVRfBMV305Vp6WZZUrbtnKXhGpNOV6zUv6771fhMTi2F4NhobGXkgMzbS+FdxgcQWN8tYT+larQ4Y7rl+FKU/4mAx4RNaUVv4MD4rWGje7KeJG9HuPBnp+fNCi3mylaRgQMCalJsVojzZtk6RR4i4gnSB49LyyuVFbiS1NuKOynEkPcBsUYYoQuJFgPuWlBErBqkdShpiBUXjCm5AFLyixLzVMcnz5J0XbYfvfsGhSWyWyOen0UX6QkRmLjNO8DU+PLHFt5mK331nG9nCQt0CTH0S27g9sDVYZfkbLbrJZ4D0+ECMP7MUx/ISNCuMO4YaiuYURimarq/ndJq2EcPn36Vkpp2JMaiLZINXfH0dX33YmG/el251HS99gG3kAYOr4fHpWi2n3bvktzR7wH4yrRGBDd31jrG/f7Xnd/JRc/ty8RVIXh9lBPhwXQL2JE7sbro/C8w+HbXUm0bxrtVGVDAzW57ZHKUIlnKbt77u30+ncbYfchwm7OGTbgot8cgkeSknFNwHtP7ra5sXklBvFtGjtge2G0NsHMxDxGFUxgo73OeusGxsZGm64IBGdYmlih2RiPncNFUQMuxNC4NYY4lQYbfzXEWpm4Blp4xMdC19bUqNkGNTuG9xYRS1KFcQxCPZ3ixOFHCZnnnUt/yUZP6RVrMfOIyvo8IKBli+z+ovvwfqthZbUz3DXshZnyuOrecYPxOyeJuYNg2w+GcdCPMf4u71Ldofzevf9sEC64k2rZLSY+Gj6eUO2vL+2Dz/54xPvF47uFl97m/AqGfbfhs4aDmneDx+0E5n5PsL9wvfPz3Y0BcDeCe7eqv3c897+7lokm7FAkAx/y9solhm8Ha5uiO0OshmqttLpG+U7FlGvs9yHC8LwbzP1I9dgJW4oEDSlG6wSXkKaG9e1r/ORvXmd6fpbmxDQfXr3CxsYGq7MnWDi/TAgOY+CDK+/y1sU3qNdSzp96kPVbW1y9fIv6Aw2mV2fpFQmJqSOuhhY1jDVlEo4FEoJXjCRobum2HJ1tR28zp24t9XSE8eY0I/UJMhu3VoCQUA4WUUQLxhpjnDp+jompBpeuvk27tx53vt+DLf15gMEycsxK+Wjch+Pde1ZEfglB+HRj/JW78fE8q8E1uEs8P4n7fZZwr/T/+3q+j4fnIAS4+1j1fXslGMNUZfYke1Wa7OPBVnf89Pj5oMDd8Ykg4BKm0lXG68s0amOoFoykU5xZfYTTDz5EkJSx7B0u2YvMTaxQt2MEE7A1Yaq5xOxEi0Nzi5xaOEu2kvHh3HVCYall4zi11NJRlsfPYEwKlOtgZQ1AFSV4IQ2jtLZavL35BjWpM5I2WZhZJij08oLc+3J7hSDXbq7HDHYCKjmF6VAkbcR62u0NnM9BHAdPWZXYqsZWAnc/gr3K6peR+T+rsMkvKlzvFc8DpKw+Fv3/HpTVx/Ssbo/n0PrS7Xp6SOivqyh7ldP+mFTK6j5E+Gg+ESwpE0w3V7CJIWiOy9t0tjcZbU5h0jqOLptbN0i1wfz4UtzSlATW2mvc3LjB8uQiY3YEEDY2NqnVGjRGmxS+QCxcXnuXHluww/SQmMkaFFFDIknsrpA1GKuPY6ljqePzuE8r7gFUEqVqNKSAx6iQ+AxcYCKZR7Io7HeHuw4CqIZyHepu4ZdVMe0Hn5Wy+kXhXpXVQYGPq6w+a/ik8ZT9T4kW5u7VrbuEgyWfPl24Pf0HLodAEAw1GukYxgoh1NCsgdTqZNTJbAOx49RGRgkesnQMHzwaAk1jqDebNOtNrFpCCNRrlnq9EZWPrYEoU/VlgjiUMBSNFIKGqIS0zCb2SppmjGSjQFRgBY52q9OPiSdI3CFfoo9Vi/EGI/FbhhnrAPHCQRJZ9+E+3Ie9cL+h4qcDWlZ5qWS6DVncHK4J3nvEBVRqJGkddZA4wQdPKJKyiSgEb0gZJXE1fFA63Q4uTyCrxeo0PmCNkOZxCSbu0dq7di2ABsWHQCIpxjei7LYCwUVnQwRV5f8BALgXFtlSEpAAAAAASUVORK5CYII=;" vertex="1" parent="1">
          <mxGeometry x="440" y="183.5" width="427" height="307" as="geometry" />
        </mxCell>
        <mxCell id="pCphS5BoQxUUH24VesHs-5" value="" style="shape=flexArrow;endArrow=classic;html=1;rounded=0;" edge="1" parent="1">
          <mxGeometry width="50" height="50" relative="1" as="geometry">
            <mxPoint x="350" y="336.5" as="sourcePoint" />
            <mxPoint x="426" y="336.5" as="targetPoint" />
          </mxGeometry>
        </mxCell>
      </root>
    </mxGraphModel>
  </diagram>
</mxfile>
